<?xml version="1.0" encoding="UTF-8" standalone="no"?><svg xmlns="http://www.w3.org/2000/svg" xmlns:xlink="http://www.w3.org/1999/xlink" contentScriptType="application/ecmascript" contentStyleType="text/css" height="374px" preserveAspectRatio="none" style="width:329px;height:374px;" version="1.1" viewBox="0 0 329 374" width="329px" zoomAndPan="magnify"><defs><filter height="300%" id="f1ww2y153r31s5" width="300%" x="-1" y="-1"><feGaussianBlur result="blurOut" stdDeviation="2.0"/><feColorMatrix in="blurOut" result="blurOut2" type="matrix" values="0 0 0 0 0 0 0 0 0 0 0 0 0 0 0 0 0 0 .4 0"/><feOffset dx="4.0" dy="4.0" in="blurOut2" result="blurOut3"/><feBlend in="SourceGraphic" in2="blurOut3" mode="normal"/></filter></defs><g><ellipse cx="148" cy="20" fill="#000000" filter="url(#f1ww2y153r31s5)" rx="10" ry="10" style="stroke: none; stroke-width: 1.0;"/><polygon fill="#FEFECE" filter="url(#f1ww2y153r31s5)" points="54,50,242,50,254,62,242,74,54,74,42,62,54,50" style="stroke: #A80036; stroke-width: 1.5;"/><text fill="#000000" font-family="sans-serif" font-size="11" lengthAdjust="spacingAndGlyphs" textLength="188" x="54" y="65.8081">current user is not authenticated</text><text fill="#000000" font-family="sans-serif" font-size="11" lengthAdjust="spacingAndGlyphs" textLength="20" x="254" y="59.4058">yes</text><ellipse cx="294" cy="62" fill="none" filter="url(#f1ww2y153r31s5)" rx="10" ry="10" style="stroke: #000000; stroke-width: 1.0;"/><ellipse cx="294.5" cy="62.5" fill="#000000" filter="url(#f1ww2y153r31s5)" rx="6" ry="6" style="stroke: none; stroke-width: 1.0;"/><rect fill="#FEFECE" filter="url(#f1ww2y153r31s5)" height="33.9688" rx="12.5" ry="12.5" style="stroke: #A80036; stroke-width: 1.5;" width="213" x="41.5" y="94"/><text fill="#000000" font-family="sans-serif" font-size="12" lengthAdjust="spacingAndGlyphs" textLength="193" x="51.5" y="115.1387">extract project ID from request</text><polygon fill="#FEFECE" filter="url(#f1ww2y153r31s5)" points="51.5,147.9688,244.5,147.9688,256.5,159.9688,244.5,171.9688,51.5,171.9688,39.5,159.9688,51.5,147.9688" style="stroke: #A80036; stroke-width: 1.5;"/><text fill="#000000" font-family="sans-serif" font-size="11" lengthAdjust="spacingAndGlyphs" textLength="193" x="51.5" y="163.7769">requested project does not exists</text><text fill="#000000" font-family="sans-serif" font-size="11" lengthAdjust="spacingAndGlyphs" textLength="20" x="256.5" y="157.3745">yes</text><ellipse cx="296.5" cy="159.9688" fill="none" filter="url(#f1ww2y153r31s5)" rx="10" ry="10" style="stroke: #000000; stroke-width: 1.0;"/><ellipse cx="297" cy="160.4688" fill="#000000" filter="url(#f1ww2y153r31s5)" rx="6" ry="6" style="stroke: none; stroke-width: 1.0;"/><polygon fill="#FEFECE" filter="url(#f1ww2y153r31s5)" points="39.5,191.9688,256.5,191.9688,268.5,203.9688,256.5,215.9688,39.5,215.9688,27.5,203.9688,39.5,191.9688" style="stroke: #A80036; stroke-width: 1.5;"/><text fill="#000000" font-family="sans-serif" font-size="11" lengthAdjust="spacingAndGlyphs" textLength="217" x="39.5" y="207.7769">current user is not member of project</text><text fill="#000000" font-family="sans-serif" font-size="11" lengthAdjust="spacingAndGlyphs" textLength="20" x="268.5" y="201.3745">yes</text><ellipse cx="308.5" cy="203.9688" fill="none" filter="url(#f1ww2y153r31s5)" rx="10" ry="10" style="stroke: #000000; stroke-width: 1.0;"/><ellipse cx="309" cy="204.4688" fill="#000000" filter="url(#f1ww2y153r31s5)" rx="6" ry="6" style="stroke: none; stroke-width: 1.0;"/><rect fill="#FEFECE" filter="url(#f1ww2y153r31s5)" height="33.9688" rx="12.5" ry="12.5" style="stroke: #A80036; stroke-width: 1.5;" width="276" x="10" y="235.9688"/><text fill="#000000" font-family="sans-serif" font-size="12" lengthAdjust="spacingAndGlyphs" textLength="256" x="20" y="257.1074">retrieve project basic info from database</text><rect fill="#FEFECE" filter="url(#f1ww2y153r31s5)" height="33.9688" rx="12.5" ry="12.5" style="stroke: #A80036; stroke-width: 1.5;" width="238" x="29" y="289.9375"/><text fill="#000000" font-family="sans-serif" font-size="12" lengthAdjust="spacingAndGlyphs" textLength="218" x="39" y="311.0762">respond with rendered project info</text><ellipse cx="148" cy="353.9063" fill="none" filter="url(#f1ww2y153r31s5)" rx="10" ry="10" style="stroke: #000000; stroke-width: 1.0;"/><ellipse cx="148.5" cy="354.4063" fill="#000000" filter="url(#f1ww2y153r31s5)" rx="6" ry="6" style="stroke: none; stroke-width: 1.0;"/><line style="stroke: #A80036; stroke-width: 1.5;" x1="148" x2="148" y1="74" y2="94"/><polygon fill="#A80036" points="144,84,148,94,152,84,148,88" style="stroke: #A80036; stroke-width: 1.0;"/><line style="stroke: #A80036; stroke-width: 1.5;" x1="254" x2="284" y1="62" y2="62"/><polygon fill="#A80036" points="274,58,284,62,274,66,278,62" style="stroke: #A80036; stroke-width: 1.0;"/><line style="stroke: #A80036; stroke-width: 1.5;" x1="148" x2="148" y1="30" y2="50"/><polygon fill="#A80036" points="144,40,148,50,152,40,148,44" style="stroke: #A80036; stroke-width: 1.0;"/><line style="stroke: #A80036; stroke-width: 1.5;" x1="148" x2="148" y1="171.9688" y2="191.9688"/><polygon fill="#A80036" points="144,181.9688,148,191.9688,152,181.9688,148,185.9688" style="stroke: #A80036; stroke-width: 1.0;"/><line style="stroke: #A80036; stroke-width: 1.5;" x1="256.5" x2="286.5" y1="159.9688" y2="159.9688"/><polygon fill="#A80036" points="276.5,155.9688,286.5,159.9688,276.5,163.9688,280.5,159.9688" style="stroke: #A80036; stroke-width: 1.0;"/><line style="stroke: #A80036; stroke-width: 1.5;" x1="148" x2="148" y1="127.9688" y2="147.9688"/><polygon fill="#A80036" points="144,137.9688,148,147.9688,152,137.9688,148,141.9688" style="stroke: #A80036; stroke-width: 1.0;"/><line style="stroke: #A80036; stroke-width: 1.5;" x1="148" x2="148" y1="215.9688" y2="235.9688"/><polygon fill="#A80036" points="144,225.9688,148,235.9688,152,225.9688,148,229.9688" style="stroke: #A80036; stroke-width: 1.0;"/><line style="stroke: #A80036; stroke-width: 1.5;" x1="268.5" x2="298.5" y1="203.9688" y2="203.9688"/><polygon fill="#A80036" points="288.5,199.9688,298.5,203.9688,288.5,207.9688,292.5,203.9688" style="stroke: #A80036; stroke-width: 1.0;"/><line style="stroke: #A80036; stroke-width: 1.5;" x1="148" x2="148" y1="269.9375" y2="289.9375"/><polygon fill="#A80036" points="144,279.9375,148,289.9375,152,279.9375,148,283.9375" style="stroke: #A80036; stroke-width: 1.0;"/><line style="stroke: #A80036; stroke-width: 1.5;" x1="148" x2="148" y1="323.9063" y2="343.9063"/><polygon fill="#A80036" points="144,333.9063,148,343.9063,152,333.9063,148,337.9063" style="stroke: #A80036; stroke-width: 1.0;"/><!--
@startuml
start
if (current user is not authenticated) then (yes)
  stop
endif
:extract project ID from request;
if (requested project does not exists) then (yes)
  stop
endif
if (current user is not member of project) then (yes)
  stop
endif
:retrieve project basic info from database;
:respond with rendered project info;
stop
@enduml

PlantUML version 1.2018.13(Mon Nov 26 17:11:51 UTC 2018)
(GPL source distribution)
Java Runtime: OpenJDK Runtime Environment
JVM: OpenJDK 64-Bit Server VM
Java Version: 11.0.10+9
Operating System: Linux
OS Version: 5.4.0-1036-azure
Default Encoding: UTF-8
Language: en
Country: null
--></g></svg>