<?xml version="1.0" encoding="UTF-8" standalone="no"?><svg xmlns="http://www.w3.org/2000/svg" xmlns:xlink="http://www.w3.org/1999/xlink" contentScriptType="application/ecmascript" contentStyleType="text/css" height="293px" preserveAspectRatio="none" style="width:659px;height:293px;" version="1.1" viewBox="0 0 659 293" width="659px" zoomAndPan="magnify"><defs><filter height="300%" id="f1x77vzhxj6d2v" width="300%" x="-1" y="-1"><feGaussianBlur result="blurOut" stdDeviation="2.0"/><feColorMatrix in="blurOut" result="blurOut2" type="matrix" values="0 0 0 0 0 0 0 0 0 0 0 0 0 0 0 0 0 0 .4 0"/><feOffset dx="4.0" dy="4.0" in="blurOut2" result="blurOut3"/><feBlend in="SourceGraphic" in2="blurOut3" mode="normal"/></filter></defs><g><rect fill="#FFFFFF" filter="url(#f1x77vzhxj6d2v)" height="145.6641" style="stroke: #A80036; stroke-width: 1.0;" width="10" x="368.5" y="117.4297"/><rect fill="#FFFFFF" filter="url(#f1x77vzhxj6d2v)" height="29.1328" style="stroke: #A80036; stroke-width: 1.0;" width="10" x="552.5" y="146.5625"/><rect fill="#FFFFFF" filter="url(#f1x77vzhxj6d2v)" height="29.1328" style="stroke: #A80036; stroke-width: 1.0;" width="10" x="626.5" y="204.8281"/><line style="stroke: #A80036; stroke-width: 1.0; stroke-dasharray: 5.0,5.0;" x1="29" x2="29" y1="86.2969" y2="281.0938"/><line style="stroke: #A80036; stroke-width: 1.0; stroke-dasharray: 5.0,5.0;" x1="373.5" x2="373.5" y1="86.2969" y2="281.0938"/><line style="stroke: #A80036; stroke-width: 1.0; stroke-dasharray: 5.0,5.0;" x1="557" x2="557" y1="86.2969" y2="281.0938"/><line style="stroke: #A80036; stroke-width: 1.0; stroke-dasharray: 5.0,5.0;" x1="631" x2="631" y1="86.2969" y2="281.0938"/><text fill="#000000" font-family="sans-serif" font-size="14" lengthAdjust="spacingAndGlyphs" text-decoration="underline" textLength="37" x="8" y="82.9951">:User</text><line style="stroke: #000000; stroke-width: 1.0;" x1="8" x2="45" y1="84.9951" y2="84.9951"/><ellipse cx="29.5" cy="13" fill="#FEFECE" filter="url(#f1x77vzhxj6d2v)" rx="8" ry="8" style="stroke: #A80036; stroke-width: 2.0;"/><path d="M29.5,21 L29.5,48 M16.5,29 L42.5,29 M29.5,48 L16.5,63 M29.5,48 L42.5,63 " fill="none" filter="url(#f1x77vzhxj6d2v)" style="stroke: #A80036; stroke-width: 2.0;"/><text fill="#000000" font-family="sans-serif" font-size="14" lengthAdjust="spacingAndGlyphs" text-decoration="underline" textLength="124" x="308.5" y="82.9951">:Project Controller</text><line style="stroke: #000000; stroke-width: 1.0;" x1="308.5" x2="432.5" y1="84.9951" y2="84.9951"/><ellipse cx="373.5" cy="54" fill="#FEFECE" filter="url(#f1x77vzhxj6d2v)" rx="12" ry="12" style="stroke: #A80036; stroke-width: 2.0;"/><polygon fill="#A80036" points="369.5,42,375.5,37,373.5,42,375.5,47,369.5,42" style="stroke: #A80036; stroke-width: 1.0;"/><text fill="#000000" font-family="sans-serif" font-size="14" lengthAdjust="spacingAndGlyphs" text-decoration="underline" textLength="79" x="515" y="82.9951">:quart_auth</text><line style="stroke: #000000; stroke-width: 1.0;" x1="515" x2="594" y1="84.9951" y2="84.9951"/><ellipse cx="557.5" cy="54" fill="#FEFECE" filter="url(#f1x77vzhxj6d2v)" rx="12" ry="12" style="stroke: #A80036; stroke-width: 2.0;"/><line style="stroke: #A80036; stroke-width: 2.0;" x1="545.5" x2="569.5" y1="68" y2="68"/><text fill="#000000" font-family="sans-serif" font-size="14" lengthAdjust="spacingAndGlyphs" text-decoration="underline" textLength="37" x="610" y="82.9951">:User</text><line style="stroke: #000000; stroke-width: 1.0;" x1="610" x2="647" y1="84.9951" y2="84.9951"/><ellipse cx="631.5" cy="54" fill="#FEFECE" filter="url(#f1x77vzhxj6d2v)" rx="12" ry="12" style="stroke: #A80036; stroke-width: 2.0;"/><line style="stroke: #A80036; stroke-width: 2.0;" x1="619.5" x2="643.5" y1="68" y2="68"/><rect fill="#FFFFFF" filter="url(#f1x77vzhxj6d2v)" height="145.6641" style="stroke: #A80036; stroke-width: 1.0;" width="10" x="368.5" y="117.4297"/><rect fill="#FFFFFF" filter="url(#f1x77vzhxj6d2v)" height="29.1328" style="stroke: #A80036; stroke-width: 1.0;" width="10" x="552.5" y="146.5625"/><rect fill="#FFFFFF" filter="url(#f1x77vzhxj6d2v)" height="29.1328" style="stroke: #A80036; stroke-width: 1.0;" width="10" x="626.5" y="204.8281"/><polygon fill="#A80036" points="356.5,113.4297,366.5,117.4297,356.5,121.4297,360.5,117.4297" style="stroke: #A80036; stroke-width: 1.0;"/><line style="stroke: #A80036; stroke-width: 1.0;" x1="29.5" x2="362.5" y1="117.4297" y2="117.4297"/><text fill="#000000" font-family="sans-serif" font-size="13" lengthAdjust="spacingAndGlyphs" textLength="175" x="36.5" y="112.3638">// request creating project()</text><polygon fill="#A80036" points="540.5,142.5625,550.5,146.5625,540.5,150.5625,544.5,146.5625" style="stroke: #A80036; stroke-width: 1.0;"/><line style="stroke: #A80036; stroke-width: 1.0;" x1="378.5" x2="546.5" y1="146.5625" y2="146.5625"/><text fill="#000000" font-family="sans-serif" font-size="13" lengthAdjust="spacingAndGlyphs" textLength="155" x="385.5" y="141.4966">// check authentication()</text><polygon fill="#A80036" points="389.5,171.6953,379.5,175.6953,389.5,179.6953,385.5,175.6953" style="stroke: #A80036; stroke-width: 1.0;"/><line style="stroke: #A80036; stroke-width: 1.0; stroke-dasharray: 2.0,2.0;" x1="383.5" x2="556.5" y1="175.6953" y2="175.6953"/><text fill="#000000" font-family="sans-serif" font-size="13" lengthAdjust="spacingAndGlyphs" textLength="89" x="395.5" y="170.6294">authenticated</text><polygon fill="#A80036" points="614.5,200.8281,624.5,204.8281,614.5,208.8281,618.5,204.8281" style="stroke: #A80036; stroke-width: 1.0;"/><line style="stroke: #A80036; stroke-width: 1.0;" x1="378.5" x2="620.5" y1="204.8281" y2="204.8281"/><text fill="#000000" font-family="sans-serif" font-size="13" lengthAdjust="spacingAndGlyphs" textLength="129" x="385.5" y="199.7622">// check user's role()</text><polygon fill="#A80036" points="389.5,229.9609,379.5,233.9609,389.5,237.9609,385.5,233.9609" style="stroke: #A80036; stroke-width: 1.0;"/><line style="stroke: #A80036; stroke-width: 1.0; stroke-dasharray: 2.0,2.0;" x1="383.5" x2="630.5" y1="233.9609" y2="233.9609"/><text fill="#000000" font-family="sans-serif" font-size="13" lengthAdjust="spacingAndGlyphs" textLength="165" x="395.5" y="228.895">// new user is an assistant</text><polygon fill="#A80036" points="40.5,259.0938,30.5,263.0938,40.5,267.0938,36.5,263.0938" style="stroke: #A80036; stroke-width: 1.0;"/><line style="stroke: #A80036; stroke-width: 1.0; stroke-dasharray: 2.0,2.0;" x1="34.5" x2="372.5" y1="263.0938" y2="263.0938"/><text fill="#000000" font-family="sans-serif" font-size="13" lengthAdjust="spacingAndGlyphs" textLength="315" x="46.5" y="258.0278">// inform that user is not allowed to create project</text><!--
@startuml
hide footbox
autoactivate on
skinparam sequenceParticipant underline
actor ":User" as usr
control ":Project Controller" as ctl
entity ":quart_auth" as quart
entity ":User" as db_usr

usr -> ctl : // request creating project()
ctl -> quart : // check authentication()
ctl <- - quart : authenticated 
ctl -> db_usr : // check user's role()
ctl <- - db_usr : // new user is an assistant
usr <- - ctl : // inform that user is not allowed to create project
@enduml

PlantUML version 1.2018.13(Mon Nov 26 17:11:51 UTC 2018)
(GPL source distribution)
Java Runtime: OpenJDK Runtime Environment
JVM: OpenJDK 64-Bit Server VM
Java Version: 11.0.10+9
Operating System: Linux
OS Version: 5.4.0-1039-azure
Default Encoding: UTF-8
Language: en
Country: null
--></g></svg>