<?xml version="1.0" encoding="UTF-8" standalone="no"?><svg xmlns="http://www.w3.org/2000/svg" xmlns:xlink="http://www.w3.org/1999/xlink" contentScriptType="application/ecmascript" contentStyleType="text/css" height="296px" preserveAspectRatio="none" style="width:569px;height:296px;" version="1.1" viewBox="0 0 569 296" width="569px" zoomAndPan="magnify"><defs><filter height="300%" id="f16tpibef028zm" width="300%" x="-1" y="-1"><feGaussianBlur result="blurOut" stdDeviation="2.0"/><feColorMatrix in="blurOut" result="blurOut2" type="matrix" values="0 0 0 0 0 0 0 0 0 0 0 0 0 0 0 0 0 0 .4 0"/><feOffset dx="4.0" dy="4.0" in="blurOut2" result="blurOut3"/><feBlend in="SourceGraphic" in2="blurOut3" mode="normal"/></filter></defs><g><!--cluster Server--><polygon fill="#FFFFFF" filter="url(#f16tpibef028zm)" points="269,34,279,24,547,24,547,274,537,284,269,284,269,34" style="stroke: #000000; stroke-width: 1.5;"/><line style="stroke: #000000; stroke-width: 1.5;" x1="537" x2="546" y1="34" y2="25"/><line style="stroke: #000000; stroke-width: 1.5;" x1="269" x2="537" y1="34" y2="34"/><line style="stroke: #000000; stroke-width: 1.5;" x1="537" x2="537" y1="34" y2="284"/><text fill="#000000" font-family="sans-serif" font-size="14" font-style="italic" lengthAdjust="spacingAndGlyphs" textLength="63" x="372.5" y="49.9951">«Server»</text><text fill="#000000" font-family="sans-serif" font-size="14" font-weight="bold" lengthAdjust="spacingAndGlyphs" textLength="90" x="359" y="66.292">acanban.ga</text><!--entity db--><path d="M437,90.5 C437,80.5 484,80.5 484,80.5 C484,80.5 531,80.5 531,90.5 L531,115.7969 C531,125.7969 484,125.7969 484,125.7969 C484,125.7969 437,125.7969 437,115.7969 L437,90.5 " fill="#FEFECE" filter="url(#f16tpibef028zm)" style="stroke: #000000; stroke-width: 1.5;"/><path d="M437,90.5 C437,100.5 484,100.5 484,100.5 C484,100.5 531,100.5 531,90.5 " fill="none" style="stroke: #000000; stroke-width: 1.5;"/><text fill="#000000" font-family="sans-serif" font-size="14" lengthAdjust="spacingAndGlyphs" textLength="74" x="447" y="117.4951">RethinkDB</text><!--entity Acanban--><rect fill="#FEFECE" filter="url(#f16tpibef028zm)" height="36.2969" style="stroke: #A80036; stroke-width: 1.5;" width="80" x="444" y="161"/><rect fill="#FEFECE" height="5" style="stroke: #A80036; stroke-width: 1.5;" width="10" x="439" y="166"/><rect fill="#FEFECE" height="5" style="stroke: #A80036; stroke-width: 1.5;" width="10" x="439" y="187.2969"/><text fill="#000000" font-family="sans-serif" font-size="14" lengthAdjust="spacingAndGlyphs" textLength="60" x="454" y="183.9951">Acanban</text><!--entity Hypercorn--><rect fill="#FEFECE" filter="url(#f16tpibef028zm)" height="36.2969" style="stroke: #A80036; stroke-width: 1.5;" width="91" x="285" y="161"/><rect fill="#FEFECE" height="5" style="stroke: #A80036; stroke-width: 1.5;" width="10" x="280" y="166"/><rect fill="#FEFECE" height="5" style="stroke: #A80036; stroke-width: 1.5;" width="10" x="280" y="187.2969"/><text fill="#000000" font-family="sans-serif" font-size="14" lengthAdjust="spacingAndGlyphs" textLength="71" x="295" y="183.9951">Hypercorn</text><!--entity IPFS--><rect fill="#FEFECE" filter="url(#f16tpibef028zm)" height="32.2969" style="stroke: #000000; stroke-width: 1.5;" width="45" x="463.5" y="236"/><rect fill="#FEFECE" height="32.2969" style="stroke: #000000; stroke-width: 1.5;" width="45" x="459.5" y="232"/><text fill="#000000" font-family="sans-serif" font-size="14" lengthAdjust="spacingAndGlyphs" textLength="29" x="467.5" y="252.9951">IPFS</text><!--entity Browser--><path d="M9,159.5 C9,156.5 11,154.5 14,154.5 C17,154.5 19,156.5 19,159.5 C19,156.5 21,154.5 24,154.5 C27,154.5 29,156.5 29,159.5 C29,156.5 31,154.5 34,154.5 C37,154.5 39,156.5 39,159.5 C39,156.5 41,154.5 44,154.5 C47,154.5 49,156.5 49,159.5 C49,156.5 51,154.5 54,154.5 C57,154.5 59,156.5 59,159.5 C59,156.5 61,154.5 64,154.5 C67,154.5 69,156.5 69,159.5 C69,156.5 71,154.5 74,154.5 C77,154.5 79,156.5 79,159.5 C79,156.5 81,154.5 84,154.5 C87,154.5 89,156.5 89,159.5 C89,156.5 91,154.5 94,154.5 C97,154.5 99,156.5 99,159.5 C99,156.5 101,154.5 104,154.5 C107,154.5 109,156.5 109,159.5 C109,156.5 111,154.5 114,154.5 C117,154.5 119,156.5 119,159.5 C122,159.5 124,161.5 124,164.5 C124,167.5 122,169.5 119,169.5 C122,169.5 124,171.5 124,174.5 C124,177.5 122,179.5 119,179.5 C122,179.5 124,181.5 124,184.5 C124,187.5 122,189.5 119,189.5 C122,189.5 124,191.5 124,194.5 C124,197.5 122,199.5 119,199.5 C119,202.5 116,204.5 114,204.5 C111,204.5 109,202.5 109,199.5 C109,202.5 106,204.5 104,204.5 C101,204.5 99,202.5 99,199.5 C99,202.5 96,204.5 94,204.5 C91,204.5 89,202.5 89,199.5 C89,202.5 86,204.5 84,204.5 C81,204.5 79,202.5 79,199.5 C79,202.5 76,204.5 74,204.5 C71,204.5 69,202.5 69,199.5 C69,202.5 66,204.5 64,204.5 C61,204.5 59,202.5 59,199.5 C59,202.5 56,204.5 54,204.5 C51,204.5 49,202.5 49,199.5 C49,202.5 46,204.5 44,204.5 C41,204.5 39,202.5 39,199.5 C39,202.5 36,204.5 34,204.5 C31,204.5 29,202.5 29,199.5 C29,202.5 26,204.5 24,204.5 C21,204.5 19,202.5 19,199.5 C19,202.5 16,204.5 14,204.5 C11,204.5 9,202.5 9,199.5 C6,199.5 4,197.5 4,194.5 C4,191.5 6,189.5 9,189.5 C6,189.5 4,187.5 4,184.5 C4,181.5 6,179.5 9,179.5 C6,179.5 4,177.5 4,174.5 C4,171.5 6,169.5 9,169.5 C6,169.5 4,167.5 4,164.5 C4,161.5 6,159.5 9,159.5 " fill="#FEFECE" filter="url(#f16tpibef028zm)" style="stroke: #000000; stroke-width: 1.5;"/><text fill="#000000" font-family="sans-serif" font-size="14" font-style="italic" lengthAdjust="spacingAndGlyphs" textLength="57" x="33.5" y="175.4951">«Client»</text><text fill="#000000" font-family="sans-serif" font-size="14" lengthAdjust="spacingAndGlyphs" textLength="92" x="16" y="191.792">Web Browser</text><!--link Browser to Hypercorn--><path d="M118.22,179 C167.62,179 239.1,179 284.94,179 " fill="none" id="Browser-Hypercorn" style="stroke: #A80036; stroke-width: 1.0;"/><text fill="#000000" font-family="sans-serif" font-size="13" lengthAdjust="spacingAndGlyphs" textLength="41" x="180" y="175.0669">HTTPS</text><!--link Hypercorn to Acanban--><path d="M376.14,179 C397.61,179 423.12,179 443.82,179 " fill="none" id="Hypercorn-Acanban" style="stroke: #A80036; stroke-width: 1.0;"/><!--link IPFS to Acanban--><path d="M484,231.97 C484,220.38 484,208.8 484,197.21 " fill="none" id="IPFS-Acanban" style="stroke: #A80036; stroke-width: 1.0;"/><!--link Acanban to db--><path d="M484,160.89 C484,149.13 484,137.37 484,125.61 " fill="none" id="Acanban-db" style="stroke: #A80036; stroke-width: 1.0;"/><!--
@startuml
left to right direction

cloud "Web Browser" as Browser << Client >>

node "acanban.ga" as Server << Server >> {
   database "RethinkDB" as db
   component Acanban
   component Hypercorn
   collections IPFS
}

Browser - - - Hypercorn: HTTPS
Hypercorn - - Acanban
IPFS - Acanban
Acanban - db

@enduml

PlantUML version 1.2018.13(Mon Nov 26 17:11:51 UTC 2018)
(GPL source distribution)
Java Runtime: OpenJDK Runtime Environment
JVM: OpenJDK 64-Bit Server VM
Java Version: 11.0.9.1+1
Operating System: Linux
OS Version: 5.4.0-1032-azure
Default Encoding: UTF-8
Language: en
Country: null
--></g></svg>