<?xml version="1.0" encoding="UTF-8" standalone="no"?><svg xmlns="http://www.w3.org/2000/svg" xmlns:xlink="http://www.w3.org/1999/xlink" contentScriptType="application/ecmascript" contentStyleType="text/css" height="239px" preserveAspectRatio="none" style="width:356px;height:239px;" version="1.1" viewBox="0 0 356 239" width="356px" zoomAndPan="magnify"><defs><filter height="300%" id="fjrb0foefxkac" width="300%" x="-1" y="-1"><feGaussianBlur result="blurOut" stdDeviation="2.0"/><feColorMatrix in="blurOut" result="blurOut2" type="matrix" values="0 0 0 0 0 0 0 0 0 0 0 0 0 0 0 0 0 0 .4 0"/><feOffset dx="4.0" dy="4.0" in="blurOut2" result="blurOut3"/><feBlend in="SourceGraphic" in2="blurOut3" mode="normal"/></filter></defs><g><!--entity assist--><ellipse cx="73" cy="143.5" fill="#FEFECE" filter="url(#fjrb0foefxkac)" rx="8" ry="8" style="stroke: #A80036; stroke-width: 2.0;"/><path d="M73,151.5 L73,178.5 M60,159.5 L86,159.5 M73,178.5 L60,193.5 M73,178.5 L86,193.5 " fill="none" filter="url(#fjrb0foefxkac)" style="stroke: #A80036; stroke-width: 2.0;"/><text fill="#000000" font-family="sans-serif" font-size="14" lengthAdjust="spacingAndGlyphs" textLength="134" x="6" y="213.4951">Academic Assistant</text><!--entity Supervisor--><ellipse cx="73" cy="18.5" fill="#FEFECE" filter="url(#fjrb0foefxkac)" rx="8" ry="8" style="stroke: #A80036; stroke-width: 2.0;"/><path d="M73,26.5 L73,53.5 M60,34.5 L86,34.5 M73,53.5 L60,68.5 M73,53.5 L86,68.5 " fill="none" filter="url(#fjrb0foefxkac)" style="stroke: #A80036; stroke-width: 2.0;"/><text fill="#000000" font-family="sans-serif" font-size="14" lengthAdjust="spacingAndGlyphs" textLength="73" x="36.5" y="88.4951">Supervisor</text><ellipse cx="272.5122" cy="50.0236" fill="#FEFECE" filter="url(#fjrb0foefxkac)" rx="44.0122" ry="14.5236" style="stroke: #A80036; stroke-width: 1.5;"/><text fill="#000000" font-family="sans-serif" font-size="14" lengthAdjust="spacingAndGlyphs" textLength="58" x="243.5122" y="54.6721">Evaluate</text><ellipse cx="272.466" cy="144.9932" fill="#FEFECE" filter="url(#fjrb0foefxkac)" rx="62.966" ry="14.9932" style="stroke: #A80036; stroke-width: 1.5;"/><text fill="#000000" font-family="sans-serif" font-size="14" lengthAdjust="spacingAndGlyphs" textLength="88" x="228.466" y="149.6416">Make Report</text><ellipse cx="272.6576" cy="211.9315" fill="#FEFECE" filter="url(#fjrb0foefxkac)" rx="72.6576" ry="16.9315" style="stroke: #A80036; stroke-width: 1.5;"/><text fill="#000000" font-family="sans-serif" font-size="14" lengthAdjust="spacingAndGlyphs" textLength="113" x="216.1576" y="216.5799">Export transcript</text><!--link assist to Export--><path d="M140.04,187.37 C162.77,191.63 188.1,196.38 210.41,200.56 " fill="none" id="assist-Export" style="stroke: #A80036; stroke-width: 1.0;"/><polygon fill="#A80036" points="215.42,201.49,207.3035,195.9113,210.5043,200.5755,205.8402,203.7763,215.42,201.49" style="stroke: #A80036; stroke-width: 1.0;"/><!--link assist to Report--><path d="M140.04,164.97 C163.91,161.34 190.66,157.28 213.77,153.77 " fill="none" id="assist-Report" style="stroke: #A80036; stroke-width: 1.0;"/><polygon fill="#A80036" points="218.95,152.98,209.4481,150.3888,214.0076,153.7371,210.6594,158.2966,218.95,152.98" style="stroke: #A80036; stroke-width: 1.0;"/><!--link Supervisor to Evaluate--><path d="M109.77,50 C141.55,50 188.28,50 223.34,50 " fill="none" id="Supervisor-Evaluate" style="stroke: #A80036; stroke-width: 1.0;"/><polygon fill="#A80036" points="228.43,50,219.43,46,223.43,50,219.43,54,228.43,50" style="stroke: #A80036; stroke-width: 1.0;"/><!--
@startuml
left to right direction
actor "Academic Assistant" as assist
actor Supervisor

usecase Evaluate

usecase "Make Report" as Report
usecase "Export transcript" as Export

assist - -> Export
assist - -> Report

Supervisor - -> Evaluate

@enduml

PlantUML version 1.2018.13(Mon Nov 26 17:11:51 UTC 2018)
(GPL source distribution)
Java Runtime: OpenJDK Runtime Environment
JVM: OpenJDK 64-Bit Server VM
Java Version: 11.0.10+9
Operating System: Linux
OS Version: 5.4.0-1039-azure
Default Encoding: UTF-8
Language: en
Country: null
--></g></svg>