<?xml version="1.0" encoding="UTF-8" standalone="no"?>
<svg xmlns="http://www.w3.org/2000/svg" xmlns:xlink="http://www.w3.org/1999/xlink" contentScriptType="application/ecmascript" contentStyleType="text/css" height="451px" preserveAspectRatio="none" style="width:1268px;height:451px;" version="1.1" viewBox="0 0 1268 451" width="1268px" zoomAndPan="magnify"><defs/><g><rect fill="#CCFF02" height="20.2969" rx="2" ry="2" style="stroke:#CCFF02;stroke-width:1.0;" width="166" x="11.5" y="143"/><text fill="#000000" font-family="sans-serif" font-size="14" font-weight="bold" lengthAdjust="spacing" textLength="49" x="33" y="157.9951">Entity</text><text fill="#000000" font-family="sans-serif" font-size="14" font-weight="bold" lengthAdjust="spacing" textLength="39" x="110" y="157.9951">Task</text><line style="stroke:#A80036;stroke-width:1.0;" x1="105" x2="105" y1="143" y2="163.2969"/><line style="stroke:#A80036;stroke-width:1.0;" x1="10" x2="178" y1="163.2969" y2="163.2969"/><text fill="#000000" font-family="sans-serif" font-size="14" lengthAdjust="spacing" textLength="85" x="15" y="178.292">assigned_to</text><text fill="#000000" font-family="sans-serif" font-size="14" lengthAdjust="spacing" textLength="63" x="110" y="178.292">arabellaf</text><line style="stroke:#A80036;stroke-width:1.0;" x1="105" x2="105" y1="163.2969" y2="183.5938"/><line style="stroke:#A80036;stroke-width:1.0;" x1="10" x2="178" y1="183.5938" y2="183.5938"/><text fill="#000000" font-family="sans-serif" font-size="14" lengthAdjust="spacing" textLength="72" x="21.5" y="198.5889">discussion</text><text fill="#000000" font-family="sans-serif" font-size="14" lengthAdjust="spacing" textLength="0" x="122" y="198.5889"/><line style="stroke:#A80036;stroke-width:1.0;" x1="105" x2="105" y1="183.5938" y2="203.8906"/><line style="stroke:#A80036;stroke-width:1.0;" x1="10" x2="178" y1="203.8906" y2="203.8906"/><text fill="#000000" font-family="sans-serif" font-size="14" lengthAdjust="spacing" textLength="15" x="50" y="218.8857">...</text><text fill="#000000" font-family="sans-serif" font-size="14" lengthAdjust="spacing" textLength="15" x="110" y="218.8857">...</text><line style="stroke:#A80036;stroke-width:1.0;" x1="105" x2="105" y1="203.8906" y2="224.1875"/><rect fill="none" height="81.1875" rx="5" ry="5" style="stroke:#A80036;stroke-width:1.5;" width="168" x="10" y="143"/><text fill="#000000" font-family="sans-serif" font-size="14" lengthAdjust="spacing" textLength="0" x="232" y="187.9951"/><line style="stroke:#A80036;stroke-width:1.0;" x1="215" x2="237" y1="193.2969" y2="193.2969"/><text fill="#000000" font-family="sans-serif" font-size="14" lengthAdjust="spacing" textLength="0" x="232" y="208.292"/><rect fill="none" height="40.5938" rx="5" ry="5" style="stroke:#A80036;stroke-width:1.5;" width="22" x="215" y="173"/><text fill="#000000" font-family="sans-serif" font-size="14" lengthAdjust="spacing" textLength="53" x="295" y="105.9951">creator</text><text fill="#000000" font-family="sans-serif" font-size="14" lengthAdjust="spacing" textLength="63" x="372" y="105.9951">arabellaf</text><line style="stroke:#A80036;stroke-width:1.0;" x1="367" x2="367" y1="91" y2="111.2969"/><line style="stroke:#A80036;stroke-width:1.0;" x1="276" x2="522" y1="111.2969" y2="111.2969"/><text fill="#000000" font-family="sans-serif" font-size="14" lengthAdjust="spacing" textLength="58" x="292.5" y="126.292">content</text><text fill="#000000" font-family="sans-serif" font-size="14" lengthAdjust="spacing" textLength="145" x="372" y="126.292">How to do this task?</text><line style="stroke:#A80036;stroke-width:1.0;" x1="367" x2="367" y1="111.2969" y2="131.5938"/><line style="stroke:#A80036;stroke-width:1.0;" x1="276" x2="522" y1="131.5938" y2="131.5938"/><text fill="#000000" font-family="sans-serif" font-size="14" lengthAdjust="spacing" textLength="81" x="281" y="146.5889">created_on</text><text fill="#000000" font-family="sans-serif" font-size="14" lengthAdjust="spacing" textLength="95" x="372" y="146.5889">(time object)</text><line style="stroke:#A80036;stroke-width:1.0;" x1="367" x2="367" y1="131.5938" y2="151.8906"/><line style="stroke:#A80036;stroke-width:1.0;" x1="276" x2="522" y1="151.8906" y2="151.8906"/><text fill="#000000" font-family="sans-serif" font-size="14" lengthAdjust="spacing" textLength="77" x="283" y="166.8857">comments</text><text fill="#000000" font-family="sans-serif" font-size="14" lengthAdjust="spacing" textLength="0" x="384" y="166.8857"/><line style="stroke:#A80036;stroke-width:1.0;" x1="367" x2="367" y1="151.8906" y2="172.1875"/><rect fill="none" height="81.1875" rx="5" ry="5" style="stroke:#A80036;stroke-width:1.5;" width="246" x="276" y="91"/><text fill="#000000" font-family="sans-serif" font-size="14" lengthAdjust="spacing" textLength="0" x="576" y="155.9951"/><line style="stroke:#A80036;stroke-width:1.0;" x1="559" x2="581" y1="161.2969" y2="161.2969"/><text fill="#000000" font-family="sans-serif" font-size="14" lengthAdjust="spacing" textLength="0" x="576" y="176.292"/><rect fill="none" height="40.5938" rx="5" ry="5" style="stroke:#A80036;stroke-width:1.5;" width="22" x="559" y="141"/><text fill="#000000" font-family="sans-serif" font-size="14" lengthAdjust="spacing" textLength="53" x="639.5" y="24.9951">creator</text><text fill="#000000" font-family="sans-serif" font-size="14" lengthAdjust="spacing" textLength="56" x="716.5" y="24.9951">jamesm</text><line style="stroke:#A80036;stroke-width:1.0;" x1="711.5" x2="711.5" y1="10" y2="30.2969"/><line style="stroke:#A80036;stroke-width:1.0;" x1="620.5" x2="867.5" y1="30.2969" y2="30.2969"/><text fill="#000000" font-family="sans-serif" font-size="14" lengthAdjust="spacing" textLength="58" x="637" y="45.292">content</text><text fill="#000000" font-family="sans-serif" font-size="14" lengthAdjust="spacing" textLength="104" x="716.5" y="45.292">This may help:</text><text fill="#000000" font-family="sans-serif" font-size="14" lengthAdjust="spacing" textLength="146" x="716.5" y="61.5889">https://example.org</text><line style="stroke:#A80036;stroke-width:1.0;" x1="711.5" x2="711.5" y1="30.2969" y2="66.8906"/><line style="stroke:#A80036;stroke-width:1.0;" x1="620.5" x2="867.5" y1="66.8906" y2="66.8906"/><text fill="#000000" font-family="sans-serif" font-size="14" lengthAdjust="spacing" textLength="81" x="625.5" y="81.8857">created_on</text><text fill="#000000" font-family="sans-serif" font-size="14" lengthAdjust="spacing" textLength="95" x="716.5" y="81.8857">(time object)</text><line style="stroke:#A80036;stroke-width:1.0;" x1="711.5" x2="711.5" y1="66.8906" y2="87.1875"/><line style="stroke:#A80036;stroke-width:1.0;" x1="620.5" x2="867.5" y1="87.1875" y2="87.1875"/><text fill="#000000" font-family="sans-serif" font-size="14" lengthAdjust="spacing" textLength="77" x="627.5" y="102.1826">comments</text><text fill="#000000" font-family="sans-serif" font-size="14" lengthAdjust="spacing" textLength="0" x="728.5" y="102.1826"/><line style="stroke:#A80036;stroke-width:1.0;" x1="711.5" x2="711.5" y1="87.1875" y2="107.4844"/><rect fill="none" height="97.4844" rx="5" ry="5" style="stroke:#A80036;stroke-width:1.5;" width="247" x="620.5" y="10"/><text fill="#000000" font-family="sans-serif" font-size="14" lengthAdjust="spacing" textLength="0" x="922" y="99.4951"/><rect fill="none" height="20.2969" rx="5" ry="5" style="stroke:#A80036;stroke-width:1.5;" width="22" x="905" y="84.5"/><text fill="#000000" font-family="sans-serif" font-size="14" lengthAdjust="spacing" textLength="53" x="991" y="60.9951">creator</text><text fill="#000000" font-family="sans-serif" font-size="14" lengthAdjust="spacing" textLength="63" x="1068" y="60.9951">arabellaf</text><line style="stroke:#A80036;stroke-width:1.0;" x1="1063" x2="1063" y1="46" y2="66.2969"/><line style="stroke:#A80036;stroke-width:1.0;" x1="972" x2="1184" y1="66.2969" y2="66.2969"/><text fill="#000000" font-family="sans-serif" font-size="14" lengthAdjust="spacing" textLength="58" x="988.5" y="81.292">content</text><text fill="#000000" font-family="sans-serif" font-size="14" lengthAdjust="spacing" textLength="111" x="1068" y="81.292">Thanks but this</text><text fill="#000000" font-family="sans-serif" font-size="14" lengthAdjust="spacing" textLength="85" x="1068" y="97.5889">is irrelevant</text><line style="stroke:#A80036;stroke-width:1.0;" x1="1063" x2="1063" y1="66.2969" y2="102.8906"/><line style="stroke:#A80036;stroke-width:1.0;" x1="972" x2="1184" y1="102.8906" y2="102.8906"/><text fill="#000000" font-family="sans-serif" font-size="14" lengthAdjust="spacing" textLength="81" x="977" y="117.8857">created_on</text><text fill="#000000" font-family="sans-serif" font-size="14" lengthAdjust="spacing" textLength="95" x="1068" y="117.8857">(time object)</text><line style="stroke:#A80036;stroke-width:1.0;" x1="1063" x2="1063" y1="102.8906" y2="123.1875"/><line style="stroke:#A80036;stroke-width:1.0;" x1="972" x2="1184" y1="123.1875" y2="123.1875"/><text fill="#000000" font-family="sans-serif" font-size="14" lengthAdjust="spacing" textLength="77" x="979" y="138.1826">comments</text><text fill="#000000" font-family="sans-serif" font-size="14" lengthAdjust="spacing" textLength="0" x="1080" y="138.1826"/><line style="stroke:#A80036;stroke-width:1.0;" x1="1063" x2="1063" y1="123.1875" y2="143.4844"/><rect fill="none" height="97.4844" rx="5" ry="5" style="stroke:#A80036;stroke-width:1.5;" width="212" x="972" y="46"/><rect fill="none" height="15" rx="5" ry="5" style="stroke:#A80036;stroke-width:1.5;" width="30" x="1227" y="122.5"/><text fill="#000000" font-family="sans-serif" font-size="14" lengthAdjust="spacing" textLength="53" x="639" y="139.9951">creator</text><text fill="#000000" font-family="sans-serif" font-size="14" lengthAdjust="spacing" textLength="56" x="716" y="139.9951">evelynd</text><line style="stroke:#A80036;stroke-width:1.0;" x1="711" x2="711" y1="125" y2="145.2969"/><line style="stroke:#A80036;stroke-width:1.0;" x1="620" x2="868" y1="145.2969" y2="145.2969"/><text fill="#000000" font-family="sans-serif" font-size="14" lengthAdjust="spacing" textLength="58" x="636.5" y="160.292">content</text><text fill="#000000" font-family="sans-serif" font-size="14" lengthAdjust="spacing" textLength="115" x="716" y="160.292">I found this link:</text><text fill="#000000" font-family="sans-serif" font-size="14" lengthAdjust="spacing" textLength="147" x="716" y="176.5889">https://example.net</text><line style="stroke:#A80036;stroke-width:1.0;" x1="711" x2="711" y1="145.2969" y2="181.8906"/><line style="stroke:#A80036;stroke-width:1.0;" x1="620" x2="868" y1="181.8906" y2="181.8906"/><text fill="#000000" font-family="sans-serif" font-size="14" lengthAdjust="spacing" textLength="81" x="625" y="196.8857">created_on</text><text fill="#000000" font-family="sans-serif" font-size="14" lengthAdjust="spacing" textLength="95" x="716" y="196.8857">(time object)</text><line style="stroke:#A80036;stroke-width:1.0;" x1="711" x2="711" y1="181.8906" y2="202.1875"/><line style="stroke:#A80036;stroke-width:1.0;" x1="620" x2="868" y1="202.1875" y2="202.1875"/><text fill="#000000" font-family="sans-serif" font-size="14" lengthAdjust="spacing" textLength="77" x="627" y="217.1826">comments</text><text fill="#000000" font-family="sans-serif" font-size="14" lengthAdjust="spacing" textLength="0" x="728" y="217.1826"/><line style="stroke:#A80036;stroke-width:1.0;" x1="711" x2="711" y1="202.1875" y2="222.4844"/><rect fill="none" height="97.4844" rx="5" ry="5" style="stroke:#A80036;stroke-width:1.5;" width="248" x="620" y="125"/><text fill="#000000" font-family="sans-serif" font-size="14" lengthAdjust="spacing" textLength="0" x="922" y="214.4951"/><rect fill="none" height="20.2969" rx="5" ry="5" style="stroke:#A80036;stroke-width:1.5;" width="22" x="905" y="199.5"/><text fill="#000000" font-family="sans-serif" font-size="14" lengthAdjust="spacing" textLength="53" x="985" y="175.9951">creator</text><text fill="#000000" font-family="sans-serif" font-size="14" lengthAdjust="spacing" textLength="63" x="1062" y="175.9951">arabellaf</text><line style="stroke:#A80036;stroke-width:1.0;" x1="1057" x2="1057" y1="161" y2="181.2969"/><line style="stroke:#A80036;stroke-width:1.0;" x1="966" x2="1190" y1="181.2969" y2="181.2969"/><text fill="#000000" font-family="sans-serif" font-size="14" lengthAdjust="spacing" textLength="58" x="982.5" y="196.292">content</text><text fill="#000000" font-family="sans-serif" font-size="14" lengthAdjust="spacing" textLength="123" x="1062" y="196.292">Wow this is really</text><text fill="#000000" font-family="sans-serif" font-size="14" lengthAdjust="spacing" textLength="112" x="1062" y="212.5889">helpful, thanks.</text><line style="stroke:#A80036;stroke-width:1.0;" x1="1057" x2="1057" y1="181.2969" y2="217.8906"/><line style="stroke:#A80036;stroke-width:1.0;" x1="966" x2="1190" y1="217.8906" y2="217.8906"/><text fill="#000000" font-family="sans-serif" font-size="14" lengthAdjust="spacing" textLength="81" x="971" y="232.8857">created_on</text><text fill="#000000" font-family="sans-serif" font-size="14" lengthAdjust="spacing" textLength="95" x="1062" y="232.8857">(time object)</text><line style="stroke:#A80036;stroke-width:1.0;" x1="1057" x2="1057" y1="217.8906" y2="238.1875"/><line style="stroke:#A80036;stroke-width:1.0;" x1="966" x2="1190" y1="238.1875" y2="238.1875"/><text fill="#000000" font-family="sans-serif" font-size="14" lengthAdjust="spacing" textLength="77" x="973" y="253.1826">comments</text><text fill="#000000" font-family="sans-serif" font-size="14" lengthAdjust="spacing" textLength="0" x="1074" y="253.1826"/><line style="stroke:#A80036;stroke-width:1.0;" x1="1057" x2="1057" y1="238.1875" y2="258.4844"/><rect fill="none" height="97.4844" rx="5" ry="5" style="stroke:#A80036;stroke-width:1.5;" width="224" x="966" y="161"/><rect fill="none" height="15" rx="5" ry="5" style="stroke:#A80036;stroke-width:1.5;" width="30" x="1227" y="237.5"/><text fill="#000000" font-family="sans-serif" font-size="14" lengthAdjust="spacing" textLength="53" x="301.5" y="205.4951">creator</text><text fill="#000000" font-family="sans-serif" font-size="14" lengthAdjust="spacing" textLength="62" x="378.5" y="205.4951">opheliad</text><line style="stroke:#A80036;stroke-width:1.0;" x1="373.5" x2="373.5" y1="190.5" y2="210.7969"/><line style="stroke:#A80036;stroke-width:1.0;" x1="282.5" x2="515.5" y1="210.7969" y2="210.7969"/><text fill="#000000" font-family="sans-serif" font-size="14" lengthAdjust="spacing" textLength="58" x="299" y="225.792">content</text><text fill="#000000" font-family="sans-serif" font-size="14" lengthAdjust="spacing" textLength="132" x="378.5" y="225.792">Task #14 depends</text><text fill="#000000" font-family="sans-serif" font-size="14" lengthAdjust="spacing" textLength="98" x="378.5" y="242.0889">on this so can</text><text fill="#000000" font-family="sans-serif" font-size="14" lengthAdjust="spacing" textLength="112" x="378.5" y="258.3857">you resolve this</text><text fill="#000000" font-family="sans-serif" font-size="14" lengthAdjust="spacing" textLength="131" x="378.5" y="274.6826">faster? @arabellaf</text><line style="stroke:#A80036;stroke-width:1.0;" x1="373.5" x2="373.5" y1="210.7969" y2="279.9844"/><line style="stroke:#A80036;stroke-width:1.0;" x1="282.5" x2="515.5" y1="279.9844" y2="279.9844"/><text fill="#000000" font-family="sans-serif" font-size="14" lengthAdjust="spacing" textLength="81" x="287.5" y="294.9795">created_on</text><text fill="#000000" font-family="sans-serif" font-size="14" lengthAdjust="spacing" textLength="95" x="378.5" y="294.9795">(time object)</text><line style="stroke:#A80036;stroke-width:1.0;" x1="373.5" x2="373.5" y1="279.9844" y2="300.2813"/><line style="stroke:#A80036;stroke-width:1.0;" x1="282.5" x2="515.5" y1="300.2813" y2="300.2813"/><text fill="#000000" font-family="sans-serif" font-size="14" lengthAdjust="spacing" textLength="77" x="289.5" y="315.2764">comments</text><text fill="#000000" font-family="sans-serif" font-size="14" lengthAdjust="spacing" textLength="0" x="390.5" y="315.2764"/><line style="stroke:#A80036;stroke-width:1.0;" x1="373.5" x2="373.5" y1="300.2813" y2="320.5781"/><rect fill="none" height="130.0781" rx="5" ry="5" style="stroke:#A80036;stroke-width:1.5;" width="233" x="282.5" y="190.5"/><text fill="#000000" font-family="sans-serif" font-size="14" lengthAdjust="spacing" textLength="0" x="576" y="298.9951"/><line style="stroke:#A80036;stroke-width:1.0;" x1="559" x2="581" y1="304.2969" y2="304.2969"/><text fill="#000000" font-family="sans-serif" font-size="14" lengthAdjust="spacing" textLength="0" x="576" y="319.292"/><rect fill="none" height="40.5938" rx="5" ry="5" style="stroke:#A80036;stroke-width:1.5;" width="22" x="559" y="284"/><text fill="#000000" font-family="sans-serif" font-size="14" lengthAdjust="spacing" textLength="53" x="652.5" y="257.9951">creator</text><text fill="#000000" font-family="sans-serif" font-size="14" lengthAdjust="spacing" textLength="56" x="729.5" y="257.9951">evelynd</text><line style="stroke:#A80036;stroke-width:1.0;" x1="724.5" x2="724.5" y1="243" y2="263.2969"/><line style="stroke:#A80036;stroke-width:1.0;" x1="633.5" x2="854.5" y1="263.2969" y2="263.2969"/><text fill="#000000" font-family="sans-serif" font-size="14" lengthAdjust="spacing" textLength="58" x="650" y="278.292">content</text><text fill="#000000" font-family="sans-serif" font-size="14" lengthAdjust="spacing" textLength="111" x="729.5" y="278.292">You can do #17</text><text fill="#000000" font-family="sans-serif" font-size="14" lengthAdjust="spacing" textLength="120" x="729.5" y="294.5889">in the meantime</text><line style="stroke:#A80036;stroke-width:1.0;" x1="724.5" x2="724.5" y1="263.2969" y2="299.8906"/><line style="stroke:#A80036;stroke-width:1.0;" x1="633.5" x2="854.5" y1="299.8906" y2="299.8906"/><text fill="#000000" font-family="sans-serif" font-size="14" lengthAdjust="spacing" textLength="81" x="638.5" y="314.8857">created_on</text><text fill="#000000" font-family="sans-serif" font-size="14" lengthAdjust="spacing" textLength="95" x="729.5" y="314.8857">(time object)</text><line style="stroke:#A80036;stroke-width:1.0;" x1="724.5" x2="724.5" y1="299.8906" y2="320.1875"/><line style="stroke:#A80036;stroke-width:1.0;" x1="633.5" x2="854.5" y1="320.1875" y2="320.1875"/><text fill="#000000" font-family="sans-serif" font-size="14" lengthAdjust="spacing" textLength="77" x="640.5" y="335.1826">comments</text><text fill="#000000" font-family="sans-serif" font-size="14" lengthAdjust="spacing" textLength="0" x="741.5" y="335.1826"/><line style="stroke:#A80036;stroke-width:1.0;" x1="724.5" x2="724.5" y1="320.1875" y2="340.4844"/><rect fill="none" height="97.4844" rx="5" ry="5" style="stroke:#A80036;stroke-width:1.5;" width="221" x="633.5" y="243"/><rect fill="none" height="15" rx="5" ry="5" style="stroke:#A80036;stroke-width:1.5;" width="30" x="905" y="319.5"/><text fill="#000000" font-family="sans-serif" font-size="14" lengthAdjust="spacing" textLength="53" x="665" y="372.9951">creator</text><text fill="#000000" font-family="sans-serif" font-size="14" lengthAdjust="spacing" textLength="63" x="742" y="372.9951">arabellaf</text><line style="stroke:#A80036;stroke-width:1.0;" x1="737" x2="737" y1="358" y2="378.2969"/><line style="stroke:#A80036;stroke-width:1.0;" x1="646" x2="842" y1="378.2969" y2="378.2969"/><text fill="#000000" font-family="sans-serif" font-size="14" lengthAdjust="spacing" textLength="58" x="662.5" y="393.292">content</text><text fill="#000000" font-family="sans-serif" font-size="14" lengthAdjust="spacing" textLength="32" x="742" y="393.292">Sure</text><line style="stroke:#A80036;stroke-width:1.0;" x1="737" x2="737" y1="378.2969" y2="398.5938"/><line style="stroke:#A80036;stroke-width:1.0;" x1="646" x2="842" y1="398.5938" y2="398.5938"/><text fill="#000000" font-family="sans-serif" font-size="14" lengthAdjust="spacing" textLength="81" x="651" y="413.5889">created_on</text><text fill="#000000" font-family="sans-serif" font-size="14" lengthAdjust="spacing" textLength="95" x="742" y="413.5889">(time object)</text><line style="stroke:#A80036;stroke-width:1.0;" x1="737" x2="737" y1="398.5938" y2="418.8906"/><line style="stroke:#A80036;stroke-width:1.0;" x1="646" x2="842" y1="418.8906" y2="418.8906"/><text fill="#000000" font-family="sans-serif" font-size="14" lengthAdjust="spacing" textLength="77" x="653" y="433.8857">comments</text><text fill="#000000" font-family="sans-serif" font-size="14" lengthAdjust="spacing" textLength="0" x="754" y="433.8857"/><line style="stroke:#A80036;stroke-width:1.0;" x1="737" x2="737" y1="418.8906" y2="439.1875"/><rect fill="none" height="81.1875" rx="5" ry="5" style="stroke:#A80036;stroke-width:1.5;" width="196" x="646" y="358"/><rect fill="none" height="15" rx="5" ry="5" style="stroke:#A80036;stroke-width:1.5;" width="30" x="905" y="420.5"/><path d="M1172.5,130.5 L1185.5,130.5 C1196.7142,130.5 1209.2631,130.5 1219.3342,130.5 " fill="none" style="stroke:#A80036;stroke-width:1.0;stroke-dasharray:3.0,3.0;"/><path d="M1219.3342,133.6173 L1221.6722,130.5 L1219.3342,127.3827 L1227.1274,130.5 L1219.3342,133.6173 " fill="#A80036" style="stroke:#A80036;stroke-width:1.0;"/><ellipse cx="1172.5" cy="130.5" fill="#A80036" rx="3" ry="3" style="stroke:#A80036;stroke-width:1.0;"/><path d="M916.526,94.5 L929.526,94.5 C938.1284,94.5 950.662,94.5 964.8495,94.5 " fill="none" style="stroke:#A80036;stroke-width:1.0;stroke-dasharray:3.0,3.0;"/><path d="M964.8495,97.5231 L967.1168,94.5 L964.8495,91.4769 L972.4073,94.5 L964.8495,97.5231 " fill="#A80036" style="stroke:#A80036;stroke-width:1.0;"/><ellipse cx="916.526" cy="94.5" fill="#A80036" rx="3" ry="3" style="stroke:#A80036;stroke-width:1.0;"/><path d="M856,94.5 L869,94.5 C878.374,94.5 888.7885,94.5 897.4714,94.5 " fill="none" style="stroke:#A80036;stroke-width:1.0;stroke-dasharray:3.0,3.0;"/><path d="M897.4714,97.5815 L899.7825,94.5 L897.4714,91.4185 L905.1751,94.5 L897.4714,97.5815 " fill="#A80036" style="stroke:#A80036;stroke-width:1.0;"/><ellipse cx="856" cy="94.5" fill="#A80036" rx="3" ry="3" style="stroke:#A80036;stroke-width:1.0;"/><path d="M571,150.5 L584,150.5 C606.3154,150.5 601.6058,128.1345 620,115.5 C622.0925,114.0627 624.227,112.6457 626.3964,111.2496 " fill="none" style="stroke:#A80036;stroke-width:1.0;stroke-dasharray:3.0,3.0;"/><path d="M628.046,113.8917 L628.3779,110.0124 L624.7467,108.6075 L633.0016,107.1254 L628.046,113.8917 " fill="#A80036" style="stroke:#A80036;stroke-width:1.0;"/><ellipse cx="571" cy="150.5" fill="#A80036" rx="3" ry="3" style="stroke:#A80036;stroke-width:1.0;"/><path d="M1178,245.5 L1191,245.5 C1200.374,245.5 1210.7885,245.5 1219.4714,245.5 " fill="none" style="stroke:#A80036;stroke-width:1.0;stroke-dasharray:3.0,3.0;"/><path d="M1219.4714,248.5815 L1221.7825,245.5 L1219.4714,242.4185 L1227.1751,245.5 L1219.4714,248.5815 " fill="#A80036" style="stroke:#A80036;stroke-width:1.0;"/><ellipse cx="1178" cy="245.5" fill="#A80036" rx="3" ry="3" style="stroke:#A80036;stroke-width:1.0;"/><path d="M916.526,209.5 L929.526,209.5 C936.7992,209.5 946.8827,209.5 958.4,209.5 " fill="none" style="stroke:#A80036;stroke-width:1.0;stroke-dasharray:3.0,3.0;"/><path d="M958.4,212.6042 L960.7281,209.5 L958.4,206.3958 L966.1603,209.5 L958.4,212.6042 " fill="#A80036" style="stroke:#A80036;stroke-width:1.0;"/><ellipse cx="916.526" cy="209.5" fill="#A80036" rx="3" ry="3" style="stroke:#A80036;stroke-width:1.0;"/><path d="M856,209.5 L869,209.5 C878.374,209.5 888.7885,209.5 897.4714,209.5 " fill="none" style="stroke:#A80036;stroke-width:1.0;stroke-dasharray:3.0,3.0;"/><path d="M897.4714,212.5815 L899.7825,209.5 L897.4714,206.4185 L905.1751,209.5 L897.4714,212.5815 " fill="#A80036" style="stroke:#A80036;stroke-width:1.0;"/><ellipse cx="856" cy="209.5" fill="#A80036" rx="3" ry="3" style="stroke:#A80036;stroke-width:1.0;"/><path d="M571,171.5 L584,171.5 C593.2869,171.5 602.8778,171.5343 612.5336,171.594 " fill="none" style="stroke:#A80036;stroke-width:1.0;stroke-dasharray:3.0,3.0;"/><path d="M612.5124,174.6952 L614.8595,171.6099 L612.5548,168.4927 L620.2867,171.6471 L612.5124,174.6952 " fill="#A80036" style="stroke:#A80036;stroke-width:1.0;"/><ellipse cx="571" cy="171.5" fill="#A80036" rx="3" ry="3" style="stroke:#A80036;stroke-width:1.0;"/><path d="M510,161.5 L523,161.5 C532.374,161.5 542.7885,161.5 551.4714,161.5 " fill="none" style="stroke:#A80036;stroke-width:1.0;stroke-dasharray:3.0,3.0;"/><path d="M551.4714,164.5815 L553.7825,161.5 L551.4714,158.4185 L559.1751,161.5 L551.4714,164.5815 " fill="#A80036" style="stroke:#A80036;stroke-width:1.0;"/><ellipse cx="510" cy="161.5" fill="#A80036" rx="3" ry="3" style="stroke:#A80036;stroke-width:1.0;"/><path d="M227,182.5 L240,182.5 C259.0118,182.5 278.7166,179.1338 297.5033,174.131 " fill="none" style="stroke:#A80036;stroke-width:1.0;stroke-dasharray:3.0,3.0;"/><path d="M298.3332,177.1027 L299.732,173.5086 L296.6734,171.1594 L304.9324,172.0563 L298.3332,177.1027 " fill="#A80036" style="stroke:#A80036;stroke-width:1.0;"/><ellipse cx="227" cy="182.5" fill="#A80036" rx="3" ry="3" style="stroke:#A80036;stroke-width:1.0;"/><path d="M843.5,327.5 L856.5,327.5 C870.3802,327.5 886.0666,327.5 897.9184,327.5 " fill="none" style="stroke:#A80036;stroke-width:1.0;stroke-dasharray:3.0,3.0;"/><path d="M897.9184,330.5092 L900.1753,327.5 L897.9184,324.4908 L905.4415,327.5 L897.9184,330.5092 " fill="#A80036" style="stroke:#A80036;stroke-width:1.0;"/><ellipse cx="843.5" cy="327.5" fill="#A80036" rx="3" ry="3" style="stroke:#A80036;stroke-width:1.0;"/><path d="M571,293.5 L584,293.5 C597.5523,293.5 611.7519,293.4269 625.856,293.3087 " fill="none" style="stroke:#A80036;stroke-width:1.0;stroke-dasharray:3.0,3.0;"/><path d="M625.884,296.4371 L628.2023,293.2876 L625.8279,290.1803 L633.677,293.2385 L625.884,296.4371 " fill="#A80036" style="stroke:#A80036;stroke-width:1.0;"/><ellipse cx="571" cy="293.5" fill="#A80036" rx="3" ry="3" style="stroke:#A80036;stroke-width:1.0;"/><path d="M830.5,428.5 L843.5,428.5 C861.7223,428.5 882.5032,428.5 897.2205,428.5 " fill="none" style="stroke:#A80036;stroke-width:1.0;stroke-dasharray:3.0,3.0;"/><path d="M897.2205,431.6598 L899.5903,428.5 L897.2205,425.3402 L905.1199,428.5 L897.2205,431.6598 " fill="#A80036" style="stroke:#A80036;stroke-width:1.0;"/><ellipse cx="830.5" cy="428.5" fill="#A80036" rx="3" ry="3" style="stroke:#A80036;stroke-width:1.0;"/><path d="M571,314.5 L584,314.5 C606.0079,314.5 601.4806,336.6098 620,348.5 C626.2045,352.4835 632.7785,356.2502 639.5339,359.7923 " fill="none" style="stroke:#A80036;stroke-width:1.0;stroke-dasharray:3.0,3.0;"/><path d="M638.1471,362.5159 L641.5766,360.8324 L640.9207,357.0688 L646.3428,363.2593 L638.1471,362.5159 " fill="#A80036" style="stroke:#A80036;stroke-width:1.0;"/><ellipse cx="571" cy="314.5" fill="#A80036" rx="3" ry="3" style="stroke:#A80036;stroke-width:1.0;"/><path d="M504.5,304.5 L517.5,304.5 C528.7142,304.5 541.2631,304.5 551.3342,304.5 " fill="none" style="stroke:#A80036;stroke-width:1.0;stroke-dasharray:3.0,3.0;"/><path d="M551.3342,307.6173 L553.6722,304.5 L551.3342,301.3827 L559.1274,304.5 L551.3342,307.6173 " fill="#A80036" style="stroke:#A80036;stroke-width:1.0;"/><ellipse cx="504.5" cy="304.5" fill="#A80036" rx="3" ry="3" style="stroke:#A80036;stroke-width:1.0;"/><path d="M227,203.5 L240,203.5 C251.5219,203.5 263.2908,204.7559 274.9515,206.8774 " fill="none" style="stroke:#A80036;stroke-width:1.0;stroke-dasharray:3.0,3.0;"/><path d="M274.3457,209.9348 L277.2446,207.3318 L275.5574,203.82 L282.595,208.392 L274.3457,209.9348 " fill="#A80036" style="stroke:#A80036;stroke-width:1.0;"/><ellipse cx="227" cy="203.5" fill="#A80036" rx="3" ry="3" style="stroke:#A80036;stroke-width:1.0;"/><path d="M166,193.5 L179,193.5 C188.374,193.5 198.7885,193.5 207.4714,193.5 " fill="none" style="stroke:#A80036;stroke-width:1.0;stroke-dasharray:3.0,3.0;"/><path d="M207.4714,196.5815 L209.7825,193.5 L207.4714,190.4185 L215.1751,193.5 L207.4714,196.5815 " fill="#A80036" style="stroke:#A80036;stroke-width:1.0;"/><ellipse cx="166" cy="193.5" fill="#A80036" rx="3" ry="3" style="stroke:#A80036;stroke-width:1.0;"/><!--MD5=[a7dd817e749407d7699a193989243c54]
@startjson
#highlight "**Entity**"
{
  "**Entity**": "**Task**",
  "assigned_to": "arabellaf",
  "discussion": [
    {
      "creator": "arabellaf",
      "content": "How to do this task?",
      "created_on": "(time object)",
      "comments": [
        {
          "creator": "jamesm",
          "content": "This may help:\\nhttps://example.org",
          "created_on": "(time object)",
          "comments": [
            {
              "creator": "arabellaf",
              "content": "Thanks but this\\nis irrelevant",
              "created_on": "(time object)",
              "comments": []
            }
          ]
        },
        {
          "creator": "evelynd",
          "content": "I found this link:\\nhttps://example.net",
          "created_on": "(time object)",
          "comments": [
            {
              "creator": "arabellaf",
              "content": "Wow this is really\\nhelpful, thanks.",
              "created_on": "(time object)",
              "comments": []
            }
          ]
        }
      ]
    },
    {
      "creator": "opheliad",
      "content": "Task #14 depends\\non this so can\\nyou resolve this\\nfaster? @arabellaf",
      "created_on": "(time object)",
      "comments": [
        {
          "creator": "evelynd",
          "content": "You can do #17\\nin the meantime",
          "created_on": "(time object)",
          "comments": []
        },
	{
	  "creator": "arabellaf",
	  "content": "Sure",
	  "created_on": "(time object)",
	  "comments": []
	}
      ]
    }
  ],
  "...": "..."
}

@endjson

PlantUML version 1.2021.01beta3(Unknown compile time)
(GPL source distribution)
Java Runtime: Java(TM) SE Runtime Environment
JVM: Java HotSpot(TM) 64-Bit Server VM
Default Encoding: UTF-8
Language: en
Country: US
--></g></svg>