<?xml version="1.0" encoding="UTF-8" standalone="no"?><svg xmlns="http://www.w3.org/2000/svg" xmlns:xlink="http://www.w3.org/1999/xlink" contentScriptType="application/ecmascript" contentStyleType="text/css" height="293px" preserveAspectRatio="none" style="width:699px;height:293px;" version="1.1" viewBox="0 0 699 293" width="699px" zoomAndPan="magnify"><defs><filter height="300%" id="fodj09imxvioo" width="300%" x="-1" y="-1"><feGaussianBlur result="blurOut" stdDeviation="2.0"/><feColorMatrix in="blurOut" result="blurOut2" type="matrix" values="0 0 0 0 0 0 0 0 0 0 0 0 0 0 0 0 0 0 .4 0"/><feOffset dx="4.0" dy="4.0" in="blurOut2" result="blurOut3"/><feBlend in="SourceGraphic" in2="blurOut3" mode="normal"/></filter></defs><g><rect fill="#FFFFFF" filter="url(#fodj09imxvioo)" height="145.6641" style="stroke: #A80036; stroke-width: 1.0;" width="10" x="365.5" y="117.4297"/><rect fill="#FFFFFF" filter="url(#fodj09imxvioo)" height="29.1328" style="stroke: #A80036; stroke-width: 1.0;" width="10" x="549.5" y="146.5625"/><rect fill="#FFFFFF" filter="url(#fodj09imxvioo)" height="29.1328" style="stroke: #A80036; stroke-width: 1.0;" width="10" x="657.5" y="204.8281"/><line style="stroke: #A80036; stroke-width: 1.0; stroke-dasharray: 5.0,5.0;" x1="29" x2="29" y1="86.2969" y2="281.0938"/><line style="stroke: #A80036; stroke-width: 1.0; stroke-dasharray: 5.0,5.0;" x1="370.5" x2="370.5" y1="86.2969" y2="281.0938"/><line style="stroke: #A80036; stroke-width: 1.0; stroke-dasharray: 5.0,5.0;" x1="554" x2="554" y1="86.2969" y2="281.0938"/><line style="stroke: #A80036; stroke-width: 1.0; stroke-dasharray: 5.0,5.0;" x1="662.5" x2="662.5" y1="86.2969" y2="281.0938"/><text fill="#000000" font-family="sans-serif" font-size="14" lengthAdjust="spacingAndGlyphs" text-decoration="underline" textLength="37" x="8" y="82.9951">:User</text><line style="stroke: #000000; stroke-width: 1.0;" x1="8" x2="45" y1="84.9951" y2="84.9951"/><ellipse cx="29.5" cy="13" fill="#FEFECE" filter="url(#fodj09imxvioo)" rx="8" ry="8" style="stroke: #A80036; stroke-width: 2.0;"/><path d="M29.5,21 L29.5,48 M16.5,29 L42.5,29 M29.5,48 L16.5,63 M29.5,48 L42.5,63 " fill="none" filter="url(#fodj09imxvioo)" style="stroke: #A80036; stroke-width: 2.0;"/><text fill="#000000" font-family="sans-serif" font-size="14" lengthAdjust="spacingAndGlyphs" text-decoration="underline" textLength="124" x="305.5" y="82.9951">:Project Controller</text><line style="stroke: #000000; stroke-width: 1.0;" x1="305.5" x2="429.5" y1="84.9951" y2="84.9951"/><ellipse cx="370.5" cy="54" fill="#FEFECE" filter="url(#fodj09imxvioo)" rx="12" ry="12" style="stroke: #A80036; stroke-width: 2.0;"/><polygon fill="#A80036" points="366.5,42,372.5,37,370.5,42,372.5,47,366.5,42" style="stroke: #A80036; stroke-width: 1.0;"/><text fill="#000000" font-family="sans-serif" font-size="14" lengthAdjust="spacingAndGlyphs" text-decoration="underline" textLength="79" x="512" y="82.9951">:quart_auth</text><line style="stroke: #000000; stroke-width: 1.0;" x1="512" x2="591" y1="84.9951" y2="84.9951"/><ellipse cx="554.5" cy="54" fill="#FEFECE" filter="url(#fodj09imxvioo)" rx="12" ry="12" style="stroke: #A80036; stroke-width: 2.0;"/><line style="stroke: #A80036; stroke-width: 2.0;" x1="542.5" x2="566.5" y1="68" y2="68"/><rect fill="#FEFECE" filter="url(#fodj09imxvioo)" height="30.2969" style="stroke: #A80036; stroke-width: 1.5;" width="56" x="632.5" y="51"/><text fill="#000000" font-family="sans-serif" font-size="14" lengthAdjust="spacingAndGlyphs" text-decoration="underline" textLength="42" x="639.5" y="70.9951">db_prj</text><line style="stroke: #000000; stroke-width: 1.0;" x1="639.5" x2="681.5" y1="72.9951" y2="72.9951"/><rect fill="#FFFFFF" filter="url(#fodj09imxvioo)" height="145.6641" style="stroke: #A80036; stroke-width: 1.0;" width="10" x="365.5" y="117.4297"/><rect fill="#FFFFFF" filter="url(#fodj09imxvioo)" height="29.1328" style="stroke: #A80036; stroke-width: 1.0;" width="10" x="549.5" y="146.5625"/><rect fill="#FFFFFF" filter="url(#fodj09imxvioo)" height="29.1328" style="stroke: #A80036; stroke-width: 1.0;" width="10" x="657.5" y="204.8281"/><polygon fill="#A80036" points="353.5,113.4297,363.5,117.4297,353.5,121.4297,357.5,117.4297" style="stroke: #A80036; stroke-width: 1.0;"/><line style="stroke: #A80036; stroke-width: 1.0;" x1="29.5" x2="359.5" y1="117.4297" y2="117.4297"/><text fill="#000000" font-family="sans-serif" font-size="13" lengthAdjust="spacingAndGlyphs" textLength="166" x="36.5" y="112.3638">// request editing project()</text><polygon fill="#A80036" points="537.5,142.5625,547.5,146.5625,537.5,150.5625,541.5,146.5625" style="stroke: #A80036; stroke-width: 1.0;"/><line style="stroke: #A80036; stroke-width: 1.0;" x1="375.5" x2="543.5" y1="146.5625" y2="146.5625"/><text fill="#000000" font-family="sans-serif" font-size="13" lengthAdjust="spacingAndGlyphs" textLength="155" x="382.5" y="141.4966">// check authentication()</text><polygon fill="#A80036" points="386.5,171.6953,376.5,175.6953,386.5,179.6953,382.5,175.6953" style="stroke: #A80036; stroke-width: 1.0;"/><line style="stroke: #A80036; stroke-width: 1.0; stroke-dasharray: 2.0,2.0;" x1="380.5" x2="553.5" y1="175.6953" y2="175.6953"/><text fill="#000000" font-family="sans-serif" font-size="13" lengthAdjust="spacingAndGlyphs" textLength="101" x="392.5" y="170.6294">// authenticated</text><polygon fill="#A80036" points="645.5,200.8281,655.5,204.8281,645.5,208.8281,649.5,204.8281" style="stroke: #A80036; stroke-width: 1.0;"/><line style="stroke: #A80036; stroke-width: 1.0;" x1="375.5" x2="651.5" y1="204.8281" y2="204.8281"/><text fill="#000000" font-family="sans-serif" font-size="13" lengthAdjust="spacingAndGlyphs" textLength="263" x="382.5" y="199.7622">// check project id is in project database()</text><polygon fill="#A80036" points="386.5,229.9609,376.5,233.9609,386.5,237.9609,382.5,233.9609" style="stroke: #A80036; stroke-width: 1.0;"/><line style="stroke: #A80036; stroke-width: 1.0; stroke-dasharray: 2.0,2.0;" x1="380.5" x2="661.5" y1="233.9609" y2="233.9609"/><text fill="#000000" font-family="sans-serif" font-size="13" lengthAdjust="spacingAndGlyphs" textLength="237" x="392.5" y="228.895">// project id is not in project database</text><polygon fill="#A80036" points="40.5,259.0938,30.5,263.0938,40.5,267.0938,36.5,263.0938" style="stroke: #A80036; stroke-width: 1.0;"/><line style="stroke: #A80036; stroke-width: 1.0; stroke-dasharray: 2.0,2.0;" x1="34.5" x2="369.5" y1="263.0938" y2="263.0938"/><text fill="#000000" font-family="sans-serif" font-size="13" lengthAdjust="spacingAndGlyphs" textLength="312" x="46.5" y="258.0278">// inform that project id is not in project database</text><!--
@startuml
hide footbox
autoactivate on
skinparam sequenceParticipant underline
actor ":User" as usr
control ":Project Controller" as ctl
entity ":quart_auth" as quart

usr -> ctl : // request editing project()
ctl -> quart : // check authentication()
ctl <- - quart : // authenticated
ctl -> db_prj : // check project id is in project database()
ctl <- - db_prj : // project id is not in project database
usr <- - ctl : // inform that project id is not in project database
@enduml

PlantUML version 1.2018.13(Mon Nov 26 17:11:51 UTC 2018)
(GPL source distribution)
Java Runtime: OpenJDK Runtime Environment
JVM: OpenJDK 64-Bit Server VM
Java Version: 11.0.10+9
Operating System: Linux
OS Version: 5.4.0-1039-azure
Default Encoding: UTF-8
Language: en
Country: null
--></g></svg>