<?xml version="1.0" encoding="UTF-8" standalone="no"?><svg xmlns="http://www.w3.org/2000/svg" xmlns:xlink="http://www.w3.org/1999/xlink" contentScriptType="application/ecmascript" contentStyleType="text/css" height="1008px" preserveAspectRatio="none" style="width:883px;height:1008px;" version="1.1" viewBox="0 0 883 1008" width="883px" zoomAndPan="magnify"><defs><filter height="300%" id="flyzvnh7w1h76" width="300%" x="-1" y="-1"><feGaussianBlur result="blurOut" stdDeviation="2.0"/><feColorMatrix in="blurOut" result="blurOut2" type="matrix" values="0 0 0 0 0 0 0 0 0 0 0 0 0 0 0 0 0 0 .4 0"/><feOffset dx="4.0" dy="4.0" in="blurOut2" result="blurOut3"/><feBlend in="SourceGraphic" in2="blurOut3" mode="normal"/></filter></defs><g><!--entity Student--><ellipse cx="50" cy="375" fill="#FEFECE" filter="url(#flyzvnh7w1h76)" rx="8" ry="8" style="stroke: #A80036; stroke-width: 2.0;"/><path d="M50,383 L50,410 M37,391 L63,391 M50,410 L37,425 M50,410 L63,425 " fill="#FEFECE" filter="url(#flyzvnh7w1h76)" style="stroke: #A80036; stroke-width: 2.0;"/><text fill="#000000" font-family="sans-serif" font-size="14" lengthAdjust="spacingAndGlyphs" textLength="55" x="22.5" y="444.9951">Student</text><!--entity Staff--><ellipse cx="50" cy="711" fill="#FEFECE" filter="url(#flyzvnh7w1h76)" rx="8" ry="8" style="stroke: #A80036; stroke-width: 2.0;"/><path d="M50,719 L50,746 M37,727 L63,727 M50,746 L37,761 M50,746 L63,761 " fill="#FEFECE" filter="url(#flyzvnh7w1h76)" style="stroke: #A80036; stroke-width: 2.0;"/><text fill="#000000" font-family="sans-serif" font-size="14" lengthAdjust="spacingAndGlyphs" textLength="30" x="35" y="780.9951">Staff</text><!--entity Admin--><ellipse cx="50" cy="18" fill="#FEFECE" filter="url(#flyzvnh7w1h76)" rx="8" ry="8" style="stroke: #A80036; stroke-width: 2.0;"/><path d="M50,26 L50,53 M37,34 L63,34 M50,53 L37,68 M50,53 L63,68 " fill="#FEFECE" filter="url(#flyzvnh7w1h76)" style="stroke: #A80036; stroke-width: 2.0;"/><text fill="#000000" font-family="sans-serif" font-size="14" lengthAdjust="spacingAndGlyphs" textLength="43" x="28.5" y="87.9951">Admin</text><!--entity Lecturer--><ellipse cx="619" cy="449" fill="#FEFECE" filter="url(#flyzvnh7w1h76)" rx="8" ry="8" style="stroke: #A80036; stroke-width: 2.0;"/><path d="M619,457 L619,484 M606,465 L632,465 M619,484 L606,499 M619,484 L632,499 " fill="#FEFECE" filter="url(#flyzvnh7w1h76)" style="stroke: #A80036; stroke-width: 2.0;"/><text fill="#000000" font-family="sans-serif" font-size="14" lengthAdjust="spacingAndGlyphs" textLength="57" x="590.5" y="518.9951">Lecturer</text><ellipse cx="321.7254" cy="117.7451" fill="#FEFECE" filter="url(#flyzvnh7w1h76)" rx="66.7254" ry="15.7451" style="stroke: #A80036; stroke-width: 1.5;"/><text fill="#000000" font-family="sans-serif" font-size="14" lengthAdjust="spacingAndGlyphs" textLength="98" x="272.7254" y="122.3935">Create project</text><ellipse cx="321.7401" cy="182.5236" fill="#FEFECE" filter="url(#flyzvnh7w1h76)" rx="56.7401" ry="14.5236" style="stroke: #A80036; stroke-width: 1.5;"/><text fill="#000000" font-family="sans-serif" font-size="14" lengthAdjust="spacingAndGlyphs" textLength="76" x="283.7401" y="187.1721">Join project</text><ellipse cx="321.6001" cy="247.42" fill="#FEFECE" filter="url(#flyzvnh7w1h76)" rx="62.6001" ry="14.92" style="stroke: #A80036; stroke-width: 1.5;"/><text fill="#000000" font-family="sans-serif" font-size="14" lengthAdjust="spacingAndGlyphs" textLength="87" x="278.1001" y="252.0685">Create tasks</text><ellipse cx="321.4619" cy="312.5236" fill="#FEFECE" filter="url(#flyzvnh7w1h76)" rx="48.9619" ry="14.5236" style="stroke: #A80036; stroke-width: 1.5;"/><text fill="#000000" font-family="sans-serif" font-size="14" lengthAdjust="spacingAndGlyphs" textLength="65" x="288.9619" y="317.1721">Join tasks</text><ellipse cx="321.6456" cy="378.5291" fill="#FEFECE" filter="url(#flyzvnh7w1h76)" rx="70.6456" ry="16.5291" style="stroke: #A80036; stroke-width: 1.5;"/><text fill="#000000" font-family="sans-serif" font-size="14" lengthAdjust="spacingAndGlyphs" textLength="108" x="267.6456" y="383.1776">Complete tasks</text><ellipse cx="811.1565" cy="448.6313" fill="#FEFECE" filter="url(#flyzvnh7w1h76)" rx="61.1565" ry="14.6313" style="stroke: #A80036; stroke-width: 1.5;"/><text fill="#000000" font-family="sans-serif" font-size="14" lengthAdjust="spacingAndGlyphs" textLength="83" x="769.6565" y="453.2797">View results</text><ellipse cx="811.0122" cy="512.5236" fill="#FEFECE" filter="url(#flyzvnh7w1h76)" rx="44.0122" ry="14.5236" style="stroke: #A80036; stroke-width: 1.5;"/><text fill="#000000" font-family="sans-serif" font-size="14" lengthAdjust="spacingAndGlyphs" textLength="58" x="782.0122" y="517.1721">Evaluate</text><ellipse cx="321.6147" cy="452.6229" fill="#FEFECE" filter="url(#flyzvnh7w1h76)" rx="98.6147" ry="22.1229" style="stroke: #A80036; stroke-width: 1.5;"/><text fill="#000000" font-family="sans-serif" font-size="14" lengthAdjust="spacingAndGlyphs" textLength="173" x="235.1147" y="457.2714">Create discussion thread</text><ellipse cx="321.3417" cy="525.6683" fill="#FEFECE" filter="url(#flyzvnh7w1h76)" rx="66.3417" ry="15.6683" style="stroke: #A80036; stroke-width: 1.5;"/><text fill="#000000" font-family="sans-serif" font-size="14" lengthAdjust="spacingAndGlyphs" textLength="97" x="272.8417" y="530.3168">Add comment</text><ellipse cx="321.4151" cy="594.683" fill="#FEFECE" filter="url(#flyzvnh7w1h76)" rx="81.4151" ry="18.683" style="stroke: #A80036; stroke-width: 1.5;"/><text fill="#000000" font-family="sans-serif" font-size="14" lengthAdjust="spacingAndGlyphs" textLength="134" x="254.4151" y="599.3315">Receive notification</text><ellipse cx="321.4411" cy="662.5236" fill="#FEFECE" filter="url(#flyzvnh7w1h76)" rx="36.9411" ry="14.5236" style="stroke: #A80036; stroke-width: 1.5;"/><text fill="#000000" font-family="sans-serif" font-size="14" lengthAdjust="spacingAndGlyphs" textLength="48" x="297.4411" y="667.1721">Search</text><ellipse cx="618.85" cy="594.37" fill="#FEFECE" filter="url(#flyzvnh7w1h76)" rx="69.85" ry="16.37" style="stroke: #A80036; stroke-width: 1.5;"/><text fill="#000000" font-family="sans-serif" font-size="14" lengthAdjust="spacingAndGlyphs" textLength="106" x="565.85" y="599.0184">Search student</text><ellipse cx="618.9543" cy="662.2909" fill="#FEFECE" filter="url(#flyzvnh7w1h76)" rx="69.4543" ry="16.2909" style="stroke: #A80036; stroke-width: 1.5;"/><text fill="#000000" font-family="sans-serif" font-size="14" lengthAdjust="spacingAndGlyphs" textLength="105" x="566.4543" y="666.9393">Search lecturer</text><ellipse cx="618.9975" cy="730.3995" fill="#FEFECE" filter="url(#flyzvnh7w1h76)" rx="67.4975" ry="15.8995" style="stroke: #A80036; stroke-width: 1.5;"/><text fill="#000000" font-family="sans-serif" font-size="14" lengthAdjust="spacingAndGlyphs" textLength="100" x="568.9975" y="735.0479">Search project</text><ellipse cx="321.4975" cy="862.3995" fill="#FEFECE" filter="url(#flyzvnh7w1h76)" rx="67.4975" ry="15.8995" style="stroke: #A80036; stroke-width: 1.5;"/><text fill="#000000" font-family="sans-serif" font-size="14" lengthAdjust="spacingAndGlyphs" textLength="100" x="271.4975" y="867.0479">Authentication</text><ellipse cx="50.0122" cy="854.5236" fill="#FEFECE" filter="url(#flyzvnh7w1h76)" rx="44.0122" ry="14.5236" style="stroke: #A80036; stroke-width: 1.5;"/><text fill="#000000" font-family="sans-serif" font-size="14" lengthAdjust="spacingAndGlyphs" textLength="58" x="21.0122" y="859.1721">Register</text><ellipse cx="50.163" cy="918.5236" fill="#FEFECE" filter="url(#flyzvnh7w1h76)" rx="29.163" ry="14.5236" style="stroke: #A80036; stroke-width: 1.5;"/><text fill="#000000" font-family="sans-serif" font-size="14" lengthAdjust="spacingAndGlyphs" textLength="37" x="31.663" y="923.1721">Login</text><ellipse cx="49.9411" cy="982.5236" fill="#FEFECE" filter="url(#flyzvnh7w1h76)" rx="36.9411" ry="14.5236" style="stroke: #A80036; stroke-width: 1.5;"/><text fill="#000000" font-family="sans-serif" font-size="14" lengthAdjust="spacingAndGlyphs" textLength="48" x="25.9411" y="987.1721">Logout</text><ellipse cx="321.466" cy="727.4932" fill="#FEFECE" filter="url(#flyzvnh7w1h76)" rx="62.966" ry="14.9932" style="stroke: #A80036; stroke-width: 1.5;"/><text fill="#000000" font-family="sans-serif" font-size="14" lengthAdjust="spacingAndGlyphs" textLength="88" x="277.466" y="732.1416">Make Report</text><ellipse cx="321.6576" cy="794.4315" fill="#FEFECE" filter="url(#flyzvnh7w1h76)" rx="72.6576" ry="16.9315" style="stroke: #A80036; stroke-width: 1.5;"/><text fill="#000000" font-family="sans-serif" font-size="14" lengthAdjust="spacingAndGlyphs" textLength="113" x="265.1576" y="799.0799">Export transcript</text><ellipse cx="321.3489" cy="49.2698" fill="#FEFECE" filter="url(#flyzvnh7w1h76)" rx="71.8489" ry="16.7698" style="stroke: #A80036; stroke-width: 1.5;"/><text fill="#000000" font-family="sans-serif" font-size="14" lengthAdjust="spacingAndGlyphs" textLength="111" x="265.8489" y="53.9182">Maintain system</text><!--link Staff to Search--><path d="M65.046,735.3925 C79.8173,728.6081 103.1091,718.4219 124,711.5 C178.2388,693.5289 242.7763,678.7069 282.9495,670.2283 " fill="none" id="Staff-Search" style="stroke: #A80036; stroke-width: 1.0;"/><polygon fill="#A80036" points="288.2101,669.1249,278.5806,667.0576,283.3166,670.1513,280.2229,674.8873,288.2101,669.1249" style="stroke: #A80036; stroke-width: 1.0;"/><!--link Staff to Export--><path d="M65.3749,745.4447 C102.09,752.4767 196.5293,770.5646 259.8883,782.6996 " fill="none" id="Staff-Export" style="stroke: #A80036; stroke-width: 1.0;"/><polygon fill="#A80036" points="265.1562,783.7086,257.0695,778.0867,260.2455,782.7679,255.5644,785.9439,265.1562,783.7086" style="stroke: #A80036; stroke-width: 1.0;"/><!--link Staff to Report--><path d="M65.3749,741.6506 C101.108,739.6764 191.5189,734.6813 254.7395,731.1884 " fill="none" id="Staff-Report" style="stroke: #A80036; stroke-width: 1.0;"/><polygon fill="#A80036" points="260.0051,730.8975,250.7981,727.4001,255.0127,731.1734,251.2395,735.3879,260.0051,730.8975" style="stroke: #A80036; stroke-width: 1.0;"/><!--link Staff to Authentication--><path d="M65.3924,751.1813 C95.1904,767.7738 163.1025,804.5551 223,829.5 C239.4459,836.3491 257.8658,842.8259 274.2877,848.198 " fill="none" id="Staff-Authentication" style="stroke: #A80036; stroke-width: 1.0;"/><polygon fill="#A80036" points="279.3156,849.829,271.9888,843.2473,274.5595,848.2863,269.5205,850.857,279.3156,849.829" style="stroke: #A80036; stroke-width: 1.0;"/><!--link Student to Search--><path d="M66.4666,448.2651 C79.4151,478.0336 99.3614,518.0145 124,548.5 C159.9128,592.935 172.9415,602.9619 223,630.5 C242.0082,640.9567 264.9792,648.665 283.9551,653.8928 " fill="none" id="Student-Search" style="stroke: #A80036; stroke-width: 1.0;"/><polygon fill="#A80036" points="289.1948,655.3018,281.5423,649.1018,284.3663,654.0034,279.4648,656.8274,289.1948,655.3018" style="stroke: #A80036; stroke-width: 1.0;"/><!--link Student to CreateP--><path d="M61.7139,364.8697 C73.4586,327.9391 94.109,273.7609 124,233.5 C158.2269,187.3989 172.9028,178.5547 223,150.5 C237.8307,142.1947 255.0923,135.5319 270.9847,130.4278 " fill="none" id="Student-CreateP" style="stroke: #A80036; stroke-width: 1.0;"/><polygon fill="#A80036" points="275.8686,128.8938,266.0835,127.7748,271.0984,130.3922,268.481,135.4071,275.8686,128.8938" style="stroke: #A80036; stroke-width: 1.0;"/><!--link Student to CreateT--><path d="M77.7708,373.3777 C90.8404,359.0647 107.2244,342.8139 124,330.5 C170.3363,296.4875 232.7039,273.2925 274.8603,260.2496 " fill="none" id="Student-CreateT" style="stroke: #A80036; stroke-width: 1.0;"/><polygon fill="#A80036" points="279.6422,258.7868,269.8658,257.5947,274.8609,260.2495,272.2061,265.2447,279.6422,258.7868" style="stroke: #A80036; stroke-width: 1.0;"/><!--link Student to JoinP--><path d="M70.4164,364.8685 C83.6294,340.4203 102.3741,309.8402 124,286.5 C160.9772,246.5915 174.5294,239.2103 223,214.5 C239.4044,206.137 258.4464,199.3442 275.3908,194.2036 " fill="none" id="Student-JoinP" style="stroke: #A80036; stroke-width: 1.0;"/><polygon fill="#A80036" points="280.5768,192.6614,270.81,191.3929,275.7842,194.0867,273.0904,199.0609,280.5768,192.6614" style="stroke: #A80036; stroke-width: 1.0;"/><!--link Student to JoinT--><path d="M77.5051,390.7242 C91.1838,383.3091 108.1447,374.7474 124,368.5 C175.0916,348.3686 236.2278,332.1839 276.8087,322.488 " fill="none" id="Student-JoinT" style="stroke: #A80036; stroke-width: 1.0;"/><polygon fill="#A80036" points="282.1476,321.2214,272.4673,319.4069,277.2826,322.3756,274.314,327.1909,282.1476,321.2214" style="stroke: #A80036; stroke-width: 1.0;"/><!--link Student to Complete--><path d="M77.527,403.6611 C118.0286,399.4842 195.0022,391.5458 251.7002,385.6985 " fill="none" id="Student-Complete" style="stroke: #A80036; stroke-width: 1.0;"/><polygon fill="#A80036" points="256.7769,385.1749,247.414,382.1194,251.8033,385.6879,248.2348,390.0772,256.7769,385.1749" style="stroke: #A80036; stroke-width: 1.0;"/><!--link Student to Thread--><path d="M77.527,411.1639 C114.7474,417.4701 182.7698,428.9951 237.5514,438.2767 " fill="none" id="Student-Thread" style="stroke: #A80036; stroke-width: 1.0;"/><polygon fill="#A80036" points="242.81,439.1676,234.6047,433.7203,237.8803,438.3323,233.2682,441.6079,242.81,439.1676" style="stroke: #A80036; stroke-width: 1.0;"/><!--link Student to Comment--><path d="M77.6155,421.7149 C111.3108,439.9291 170.3118,470.7003 223,492.5 C239.7637,499.436 258.562,506.0164 275.2074,511.4498 " fill="none" id="Student-Comment" style="stroke: #A80036; stroke-width: 1.0;"/><polygon fill="#A80036" points="280.2995,513.0983,272.9692,506.5206,275.5426,511.5582,270.505,514.1316,280.2995,513.0983" style="stroke: #A80036; stroke-width: 1.0;"/><!--link Student to Notification--><path d="M77.5705,438.5432 C90.9868,453.4377 107.7081,471.016 124,485.5 C164.857,521.8229 174.8387,532.6325 223,558.5 C236.9064,565.9692 252.6911,572.5083 267.4869,577.8906 " fill="none" id="Student-Notification" style="stroke: #A80036; stroke-width: 1.0;"/><polygon fill="#A80036" points="272.4625,579.6712,265.3365,572.8727,267.7549,577.9865,262.641,580.4049,272.4625,579.6712" style="stroke: #A80036; stroke-width: 1.0;"/><!--link Student to Authentication--><path d="M62.8673,448.0221 C76.6876,491.5053 99.9265,561.541 124,620.5 C128.8567,632.3946 213.3906,820.972 223,829.5 C234.2101,839.4486 248.5223,846.4156 262.7412,851.2885 " fill="none" id="Student-Authentication" style="stroke: #A80036; stroke-width: 1.0;"/><polygon fill="#A80036" points="267.5551,852.8621,260.2434,846.2637,262.8026,851.3085,257.7577,853.8677,267.5551,852.8621" style="stroke: #A80036; stroke-width: 1.0;"/><!--link Search to Lecturer--><path d="M360.9326,655.3003 C379.9881,650.4798 402.4669,642.7102 420,630.5 C437.6577,618.203 434.1664,607.0708 450,592.5 C494.4195,551.6233 555.1702,515.2499 590.4356,495.6914 " fill="none" id="Search-Lecturer" style="stroke: #A80036; stroke-width: 1.0;"/><polygon fill="#A80036" points="355.6557,656.583,365.3459,658.3438,360.5142,655.4019,363.4561,650.5702,355.6557,656.583" style="stroke: #A80036; stroke-width: 1.0;"/><!--link CreateP to Lecturer--><path d="M373.8759,130.0577 C389.4016,135.0712 405.9863,141.7755 420,150.5 C473.0922,183.5534 483.9326,198.716 519,250.5 C559.8941,310.8882 590.0849,390.7168 606.0717,438.6938 " fill="none" id="CreateP-Lecturer" style="stroke: #A80036; stroke-width: 1.0;"/><polygon fill="#A80036" points="369.0956,128.5557,376.4826,135.0696,373.8657,130.0545,378.8808,127.4375,369.0956,128.5557" style="stroke: #A80036; stroke-width: 1.0;"/><!--link JoinP to Lecturer--><path d="M372.3545,192.5908 C388.5815,197.4312 405.9554,204.4457 420,214.5 C503.7084,274.4257 567.4325,380.1068 598.3438,438.6014 " fill="none" id="JoinP-Lecturer" style="stroke: #A80036; stroke-width: 1.0;"/><polygon fill="#A80036" points="367.3603,191.1575,374.9075,197.4852,372.1663,192.5369,377.1146,189.7957,367.3603,191.1575" style="stroke: #A80036; stroke-width: 1.0;"/><!--link Thread to Lecturer--><path d="M417.414,461.5272 C477.5304,467.1852 550.8799,474.0887 590.4281,477.8109 " fill="none" id="Thread-Lecturer" style="stroke: #A80036; stroke-width: 1.0;"/><polygon fill="#A80036" points="412.3763,461.0531,420.9618,465.8789,417.3543,461.5217,421.7115,457.9141,412.3763,461.0531" style="stroke: #A80036; stroke-width: 1.0;"/><!--link Comment to Lecturer--><path d="M382.7309,516.2382 C446.2077,506.6366 542.6836,492.0437 590.3225,484.8378 " fill="none" id="Comment-Lecturer" style="stroke: #A80036; stroke-width: 1.0;"/><polygon fill="#A80036" points="377.4575,517.0358,386.9545,519.6446,382.4013,516.2879,385.758,511.7346,377.4575,517.0358" style="stroke: #A80036; stroke-width: 1.0;"/><!--link Authentication to Lecturer--><path d="M376.041,849.9614 C391.0545,845.0242 406.82,838.3563 420,829.5 C475.9779,791.8859 489.5692,775.1809 519,714.5 C549.43,651.759 518.3175,623.1179 549,560.5 C559.0694,539.9501 575.8074,520.5383 590.3913,505.9836 " fill="none" id="Authentication-Lecturer" style="stroke: #A80036; stroke-width: 1.0;"/><polygon fill="#A80036" points="370.9831,851.5701,380.7721,852.6539,375.7479,850.0546,378.3473,845.0303,370.9831,851.5701" style="stroke: #A80036; stroke-width: 1.0;"/><!--link Lecturer to View--><path d="M647.7443,475.7093 C676.1613,470.9731 720.3786,463.6036 755.6316,457.7281 " fill="none" id="Lecturer-View" style="stroke: #A80036; stroke-width: 1.0;"/><polygon fill="#A80036" points="760.7649,456.8725,751.2297,454.4068,755.833,457.6946,752.5451,462.2979,760.7649,456.8725" style="stroke: #A80036; stroke-width: 1.0;"/><!--link Lecturer to Evaluate--><path d="M647.7443,485.2907 C679.1526,490.5254 729.8625,498.9771 766.4373,505.0729 " fill="none" id="Lecturer-Evaluate" style="stroke: #A80036; stroke-width: 1.0;"/><polygon fill="#A80036" points="771.727,505.9545,763.5072,500.5291,766.7951,505.1324,762.1918,508.4202,771.727,505.9545" style="stroke: #A80036; stroke-width: 1.0;"/><!--link Admin to Maintain--><path d="M71.759,49.5 C108.708,49.5 185.4193,49.5 244.1315,49.5 " fill="none" id="Admin-Maintain" style="stroke: #A80036; stroke-width: 1.0;"/><polygon fill="#A80036" points="249.3967,49.5,240.3967,45.5,244.3967,49.5,240.3967,53.5,249.3967,49.5" style="stroke: #A80036; stroke-width: 1.0;"/><!--link Search to SearchS--><path d="M358.6106,654.0176 C411.6429,641.8959 509.254,619.5848 568.7278,605.9908 " fill="none" id="Search-SearchS" style="stroke: #A80036; stroke-width: 1.0; stroke-dasharray: 7.0,7.0;"/><polygon fill="#A80036" points="353.6204,655.1582,363.2854,657.0522,358.4947,654.0441,361.5028,649.2533,353.6204,655.1582" style="stroke: #A80036; stroke-width: 1.0;"/><text fill="#000000" font-family="sans-serif" font-size="13" lengthAdjust="spacingAndGlyphs" textLength="67" x="451" y="613.5669">«extends»</text><!--link Search to SearchL--><path d="M363.7264,662.5 C412.0051,662.5 491.775,662.5 549.306,662.5 " fill="none" id="Search-SearchL" style="stroke: #A80036; stroke-width: 1.0; stroke-dasharray: 7.0,7.0;"/><polygon fill="#A80036" points="358.5771,662.5,367.5771,666.5,363.5771,662.5,367.5771,658.5,358.5771,662.5" style="stroke: #A80036; stroke-width: 1.0;"/><text fill="#000000" font-family="sans-serif" font-size="13" lengthAdjust="spacingAndGlyphs" textLength="67" x="451" y="658.5669">«extends»</text><!--link Search to SearchP--><path d="M358.6554,670.9927 C412.1754,683.2258 511.0316,705.8215 570.3246,719.3742 " fill="none" id="Search-SearchP" style="stroke: #A80036; stroke-width: 1.0; stroke-dasharray: 7.0,7.0;"/><polygon fill="#A80036" points="353.6204,669.8418,361.5028,675.7467,358.4947,670.9559,363.2854,667.9478,353.6204,669.8418" style="stroke: #A80036; stroke-width: 1.0;"/><text fill="#000000" font-family="sans-serif" font-size="13" lengthAdjust="spacingAndGlyphs" textLength="67" x="451" y="687.5669">«extends»</text><!--link Register to Authentication--><path d="M91.8275,859.1133 C102.3185,860.0894 113.5602,860.9808 124,861.5 C165.1277,863.5453 211.1319,863.8917 248.3863,863.683 " fill="none" id="Register-Authentication" style="stroke: #A80036; stroke-width: 1.0; stroke-dasharray: 7.0,7.0;"/><polygon fill="#A80036" points="253.8177,863.6484,244.7923,859.7061,248.8178,863.6804,244.8435,867.7059,253.8177,863.6484" style="stroke: #A80036; stroke-width: 1.0;"/><text fill="#000000" font-family="sans-serif" font-size="13" lengthAdjust="spacingAndGlyphs" textLength="67" x="125" y="857.5669">«extends»</text><!--link Login to Authentication--><path d="M77.025,912.9258 C120.7061,903.916 207.731,885.9662 265.2867,874.0946 " fill="none" id="Login-Authentication" style="stroke: #A80036; stroke-width: 1.0; stroke-dasharray: 7.0,7.0;"/><polygon fill="#A80036" points="270.4155,873.0368,260.793,870.9376,265.5186,874.047,262.4092,878.7726,270.4155,873.0368" style="stroke: #A80036; stroke-width: 1.0;"/><text fill="#000000" font-family="sans-serif" font-size="13" lengthAdjust="spacingAndGlyphs" textLength="67" x="125" y="886.5669">«extends»</text><!--link Logout to Authentication--><path d="M77.4447,972.5793 C106.4537,961.9015 153.3984,944.0744 193,926.5 C226.2407,911.7484 263.336,893.0204 289.0922,879.6416 " fill="none" id="Logout-Authentication" style="stroke: #A80036; stroke-width: 1.0; stroke-dasharray: 7.0,7.0;"/><polygon fill="#A80036" points="293.7659,877.2079,283.9359,877.8167,289.3311,879.5172,287.6307,884.9124,293.7659,877.2079" style="stroke: #A80036; stroke-width: 1.0;"/><text fill="#000000" font-family="sans-serif" font-size="13" lengthAdjust="spacingAndGlyphs" textLength="67" x="125" y="922.5669">«extends»</text><!--
@startuml
left to right direction
actor Student
actor Staff
actor Admin
actor Lecturer

usecase "Create project" as CreateP
usecase "Join project" as JoinP
usecase "Create tasks" as CreateT
usecase "Join tasks" as JoinT
usecase "Complete tasks" as Complete
usecase "View results" as View
usecase Evaluate
usecase "Create discussion thread" as Thread
usecase "Add comment" as Comment
usecase "Receive notification" as Notification

usecase Search
usecase "Search student" as SearchS
usecase "Search lecturer" as SearchL
usecase "Search project" as SearchP

usecase Authentication
usecase Register
usecase Login
usecase Logout

usecase "Make Report" as Report
usecase "Export transcript" as Export

usecase "Maintain system" as Maintain

Staff - -> Search
Staff - -> Export
Staff - -> Report
Staff - -> Authentication

Student - -> Search
Student - -> CreateP
Student - -> CreateT
Student - -> JoinP
Student - -> JoinT
Student - -> Complete
Student - -> Thread
Student - -> Comment
Student - -> Notification
Student - -> Authentication

Search <- - Lecturer
CreateP <- - Lecturer
JoinP <- - Lecturer
Thread <- - Lecturer
Comment <- - Lecturer
Authentication <- - Lecturer

Lecturer - -> View
Lecturer - -> Evaluate

Admin - -> Maintain

Search <.. SearchS: <<extends>>
Search <.. SearchL: <<extends>>
Search <.. SearchP: <<extends>>

Register ..> Authentication : <<extends>>
Login ..> Authentication : <<extends>>
Logout ..> Authentication : <<extends>>

@enduml

PlantUML version 1.2017.15(Mon Jul 03 16:45:34 UTC 2017)
(GPL source distribution)
Java Runtime: OpenJDK Runtime Environment
JVM: OpenJDK 64-Bit Server VM
Java Version: 1.8.0_275-b01
Operating System: Linux
OS Version: 5.4.0-1031-azure
Default Encoding: UTF-8
Language: en
Country: null
--></g></svg>