<?xml version="1.0" encoding="UTF-8" standalone="no"?><svg xmlns="http://www.w3.org/2000/svg" xmlns:xlink="http://www.w3.org/1999/xlink" contentScriptType="application/ecmascript" contentStyleType="text/css" height="263px" preserveAspectRatio="none" style="width:666px;height:263px;" version="1.1" viewBox="0 0 666 263" width="666px" zoomAndPan="magnify"><defs><filter height="300%" id="f1puvsy085rdkg" width="300%" x="-1" y="-1"><feGaussianBlur result="blurOut" stdDeviation="2.0"/><feColorMatrix in="blurOut" result="blurOut2" type="matrix" values="0 0 0 0 0 0 0 0 0 0 0 0 0 0 0 0 0 0 .4 0"/><feOffset dx="4.0" dy="4.0" in="blurOut2" result="blurOut3"/><feBlend in="SourceGraphic" in2="blurOut3" mode="normal"/></filter></defs><g><rect fill="#FFFFFF" filter="url(#f1puvsy085rdkg)" height="87.3984" style="stroke: #A80036; stroke-width: 1.0;" width="10" x="410" y="117.4297"/><rect fill="#FFFFFF" filter="url(#f1puvsy085rdkg)" height="29.1328" style="stroke: #A80036; stroke-width: 1.0;" width="10" x="626" y="146.5625"/><line style="stroke: #A80036; stroke-width: 1.0; stroke-dasharray: 5.0,5.0;" x1="29" x2="29" y1="86.2969" y2="251.9609"/><line style="stroke: #A80036; stroke-width: 1.0; stroke-dasharray: 5.0,5.0;" x1="266" x2="266" y1="86.2969" y2="251.9609"/><line style="stroke: #A80036; stroke-width: 1.0; stroke-dasharray: 5.0,5.0;" x1="415" x2="415" y1="86.2969" y2="251.9609"/><line style="stroke: #A80036; stroke-width: 1.0; stroke-dasharray: 5.0,5.0;" x1="630.5" x2="630.5" y1="86.2969" y2="251.9609"/><text fill="#000000" font-family="sans-serif" font-size="14" lengthAdjust="spacingAndGlyphs" text-decoration="underline" textLength="37" x="8" y="82.9951">:User</text><line style="stroke: #000000; stroke-width: 1.0;" x1="8" x2="45" y1="84.9951" y2="84.9951"/><ellipse cx="29.5" cy="13" fill="#FEFECE" filter="url(#f1puvsy085rdkg)" rx="8" ry="8" style="stroke: #A80036; stroke-width: 2.0;"/><path d="M29.5,21 L29.5,48 M16.5,29 L42.5,29 M29.5,48 L16.5,63 M29.5,48 L42.5,63 " fill="none" filter="url(#f1puvsy085rdkg)" style="stroke: #A80036; stroke-width: 2.0;"/><text fill="#000000" font-family="sans-serif" font-size="14" lengthAdjust="spacingAndGlyphs" text-decoration="underline" textLength="141" x="193" y="82.9951">:Invite Member Form</text><line style="stroke: #000000; stroke-width: 1.0;" x1="193" x2="334" y1="84.9951" y2="84.9951"/><path d="M246,42 L246,66 M246,54 L263,54 " fill="none" filter="url(#f1puvsy085rdkg)" style="stroke: #A80036; stroke-width: 2.0;"/><ellipse cx="275" cy="54" fill="#FEFECE" filter="url(#f1puvsy085rdkg)" rx="12" ry="12" style="stroke: #A80036; stroke-width: 2.0;"/><text fill="#000000" font-family="sans-serif" font-size="14" lengthAdjust="spacingAndGlyphs" text-decoration="underline" textLength="124" x="350" y="82.9951">:Project Controller</text><line style="stroke: #000000; stroke-width: 1.0;" x1="350" x2="474" y1="84.9951" y2="84.9951"/><ellipse cx="415" cy="54" fill="#FEFECE" filter="url(#f1puvsy085rdkg)" rx="12" ry="12" style="stroke: #A80036; stroke-width: 2.0;"/><polygon fill="#A80036" points="411,42,417,37,415,42,417,47,411,42" style="stroke: #A80036; stroke-width: 1.0;"/><text fill="#000000" font-family="sans-serif" font-size="14" lengthAdjust="spacingAndGlyphs" text-decoration="underline" textLength="53" x="601.5" y="82.9951">:Project</text><line style="stroke: #000000; stroke-width: 1.0;" x1="601.5" x2="654.5" y1="84.9951" y2="84.9951"/><ellipse cx="631" cy="54" fill="#FEFECE" filter="url(#f1puvsy085rdkg)" rx="12" ry="12" style="stroke: #A80036; stroke-width: 2.0;"/><line style="stroke: #A80036; stroke-width: 2.0;" x1="619" x2="643" y1="68" y2="68"/><rect fill="#FFFFFF" filter="url(#f1puvsy085rdkg)" height="87.3984" style="stroke: #A80036; stroke-width: 1.0;" width="10" x="410" y="117.4297"/><rect fill="#FFFFFF" filter="url(#f1puvsy085rdkg)" height="29.1328" style="stroke: #A80036; stroke-width: 1.0;" width="10" x="626" y="146.5625"/><polygon fill="#A80036" points="398,113.4297,408,117.4297,398,121.4297,402,117.4297" style="stroke: #A80036; stroke-width: 1.0;"/><line style="stroke: #A80036; stroke-width: 1.0;" x1="29.5" x2="404" y1="117.4297" y2="117.4297"/><text fill="#000000" font-family="sans-serif" font-size="13" lengthAdjust="spacingAndGlyphs" textLength="144" x="36.5" y="112.3638">// select member tab()</text><polygon fill="#A80036" points="614,142.5625,624,146.5625,614,150.5625,618,146.5625" style="stroke: #A80036; stroke-width: 1.0;"/><line style="stroke: #A80036; stroke-width: 1.0;" x1="420" x2="620" y1="146.5625" y2="146.5625"/><text fill="#000000" font-family="sans-serif" font-size="13" lengthAdjust="spacingAndGlyphs" textLength="187" x="427" y="141.4966">// list member in the project()</text><polygon fill="#A80036" points="431,171.6953,421,175.6953,431,179.6953,427,175.6953" style="stroke: #A80036; stroke-width: 1.0;"/><line style="stroke: #A80036; stroke-width: 1.0; stroke-dasharray: 2.0,2.0;" x1="425" x2="630" y1="175.6953" y2="175.6953"/><text fill="#000000" font-family="sans-serif" font-size="13" lengthAdjust="spacingAndGlyphs" textLength="51" x="437" y="170.6294">// return</text><polygon fill="#A80036" points="277.5,200.8281,267.5,204.8281,277.5,208.8281,273.5,204.8281" style="stroke: #A80036; stroke-width: 1.0;"/><line style="stroke: #A80036; stroke-width: 1.0; stroke-dasharray: 2.0,2.0;" x1="271.5" x2="414" y1="204.8281" y2="204.8281"/><text fill="#000000" font-family="sans-serif" font-size="13" lengthAdjust="spacingAndGlyphs" textLength="89" x="283.5" y="199.7622">// list member</text><polygon fill="#A80036" points="40.5,229.9609,30.5,233.9609,40.5,237.9609,36.5,233.9609" style="stroke: #A80036; stroke-width: 1.0;"/><line style="stroke: #A80036; stroke-width: 1.0; stroke-dasharray: 2.0,2.0;" x1="34.5" x2="265.5" y1="233.9609" y2="233.9609"/><text fill="#000000" font-family="sans-serif" font-size="13" lengthAdjust="spacingAndGlyphs" textLength="213" x="46.5" y="228.895">// show list member in the project</text><!--
@startuml
hide footbox
autoactivate on
skinparam sequenceParticipant underline
actor ":User" as usr
boundary ":Invite Member Form" as form
control ":Project Controller" as ctl
entity ":Project" as db_prj

usr -> ctl : // select member tab()
ctl -> db_prj : // list member in the project()
ctl <- - db_prj : // return
form <- - ctl : // list member
usr <- - form : // show list member in the project
@enduml

PlantUML version 1.2018.13(Mon Nov 26 17:11:51 UTC 2018)
(GPL source distribution)
Java Runtime: OpenJDK Runtime Environment
JVM: OpenJDK 64-Bit Server VM
Java Version: 11.0.10+9
Operating System: Linux
OS Version: 5.4.0-1036-azure
Default Encoding: UTF-8
Language: en
Country: null
--></g></svg>