<?xml version="1.0" encoding="UTF-8" standalone="no"?><svg xmlns="http://www.w3.org/2000/svg" xmlns:xlink="http://www.w3.org/1999/xlink" contentScriptType="application/ecmascript" contentStyleType="text/css" height="1009px" preserveAspectRatio="none" style="width:883px;height:1009px;" version="1.1" viewBox="0 0 883 1009" width="883px" zoomAndPan="magnify"><defs><filter height="300%" id="fu2oorey725zr" width="300%" x="-1" y="-1"><feGaussianBlur result="blurOut" stdDeviation="2.0"/><feColorMatrix in="blurOut" result="blurOut2" type="matrix" values="0 0 0 0 0 0 0 0 0 0 0 0 0 0 0 0 0 0 .4 0"/><feOffset dx="4.0" dy="4.0" in="blurOut2" result="blurOut3"/><feBlend in="SourceGraphic" in2="blurOut3" mode="normal"/></filter></defs><g><!--entity Student--><ellipse cx="50" cy="376" fill="#FEFECE" filter="url(#fu2oorey725zr)" rx="8" ry="8" style="stroke: #A80036; stroke-width: 2.0;"/><path d="M50,384 L50,411 M37,392 L63,392 M50,411 L37,426 M50,411 L63,426 " fill="none" filter="url(#fu2oorey725zr)" style="stroke: #A80036; stroke-width: 2.0;"/><text fill="#000000" font-family="sans-serif" font-size="14" lengthAdjust="spacingAndGlyphs" textLength="55" x="22.5" y="445.9951">Student</text><!--entity Staff--><ellipse cx="50" cy="712" fill="#FEFECE" filter="url(#fu2oorey725zr)" rx="8" ry="8" style="stroke: #A80036; stroke-width: 2.0;"/><path d="M50,720 L50,747 M37,728 L63,728 M50,747 L37,762 M50,747 L63,762 " fill="none" filter="url(#fu2oorey725zr)" style="stroke: #A80036; stroke-width: 2.0;"/><text fill="#000000" font-family="sans-serif" font-size="14" lengthAdjust="spacingAndGlyphs" textLength="30" x="35" y="781.9951">Staff</text><!--entity Admin--><ellipse cx="50" cy="18" fill="#FEFECE" filter="url(#fu2oorey725zr)" rx="8" ry="8" style="stroke: #A80036; stroke-width: 2.0;"/><path d="M50,26 L50,53 M37,34 L63,34 M50,53 L37,68 M50,53 L63,68 " fill="none" filter="url(#fu2oorey725zr)" style="stroke: #A80036; stroke-width: 2.0;"/><text fill="#000000" font-family="sans-serif" font-size="14" lengthAdjust="spacingAndGlyphs" textLength="43" x="28.5" y="87.9951">Admin</text><!--entity Lecturer--><ellipse cx="619" cy="450" fill="#FEFECE" filter="url(#fu2oorey725zr)" rx="8" ry="8" style="stroke: #A80036; stroke-width: 2.0;"/><path d="M619,458 L619,485 M606,466 L632,466 M619,485 L606,500 M619,485 L632,500 " fill="none" filter="url(#fu2oorey725zr)" style="stroke: #A80036; stroke-width: 2.0;"/><text fill="#000000" font-family="sans-serif" font-size="14" lengthAdjust="spacingAndGlyphs" textLength="57" x="590.5" y="519.9951">Lecturer</text><ellipse cx="321.7254" cy="117.7451" fill="#FEFECE" filter="url(#fu2oorey725zr)" rx="66.7254" ry="15.7451" style="stroke: #A80036; stroke-width: 1.5;"/><text fill="#000000" font-family="sans-serif" font-size="14" lengthAdjust="spacingAndGlyphs" textLength="98" x="272.7254" y="122.3935">Create project</text><ellipse cx="321.7401" cy="182.5236" fill="#FEFECE" filter="url(#fu2oorey725zr)" rx="56.7401" ry="14.5236" style="stroke: #A80036; stroke-width: 1.5;"/><text fill="#000000" font-family="sans-serif" font-size="14" lengthAdjust="spacingAndGlyphs" textLength="76" x="283.7401" y="187.1721">Join project</text><ellipse cx="321.6001" cy="247.42" fill="#FEFECE" filter="url(#fu2oorey725zr)" rx="62.6001" ry="14.92" style="stroke: #A80036; stroke-width: 1.5;"/><text fill="#000000" font-family="sans-serif" font-size="14" lengthAdjust="spacingAndGlyphs" textLength="87" x="278.1001" y="252.0685">Create tasks</text><ellipse cx="321.6001" cy="312.42" fill="#FEFECE" filter="url(#fu2oorey725zr)" rx="62.6001" ry="14.92" style="stroke: #A80036; stroke-width: 1.5;"/><text fill="#000000" font-family="sans-serif" font-size="14" lengthAdjust="spacingAndGlyphs" textLength="87" x="278.1001" y="317.0685">Assign tasks</text><ellipse cx="321.6456" cy="379.5291" fill="#FEFECE" filter="url(#fu2oorey725zr)" rx="70.6456" ry="16.5291" style="stroke: #A80036; stroke-width: 1.5;"/><text fill="#000000" font-family="sans-serif" font-size="14" lengthAdjust="spacingAndGlyphs" textLength="108" x="267.6456" y="384.1776">Complete tasks</text><ellipse cx="811.1565" cy="449.6313" fill="#FEFECE" filter="url(#fu2oorey725zr)" rx="61.1565" ry="14.6313" style="stroke: #A80036; stroke-width: 1.5;"/><text fill="#000000" font-family="sans-serif" font-size="14" lengthAdjust="spacingAndGlyphs" textLength="83" x="769.6565" y="454.2797">View results</text><ellipse cx="811.0122" cy="513.5236" fill="#FEFECE" filter="url(#fu2oorey725zr)" rx="44.0122" ry="14.5236" style="stroke: #A80036; stroke-width: 1.5;"/><text fill="#000000" font-family="sans-serif" font-size="14" lengthAdjust="spacingAndGlyphs" textLength="58" x="782.0122" y="518.1721">Evaluate</text><ellipse cx="321.6147" cy="453.6229" fill="#FEFECE" filter="url(#fu2oorey725zr)" rx="98.6147" ry="22.1229" style="stroke: #A80036; stroke-width: 1.5;"/><text fill="#000000" font-family="sans-serif" font-size="14" lengthAdjust="spacingAndGlyphs" textLength="173" x="235.1147" y="458.2714">Create discussion thread</text><ellipse cx="321.3417" cy="526.6683" fill="#FEFECE" filter="url(#fu2oorey725zr)" rx="66.3417" ry="15.6683" style="stroke: #A80036; stroke-width: 1.5;"/><text fill="#000000" font-family="sans-serif" font-size="14" lengthAdjust="spacingAndGlyphs" textLength="97" x="272.8417" y="531.3168">Add comment</text><ellipse cx="321.4151" cy="595.683" fill="#FEFECE" filter="url(#fu2oorey725zr)" rx="81.4151" ry="18.683" style="stroke: #A80036; stroke-width: 1.5;"/><text fill="#000000" font-family="sans-serif" font-size="14" lengthAdjust="spacingAndGlyphs" textLength="134" x="254.4151" y="600.3315">Receive notification</text><ellipse cx="321.4411" cy="663.5236" fill="#FEFECE" filter="url(#fu2oorey725zr)" rx="36.9411" ry="14.5236" style="stroke: #A80036; stroke-width: 1.5;"/><text fill="#000000" font-family="sans-serif" font-size="14" lengthAdjust="spacingAndGlyphs" textLength="48" x="297.4411" y="668.1721">Search</text><ellipse cx="618.85" cy="595.37" fill="#FEFECE" filter="url(#fu2oorey725zr)" rx="69.85" ry="16.37" style="stroke: #A80036; stroke-width: 1.5;"/><text fill="#000000" font-family="sans-serif" font-size="14" lengthAdjust="spacingAndGlyphs" textLength="106" x="565.85" y="600.0184">Search student</text><ellipse cx="618.9543" cy="663.2909" fill="#FEFECE" filter="url(#fu2oorey725zr)" rx="69.4543" ry="16.2909" style="stroke: #A80036; stroke-width: 1.5;"/><text fill="#000000" font-family="sans-serif" font-size="14" lengthAdjust="spacingAndGlyphs" textLength="105" x="566.4543" y="667.9393">Search lecturer</text><ellipse cx="618.9975" cy="731.3995" fill="#FEFECE" filter="url(#fu2oorey725zr)" rx="67.4975" ry="15.8995" style="stroke: #A80036; stroke-width: 1.5;"/><text fill="#000000" font-family="sans-serif" font-size="14" lengthAdjust="spacingAndGlyphs" textLength="100" x="568.9975" y="736.0479">Search project</text><ellipse cx="321.4975" cy="863.3995" fill="#FEFECE" filter="url(#fu2oorey725zr)" rx="67.4975" ry="15.8995" style="stroke: #A80036; stroke-width: 1.5;"/><text fill="#000000" font-family="sans-serif" font-size="14" lengthAdjust="spacingAndGlyphs" textLength="100" x="271.4975" y="868.0479">Authentication</text><ellipse cx="50.0122" cy="855.5236" fill="#FEFECE" filter="url(#fu2oorey725zr)" rx="44.0122" ry="14.5236" style="stroke: #A80036; stroke-width: 1.5;"/><text fill="#000000" font-family="sans-serif" font-size="14" lengthAdjust="spacingAndGlyphs" textLength="58" x="21.0122" y="860.1721">Register</text><ellipse cx="50.163" cy="919.5236" fill="#FEFECE" filter="url(#fu2oorey725zr)" rx="29.163" ry="14.5236" style="stroke: #A80036; stroke-width: 1.5;"/><text fill="#000000" font-family="sans-serif" font-size="14" lengthAdjust="spacingAndGlyphs" textLength="37" x="31.663" y="924.1721">Login</text><ellipse cx="49.9411" cy="983.5236" fill="#FEFECE" filter="url(#fu2oorey725zr)" rx="36.9411" ry="14.5236" style="stroke: #A80036; stroke-width: 1.5;"/><text fill="#000000" font-family="sans-serif" font-size="14" lengthAdjust="spacingAndGlyphs" textLength="48" x="25.9411" y="988.1721">Logout</text><ellipse cx="321.466" cy="728.4932" fill="#FEFECE" filter="url(#fu2oorey725zr)" rx="62.966" ry="14.9932" style="stroke: #A80036; stroke-width: 1.5;"/><text fill="#000000" font-family="sans-serif" font-size="14" lengthAdjust="spacingAndGlyphs" textLength="88" x="277.466" y="733.1416">Make Report</text><ellipse cx="321.6576" cy="795.4315" fill="#FEFECE" filter="url(#fu2oorey725zr)" rx="72.6576" ry="16.9315" style="stroke: #A80036; stroke-width: 1.5;"/><text fill="#000000" font-family="sans-serif" font-size="14" lengthAdjust="spacingAndGlyphs" textLength="113" x="265.1576" y="800.0799">Export transcript</text><ellipse cx="321.3489" cy="49.2698" fill="#FEFECE" filter="url(#fu2oorey725zr)" rx="71.8489" ry="16.7698" style="stroke: #A80036; stroke-width: 1.5;"/><text fill="#000000" font-family="sans-serif" font-size="14" lengthAdjust="spacingAndGlyphs" textLength="111" x="265.8489" y="53.9182">Maintain system</text><!--link Staff to Search--><path d="M65.01,736.77 C79.52,729.98 102.98,719.54 124,712.5 C178.24,694.34 242.91,679.47 282.84,671.05 " fill="none" id="Staff-Search" style="stroke: #A80036; stroke-width: 1.0;"/><polygon fill="#A80036" points="288.06,669.95,278.4302,667.8842,283.1666,670.9772,280.0737,675.7136,288.06,669.95" style="stroke: #A80036; stroke-width: 1.0;"/><!--link Staff to Export--><path d="M65.11,746.22 C100.77,753.1 196.18,771.51 259.74,783.78 " fill="none" id="Staff-Export" style="stroke: #A80036; stroke-width: 1.0;"/><polygon fill="#A80036" points="265.03,784.8,256.9607,779.1532,260.1222,783.8441,255.4313,787.0056,265.03,784.8" style="stroke: #A80036; stroke-width: 1.0;"/><!--link Staff to Report--><path d="M65.11,742.71 C99.82,740.78 191.14,735.7 254.61,732.17 " fill="none" id="Staff-Report" style="stroke: #A80036; stroke-width: 1.0;"/><polygon fill="#A80036" points="259.89,731.87,250.6864,728.3637,254.8974,732.141,251.1201,736.352,259.89,731.87" style="stroke: #A80036; stroke-width: 1.0;"/><!--link Staff to Authentication--><path d="M65.39,751.66 C94.53,767.99 162.83,805.25 223,830.5 C239.43,837.39 257.84,843.92 274.21,849.32 " fill="none" id="Staff-Authentication" style="stroke: #A80036; stroke-width: 1.0;"/><polygon fill="#A80036" points="279.22,850.96,271.8988,844.3721,274.4653,849.4133,269.4241,851.9797,279.22,850.96" style="stroke: #A80036; stroke-width: 1.0;"/><!--link Student to Search--><path d="M67.14,449.28 C79.86,479.05 99.52,519.03 124,549.5 C159.79,594.03 172.98,603.89 223,631.5 C241.96,641.97 264.9,649.71 283.76,654.95 " fill="none" id="Student-Search" style="stroke: #A80036; stroke-width: 1.0;"/><polygon fill="#A80036" points="288.97,656.37,281.3194,650.1678,284.1419,655.0701,279.2396,657.8927,288.97,656.37" style="stroke: #A80036; stroke-width: 1.0;"/><!--link Student to CreateP--><path d="M62.17,365.7 C73.55,328.3 93.84,273.25 124,232.5 C157.99,186.58 173.11,178.34 223,150.5 C237.85,142.21 255.13,135.53 270.98,130.4 " fill="none" id="Student-CreateP" style="stroke: #A80036; stroke-width: 1.0;"/><polygon fill="#A80036" points="275.85,128.85,266.0637,127.7416,271.0814,130.3536,268.4695,135.3713,275.85,128.85" style="stroke: #A80036; stroke-width: 1.0;"/><!--link Student to CreateT--><path d="M77.62,374.73 C90.61,360.05 107.06,343.22 124,330.5 C169.68,296.21 231.64,273.11 273.69,260.17 " fill="none" id="Student-CreateT" style="stroke: #A80036; stroke-width: 1.0;"/><polygon fill="#A80036" points="278.71,258.64,268.9351,257.4349,273.9268,260.0964,271.2653,265.088,278.71,258.64" style="stroke: #A80036; stroke-width: 1.0;"/><!--link Student to JoinP--><path d="M70.41,365.95 C83.36,340.92 102.02,309.38 124,285.5 C160.67,245.66 174.72,239 223,214.5 C239.41,206.17 258.46,199.35 275.34,194.18 " fill="none" id="Student-JoinP" style="stroke: #A80036; stroke-width: 1.0;"/><polygon fill="#A80036" points="280.5,192.63,270.7295,191.3902,275.7117,194.0694,273.0325,199.0515,280.5,192.63" style="stroke: #A80036; stroke-width: 1.0;"/><!--link Student to AssignT--><path d="M77.78,391.93 C91.33,384.48 108.22,375.82 124,369.5 C172.44,350.09 229.99,334.19 270.25,324.16 " fill="none" id="Student-AssignT" style="stroke: #A80036; stroke-width: 1.0;"/><polygon fill="#A80036" points="275.56,322.84,265.8633,321.1154,270.7059,324.0392,267.7821,328.8819,275.56,322.84" style="stroke: #A80036; stroke-width: 1.0;"/><!--link Student to Complete--><path d="M77.83,404.71 C118.02,400.54 195.18,392.52 251.74,386.64 " fill="none" id="Student-Complete" style="stroke: #A80036; stroke-width: 1.0;"/><polygon fill="#A80036" points="256.81,386.12,247.4375,383.094,251.838,386.6486,248.2833,391.0491,256.81,386.12" style="stroke: #A80036; stroke-width: 1.0;"/><!--link Student to Thread--><path d="M77.83,412.08 C114.71,418.38 182.74,429.99 237.4,439.32 " fill="none" id="Student-Thread" style="stroke: #A80036; stroke-width: 1.0;"/><polygon fill="#A80036" points="242.65,440.21,234.4531,434.7501,237.7215,439.3672,233.1045,442.6357,242.65,440.21" style="stroke: #A80036; stroke-width: 1.0;"/><!--link Student to Comment--><path d="M77.57,422.22 C110.92,440.36 170.15,471.47 223,493.5 C239.74,500.48 258.53,507.11 275.12,512.58 " fill="none" id="Student-Comment" style="stroke: #A80036; stroke-width: 1.0;"/><polygon fill="#A80036" points="280.19,514.23,272.8688,507.6421,275.4353,512.6833,270.3941,515.2497,280.19,514.23" style="stroke: #A80036; stroke-width: 1.0;"/><!--link Student to Notification--><path d="M77.8,439.19 C91.07,454.17 107.72,471.93 124,486.5 C164.73,522.96 174.88,533.55 223,559.5 C236.84,566.96 252.56,573.52 267.27,578.92 " fill="none" id="Student-Notification" style="stroke: #A80036; stroke-width: 1.0;"/><polygon fill="#A80036" points="272.21,580.7,265.1072,573.8773,267.5081,578.9993,262.3861,581.4003,272.21,580.7" style="stroke: #A80036; stroke-width: 1.0;"/><!--link Student to Authentication--><path d="M63.63,449.04 C77.2,492.53 100.08,562.58 124,621.5 C128.83,633.4 213.4,821.96 223,830.5 C234.15,840.43 248.41,847.39 262.56,852.27 " fill="none" id="Student-Authentication" style="stroke: #A80036; stroke-width: 1.0;"/><polygon fill="#A80036" points="267.35,853.84,260.0648,847.2124,262.6037,852.2674,257.5487,854.8064,267.35,853.84" style="stroke: #A80036; stroke-width: 1.0;"/><!--link Search to Lecturer--><path d="M361.1,656.34 C380.05,651.51 402.51,643.72 420,631.5 C437.64,619.18 434.19,608.09 450,593.5 C494.44,552.49 555.27,515.9 590.22,496.39 " fill="none" id="Search-Lecturer" style="stroke: #A80036; stroke-width: 1.0;"/><polygon fill="#A80036" points="355.85,657.62,365.5467,659.3446,360.7041,656.4208,363.6279,651.5781,355.85,657.62" style="stroke: #A80036; stroke-width: 1.0;"/><!--link CreateP to Lecturer--><path d="M373.91,129.94 C389.41,134.97 406.01,141.71 420,150.5 C473.23,183.94 483.98,199.3 519,251.5 C559.57,311.97 589.43,391.77 605.23,439.72 " fill="none" id="CreateP-Lecturer" style="stroke: #A80036; stroke-width: 1.0;"/><polygon fill="#A80036" points="369.14,128.43,376.5084,134.9651,373.9058,129.9425,378.9283,127.3399,369.14,128.43" style="stroke: #A80036; stroke-width: 1.0;"/><!--link JoinP to Lecturer--><path d="M372.41,192.5 C388.6,197.35 405.99,204.39 420,214.5 C503.78,274.93 567.2,381.39 597.77,439.97 " fill="none" id="JoinP-Lecturer" style="stroke: #A80036; stroke-width: 1.0;"/><polygon fill="#A80036" points="367.43,191.07,374.9674,197.4093,372.2338,192.4568,377.1863,189.7232,367.43,191.07" style="stroke: #A80036; stroke-width: 1.0;"/><!--link Thread to Lecturer--><path d="M417.4,462.49 C477.48,468.19 551,475.15 590.22,478.87 " fill="none" id="Thread-Lecturer" style="stroke: #A80036; stroke-width: 1.0;"/><polygon fill="#A80036" points="412.36,462.01,420.9435,466.8395,417.3378,462.4807,421.6966,458.875,412.36,462.01" style="stroke: #A80036; stroke-width: 1.0;"/><!--link Comment to Lecturer--><path d="M383,517.29 C446.36,507.64 543.07,492.91 590.22,485.73 " fill="none" id="Comment-Lecturer" style="stroke: #A80036; stroke-width: 1.0;"/><polygon fill="#A80036" points="377.73,518.09,387.2319,520.6812,382.6724,517.3329,386.0206,512.7734,377.73,518.09" style="stroke: #A80036; stroke-width: 1.0;"/><!--link Authentication to Lecturer--><path d="M376.49,850.88 C391.35,845.94 406.95,839.3 420,830.5 C475.92,792.8 489.57,776.18 519,715.5 C549.43,652.76 518.54,624.23 549,561.5 C559.01,540.88 575.7,521.32 590.15,506.7 " fill="none" id="Authentication-Lecturer" style="stroke: #A80036; stroke-width: 1.0;"/><polygon fill="#A80036" points="371.48,852.49,381.2722,853.545,376.2403,850.9604,378.8249,845.9285,371.48,852.49" style="stroke: #A80036; stroke-width: 1.0;"/><!--link Lecturer to View--><path d="M647.63,476.85 C675.78,472.11 720.2,464.62 755.47,458.68 " fill="none" id="Lecturer-View" style="stroke: #A80036; stroke-width: 1.0;"/><polygon fill="#A80036" points="760.6,457.82,751.0626,455.363,755.6688,458.6466,752.3851,463.2529,760.6,457.82" style="stroke: #A80036; stroke-width: 1.0;"/><!--link Lecturer to Evaluate--><path d="M647.63,486.15 C678.72,491.39 729.66,499.97 766.2,506.12 " fill="none" id="Lecturer-Evaluate" style="stroke: #A80036; stroke-width: 1.0;"/><polygon fill="#A80036" points="771.48,507.01,763.2677,501.5733,766.5492,506.1811,761.9414,509.4625,771.48,507.01" style="stroke: #A80036; stroke-width: 1.0;"/><!--link Admin to Maintain--><path d="M71.7,49.5 C108.07,49.5 185.17,49.5 243.96,49.5 " fill="none" id="Admin-Maintain" style="stroke: #A80036; stroke-width: 1.0;"/><polygon fill="#A80036" points="249.23,49.5,240.23,45.5,244.23,49.5,240.23,53.5,249.23,49.5" style="stroke: #A80036; stroke-width: 1.0;"/><!--link Search to SearchS--><path d="M358.79,655.15 C411.43,643.04 509.12,620.55 568.38,606.92 " fill="none" id="Search-SearchS" style="stroke: #A80036; stroke-width: 1.0; stroke-dasharray: 7.0,7.0;"/><polygon fill="#A80036" points="353.84,656.29,363.5106,658.1555,358.711,655.1615,361.705,650.362,353.84,656.29" style="stroke: #A80036; stroke-width: 1.0;"/><text fill="#000000" font-family="sans-serif" font-size="13" lengthAdjust="spacingAndGlyphs" textLength="67" x="451" y="614.5669">«extends»</text><!--link Search to SearchL--><path d="M363.86,663.5 C411.91,663.5 491.93,663.5 549.35,663.5 " fill="none" id="Search-SearchL" style="stroke: #A80036; stroke-width: 1.0; stroke-dasharray: 7.0,7.0;"/><polygon fill="#A80036" points="358.73,663.5,367.73,667.5,363.73,663.5,367.73,659.5,358.73,663.5" style="stroke: #A80036; stroke-width: 1.0;"/><text fill="#000000" font-family="sans-serif" font-size="13" lengthAdjust="spacingAndGlyphs" textLength="67" x="451" y="659.5669">«extends»</text><!--link Search to SearchP--><path d="M358.84,671.86 C411.96,684.09 510.9,706.85 569.97,720.45 " fill="none" id="Search-SearchP" style="stroke: #A80036; stroke-width: 1.0; stroke-dasharray: 7.0,7.0;"/><polygon fill="#A80036" points="353.84,670.71,361.705,676.638,358.711,671.8385,363.5106,668.8445,353.84,670.71" style="stroke: #A80036; stroke-width: 1.0;"/><text fill="#000000" font-family="sans-serif" font-size="13" lengthAdjust="spacingAndGlyphs" textLength="67" x="451" y="688.5669">«extends»</text><!--link Register to Authentication--><path d="M91.88,860.08 C102.34,861.07 113.57,861.97 124,862.5 C165.24,864.58 211.42,864.91 248.64,864.69 " fill="none" id="Register-Authentication" style="stroke: #A80036; stroke-width: 1.0; stroke-dasharray: 7.0,7.0;"/><polygon fill="#A80036" points="254.06,864.65,245.0373,860.7015,249.0601,864.6786,245.083,868.7014,254.06,864.65" style="stroke: #A80036; stroke-width: 1.0;"/><text fill="#000000" font-family="sans-serif" font-size="13" lengthAdjust="spacingAndGlyphs" textLength="67" x="125" y="858.5669">«extends»</text><!--link Login to Authentication--><path d="M77.33,914.03 C120.59,905.04 207.63,886.95 264.97,875.04 " fill="none" id="Login-Authentication" style="stroke: #A80036; stroke-width: 1.0; stroke-dasharray: 7.0,7.0;"/><polygon fill="#A80036" points="270.08,873.98,260.456,871.8873,265.1838,874.9935,262.0776,879.7213,270.08,873.98" style="stroke: #A80036; stroke-width: 1.0;"/><text fill="#000000" font-family="sans-serif" font-size="13" lengthAdjust="spacingAndGlyphs" textLength="67" x="125" y="887.5669">«extends»</text><!--link Logout to Authentication--><path d="M77.73,973.78 C106.49,963.12 153.44,945.18 193,927.5 C225.99,912.75 262.8,894.02 288.35,880.64 " fill="none" id="Logout-Authentication" style="stroke: #A80036; stroke-width: 1.0; stroke-dasharray: 7.0,7.0;"/><polygon fill="#A80036" points="292.99,878.21,283.1609,878.8333,288.5586,880.5258,286.8661,885.9235,292.99,878.21" style="stroke: #A80036; stroke-width: 1.0;"/><text fill="#000000" font-family="sans-serif" font-size="13" lengthAdjust="spacingAndGlyphs" textLength="67" x="125" y="923.5669">«extends»</text><!--
@startuml
left to right direction
actor Student
actor Staff
actor Admin
actor Lecturer

usecase "Create project" as CreateP
usecase "Join project" as JoinP
usecase "Create tasks" as CreateT
usecase "Assign tasks" as AssignT
usecase "Complete tasks" as Complete
usecase "View results" as View
usecase Evaluate
usecase "Create discussion thread" as Thread
usecase "Add comment" as Comment
usecase "Receive notification" as Notification

usecase Search
usecase "Search student" as SearchS
usecase "Search lecturer" as SearchL
usecase "Search project" as SearchP

usecase Authentication
usecase Register
usecase Login
usecase Logout

usecase "Make Report" as Report
usecase "Export transcript" as Export

usecase "Maintain system" as Maintain

Staff - -> Search
Staff - -> Export
Staff - -> Report
Staff - -> Authentication

Student - -> Search
Student - -> CreateP
Student - -> CreateT
Student - -> JoinP
Student - -> AssignT
Student - -> Complete
Student - -> Thread
Student - -> Comment
Student - -> Notification
Student - -> Authentication

Search <- - Lecturer
CreateP <- - Lecturer
JoinP <- - Lecturer
Thread <- - Lecturer
Comment <- - Lecturer
Authentication <- - Lecturer

Lecturer - -> View
Lecturer - -> Evaluate

Admin - -> Maintain

Search <.. SearchS: <<extends>>
Search <.. SearchL: <<extends>>
Search <.. SearchP: <<extends>>

Register ..> Authentication : <<extends>>
Login ..> Authentication : <<extends>>
Logout ..> Authentication : <<extends>>

@enduml

PlantUML version 1.2018.13(Mon Nov 26 17:11:51 UTC 2018)
(GPL source distribution)
Java Runtime: OpenJDK Runtime Environment
JVM: OpenJDK 64-Bit Server VM
Java Version: 11.0.9.1+1
Operating System: Linux
OS Version: 5.4.0-1032-azure
Default Encoding: UTF-8
Language: en
Country: null
--></g></svg>