<?xml version="1.0" encoding="UTF-8" standalone="no"?><svg xmlns="http://www.w3.org/2000/svg" xmlns:xlink="http://www.w3.org/1999/xlink" contentScriptType="application/ecmascript" contentStyleType="text/css" height="277px" preserveAspectRatio="none" style="width:911px;height:277px;" version="1.1" viewBox="0 0 911 277" width="911px" zoomAndPan="magnify"><defs><filter height="300%" id="f1hbj7c3ac7nrg" width="300%" x="-1" y="-1"><feGaussianBlur result="blurOut" stdDeviation="2.0"/><feColorMatrix in="blurOut" result="blurOut2" type="matrix" values="0 0 0 0 0 0 0 0 0 0 0 0 0 0 0 0 0 0 .4 0"/><feOffset dx="4.0" dy="4.0" in="blurOut2" result="blurOut3"/><feBlend in="SourceGraphic" in2="blurOut3" mode="normal"/></filter></defs><g><rect fill="#FFFFFF" filter="url(#f1hbj7c3ac7nrg)" height="130.5313" style="stroke: #A80036; stroke-width: 1.0;" width="10" x="353.5" y="117.4297"/><rect fill="#FFFFFF" filter="url(#f1hbj7c3ac7nrg)" height="72.2656" style="stroke: #A80036; stroke-width: 1.0;" width="10" x="502" y="146.5625"/><rect fill="#FFFFFF" filter="url(#f1hbj7c3ac7nrg)" height="29.1328" style="stroke: #A80036; stroke-width: 1.0;" width="10" x="818" y="175.6953"/><line style="stroke: #A80036; stroke-width: 1.0; stroke-dasharray: 5.0,5.0;" x1="29" x2="29" y1="86.2969" y2="265.9609"/><line style="stroke: #A80036; stroke-width: 1.0; stroke-dasharray: 5.0,5.0;" x1="358" x2="358" y1="86.2969" y2="265.9609"/><line style="stroke: #A80036; stroke-width: 1.0; stroke-dasharray: 5.0,5.0;" x1="507" x2="507" y1="86.2969" y2="265.9609"/><line style="stroke: #A80036; stroke-width: 1.0; stroke-dasharray: 5.0,5.0;" x1="822.5" x2="822.5" y1="86.2969" y2="265.9609"/><line style="stroke: #A80036; stroke-width: 1.0; stroke-dasharray: 5.0,5.0;" x1="883.5" x2="883.5" y1="86.2969" y2="265.9609"/><text fill="#000000" font-family="sans-serif" font-size="14" lengthAdjust="spacingAndGlyphs" text-decoration="underline" textLength="37" x="8" y="82.9951">:User</text><line style="stroke: #000000; stroke-width: 1.0;" x1="8" x2="45" y1="84.9951" y2="84.9951"/><ellipse cx="29.5" cy="13" fill="#FEFECE" filter="url(#f1hbj7c3ac7nrg)" rx="8" ry="8" style="stroke: #A80036; stroke-width: 2.0;"/><path d="M29.5,21 L29.5,48 M16.5,29 L42.5,29 M29.5,48 L16.5,63 M29.5,48 L42.5,63 " fill="none" filter="url(#f1hbj7c3ac7nrg)" style="stroke: #A80036; stroke-width: 2.0;"/><text fill="#000000" font-family="sans-serif" font-size="14" lengthAdjust="spacingAndGlyphs" text-decoration="underline" textLength="141" x="285" y="82.9951">:Invite Member Form</text><line style="stroke: #000000; stroke-width: 1.0;" x1="285" x2="426" y1="84.9951" y2="84.9951"/><path d="M338,42 L338,66 M338,54 L355,54 " fill="none" filter="url(#f1hbj7c3ac7nrg)" style="stroke: #A80036; stroke-width: 2.0;"/><ellipse cx="367" cy="54" fill="#FEFECE" filter="url(#f1hbj7c3ac7nrg)" rx="12" ry="12" style="stroke: #A80036; stroke-width: 2.0;"/><text fill="#000000" font-family="sans-serif" font-size="14" lengthAdjust="spacingAndGlyphs" text-decoration="underline" textLength="124" x="442" y="82.9951">:Project Controller</text><line style="stroke: #000000; stroke-width: 1.0;" x1="442" x2="566" y1="84.9951" y2="84.9951"/><ellipse cx="507" cy="54" fill="#FEFECE" filter="url(#f1hbj7c3ac7nrg)" rx="12" ry="12" style="stroke: #A80036; stroke-width: 2.0;"/><polygon fill="#A80036" points="503,42,509,37,507,42,509,47,503,42" style="stroke: #A80036; stroke-width: 1.0;"/><text fill="#000000" font-family="sans-serif" font-size="14" lengthAdjust="spacingAndGlyphs" text-decoration="underline" textLength="53" x="793.5" y="82.9951">:Project</text><line style="stroke: #000000; stroke-width: 1.0;" x1="793.5" x2="846.5" y1="84.9951" y2="84.9951"/><ellipse cx="823" cy="54" fill="#FEFECE" filter="url(#f1hbj7c3ac7nrg)" rx="12" ry="12" style="stroke: #A80036; stroke-width: 2.0;"/><line style="stroke: #A80036; stroke-width: 2.0;" x1="811" x2="835" y1="68" y2="68"/><text fill="#000000" font-family="sans-serif" font-size="14" lengthAdjust="spacingAndGlyphs" text-decoration="underline" textLength="37" x="862.5" y="82.9951">:User</text><line style="stroke: #000000; stroke-width: 1.0;" x1="862.5" x2="899.5" y1="84.9951" y2="84.9951"/><ellipse cx="884" cy="54" fill="#FEFECE" filter="url(#f1hbj7c3ac7nrg)" rx="12" ry="12" style="stroke: #A80036; stroke-width: 2.0;"/><line style="stroke: #A80036; stroke-width: 2.0;" x1="872" x2="896" y1="68" y2="68"/><rect fill="#FFFFFF" filter="url(#f1hbj7c3ac7nrg)" height="130.5313" style="stroke: #A80036; stroke-width: 1.0;" width="10" x="353.5" y="117.4297"/><rect fill="#FFFFFF" filter="url(#f1hbj7c3ac7nrg)" height="72.2656" style="stroke: #A80036; stroke-width: 1.0;" width="10" x="502" y="146.5625"/><rect fill="#FFFFFF" filter="url(#f1hbj7c3ac7nrg)" height="29.1328" style="stroke: #A80036; stroke-width: 1.0;" width="10" x="818" y="175.6953"/><polygon fill="#A80036" points="341.5,113.4297,351.5,117.4297,341.5,121.4297,345.5,117.4297" style="stroke: #A80036; stroke-width: 1.0;"/><line style="stroke: #A80036; stroke-width: 1.0;" x1="29.5" x2="347.5" y1="117.4297" y2="117.4297"/><text fill="#000000" font-family="sans-serif" font-size="13" lengthAdjust="spacingAndGlyphs" textLength="219" x="36.5" y="112.3638">// enters invited member's name()</text><polygon fill="#A80036" points="490,142.5625,500,146.5625,490,150.5625,494,146.5625" style="stroke: #A80036; stroke-width: 1.0;"/><line style="stroke: #A80036; stroke-width: 1.0;" x1="363.5" x2="496" y1="146.5625" y2="146.5625"/><text fill="#000000" font-family="sans-serif" font-size="13" lengthAdjust="spacingAndGlyphs" textLength="87" x="370.5" y="141.4966">// send form()</text><polygon fill="#A80036" points="806,171.6953,816,175.6953,806,179.6953,810,175.6953" style="stroke: #A80036; stroke-width: 1.0;"/><line style="stroke: #A80036; stroke-width: 1.0;" x1="512" x2="812" y1="175.6953" y2="175.6953"/><text fill="#000000" font-family="sans-serif" font-size="13" lengthAdjust="spacingAndGlyphs" textLength="287" x="519" y="170.6294">// add new user's name to project database()</text><polygon fill="#A80036" points="523,200.8281,513,204.8281,523,208.8281,519,204.8281" style="stroke: #A80036; stroke-width: 1.0;"/><line style="stroke: #A80036; stroke-width: 1.0; stroke-dasharray: 2.0,2.0;" x1="517" x2="822" y1="204.8281" y2="204.8281"/><text fill="#000000" font-family="sans-serif" font-size="13" lengthAdjust="spacingAndGlyphs" textLength="237" x="529" y="199.7622">// added user is already in the project</text><polygon fill="#A80036" points="374.5,214.8281,364.5,218.8281,374.5,222.8281,370.5,218.8281" style="stroke: #A80036; stroke-width: 1.0;"/><line style="stroke: #A80036; stroke-width: 1.0; stroke-dasharray: 2.0,2.0;" x1="368.5" x2="506" y1="218.8281" y2="218.8281"/><polygon fill="#A80036" points="40.5,243.9609,30.5,247.9609,40.5,251.9609,36.5,247.9609" style="stroke: #A80036; stroke-width: 1.0;"/><line style="stroke: #A80036; stroke-width: 1.0; stroke-dasharray: 2.0,2.0;" x1="34.5" x2="357.5" y1="247.9609" y2="247.9609"/><text fill="#000000" font-family="sans-serif" font-size="13" lengthAdjust="spacingAndGlyphs" textLength="300" x="46.5" y="242.895">inform that added user is already in the project</text><!--
@startuml
hide footbox
autoactivate on
skinparam sequenceParticipant underline
actor ":User" as usr
boundary ":Invite Member Form" as form
control ":Project Controller" as ctl
entity ":Project" as db_prj
entity ":User" as db_usr

usr -> form : // enters invited member's name()
form -> ctl : // send form()
ctl -> db_prj : // add new user's name to project database()
ctl <- - db_prj : // added user is already in the project
form <- - ctl
usr <- - form : inform that added user is already in the project
@enduml

PlantUML version 1.2018.13(Mon Nov 26 17:11:51 UTC 2018)
(GPL source distribution)
Java Runtime: OpenJDK Runtime Environment
JVM: OpenJDK 64-Bit Server VM
Java Version: 11.0.10+9
Operating System: Linux
OS Version: 5.4.0-1036-azure
Default Encoding: UTF-8
Language: en
Country: null
--></g></svg>