<?xml version="1.0" encoding="UTF-8" standalone="no"?><svg xmlns="http://www.w3.org/2000/svg" xmlns:xlink="http://www.w3.org/1999/xlink" contentScriptType="application/ecmascript" contentStyleType="text/css" height="335px" preserveAspectRatio="none" style="width:730px;height:335px;" version="1.1" viewBox="0 0 730 335" width="730px" zoomAndPan="magnify"><defs><filter height="300%" id="f1wf8giokwhyhr" width="300%" x="-1" y="-1"><feGaussianBlur result="blurOut" stdDeviation="2.0"/><feColorMatrix in="blurOut" result="blurOut2" type="matrix" values="0 0 0 0 0 0 0 0 0 0 0 0 0 0 0 0 0 0 .4 0"/><feOffset dx="4.0" dy="4.0" in="blurOut2" result="blurOut3"/><feBlend in="SourceGraphic" in2="blurOut3" mode="normal"/></filter></defs><g><rect fill="#FFFFFF" filter="url(#f1wf8giokwhyhr)" height="187.7969" style="stroke: #A80036; stroke-width: 1.0;" width="10" x="221" y="117.4297"/><rect fill="#FFFFFF" filter="url(#f1wf8giokwhyhr)" height="150.7969" style="stroke: #A80036; stroke-width: 1.0;" width="10" x="226" y="154.4297"/><rect fill="#FFFFFF" filter="url(#f1wf8giokwhyhr)" height="116.5313" style="stroke: #A80036; stroke-width: 1.0;" width="10" x="231" y="188.6953"/><rect fill="#FFFFFF" filter="url(#f1wf8giokwhyhr)" height="96.3984" style="stroke: #A80036; stroke-width: 1.0;" width="10" x="430" y="217.8281"/><rect fill="#FFFFFF" filter="url(#f1wf8giokwhyhr)" height="29.1328" style="stroke: #A80036; stroke-width: 1.0;" width="10" x="685" y="246.9609"/><line style="stroke: #A80036; stroke-width: 1.0; stroke-dasharray: 5.0,5.0;" x1="78" x2="78" y1="86.2969" y2="323.2266"/><line style="stroke: #A80036; stroke-width: 1.0; stroke-dasharray: 5.0,5.0;" x1="225.5" x2="225.5" y1="86.2969" y2="323.2266"/><line style="stroke: #A80036; stroke-width: 1.0; stroke-dasharray: 5.0,5.0;" x1="434.5" x2="434.5" y1="86.2969" y2="323.2266"/><line style="stroke: #A80036; stroke-width: 1.0; stroke-dasharray: 5.0,5.0;" x1="690" x2="690" y1="86.2969" y2="323.2266"/><text fill="#000000" font-family="sans-serif" font-size="14" lengthAdjust="spacingAndGlyphs" text-decoration="underline" textLength="134" x="8" y="82.9951">:Unauthorized User</text><line style="stroke: #000000; stroke-width: 1.0;" x1="8" x2="142" y1="84.9951" y2="84.9951"/><ellipse cx="78" cy="13" fill="#FEFECE" filter="url(#f1wf8giokwhyhr)" rx="8" ry="8" style="stroke: #A80036; stroke-width: 2.0;"/><path d="M78,21 L78,48 M65,29 L91,29 M78,48 L65,63 M78,48 L91,63 " fill="none" filter="url(#f1wf8giokwhyhr)" style="stroke: #A80036; stroke-width: 2.0;"/><text fill="#000000" font-family="sans-serif" font-size="14" lengthAdjust="spacingAndGlyphs" text-decoration="underline" textLength="77" x="184.5" y="82.9951">:LoginForm</text><line style="stroke: #000000; stroke-width: 1.0;" x1="184.5" x2="261.5" y1="84.9951" y2="84.9951"/><path d="M205.5,42 L205.5,66 M205.5,54 L222.5,54 " fill="none" filter="url(#f1wf8giokwhyhr)" style="stroke: #A80036; stroke-width: 2.0;"/><ellipse cx="234.5" cy="54" fill="#FEFECE" filter="url(#f1wf8giokwhyhr)" rx="12" ry="12" style="stroke: #A80036; stroke-width: 2.0;"/><text fill="#000000" font-family="sans-serif" font-size="14" lengthAdjust="spacingAndGlyphs" text-decoration="underline" textLength="109" x="377.5" y="82.9951">:LoginController</text><line style="stroke: #000000; stroke-width: 1.0;" x1="377.5" x2="486.5" y1="84.9951" y2="84.9951"/><ellipse cx="435" cy="54" fill="#FEFECE" filter="url(#f1wf8giokwhyhr)" rx="12" ry="12" style="stroke: #A80036; stroke-width: 2.0;"/><polygon fill="#A80036" points="431,42,437,37,435,42,437,47,431,42" style="stroke: #A80036; stroke-width: 1.0;"/><text fill="#000000" font-family="sans-serif" font-size="14" lengthAdjust="spacingAndGlyphs" text-decoration="underline" textLength="62" x="656" y="82.9951">:Account</text><line style="stroke: #000000; stroke-width: 1.0;" x1="656" x2="718" y1="84.9951" y2="84.9951"/><ellipse cx="690" cy="54" fill="#FEFECE" filter="url(#f1wf8giokwhyhr)" rx="12" ry="12" style="stroke: #A80036; stroke-width: 2.0;"/><line style="stroke: #A80036; stroke-width: 2.0;" x1="678" x2="702" y1="68" y2="68"/><rect fill="#FFFFFF" filter="url(#f1wf8giokwhyhr)" height="187.7969" style="stroke: #A80036; stroke-width: 1.0;" width="10" x="221" y="117.4297"/><rect fill="#FFFFFF" filter="url(#f1wf8giokwhyhr)" height="150.7969" style="stroke: #A80036; stroke-width: 1.0;" width="10" x="226" y="154.4297"/><rect fill="#FFFFFF" filter="url(#f1wf8giokwhyhr)" height="116.5313" style="stroke: #A80036; stroke-width: 1.0;" width="10" x="231" y="188.6953"/><rect fill="#FFFFFF" filter="url(#f1wf8giokwhyhr)" height="96.3984" style="stroke: #A80036; stroke-width: 1.0;" width="10" x="430" y="217.8281"/><rect fill="#FFFFFF" filter="url(#f1wf8giokwhyhr)" height="29.1328" style="stroke: #A80036; stroke-width: 1.0;" width="10" x="685" y="246.9609"/><polygon fill="#A80036" points="209,113.4297,219,117.4297,209,121.4297,213,117.4297" style="stroke: #A80036; stroke-width: 1.0;"/><line style="stroke: #A80036; stroke-width: 1.0;" x1="78" x2="215" y1="117.4297" y2="117.4297"/><text fill="#000000" font-family="sans-serif" font-size="13" lengthAdjust="spacingAndGlyphs" textLength="124" x="85" y="112.3638">// open login page()</text><line style="stroke: #A80036; stroke-width: 1.0;" x1="231" x2="278" y1="141.5625" y2="141.5625"/><line style="stroke: #A80036; stroke-width: 1.0;" x1="278" x2="278" y1="141.5625" y2="154.5625"/><line style="stroke: #A80036; stroke-width: 1.0;" x1="237" x2="278" y1="154.5625" y2="154.5625"/><polygon fill="#A80036" points="247,150.5625,237,154.5625,247,158.5625,243,154.5625" style="stroke: #A80036; stroke-width: 1.0;"/><text fill="#000000" font-family="sans-serif" font-size="13" lengthAdjust="spacingAndGlyphs" textLength="100" x="243" y="136.4966">// display form()</text><polygon fill="#A80036" points="219,184.6953,229,188.6953,219,192.6953,223,188.6953" style="stroke: #A80036; stroke-width: 1.0;"/><line style="stroke: #A80036; stroke-width: 1.0;" x1="78" x2="225" y1="188.6953" y2="188.6953"/><text fill="#000000" font-family="sans-serif" font-size="13" lengthAdjust="spacingAndGlyphs" textLength="100" x="85" y="183.6294">// submit form()</text><polygon fill="#A80036" points="418,213.8281,428,217.8281,418,221.8281,422,217.8281" style="stroke: #A80036; stroke-width: 1.0;"/><line style="stroke: #A80036; stroke-width: 1.0;" x1="241" x2="424" y1="217.8281" y2="217.8281"/><text fill="#000000" font-family="sans-serif" font-size="13" lengthAdjust="spacingAndGlyphs" textLength="154" x="248" y="212.7622">// request to login user()</text><polygon fill="#A80036" points="673,242.9609,683,246.9609,673,250.9609,677,246.9609" style="stroke: #A80036; stroke-width: 1.0;"/><line style="stroke: #A80036; stroke-width: 1.0;" x1="440" x2="679" y1="246.9609" y2="246.9609"/><text fill="#000000" font-family="sans-serif" font-size="13" lengthAdjust="spacingAndGlyphs" textLength="226" x="447" y="241.895">// retrieve user from the database()</text><polygon fill="#A80036" points="451,272.0938,441,276.0938,451,280.0938,447,276.0938" style="stroke: #A80036; stroke-width: 1.0;"/><line style="stroke: #A80036; stroke-width: 1.0; stroke-dasharray: 2.0,2.0;" x1="445" x2="689" y1="276.0938" y2="276.0938"/><text fill="#000000" font-family="sans-serif" font-size="13" lengthAdjust="spacingAndGlyphs" textLength="51" x="457" y="271.0278">// return</text><polygon fill="#A80036" points="237,301.2266,227,305.2266,237,309.2266,233,305.2266" style="stroke: #A80036; stroke-width: 1.0;"/><line style="stroke: #A80036; stroke-width: 1.0; stroke-dasharray: 2.0,2.0;" x1="231" x2="429" y1="305.2266" y2="305.2266"/><text fill="#000000" font-family="sans-serif" font-size="13" lengthAdjust="spacingAndGlyphs" textLength="165" x="243" y="300.1606">// redirect to home page()</text><line style="stroke: #A80036; stroke-width: 2.0;" x1="217" x2="235" y1="296.2266" y2="314.2266"/><line style="stroke: #A80036; stroke-width: 2.0;" x1="217" x2="235" y1="314.2266" y2="296.2266"/><!--
@startuml
hide footbox
autoactivate on
skinparam sequenceParticipant underline
actor ":Unauthorized User" as usr
boundary ":LoginForm" as form
control ":LoginController" as ctl
entity ":Account" as acc

usr -> form: // open login page()
form -> form: // display form()
usr -> form: // submit form()
form -> ctl: // request to login user()
ctl -> acc: // retrieve user from the database()
ctl <- - acc: // return
form <- - ctl !!: // redirect to home page()
deactivate form
deactivate form
@enduml

PlantUML version 1.2018.13(Mon Nov 26 17:11:51 UTC 2018)
(GPL source distribution)
Java Runtime: OpenJDK Runtime Environment
JVM: OpenJDK 64-Bit Server VM
Java Version: 11.0.10+9
Operating System: Linux
OS Version: 5.4.0-1039-azure
Default Encoding: UTF-8
Language: en
Country: null
--></g></svg>