<?xml version="1.0" encoding="UTF-8" standalone="no"?><svg xmlns="http://www.w3.org/2000/svg" xmlns:xlink="http://www.w3.org/1999/xlink" contentScriptType="application/ecmascript" contentStyleType="text/css" height="234px" preserveAspectRatio="none" style="width:534px;height:234px;" version="1.1" viewBox="0 0 534 234" width="534px" zoomAndPan="magnify"><defs><filter height="300%" id="f1h4zi13l5zvhk" width="300%" x="-1" y="-1"><feGaussianBlur result="blurOut" stdDeviation="2.0"/><feColorMatrix in="blurOut" result="blurOut2" type="matrix" values="0 0 0 0 0 0 0 0 0 0 0 0 0 0 0 0 0 0 .4 0"/><feOffset dx="4.0" dy="4.0" in="blurOut2" result="blurOut3"/><feBlend in="SourceGraphic" in2="blurOut3" mode="normal"/></filter></defs><g><rect fill="#FFFFFF" filter="url(#f1h4zi13l5zvhk)" height="87.3984" style="stroke: #A80036; stroke-width: 1.0;" width="10" x="296.5" y="117.4297"/><rect fill="#FFFFFF" filter="url(#f1h4zi13l5zvhk)" height="29.1328" style="stroke: #A80036; stroke-width: 1.0;" width="10" x="480.5" y="146.5625"/><line style="stroke: #A80036; stroke-width: 1.0; stroke-dasharray: 5.0,5.0;" x1="29" x2="29" y1="86.2969" y2="222.8281"/><line style="stroke: #A80036; stroke-width: 1.0; stroke-dasharray: 5.0,5.0;" x1="301.5" x2="301.5" y1="86.2969" y2="222.8281"/><line style="stroke: #A80036; stroke-width: 1.0; stroke-dasharray: 5.0,5.0;" x1="485" x2="485" y1="86.2969" y2="222.8281"/><text fill="#000000" font-family="sans-serif" font-size="14" lengthAdjust="spacingAndGlyphs" text-decoration="underline" textLength="37" x="8" y="82.9951">:User</text><line style="stroke: #000000; stroke-width: 1.0;" x1="8" x2="45" y1="84.9951" y2="84.9951"/><ellipse cx="29.5" cy="13" fill="#FEFECE" filter="url(#f1h4zi13l5zvhk)" rx="8" ry="8" style="stroke: #A80036; stroke-width: 2.0;"/><path d="M29.5,21 L29.5,48 M16.5,29 L42.5,29 M29.5,48 L16.5,63 M29.5,48 L42.5,63 " fill="none" filter="url(#f1h4zi13l5zvhk)" style="stroke: #A80036; stroke-width: 2.0;"/><text fill="#000000" font-family="sans-serif" font-size="14" lengthAdjust="spacingAndGlyphs" text-decoration="underline" textLength="124" x="236.5" y="82.9951">:Project Controller</text><line style="stroke: #000000; stroke-width: 1.0;" x1="236.5" x2="360.5" y1="84.9951" y2="84.9951"/><ellipse cx="301.5" cy="54" fill="#FEFECE" filter="url(#f1h4zi13l5zvhk)" rx="12" ry="12" style="stroke: #A80036; stroke-width: 2.0;"/><polygon fill="#A80036" points="297.5,42,303.5,37,301.5,42,303.5,47,297.5,42" style="stroke: #A80036; stroke-width: 1.0;"/><text fill="#000000" font-family="sans-serif" font-size="14" lengthAdjust="spacingAndGlyphs" text-decoration="underline" textLength="79" x="443" y="82.9951">:quart_auth</text><line style="stroke: #000000; stroke-width: 1.0;" x1="443" x2="522" y1="84.9951" y2="84.9951"/><ellipse cx="485.5" cy="54" fill="#FEFECE" filter="url(#f1h4zi13l5zvhk)" rx="12" ry="12" style="stroke: #A80036; stroke-width: 2.0;"/><line style="stroke: #A80036; stroke-width: 2.0;" x1="473.5" x2="497.5" y1="68" y2="68"/><rect fill="#FFFFFF" filter="url(#f1h4zi13l5zvhk)" height="87.3984" style="stroke: #A80036; stroke-width: 1.0;" width="10" x="296.5" y="117.4297"/><rect fill="#FFFFFF" filter="url(#f1h4zi13l5zvhk)" height="29.1328" style="stroke: #A80036; stroke-width: 1.0;" width="10" x="480.5" y="146.5625"/><polygon fill="#A80036" points="284.5,113.4297,294.5,117.4297,284.5,121.4297,288.5,117.4297" style="stroke: #A80036; stroke-width: 1.0;"/><line style="stroke: #A80036; stroke-width: 1.0;" x1="29.5" x2="290.5" y1="117.4297" y2="117.4297"/><text fill="#000000" font-family="sans-serif" font-size="13" lengthAdjust="spacingAndGlyphs" textLength="112" x="36.5" y="112.3638">// select info tab()</text><polygon fill="#A80036" points="468.5,142.5625,478.5,146.5625,468.5,150.5625,472.5,146.5625" style="stroke: #A80036; stroke-width: 1.0;"/><line style="stroke: #A80036; stroke-width: 1.0;" x1="306.5" x2="474.5" y1="146.5625" y2="146.5625"/><text fill="#000000" font-family="sans-serif" font-size="13" lengthAdjust="spacingAndGlyphs" textLength="155" x="313.5" y="141.4966">// check authentication()</text><polygon fill="#A80036" points="317.5,171.6953,307.5,175.6953,317.5,179.6953,313.5,175.6953" style="stroke: #A80036; stroke-width: 1.0;"/><line style="stroke: #A80036; stroke-width: 1.0; stroke-dasharray: 2.0,2.0;" x1="311.5" x2="484.5" y1="175.6953" y2="175.6953"/><text fill="#000000" font-family="sans-serif" font-size="13" lengthAdjust="spacingAndGlyphs" textLength="122" x="323.5" y="170.6294">// un-authenticated</text><polygon fill="#A80036" points="40.5,200.8281,30.5,204.8281,40.5,208.8281,36.5,204.8281" style="stroke: #A80036; stroke-width: 1.0;"/><line style="stroke: #A80036; stroke-width: 1.0; stroke-dasharray: 2.0,2.0;" x1="34.5" x2="300.5" y1="204.8281" y2="204.8281"/><text fill="#000000" font-family="sans-serif" font-size="13" lengthAdjust="spacingAndGlyphs" textLength="243" x="46.5" y="199.7622">// inform that user is un-authenticated</text><!--
@startuml
hide footbox
autoactivate on
skinparam sequenceParticipant underline
actor ":User" as usr
control ":Project Controller" as ctl
entity ":quart_auth" as quart

usr -> ctl : // select info tab()
ctl -> quart : // check authentication()
ctl <- - quart : // un-authenticated
usr <- - ctl : // inform that user is un-authenticated
@enduml

PlantUML version 1.2018.13(Mon Nov 26 17:11:51 UTC 2018)
(GPL source distribution)
Java Runtime: OpenJDK Runtime Environment
JVM: OpenJDK 64-Bit Server VM
Java Version: 11.0.10+9
Operating System: Linux
OS Version: 5.4.0-1039-azure
Default Encoding: UTF-8
Language: en
Country: null
--></g></svg>