<?xml version="1.0" encoding="UTF-8" standalone="no"?><svg xmlns="http://www.w3.org/2000/svg" xmlns:xlink="http://www.w3.org/1999/xlink" contentScriptType="application/ecmascript" contentStyleType="text/css" height="787px" preserveAspectRatio="none" style="width:799px;height:787px;" version="1.1" viewBox="0 0 799 787" width="799px" zoomAndPan="magnify"><defs><filter height="300%" id="f1c7m3uzpuleqs" width="300%" x="-1" y="-1"><feGaussianBlur result="blurOut" stdDeviation="2.0"/><feColorMatrix in="blurOut" result="blurOut2" type="matrix" values="0 0 0 0 0 0 0 0 0 0 0 0 0 0 0 0 0 0 .4 0"/><feOffset dx="4.0" dy="4.0" in="blurOut2" result="blurOut3"/><feBlend in="SourceGraphic" in2="blurOut3" mode="normal"/></filter></defs><g><!--cluster Client--><polygon fill="#FFFFFF" filter="url(#f1c7m3uzpuleqs)" points="14,26,24,16,135,16,135,92,125,102,14,102,14,26" style="stroke: #000000; stroke-width: 2.0;"/><line style="stroke: #000000; stroke-width: 2.0;" x1="125" x2="134" y1="26" y2="17"/><line style="stroke: #000000; stroke-width: 2.0;" x1="14" x2="125" y1="26" y2="26"/><line style="stroke: #000000; stroke-width: 2.0;" x1="125" x2="125" y1="26" y2="102"/><text fill="#000000" font-family="sans-serif" font-size="14" font-weight="bold" lengthAdjust="spacingAndGlyphs" textLength="45" x="48" y="41.9951">Client</text><!--cluster balancer--><polygon fill="#FFFFFF" filter="url(#f1c7m3uzpuleqs)" points="66,221,76,211,607,211,607,294,597,304,66,304,66,221" style="stroke: #000000; stroke-width: 2.0;"/><line style="stroke: #000000; stroke-width: 2.0;" x1="597" x2="606" y1="221" y2="212"/><line style="stroke: #000000; stroke-width: 2.0;" x1="66" x2="597" y1="221" y2="221"/><line style="stroke: #000000; stroke-width: 2.0;" x1="597" x2="597" y1="221" y2="304"/><text fill="#000000" font-family="sans-serif" font-size="14" font-weight="bold" lengthAdjust="spacingAndGlyphs" textLength="176" x="244.5" y="236.9951">Load Balancing Server</text><!--cluster Server--><polygon fill="#FFFFFF" filter="url(#f1c7m3uzpuleqs)" points="166,407,176,397,777,397,777,649,767,659,166,659,166,407" style="stroke: #000000; stroke-width: 2.0;"/><line style="stroke: #000000; stroke-width: 2.0;" x1="767" x2="776" y1="407" y2="398"/><line style="stroke: #000000; stroke-width: 2.0;" x1="166" x2="767" y1="407" y2="407"/><line style="stroke: #000000; stroke-width: 2.0;" x1="767" x2="767" y1="407" y2="659"/><text fill="#000000" font-family="sans-serif" font-size="14" font-weight="bold" lengthAdjust="spacingAndGlyphs" textLength="53" x="441" y="422.9951">Server</text><!--cluster db_server--><polygon fill="#FFFFFF" filter="url(#f1c7m3uzpuleqs)" points="33,700,43,690,263,690,263,765,253,775,33,775,33,700" style="stroke: #000000; stroke-width: 2.0;"/><line style="stroke: #000000; stroke-width: 2.0;" x1="253" x2="262" y1="700" y2="691"/><line style="stroke: #000000; stroke-width: 2.0;" x1="33" x2="253" y1="700" y2="700"/><line style="stroke: #000000; stroke-width: 2.0;" x1="253" x2="253" y1="700" y2="775"/><text fill="#000000" font-family="sans-serif" font-size="14" font-weight="bold" lengthAdjust="spacingAndGlyphs" textLength="131" x="78.5" y="715.9951">Database Server</text><!--entity Browser--><polygon fill="#FEFECE" filter="url(#f1c7m3uzpuleqs)" points="25.5,58,35.5,48,122.5,48,122.5,84.2969,112.5,94.2969,25.5,94.2969,25.5,58" style="stroke: #000000; stroke-width: 1.5;"/><line style="stroke: #000000; stroke-width: 1.5;" x1="112.5" x2="121.5" y1="58" y2="49"/><line style="stroke: #000000; stroke-width: 1.5;" x1="25.5" x2="112.5" y1="58" y2="58"/><line style="stroke: #000000; stroke-width: 1.5;" x1="112.5" x2="112.5" y1="58" y2="94.2969"/><text fill="#000000" font-family="sans-serif" font-size="14" lengthAdjust="spacingAndGlyphs" textLength="57" x="40.5" y="80.9951">Browser</text><!--entity nginx--><rect fill="#FEFECE" filter="url(#f1c7m3uzpuleqs)" height="52.5938" style="stroke: #A80036; stroke-width: 1.5;" width="130" x="109" y="243"/><rect fill="#FEFECE" height="5" style="stroke: #A80036; stroke-width: 1.5;" width="10" x="104" y="248"/><rect fill="#FEFECE" height="5" style="stroke: #A80036; stroke-width: 1.5;" width="10" x="104" y="285.5938"/><text fill="#000000" font-family="sans-serif" font-size="14" font-style="italic" lengthAdjust="spacingAndGlyphs" textLength="110" x="119" y="265.9951">«load balancer»</text><text fill="#000000" font-family="sans-serif" font-size="14" lengthAdjust="spacingAndGlyphs" textLength="43" x="152.5" y="282.292">NGINX</text><!--entity nginx_conf--><rect fill="#FEFECE" filter="url(#f1c7m3uzpuleqs)" height="39.2969" style="stroke: #000000; stroke-width: 1.5;" width="264" x="335" y="250"/><polygon fill="#FEFECE" points="582,255,582,269,594,269,594,261,588,255,582,255" style="stroke: #000000; stroke-width: 1.5;"/><line style="stroke: #000000; stroke-width: 1.5;" x1="588" x2="588" y1="255" y2="261"/><line style="stroke: #000000; stroke-width: 1.5;" x1="594" x2="588" y1="261" y2="261"/><text fill="#000000" font-family="sans-serif" font-size="14" lengthAdjust="spacingAndGlyphs" textLength="234" x="345" y="275.9951">/etc/nginx/sites-available/acanban</text><!--entity systemd_conf--><rect fill="#FEFECE" filter="url(#f1c7m3uzpuleqs)" height="39.2969" style="stroke: #000000; stroke-width: 1.5;" width="142" x="627" y="441"/><polygon fill="#FEFECE" points="752,446,752,460,764,460,764,452,758,446,752,446" style="stroke: #000000; stroke-width: 1.5;"/><line style="stroke: #000000; stroke-width: 1.5;" x1="758" x2="758" y1="446" y2="452"/><line style="stroke: #000000; stroke-width: 1.5;" x1="764" x2="758" y1="452" y2="452"/><text fill="#000000" font-family="sans-serif" font-size="14" lengthAdjust="spacingAndGlyphs" textLength="112" x="637" y="466.9951">acanban.service</text><!--entity Acanban--><rect fill="#FEFECE" filter="url(#f1c7m3uzpuleqs)" height="36.2969" style="stroke: #A80036; stroke-width: 1.5;" width="80" x="215" y="615"/><rect fill="#FEFECE" height="5" style="stroke: #A80036; stroke-width: 1.5;" width="10" x="210" y="620"/><rect fill="#FEFECE" height="5" style="stroke: #A80036; stroke-width: 1.5;" width="10" x="210" y="641.2969"/><text fill="#000000" font-family="sans-serif" font-size="14" lengthAdjust="spacingAndGlyphs" textLength="60" x="225" y="637.9951">Acanban</text><!--entity Hypercorn--><rect fill="#FEFECE" filter="url(#f1c7m3uzpuleqs)" height="36.2969" style="stroke: #A80036; stroke-width: 1.5;" width="91" x="209.5" y="442.5"/><rect fill="#FEFECE" height="5" style="stroke: #A80036; stroke-width: 1.5;" width="10" x="204.5" y="447.5"/><rect fill="#FEFECE" height="5" style="stroke: #A80036; stroke-width: 1.5;" width="10" x="204.5" y="468.7969"/><text fill="#000000" font-family="sans-serif" font-size="14" lengthAdjust="spacingAndGlyphs" textLength="71" x="219.5" y="465.4951">Hypercorn</text><!--entity systemd--><polygon fill="#FEFECE" filter="url(#f1c7m3uzpuleqs)" points="416.5,439,426.5,429,531.5,429,531.5,481.5938,521.5,491.5938,416.5,491.5938,416.5,439" style="stroke: #000000; stroke-width: 1.5;"/><line style="stroke: #000000; stroke-width: 1.5;" x1="521.5" x2="530.5" y1="439" y2="430"/><line style="stroke: #000000; stroke-width: 1.5;" x1="416.5" x2="521.5" y1="439" y2="439"/><line style="stroke: #000000; stroke-width: 1.5;" x1="521.5" x2="521.5" y1="439" y2="491.5938"/><text fill="#000000" font-family="sans-serif" font-size="14" font-style="italic" lengthAdjust="spacingAndGlyphs" textLength="75" x="431.5" y="461.9951">«daemon»</text><text fill="#000000" font-family="sans-serif" font-size="14" lengthAdjust="spacingAndGlyphs" textLength="59" x="439.5" y="478.292">systemd</text><!--entity db--><path d="M126,732 C126,722 173,722 173,722 C173,722 220,722 220,732 L220,757.2969 C220,767.2969 173,767.2969 173,767.2969 C173,767.2969 126,767.2969 126,757.2969 L126,732 " fill="#FEFECE" filter="url(#f1c7m3uzpuleqs)" style="stroke: #000000; stroke-width: 1.5;"/><path d="M126,732 C126,742 173,742 173,742 C173,742 220,742 220,732 " fill="none" style="stroke: #000000; stroke-width: 1.5;"/><text fill="#000000" font-family="sans-serif" font-size="14" lengthAdjust="spacingAndGlyphs" textLength="74" x="136" y="758.9951">RethinkDB</text><!--entity IPFS--><rect fill="#FEFECE" filter="url(#f1c7m3uzpuleqs)" height="36.2969" style="stroke: #A80036; stroke-width: 1.5;" width="49" x="41.5" y="726.5"/><rect fill="#FEFECE" height="5" style="stroke: #A80036; stroke-width: 1.5;" width="10" x="36.5" y="731.5"/><rect fill="#FEFECE" height="5" style="stroke: #A80036; stroke-width: 1.5;" width="10" x="36.5" y="752.7969"/><text fill="#000000" font-family="sans-serif" font-size="14" lengthAdjust="spacingAndGlyphs" textLength="29" x="51.5" y="749.4951">IPFS</text><!--link Browser to balancer--><path d="M74,94.159 C74,119.1128 74,160.1045 74,196.1807 C74,200.6903 74,205.123 74,209.438 C74,209.7076 74,209.9769 74,210.2456 " fill="none" id="Browser-balancer" style="stroke: #A80036; stroke-width: 1.0;"/><text fill="#000000" font-family="sans-serif" font-size="13" lengthAdjust="spacingAndGlyphs" textLength="41" x="75" y="168.0669">HTTPS</text><!--link nginx to nginx_conf--><path d="M244.065,269.5 C271.3639,269.5 303.5813,269.5 334.9111,269.5 " fill="none" id="nginx-nginx_conf" style="stroke: #A80036; stroke-width: 1.0; stroke-dasharray: 7.0,7.0;"/><polygon fill="#A80036" points="239.0262,269.5,248.0262,273.5,244.0262,269.5,248.0262,265.5,239.0262,269.5" style="stroke: #A80036; stroke-width: 1.0;"/><text fill="#000000" font-family="sans-serif" font-size="13" lengthAdjust="spacingAndGlyphs" textLength="59" x="257.5" y="262.5669">configure</text><!--link nginx to Server--><path d="M174,296.0577 C174,321.0685 174,359.5876 174,393.0598 C174,394.1058 174,395.1468 174,396.1824 C174,396.4413 174,396.6999 174,396.9581 " fill="none" id="nginx-Server" style="stroke: #A80036; stroke-width: 1.0;"/><text fill="#000000" font-family="sans-serif" font-size="13" lengthAdjust="spacingAndGlyphs" textLength="8" x="165.125" y="315.6337">1</text><text fill="#000000" font-family="sans-serif" font-size="13" lengthAdjust="spacingAndGlyphs" textLength="23" x="151" y="456.8465">1..*</text><!--link Hypercorn to systemd--><path d="M300.643,460.5 C334.2386,460.5 380.1613,460.5 416.3015,460.5 " fill="none" id="Hypercorn-systemd" style="stroke: #A80036; stroke-width: 1.0;"/><text fill="#000000" font-family="sans-serif" font-size="13" lengthAdjust="spacingAndGlyphs" textLength="79" x="319" y="453.5669">run instance</text><!--link systemd to systemd_conf--><path d="M536.8536,460.5 C564.8618,460.5 597.9848,460.5 626.8942,460.5 " fill="none" id="systemd-systemd_conf" style="stroke: #A80036; stroke-width: 1.0; stroke-dasharray: 7.0,7.0;"/><polygon fill="#A80036" points="531.6856,460.5,540.6856,464.5,536.6856,460.5,540.6856,456.5,531.6856,460.5" style="stroke: #A80036; stroke-width: 1.0;"/><text fill="#000000" font-family="sans-serif" font-size="13" lengthAdjust="spacingAndGlyphs" textLength="59" x="549.75" y="453.5669">configure</text><!--link Hypercorn to Acanban--><path d="M255,478.6345 C255,511.7645 255,581.7079 255,614.8496 " fill="none" id="Hypercorn-Acanban" style="stroke: #A80036; stroke-width: 1.0;"/><!--link Acanban to db_server--><path d="M255,651.412 C255,658.9582 255,668.1934 255,677.8844 C255,680.3072 255,682.7584 255,685.2188 C255,686.449 255,687.6816 255,688.914 C255,689.2221 255,689.5302 255,689.8382 " fill="none" id="Acanban-db_server" style="stroke: #A80036; stroke-width: 1.0;"/><text fill="#000000" font-family="sans-serif" font-size="13" lengthAdjust="spacingAndGlyphs" textLength="23" x="228.4781" y="671.3893">1..*</text><text fill="#000000" font-family="sans-serif" font-size="13" lengthAdjust="spacingAndGlyphs" textLength="8" x="247" y="741.1714">1</text><!--
@startuml
node Client {
   node Browser
}

node "Load Balancing Server" as balancer {
   component NGINX as nginx <<load balancer>>
   artifact "/etc/nginx/sites-available/acanban" as nginx_conf
}

node Server {
   artifact "acanban.service" as systemd_conf
   component Acanban
   component Hypercorn
   node systemd <<daemon>>
}

node "Database Server" as db_server {
   database "RethinkDB" as db
   component IPFS
}

Browser - - - balancer: HTTPS

nginx <. nginx_conf: configure
nginx "1" - - - "1..*" Server

Hypercorn - systemd: run instance
systemd <. systemd_conf: configure
Hypercorn - - Acanban
Acanban "1..*" - - "1" db_server

@enduml

PlantUML version 1.2017.15(Mon Jul 03 16:45:34 UTC 2017)
(GPL source distribution)
Java Runtime: OpenJDK Runtime Environment
JVM: OpenJDK 64-Bit Server VM
Java Version: 1.8.0_275-b01
Operating System: Linux
OS Version: 5.4.0-1031-azure
Default Encoding: UTF-8
Language: en
Country: null
--></g></svg>