<?xml version="1.0" encoding="UTF-8" standalone="no"?><svg xmlns="http://www.w3.org/2000/svg" xmlns:xlink="http://www.w3.org/1999/xlink" contentScriptType="application/ecmascript" contentStyleType="text/css" height="494px" preserveAspectRatio="none" style="width:618px;height:494px;" version="1.1" viewBox="0 0 618 494" width="618px" zoomAndPan="magnify"><defs><filter height="300%" id="fta79l3g8swxf" width="300%" x="-1" y="-1"><feGaussianBlur result="blurOut" stdDeviation="2.0"/><feColorMatrix in="blurOut" result="blurOut2" type="matrix" values="0 0 0 0 0 0 0 0 0 0 0 0 0 0 0 0 0 0 .4 0"/><feOffset dx="4.0" dy="4.0" in="blurOut2" result="blurOut3"/><feBlend in="SourceGraphic" in2="blurOut3" mode="normal"/></filter></defs><g><!--cluster Client--><polygon fill="#FFFFFF" filter="url(#fta79l3g8swxf)" points="14,26,24,16,135,16,135,92,125,102,14,102,14,26" style="stroke: #000000; stroke-width: 2.0;"/><line style="stroke: #000000; stroke-width: 2.0;" x1="125" x2="134" y1="26" y2="17"/><line style="stroke: #000000; stroke-width: 2.0;" x1="14" x2="125" y1="26" y2="26"/><line style="stroke: #000000; stroke-width: 2.0;" x1="125" x2="125" y1="26" y2="102"/><text fill="#000000" font-family="sans-serif" font-size="14" font-weight="bold" lengthAdjust="spacingAndGlyphs" textLength="45" x="48" y="41.9951">Client</text><!--cluster Server--><polygon fill="#FFFFFF" filter="url(#fta79l3g8swxf)" points="20,221,30,211,596,211,596,472,586,482,20,482,20,221" style="stroke: #000000; stroke-width: 2.0;"/><line style="stroke: #000000; stroke-width: 2.0;" x1="586" x2="595" y1="221" y2="212"/><line style="stroke: #000000; stroke-width: 2.0;" x1="20" x2="586" y1="221" y2="221"/><line style="stroke: #000000; stroke-width: 2.0;" x1="586" x2="586" y1="221" y2="482"/><text fill="#000000" font-family="sans-serif" font-size="14" font-weight="bold" lengthAdjust="spacingAndGlyphs" textLength="53" x="277.5" y="236.9951">Server</text><!--entity Browser--><polygon fill="#FEFECE" filter="url(#fta79l3g8swxf)" points="25.5,58,35.5,48,122.5,48,122.5,84.2969,112.5,94.2969,25.5,94.2969,25.5,58" style="stroke: #000000; stroke-width: 1.5;"/><line style="stroke: #000000; stroke-width: 1.5;" x1="112.5" x2="121.5" y1="58" y2="49"/><line style="stroke: #000000; stroke-width: 1.5;" x1="25.5" x2="112.5" y1="58" y2="58"/><line style="stroke: #000000; stroke-width: 1.5;" x1="112.5" x2="112.5" y1="58" y2="94.2969"/><text fill="#000000" font-family="sans-serif" font-size="14" lengthAdjust="spacingAndGlyphs" textLength="57" x="40.5" y="80.9951">Browser</text><!--entity db--><path d="M149,439 C149,429 196,429 196,429 C196,429 243,429 243,439 L243,464.2969 C243,474.2969 196,474.2969 196,474.2969 C196,474.2969 149,474.2969 149,464.2969 L149,439 " fill="#FEFECE" filter="url(#fta79l3g8swxf)" style="stroke: #000000; stroke-width: 1.5;"/><path d="M149,439 C149,449 196,449 196,449 C196,449 243,449 243,439 " fill="none" style="stroke: #000000; stroke-width: 1.5;"/><text fill="#000000" font-family="sans-serif" font-size="14" lengthAdjust="spacingAndGlyphs" textLength="74" x="159" y="465.9951">RethinkDB</text><!--entity systemd_conf--><rect fill="#FEFECE" filter="url(#fta79l3g8swxf)" height="39.2969" style="stroke: #000000; stroke-width: 1.5;" width="142" x="446" y="255"/><polygon fill="#FEFECE" points="571,260,571,274,583,274,583,266,577,260,571,260" style="stroke: #000000; stroke-width: 1.5;"/><line style="stroke: #000000; stroke-width: 1.5;" x1="577" x2="577" y1="260" y2="266"/><line style="stroke: #000000; stroke-width: 1.5;" x1="583" x2="577" y1="266" y2="266"/><text fill="#000000" font-family="sans-serif" font-size="14" lengthAdjust="spacingAndGlyphs" textLength="112" x="456" y="280.9951">acanban.service</text><!--entity Acanban--><rect fill="#FEFECE" filter="url(#fta79l3g8swxf)" height="36.2969" style="stroke: #A80036; stroke-width: 1.5;" width="80" x="34" y="433.5"/><rect fill="#FEFECE" height="5" style="stroke: #A80036; stroke-width: 1.5;" width="10" x="29" y="438.5"/><rect fill="#FEFECE" height="5" style="stroke: #A80036; stroke-width: 1.5;" width="10" x="29" y="459.7969"/><text fill="#000000" font-family="sans-serif" font-size="14" lengthAdjust="spacingAndGlyphs" textLength="60" x="44" y="456.4951">Acanban</text><!--entity Hypercorn--><rect fill="#FEFECE" filter="url(#fta79l3g8swxf)" height="36.2969" style="stroke: #A80036; stroke-width: 1.5;" width="91" x="28.5" y="256.5"/><rect fill="#FEFECE" height="5" style="stroke: #A80036; stroke-width: 1.5;" width="10" x="23.5" y="261.5"/><rect fill="#FEFECE" height="5" style="stroke: #A80036; stroke-width: 1.5;" width="10" x="23.5" y="282.7969"/><text fill="#000000" font-family="sans-serif" font-size="14" lengthAdjust="spacingAndGlyphs" textLength="71" x="38.5" y="279.4951">Hypercorn</text><!--entity systemd--><polygon fill="#FEFECE" filter="url(#fta79l3g8swxf)" points="235.5,253,245.5,243,350.5,243,350.5,295.5938,340.5,305.5938,235.5,305.5938,235.5,253" style="stroke: #000000; stroke-width: 1.5;"/><line style="stroke: #000000; stroke-width: 1.5;" x1="340.5" x2="349.5" y1="253" y2="244"/><line style="stroke: #000000; stroke-width: 1.5;" x1="235.5" x2="340.5" y1="253" y2="253"/><line style="stroke: #000000; stroke-width: 1.5;" x1="340.5" x2="340.5" y1="253" y2="305.5938"/><text fill="#000000" font-family="sans-serif" font-size="14" font-style="italic" lengthAdjust="spacingAndGlyphs" textLength="75" x="250.5" y="275.9951">«daemon»</text><text fill="#000000" font-family="sans-serif" font-size="14" lengthAdjust="spacingAndGlyphs" textLength="59" x="258.5" y="292.292">systemd</text><!--entity IPFS--><rect fill="#FEFECE" filter="url(#fta79l3g8swxf)" height="36.2969" style="stroke: #A80036; stroke-width: 1.5;" width="49" x="278.5" y="433.5"/><rect fill="#FEFECE" height="5" style="stroke: #A80036; stroke-width: 1.5;" width="10" x="273.5" y="438.5"/><rect fill="#FEFECE" height="5" style="stroke: #A80036; stroke-width: 1.5;" width="10" x="273.5" y="459.7969"/><text fill="#000000" font-family="sans-serif" font-size="14" lengthAdjust="spacingAndGlyphs" textLength="29" x="288.5" y="456.4951">IPFS</text><!--link Browser to Hypercorn--><path d="M74,94.344 C74,135.3733 74,219.5598 74,256.477 " fill="none" id="Browser-Hypercorn" style="stroke: #A80036; stroke-width: 1.0;"/><text fill="#000000" font-family="sans-serif" font-size="13" lengthAdjust="spacingAndGlyphs" textLength="41" x="75" y="168.0669">HTTPS</text><!--link Hypercorn to systemd--><path d="M119.643,274.5 C153.2386,274.5 199.1613,274.5 235.3015,274.5 " fill="none" id="Hypercorn-systemd" style="stroke: #A80036; stroke-width: 1.0;"/><text fill="#000000" font-family="sans-serif" font-size="13" lengthAdjust="spacingAndGlyphs" textLength="79" x="138" y="267.5669">run instance</text><!--link systemd to systemd_conf--><path d="M355.8536,274.5 C383.8618,274.5 416.9848,274.5 445.8942,274.5 " fill="none" id="systemd-systemd_conf" style="stroke: #A80036; stroke-width: 1.0;"/><polygon fill="#A80036" points="350.6856,274.5,359.6856,278.5,355.6856,274.5,359.6856,270.5,350.6856,274.5" style="stroke: #A80036; stroke-width: 1.0;"/><text fill="#000000" font-family="sans-serif" font-size="13" lengthAdjust="spacingAndGlyphs" textLength="59" x="368.75" y="267.5669">configure</text><!--link Hypercorn to Acanban--><path d="M74,292.7754 C74,326.7812 74,399.3937 74,433.324 " fill="none" id="Hypercorn-Acanban" style="stroke: #A80036; stroke-width: 1.0;"/><!--link Acanban to IPFS--><path d="M92.681,433.4062 C106.9575,420.9089 127.8155,405.3513 149.5,398.5 C189.3367,385.9134 204.4571,383.6326 243.5,398.5 C261.8579,405.4906 278.1569,421.033 289.0327,433.4891 " fill="none" id="Acanban-IPFS" style="stroke: #A80036; stroke-width: 1.0;"/><!--link Acanban to db--><path d="M114.0313,451.5 C125.6648,451.5 137.2984,451.5 148.932,451.5 " fill="none" id="Acanban-db" style="stroke: #A80036; stroke-width: 1.0;"/><!--
@startuml
node Client {
   node Browser
}

node Server {
   database "RethinkDB" as db
   artifact "acanban.service" as systemd_conf
   component Acanban
   component Hypercorn
   node systemd <<daemon>>
   component IPFS
}

Browser - - - Hypercorn: HTTPS
Hypercorn - systemd: run instance
systemd <- systemd_conf: configure
Hypercorn - - Acanban
Acanban - IPFS
Acanban - db

@enduml

PlantUML version 1.2017.15(Mon Jul 03 16:45:34 UTC 2017)
(GPL source distribution)
Java Runtime: OpenJDK Runtime Environment
JVM: OpenJDK 64-Bit Server VM
Java Version: 1.8.0_275-b01
Operating System: Linux
OS Version: 5.4.0-1031-azure
Default Encoding: UTF-8
Language: en
Country: null
--></g></svg>