<?xml version="1.0" encoding="UTF-8" standalone="no"?><svg xmlns="http://www.w3.org/2000/svg" xmlns:xlink="http://www.w3.org/1999/xlink" contentScriptType="application/ecmascript" contentStyleType="text/css" height="407px" preserveAspectRatio="none" style="width:599px;height:407px;" version="1.1" viewBox="0 0 599 407" width="599px" zoomAndPan="magnify"><defs><filter height="300%" id="f1auqiqm201dk2" width="300%" x="-1" y="-1"><feGaussianBlur result="blurOut" stdDeviation="2.0"/><feColorMatrix in="blurOut" result="blurOut2" type="matrix" values="0 0 0 0 0 0 0 0 0 0 0 0 0 0 0 0 0 0 .4 0"/><feOffset dx="4.0" dy="4.0" in="blurOut2" result="blurOut3"/><feBlend in="SourceGraphic" in2="blurOut3" mode="normal"/></filter></defs><g><rect fill="#FFFFFF" filter="url(#f1auqiqm201dk2)" height="259.9297" style="stroke: #A80036; stroke-width: 1.0;" width="10" x="148.5" y="117.4297"/><rect fill="#FFFFFF" filter="url(#f1auqiqm201dk2)" height="216.7969" style="stroke: #A80036; stroke-width: 1.0;" width="10" x="285.5" y="146.5625"/><rect fill="#FFFFFF" filter="url(#f1auqiqm201dk2)" height="14" style="stroke: #A80036; stroke-width: 1.0;" width="10" x="447.5" y="175.6953"/><rect fill="#FFFFFF" filter="url(#f1auqiqm201dk2)" height="14" style="stroke: #A80036; stroke-width: 1.0;" width="10" x="447.5" y="335.3594"/><rect fill="#FFFFFF" filter="url(#f1auqiqm201dk2)" height="29.1328" style="stroke: #A80036; stroke-width: 1.0;" width="10" x="504" y="277.0938"/><rect fill="#FFFFFF" filter="url(#f1auqiqm201dk2)" height="29.1328" style="stroke: #A80036; stroke-width: 1.0;" width="10" x="559" y="218.8281"/><line style="stroke: #A80036; stroke-width: 1.0; stroke-dasharray: 5.0,5.0;" x1="29" x2="29" y1="86.2969" y2="395.3594"/><line style="stroke: #A80036; stroke-width: 1.0; stroke-dasharray: 5.0,5.0;" x1="153" x2="153" y1="86.2969" y2="395.3594"/><line style="stroke: #A80036; stroke-width: 1.0; stroke-dasharray: 5.0,5.0;" x1="290" x2="290" y1="86.2969" y2="395.3594"/><line style="stroke: #A80036; stroke-width: 1.0; stroke-dasharray: 5.0,5.0;" x1="452" x2="452" y1="86.2969" y2="395.3594"/><line style="stroke: #A80036; stroke-width: 1.0; stroke-dasharray: 5.0,5.0;" x1="509" x2="509" y1="86.2969" y2="395.3594"/><line style="stroke: #A80036; stroke-width: 1.0; stroke-dasharray: 5.0,5.0;" x1="564" x2="564" y1="86.2969" y2="395.3594"/><text fill="#000000" font-family="sans-serif" font-size="14" lengthAdjust="spacingAndGlyphs" text-decoration="underline" textLength="37" x="8" y="82.9951">:User</text><line style="stroke: #000000; stroke-width: 1.0;" x1="8" x2="45" y1="84.9951" y2="84.9951"/><ellipse cx="29.5" cy="13" fill="#FEFECE" filter="url(#f1auqiqm201dk2)" rx="8" ry="8" style="stroke: #A80036; stroke-width: 2.0;"/><path d="M29.5,21 L29.5,48 M16.5,29 L42.5,29 M29.5,48 L16.5,63 M29.5,48 L42.5,63 " fill="none" filter="url(#f1auqiqm201dk2)" style="stroke: #A80036; stroke-width: 2.0;"/><text fill="#000000" font-family="sans-serif" font-size="14" lengthAdjust="spacingAndGlyphs" text-decoration="underline" textLength="143" x="79" y="82.9951">:Artifact Upload Form</text><line style="stroke: #000000; stroke-width: 1.0;" x1="79" x2="222" y1="84.9951" y2="84.9951"/><path d="M133,42 L133,66 M133,54 L150,54 " fill="none" filter="url(#f1auqiqm201dk2)" style="stroke: #A80036; stroke-width: 2.0;"/><ellipse cx="162" cy="54" fill="#FEFECE" filter="url(#f1auqiqm201dk2)" rx="12" ry="12" style="stroke: #A80036; stroke-width: 2.0;"/><text fill="#000000" font-family="sans-serif" font-size="14" lengthAdjust="spacingAndGlyphs" text-decoration="underline" textLength="99" x="238" y="82.9951">:File Controller</text><line style="stroke: #000000; stroke-width: 1.0;" x1="238" x2="337" y1="84.9951" y2="84.9951"/><ellipse cx="290.5" cy="54" fill="#FEFECE" filter="url(#f1auqiqm201dk2)" rx="12" ry="12" style="stroke: #A80036; stroke-width: 2.0;"/><polygon fill="#A80036" points="286.5,42,292.5,37,290.5,42,292.5,47,286.5,42" style="stroke: #A80036; stroke-width: 1.0;"/><text fill="#000000" font-family="sans-serif" font-size="14" lengthAdjust="spacingAndGlyphs" text-decoration="underline" textLength="53" x="423" y="82.9951">:Project</text><line style="stroke: #000000; stroke-width: 1.0;" x1="423" x2="476" y1="84.9951" y2="84.9951"/><ellipse cx="452.5" cy="54" fill="#FEFECE" filter="url(#f1auqiqm201dk2)" rx="12" ry="12" style="stroke: #A80036; stroke-width: 2.0;"/><line style="stroke: #A80036; stroke-width: 2.0;" x1="440.5" x2="464.5" y1="68" y2="68"/><text fill="#000000" font-family="sans-serif" font-size="14" lengthAdjust="spacingAndGlyphs" text-decoration="underline" textLength="28" x="492" y="82.9951">:File</text><line style="stroke: #000000; stroke-width: 1.0;" x1="492" x2="520" y1="84.9951" y2="84.9951"/><ellipse cx="509" cy="54" fill="#FEFECE" filter="url(#f1auqiqm201dk2)" rx="12" ry="12" style="stroke: #A80036; stroke-width: 2.0;"/><line style="stroke: #A80036; stroke-width: 2.0;" x1="497" x2="521" y1="68" y2="68"/><rect fill="#FEFECE" filter="url(#f1auqiqm201dk2)" height="30.2969" style="stroke: #A80036; stroke-width: 1.5;" width="48" x="540" y="47"/><rect fill="#FEFECE" filter="url(#f1auqiqm201dk2)" height="30.2969" style="stroke: #A80036; stroke-width: 1.5;" width="48" x="536" y="51"/><text fill="#000000" font-family="sans-serif" font-size="14" lengthAdjust="spacingAndGlyphs" text-decoration="underline" textLength="34" x="543" y="70.9951">:IPFS</text><line style="stroke: #000000; stroke-width: 1.0;" x1="543" x2="577" y1="72.9951" y2="72.9951"/><rect fill="#FFFFFF" filter="url(#f1auqiqm201dk2)" height="259.9297" style="stroke: #A80036; stroke-width: 1.0;" width="10" x="148.5" y="117.4297"/><rect fill="#FFFFFF" filter="url(#f1auqiqm201dk2)" height="216.7969" style="stroke: #A80036; stroke-width: 1.0;" width="10" x="285.5" y="146.5625"/><rect fill="#FFFFFF" filter="url(#f1auqiqm201dk2)" height="14" style="stroke: #A80036; stroke-width: 1.0;" width="10" x="447.5" y="175.6953"/><rect fill="#FFFFFF" filter="url(#f1auqiqm201dk2)" height="14" style="stroke: #A80036; stroke-width: 1.0;" width="10" x="447.5" y="335.3594"/><rect fill="#FFFFFF" filter="url(#f1auqiqm201dk2)" height="29.1328" style="stroke: #A80036; stroke-width: 1.0;" width="10" x="504" y="277.0938"/><rect fill="#FFFFFF" filter="url(#f1auqiqm201dk2)" height="29.1328" style="stroke: #A80036; stroke-width: 1.0;" width="10" x="559" y="218.8281"/><polygon fill="#A80036" points="136.5,113.4297,146.5,117.4297,136.5,121.4297,140.5,117.4297" style="stroke: #A80036; stroke-width: 1.0;"/><line style="stroke: #A80036; stroke-width: 1.0;" x1="29.5" x2="142.5" y1="117.4297" y2="117.4297"/><text fill="#000000" font-family="sans-serif" font-size="13" lengthAdjust="spacingAndGlyphs" textLength="100" x="36.5" y="112.3638">// submit a file()</text><polygon fill="#A80036" points="273.5,142.5625,283.5,146.5625,273.5,150.5625,277.5,146.5625" style="stroke: #A80036; stroke-width: 1.0;"/><line style="stroke: #A80036; stroke-width: 1.0;" x1="158.5" x2="279.5" y1="146.5625" y2="146.5625"/><text fill="#000000" font-family="sans-serif" font-size="13" lengthAdjust="spacingAndGlyphs" textLength="87" x="165.5" y="141.4966">// send form()</text><polygon fill="#A80036" points="435.5,171.6953,445.5,175.6953,435.5,179.6953,439.5,175.6953" style="stroke: #A80036; stroke-width: 1.0;"/><line style="stroke: #A80036; stroke-width: 1.0;" x1="295.5" x2="441.5" y1="175.6953" y2="175.6953"/><text fill="#000000" font-family="sans-serif" font-size="13" lengthAdjust="spacingAndGlyphs" textLength="133" x="302.5" y="170.6294">// check permission()</text><polygon fill="#A80036" points="306.5,185.6953,296.5,189.6953,306.5,193.6953,302.5,189.6953" style="stroke: #A80036; stroke-width: 1.0;"/><line style="stroke: #A80036; stroke-width: 1.0; stroke-dasharray: 2.0,2.0;" x1="300.5" x2="451.5" y1="189.6953" y2="189.6953"/><polygon fill="#A80036" points="547,214.8281,557,218.8281,547,222.8281,551,218.8281" style="stroke: #A80036; stroke-width: 1.0;"/><line style="stroke: #A80036; stroke-width: 1.0;" x1="295.5" x2="553" y1="218.8281" y2="218.8281"/><text fill="#000000" font-family="sans-serif" font-size="13" lengthAdjust="spacingAndGlyphs" textLength="136" x="302.5" y="213.7622">// add to file system()</text><polygon fill="#A80036" points="306.5,243.9609,296.5,247.9609,306.5,251.9609,302.5,247.9609" style="stroke: #A80036; stroke-width: 1.0;"/><line style="stroke: #A80036; stroke-width: 1.0; stroke-dasharray: 2.0,2.0;" x1="300.5" x2="563" y1="247.9609" y2="247.9609"/><text fill="#000000" font-family="sans-serif" font-size="13" lengthAdjust="spacingAndGlyphs" textLength="77" x="312.5" y="242.895">// return CID</text><polygon fill="#A80036" points="492,273.0938,502,277.0938,492,281.0938,496,277.0938" style="stroke: #A80036; stroke-width: 1.0;"/><line style="stroke: #A80036; stroke-width: 1.0;" x1="295.5" x2="498" y1="277.0938" y2="277.0938"/><text fill="#000000" font-family="sans-serif" font-size="13" lengthAdjust="spacingAndGlyphs" textLength="141" x="302.5" y="272.0278">// save file metadata()</text><polygon fill="#A80036" points="306.5,302.2266,296.5,306.2266,306.5,310.2266,302.5,306.2266" style="stroke: #A80036; stroke-width: 1.0;"/><line style="stroke: #A80036; stroke-width: 1.0; stroke-dasharray: 2.0,2.0;" x1="300.5" x2="508" y1="306.2266" y2="306.2266"/><text fill="#000000" font-family="sans-serif" font-size="13" lengthAdjust="spacingAndGlyphs" textLength="151" x="312.5" y="301.1606">// return database key()</text><polygon fill="#A80036" points="435.5,331.3594,445.5,335.3594,435.5,339.3594,439.5,335.3594" style="stroke: #A80036; stroke-width: 1.0;"/><line style="stroke: #A80036; stroke-width: 1.0;" x1="295.5" x2="441.5" y1="335.3594" y2="335.3594"/><text fill="#000000" font-family="sans-serif" font-size="13" lengthAdjust="spacingAndGlyphs" textLength="95" x="302.5" y="330.2935">// add artifact()</text><polygon fill="#A80036" points="306.5,345.3594,296.5,349.3594,306.5,353.3594,302.5,349.3594" style="stroke: #A80036; stroke-width: 1.0;"/><line style="stroke: #A80036; stroke-width: 1.0; stroke-dasharray: 2.0,2.0;" x1="300.5" x2="451.5" y1="349.3594" y2="349.3594"/><polygon fill="#A80036" points="169.5,359.3594,159.5,363.3594,169.5,367.3594,165.5,363.3594" style="stroke: #A80036; stroke-width: 1.0;"/><line style="stroke: #A80036; stroke-width: 1.0; stroke-dasharray: 2.0,2.0;" x1="163.5" x2="289.5" y1="363.3594" y2="363.3594"/><polygon fill="#A80036" points="40.5,373.3594,30.5,377.3594,40.5,381.3594,36.5,377.3594" style="stroke: #A80036; stroke-width: 1.0;"/><line style="stroke: #A80036; stroke-width: 1.0; stroke-dasharray: 2.0,2.0;" x1="34.5" x2="152.5" y1="377.3594" y2="377.3594"/><!--
@startuml
hide footbox
autoactivate on
skinparam sequenceParticipant underline
actor ":User" as usr
boundary ":Artifact Upload Form" as form
control ":File Controller" as ctl
entity ":Project" as db_prj
entity ":File" as db_file
collections ":IPFS" as ipfs

usr -> form : // submit a file()
form -> ctl : // send form()
ctl -> db_prj : // check permission()
ctl <- - db_prj
ctl -> ipfs : // add to file system()
ctl <- - ipfs : // return CID
ctl -> db_file : // save file metadata()
ctl <- - db_file : // return database key()
ctl -> db_prj : // add artifact()
ctl <- - db_prj
form <- - ctl
usr <- - form
@enduml

PlantUML version 1.2018.13(Mon Nov 26 17:11:51 UTC 2018)
(GPL source distribution)
Java Runtime: OpenJDK Runtime Environment
JVM: OpenJDK 64-Bit Server VM
Java Version: 11.0.10+9
Operating System: Linux
OS Version: 5.4.0-1039-azure
Default Encoding: UTF-8
Language: en
Country: null
--></g></svg>