<?xml version="1.0" encoding="UTF-8" standalone="no"?><svg xmlns="http://www.w3.org/2000/svg" xmlns:xlink="http://www.w3.org/1999/xlink" contentScriptType="application/ecmascript" contentStyleType="text/css" height="526px" preserveAspectRatio="none" style="width:823px;height:526px;" version="1.1" viewBox="0 0 823 526" width="823px" zoomAndPan="magnify"><defs><filter height="300%" id="fgftkilxswb16" width="300%" x="-1" y="-1"><feGaussianBlur result="blurOut" stdDeviation="2.0"/><feColorMatrix in="blurOut" result="blurOut2" type="matrix" values="0 0 0 0 0 0 0 0 0 0 0 0 0 0 0 0 0 0 .4 0"/><feOffset dx="4.0" dy="4.0" in="blurOut2" result="blurOut3"/><feBlend in="SourceGraphic" in2="blurOut3" mode="normal"/></filter></defs><g><rect fill="#FFFFFF" filter="url(#fgftkilxswb16)" height="29.1328" style="stroke: #A80036; stroke-width: 1.0;" width="10" x="306.5" y="321.3594"/><rect fill="#FFFFFF" filter="url(#fgftkilxswb16)" height="116.5313" style="stroke: #A80036; stroke-width: 1.0;" width="10" x="306.5" y="379.625"/><rect fill="#FFFFFF" filter="url(#fgftkilxswb16)" height="387.7266" style="stroke: #A80036; stroke-width: 1.0;" width="10" x="471.5" y="117.4297"/><rect fill="#FFFFFF" filter="url(#fgftkilxswb16)" height="96.3984" style="stroke: #A80036; stroke-width: 1.0;" width="10" x="476.5" y="408.7578"/><rect fill="#FFFFFF" filter="url(#fgftkilxswb16)" height="29.1328" style="stroke: #A80036; stroke-width: 1.0;" width="10" x="655.5" y="146.5625"/><rect fill="#FFFFFF" filter="url(#fgftkilxswb16)" height="29.1328" style="stroke: #A80036; stroke-width: 1.0;" width="10" x="782.5" y="204.8281"/><rect fill="#FFFFFF" filter="url(#fgftkilxswb16)" height="29.1328" style="stroke: #A80036; stroke-width: 1.0;" width="10" x="782.5" y="263.0938"/><rect fill="#FFFFFF" filter="url(#fgftkilxswb16)" height="29.1328" style="stroke: #A80036; stroke-width: 1.0;" width="10" x="782.5" y="437.8906"/><line style="stroke: #A80036; stroke-width: 1.0; stroke-dasharray: 5.0,5.0;" x1="29" x2="29" y1="86.2969" y2="514.1563"/><line style="stroke: #A80036; stroke-width: 1.0; stroke-dasharray: 5.0,5.0;" x1="311.5" x2="311.5" y1="86.2969" y2="514.1563"/><line style="stroke: #A80036; stroke-width: 1.0; stroke-dasharray: 5.0,5.0;" x1="476.5" x2="476.5" y1="86.2969" y2="514.1563"/><line style="stroke: #A80036; stroke-width: 1.0; stroke-dasharray: 5.0,5.0;" x1="660" x2="660" y1="86.2969" y2="514.1563"/><line style="stroke: #A80036; stroke-width: 1.0; stroke-dasharray: 5.0,5.0;" x1="787" x2="787" y1="86.2969" y2="514.1563"/><text fill="#000000" font-family="sans-serif" font-size="14" lengthAdjust="spacingAndGlyphs" text-decoration="underline" textLength="37" x="8" y="82.9951">:User</text><line style="stroke: #000000; stroke-width: 1.0;" x1="8" x2="45" y1="84.9951" y2="84.9951"/><ellipse cx="29.5" cy="13" fill="#FEFECE" filter="url(#fgftkilxswb16)" rx="8" ry="8" style="stroke: #A80036; stroke-width: 2.0;"/><path d="M29.5,21 L29.5,48 M16.5,29 L42.5,29 M29.5,48 L16.5,63 M29.5,48 L42.5,63 " fill="none" filter="url(#fgftkilxswb16)" style="stroke: #A80036; stroke-width: 2.0;"/><text fill="#000000" font-family="sans-serif" font-size="14" lengthAdjust="spacingAndGlyphs" text-decoration="underline" textLength="142" x="237.5" y="82.9951">:Create Project Form</text><line style="stroke: #000000; stroke-width: 1.0;" x1="237.5" x2="379.5" y1="84.9951" y2="84.9951"/><path d="M291,42 L291,66 M291,54 L308,54 " fill="none" filter="url(#fgftkilxswb16)" style="stroke: #A80036; stroke-width: 2.0;"/><ellipse cx="320" cy="54" fill="#FEFECE" filter="url(#fgftkilxswb16)" rx="12" ry="12" style="stroke: #A80036; stroke-width: 2.0;"/><text fill="#000000" font-family="sans-serif" font-size="14" lengthAdjust="spacingAndGlyphs" text-decoration="underline" textLength="124" x="411.5" y="82.9951">:Project Controller</text><line style="stroke: #000000; stroke-width: 1.0;" x1="411.5" x2="535.5" y1="84.9951" y2="84.9951"/><ellipse cx="476.5" cy="54" fill="#FEFECE" filter="url(#fgftkilxswb16)" rx="12" ry="12" style="stroke: #A80036; stroke-width: 2.0;"/><polygon fill="#A80036" points="472.5,42,478.5,37,476.5,42,478.5,47,472.5,42" style="stroke: #A80036; stroke-width: 1.0;"/><text fill="#000000" font-family="sans-serif" font-size="14" lengthAdjust="spacingAndGlyphs" text-decoration="underline" textLength="79" x="618" y="82.9951">:quart_auth</text><line style="stroke: #000000; stroke-width: 1.0;" x1="618" x2="697" y1="84.9951" y2="84.9951"/><ellipse cx="660.5" cy="54" fill="#FEFECE" filter="url(#fgftkilxswb16)" rx="12" ry="12" style="stroke: #A80036; stroke-width: 2.0;"/><line style="stroke: #A80036; stroke-width: 2.0;" x1="648.5" x2="672.5" y1="68" y2="68"/><text fill="#000000" font-family="sans-serif" font-size="14" lengthAdjust="spacingAndGlyphs" text-decoration="underline" textLength="53" x="758" y="82.9951">:Project</text><line style="stroke: #000000; stroke-width: 1.0;" x1="758" x2="811" y1="84.9951" y2="84.9951"/><ellipse cx="787.5" cy="54" fill="#FEFECE" filter="url(#fgftkilxswb16)" rx="12" ry="12" style="stroke: #A80036; stroke-width: 2.0;"/><line style="stroke: #A80036; stroke-width: 2.0;" x1="775.5" x2="799.5" y1="68" y2="68"/><rect fill="#FFFFFF" filter="url(#fgftkilxswb16)" height="29.1328" style="stroke: #A80036; stroke-width: 1.0;" width="10" x="306.5" y="321.3594"/><rect fill="#FFFFFF" filter="url(#fgftkilxswb16)" height="116.5313" style="stroke: #A80036; stroke-width: 1.0;" width="10" x="306.5" y="379.625"/><rect fill="#FFFFFF" filter="url(#fgftkilxswb16)" height="387.7266" style="stroke: #A80036; stroke-width: 1.0;" width="10" x="471.5" y="117.4297"/><rect fill="#FFFFFF" filter="url(#fgftkilxswb16)" height="96.3984" style="stroke: #A80036; stroke-width: 1.0;" width="10" x="476.5" y="408.7578"/><rect fill="#FFFFFF" filter="url(#fgftkilxswb16)" height="29.1328" style="stroke: #A80036; stroke-width: 1.0;" width="10" x="655.5" y="146.5625"/><rect fill="#FFFFFF" filter="url(#fgftkilxswb16)" height="29.1328" style="stroke: #A80036; stroke-width: 1.0;" width="10" x="782.5" y="204.8281"/><rect fill="#FFFFFF" filter="url(#fgftkilxswb16)" height="29.1328" style="stroke: #A80036; stroke-width: 1.0;" width="10" x="782.5" y="263.0938"/><rect fill="#FFFFFF" filter="url(#fgftkilxswb16)" height="29.1328" style="stroke: #A80036; stroke-width: 1.0;" width="10" x="782.5" y="437.8906"/><polygon fill="#A80036" points="459.5,113.4297,469.5,117.4297,459.5,121.4297,463.5,117.4297" style="stroke: #A80036; stroke-width: 1.0;"/><line style="stroke: #A80036; stroke-width: 1.0;" x1="29.5" x2="465.5" y1="117.4297" y2="117.4297"/><text fill="#000000" font-family="sans-serif" font-size="13" lengthAdjust="spacingAndGlyphs" textLength="166" x="36.5" y="112.3638">// request editing project()</text><polygon fill="#A80036" points="643.5,142.5625,653.5,146.5625,643.5,150.5625,647.5,146.5625" style="stroke: #A80036; stroke-width: 1.0;"/><line style="stroke: #A80036; stroke-width: 1.0;" x1="481.5" x2="649.5" y1="146.5625" y2="146.5625"/><text fill="#000000" font-family="sans-serif" font-size="13" lengthAdjust="spacingAndGlyphs" textLength="155" x="488.5" y="141.4966">// check authentication()</text><polygon fill="#A80036" points="492.5,171.6953,482.5,175.6953,492.5,179.6953,488.5,175.6953" style="stroke: #A80036; stroke-width: 1.0;"/><line style="stroke: #A80036; stroke-width: 1.0; stroke-dasharray: 2.0,2.0;" x1="486.5" x2="659.5" y1="175.6953" y2="175.6953"/><text fill="#000000" font-family="sans-serif" font-size="13" lengthAdjust="spacingAndGlyphs" textLength="89" x="498.5" y="170.6294">authenticated</text><polygon fill="#A80036" points="770.5,200.8281,780.5,204.8281,770.5,208.8281,774.5,204.8281" style="stroke: #A80036; stroke-width: 1.0;"/><line style="stroke: #A80036; stroke-width: 1.0;" x1="481.5" x2="776.5" y1="204.8281" y2="204.8281"/><text fill="#000000" font-family="sans-serif" font-size="13" lengthAdjust="spacingAndGlyphs" textLength="263" x="488.5" y="199.7622">// check project id is in project database()</text><polygon fill="#A80036" points="492.5,229.9609,482.5,233.9609,492.5,237.9609,488.5,233.9609" style="stroke: #A80036; stroke-width: 1.0;"/><line style="stroke: #A80036; stroke-width: 1.0; stroke-dasharray: 2.0,2.0;" x1="486.5" x2="786.5" y1="233.9609" y2="233.9609"/><text fill="#000000" font-family="sans-serif" font-size="13" lengthAdjust="spacingAndGlyphs" textLength="212" x="498.5" y="228.895">// project id is in project database</text><polygon fill="#A80036" points="770.5,259.0938,780.5,263.0938,770.5,267.0938,774.5,263.0938" style="stroke: #A80036; stroke-width: 1.0;"/><line style="stroke: #A80036; stroke-width: 1.0;" x1="481.5" x2="776.5" y1="263.0938" y2="263.0938"/><text fill="#000000" font-family="sans-serif" font-size="13" lengthAdjust="spacingAndGlyphs" textLength="282" x="488.5" y="258.0278">// check current user is in project database()</text><polygon fill="#A80036" points="492.5,288.2266,482.5,292.2266,492.5,296.2266,488.5,292.2266" style="stroke: #A80036; stroke-width: 1.0;"/><line style="stroke: #A80036; stroke-width: 1.0; stroke-dasharray: 2.0,2.0;" x1="486.5" x2="786.5" y1="292.2266" y2="292.2266"/><text fill="#000000" font-family="sans-serif" font-size="13" lengthAdjust="spacingAndGlyphs" textLength="177" x="498.5" y="287.1606">// user is member of project</text><polygon fill="#A80036" points="327.5,317.3594,317.5,321.3594,327.5,325.3594,323.5,321.3594" style="stroke: #A80036; stroke-width: 1.0;"/><line style="stroke: #A80036; stroke-width: 1.0;" x1="321.5" x2="470.5" y1="321.3594" y2="321.3594"/><text fill="#000000" font-family="sans-serif" font-size="13" lengthAdjust="spacingAndGlyphs" textLength="136" x="333.5" y="316.2935">// send form to user()</text><polygon fill="#A80036" points="40.5,346.4922,30.5,350.4922,40.5,354.4922,36.5,350.4922" style="stroke: #A80036; stroke-width: 1.0;"/><line style="stroke: #A80036; stroke-width: 1.0; stroke-dasharray: 2.0,2.0;" x1="34.5" x2="310.5" y1="350.4922" y2="350.4922"/><text fill="#000000" font-family="sans-serif" font-size="13" lengthAdjust="spacingAndGlyphs" textLength="135" x="46.5" y="345.4263">// create project form</text><polygon fill="#A80036" points="294.5,375.625,304.5,379.625,294.5,383.625,298.5,379.625" style="stroke: #A80036; stroke-width: 1.0;"/><line style="stroke: #A80036; stroke-width: 1.0;" x1="29.5" x2="300.5" y1="379.625" y2="379.625"/><text fill="#000000" font-family="sans-serif" font-size="13" lengthAdjust="spacingAndGlyphs" textLength="258" x="36.5" y="374.5591">// update project name and description()</text><polygon fill="#A80036" points="464.5,404.7578,474.5,408.7578,464.5,412.7578,468.5,408.7578" style="stroke: #A80036; stroke-width: 1.0;"/><line style="stroke: #A80036; stroke-width: 1.0;" x1="316.5" x2="470.5" y1="408.7578" y2="408.7578"/><text fill="#000000" font-family="sans-serif" font-size="13" lengthAdjust="spacingAndGlyphs" textLength="87" x="323.5" y="403.6919">// send form()</text><polygon fill="#A80036" points="770.5,433.8906,780.5,437.8906,770.5,441.8906,774.5,437.8906" style="stroke: #A80036; stroke-width: 1.0;"/><line style="stroke: #A80036; stroke-width: 1.0;" x1="486.5" x2="776.5" y1="437.8906" y2="437.8906"/><text fill="#000000" font-family="sans-serif" font-size="13" lengthAdjust="spacingAndGlyphs" textLength="131" x="493.5" y="432.8247">// update database()</text><polygon fill="#A80036" points="497.5,463.0234,487.5,467.0234,497.5,471.0234,493.5,467.0234" style="stroke: #A80036; stroke-width: 1.0;"/><line style="stroke: #A80036; stroke-width: 1.0; stroke-dasharray: 2.0,2.0;" x1="491.5" x2="786.5" y1="467.0234" y2="467.0234"/><text fill="#000000" font-family="sans-serif" font-size="13" lengthAdjust="spacingAndGlyphs" textLength="51" x="503.5" y="461.9575">// return</text><polygon fill="#A80036" points="40.5,492.1563,30.5,496.1563,40.5,500.1563,36.5,496.1563" style="stroke: #A80036; stroke-width: 1.0;"/><line style="stroke: #A80036; stroke-width: 1.0; stroke-dasharray: 2.0,2.0;" x1="34.5" x2="310.5" y1="496.1563" y2="496.1563"/><text fill="#000000" font-family="sans-serif" font-size="13" lengthAdjust="spacingAndGlyphs" textLength="63" x="46.5" y="491.0903">// success</text><!--
@startuml
hide footbox
autoactivate on
skinparam sequenceParticipant underline
actor ":User" as usr
boundary ":Create Project Form" as form
control ":Project Controller" as ctl
entity ":quart_auth" as quart
entity ":Project" as db_prj

usr -> ctl : // request editing project()
ctl -> quart : // check authentication()
ctl <- - quart : authenticated 
ctl -> db_prj : // check project id is in project database()
ctl <- - db_prj : // project id is in project database
ctl -> db_prj : // check current user is in project database()
ctl <- - db_prj : // user is member of project
ctl -> form : // send form to user()
usr <- - form : // create project form
usr -> form : // update project name and description()
form -> ctl : // send form()
ctl -> db_prj : // update database()
ctl <- - db_prj : // return
usr <- - form : // success
@enduml

PlantUML version 1.2018.13(Mon Nov 26 17:11:51 UTC 2018)
(GPL source distribution)
Java Runtime: OpenJDK Runtime Environment
JVM: OpenJDK 64-Bit Server VM
Java Version: 11.0.10+9
Operating System: Linux
OS Version: 5.4.0-1039-azure
Default Encoding: UTF-8
Language: en
Country: null
--></g></svg>