<?xml version="1.0" encoding="UTF-8" standalone="no"?><svg xmlns="http://www.w3.org/2000/svg" xmlns:xlink="http://www.w3.org/1999/xlink" contentScriptType="application/ecmascript" contentStyleType="text/css" height="408px" preserveAspectRatio="none" style="width:327px;height:408px;" version="1.1" viewBox="0 0 327 408" width="327px" zoomAndPan="magnify"><defs><filter height="300%" id="f1wocn1j1052l" width="300%" x="-1" y="-1"><feGaussianBlur result="blurOut" stdDeviation="2.0"/><feColorMatrix in="blurOut" result="blurOut2" type="matrix" values="0 0 0 0 0 0 0 0 0 0 0 0 0 0 0 0 0 0 .4 0"/><feOffset dx="4.0" dy="4.0" in="blurOut2" result="blurOut3"/><feBlend in="SourceGraphic" in2="blurOut3" mode="normal"/></filter></defs><g><ellipse cx="166.37" cy="18" fill="#000000" filter="url(#f1wocn1j1052l)" rx="10" ry="10" style="stroke: none; stroke-width: 1.0;"/><rect fill="#FEFECE" filter="url(#f1wocn1j1052l)" height="33.9688" rx="12.5" ry="12.5" style="stroke: #A80036; stroke-width: 1.5;" width="73" x="87.87" y="68"/><text fill="#000000" font-family="sans-serif" font-size="12" lengthAdjust="spacingAndGlyphs" textLength="53" x="97.87" y="89.1387">/register</text><rect fill="#FEFECE" filter="url(#f1wocn1j1052l)" height="33.9688" rx="12.5" ry="12.5" style="stroke: #A80036; stroke-width: 1.5;" width="54" x="181.37" y="68"/><text fill="#000000" font-family="sans-serif" font-size="12" lengthAdjust="spacingAndGlyphs" textLength="34" x="191.37" y="89.1387">/login</text><rect fill="#FEFECE" filter="url(#f1wocn1j1052l)" height="33.9688" rx="12.5" ry="12.5" style="stroke: #A80036; stroke-width: 1.5;" width="24" x="154.37" y="142"/><text fill="#000000" font-family="sans-serif" font-size="12" lengthAdjust="spacingAndGlyphs" textLength="4" x="164.37" y="163.1387">/</text><rect fill="#FEFECE" filter="url(#f1wocn1j1052l)" height="33.9688" rx="12.5" ry="12.5" style="stroke: #A80036; stroke-width: 1.5;" width="32" x="122.37" y="216"/><text fill="#000000" font-family="sans-serif" font-size="12" lengthAdjust="spacingAndGlyphs" textLength="12" x="132.37" y="237.1387">/p</text><rect fill="#FEFECE" filter="url(#f1wocn1j1052l)" height="33.9688" rx="12.5" ry="12.5" style="stroke: #A80036; stroke-width: 1.5;" width="77" x="21.87" y="290"/><text fill="#000000" font-family="sans-serif" font-size="12" lengthAdjust="spacingAndGlyphs" textLength="57" x="31.87" y="311.1387">/p/create</text><rect fill="#FEFECE" filter="url(#f1wocn1j1052l)" height="33.9688" rx="12.5" ry="12.5" style="stroke: #A80036; stroke-width: 1.5;" width="83" x="66.87" y="364"/><text fill="#000000" font-family="sans-serif" font-size="12" lengthAdjust="spacingAndGlyphs" textLength="63" x="76.87" y="385.1387">/p/&lt;uuid&gt;</text><rect fill="#FEFECE" filter="url(#f1wocn1j1052l)" height="33.9688" rx="12.5" ry="12.5" style="stroke: #A80036; stroke-width: 1.5;" width="119" x="161.87" y="290"/><text fill="#000000" font-family="sans-serif" font-size="12" lengthAdjust="spacingAndGlyphs" textLength="99" x="171.87" y="311.1387">/u/&lt;username&gt;</text><rect fill="#FEFECE" filter="url(#f1wocn1j1052l)" height="33.9688" rx="12.5" ry="12.5" style="stroke: #A80036; stroke-width: 1.5;" width="147" x="169.87" y="364"/><text fill="#000000" font-family="sans-serif" font-size="12" lengthAdjust="spacingAndGlyphs" textLength="127" x="179.87" y="385.1387">/u/&lt;username&gt;/edit</text><!--link start to register--><path d="M161.39,26.71 C155.59,35.7 145.76,50.91 137.69,63.4 " fill="none" id="start-register" style="stroke: #A80036; stroke-width: 1.0;"/><polygon fill="#A80036" points="134.81,67.86,143.0545,62.4722,137.5239,63.6606,136.3355,58.13,134.81,67.86" style="stroke: #A80036; stroke-width: 1.0;"/><!--link start to login--><path d="M171.36,26.71 C177.16,35.7 186.99,50.91 195.06,63.4 " fill="none" id="start-login" style="stroke: #A80036; stroke-width: 1.0;"/><polygon fill="#A80036" points="197.94,67.86,196.4145,58.13,195.2261,63.6606,189.6955,62.4722,197.94,67.86" style="stroke: #A80036; stroke-width: 1.0;"/><!--link login to root--><path d="M198.84,102.34 C192.83,112.65 185.01,126.06 178.54,137.14 " fill="none" id="login-root" style="stroke: #A80036; stroke-width: 1.0;"/><polygon fill="#A80036" points="175.87,141.73,183.8576,135.9682,178.3876,137.4101,176.9457,131.9401,175.87,141.73" style="stroke: #A80036; stroke-width: 1.0;"/><!--link register to root--><path d="M133.91,102.34 C139.92,112.65 147.74,126.06 154.21,137.14 " fill="none" id="register-root" style="stroke: #A80036; stroke-width: 1.0;"/><polygon fill="#A80036" points="156.88,141.73,155.8043,131.9401,154.3624,137.4101,148.8924,135.9682,156.88,141.73" style="stroke: #A80036; stroke-width: 1.0;"/><!--link root to projects--><path d="M160.02,176.34 C156.05,186.56 150.89,199.82 146.6,210.84 " fill="none" id="root-projects" style="stroke: #A80036; stroke-width: 1.0;"/><polygon fill="#A80036" points="144.7,215.73,151.687,208.7886,146.5102,211.0692,144.2296,205.8924,144.7,215.73" style="stroke: #A80036; stroke-width: 1.0;"/><!--link projects to /p/create--><path d="M122.21,248.92 C110.49,259.74 94.5,274.5 81.73,286.29 " fill="none" id="projects-/p/create" style="stroke: #A80036; stroke-width: 1.0;"/><polygon fill="#A80036" points="77.87,289.85,87.1979,286.6892,81.5457,286.4604,81.7745,280.8082,77.87,289.85" style="stroke: #A80036; stroke-width: 1.0;"/><!--link projects to project--><path d="M135.05,250.18 C129.62,276.6 118.85,329.01 112.79,358.51 " fill="none" id="projects-project" style="stroke: #A80036; stroke-width: 1.0;"/><polygon fill="#A80036" points="111.71,363.75,117.4289,355.7316,112.7098,358.851,109.5904,354.1319,111.71,363.75" style="stroke: #A80036; stroke-width: 1.0;"/><!--link root to user--><path d="M167.55,176.18 C174.33,202.82 194.14,255.88 208.13,285.24 " fill="none" id="root-user" style="stroke: #A80036; stroke-width: 1.0;"/><polygon fill="#A80036" points="210.32,289.75,209.9483,279.9082,208.1183,285.2608,202.7656,283.4309,210.32,289.75" style="stroke: #A80036; stroke-width: 1.0;"/><!--link root to user--><path d="M177.4,176.18 C190.63,202.71 210.68,255.44 218.88,284.88 " fill="none" id="root-user" style="stroke: #A80036; stroke-width: 1.0;"/><polygon fill="#A80036" points="220.19,289.75,221.7127,280.0196,218.8901,284.9219,213.9878,282.0994,220.19,289.75" style="stroke: #A80036; stroke-width: 1.0;"/><!--link user to /u/<username>/edit--><path d="M226.37,324.34 C229.49,334.56 233.54,347.82 236.91,358.84 " fill="none" id="user-/u/&lt;username&gt;/edit" style="stroke: #A80036; stroke-width: 1.0;"/><polygon fill="#A80036" points="238.4,363.73,239.5702,353.9509,236.9266,358.952,231.9254,356.3084,238.4,363.73" style="stroke: #A80036; stroke-width: 1.0;"/><!--link user to project--><path d="M196.02,324.16 C178.86,335.09 156.13,349.57 138.12,361.05 " fill="none" id="user-project" style="stroke: #A80036; stroke-width: 1.0;"/><polygon fill="#A80036" points="133.65,363.9,143.3895,362.4364,137.8665,361.2128,139.0901,355.6899,133.65,363.9" style="stroke: #A80036; stroke-width: 1.0;"/><!--link root to project--><path d="M153.99,165.65 C122.9,180.64 41.81,224.75 11.37,290 C4.99,303.69 3.82,310.91 11.37,324 C22.4,343.09 42.69,356.26 61.87,365 " fill="none" id="root-project" style="stroke: #A80036; stroke-width: 1.0;"/><polygon fill="#A80036" points="66.72,367.13,60.0779,359.858,62.1392,365.1259,56.8713,367.1873,66.72,367.13" style="stroke: #A80036; stroke-width: 1.0;"/><!--link projects to user--><path d="M154.38,247.88 C167.04,258.86 184.86,274.33 198.95,286.54 " fill="none" id="projects-user" style="stroke: #A80036; stroke-width: 1.0;"/><polygon fill="#A80036" points="202.81,289.9,198.6324,280.9811,199.033,286.6237,193.3903,287.0243,202.81,289.9" style="stroke: #A80036; stroke-width: 1.0;"/><!--
@startuml
(*) - -> "/register" as register
(*) - -> "/login" as login
login - -> "/" as root
register - -> root
root - -> "/p" as projects
projects - -> "/p/create"
projects - -> "/p/<uuid>" as project

root - -> "/u/<username>" as user
user - -> "/u/<username>/edit"
user - -> project
root - -> project
root - -> user
projects - -> user

@enduml

PlantUML version 1.2018.13(Mon Nov 26 17:11:51 UTC 2018)
(GPL source distribution)
Java Runtime: OpenJDK Runtime Environment
JVM: OpenJDK 64-Bit Server VM
Java Version: 11.0.10+9
Operating System: Linux
OS Version: 5.4.0-1036-azure
Default Encoding: UTF-8
Language: en
Country: null
--></g></svg>