<?xml version="1.0" encoding="UTF-8" standalone="no"?><svg xmlns="http://www.w3.org/2000/svg" xmlns:xlink="http://www.w3.org/1999/xlink" contentScriptType="application/ecmascript" contentStyleType="text/css" height="891px" preserveAspectRatio="none" style="width:827px;height:891px;" version="1.1" viewBox="0 0 827 891" width="827px" zoomAndPan="magnify"><defs><filter height="300%" id="f1c7m3uzpuleqs" width="300%" x="-1" y="-1"><feGaussianBlur result="blurOut" stdDeviation="2.0"/><feColorMatrix in="blurOut" result="blurOut2" type="matrix" values="0 0 0 0 0 0 0 0 0 0 0 0 0 0 0 0 0 0 .4 0"/><feOffset dx="4.0" dy="4.0" in="blurOut2" result="blurOut3"/><feBlend in="SourceGraphic" in2="blurOut3" mode="normal"/></filter></defs><g><!--cluster Client--><polygon fill="#FFFFFF" filter="url(#f1c7m3uzpuleqs)" points="22,34,32,24,150,24,150,116,140,126,22,126,22,34" style="stroke: #000000; stroke-width: 1.5;"/><line style="stroke: #000000; stroke-width: 1.5;" x1="140" x2="149" y1="34" y2="25"/><line style="stroke: #000000; stroke-width: 1.5;" x1="22" x2="140" y1="34" y2="34"/><line style="stroke: #000000; stroke-width: 1.5;" x1="140" x2="140" y1="34" y2="126"/><text fill="#000000" font-family="sans-serif" font-size="14" font-weight="bold" lengthAdjust="spacingAndGlyphs" textLength="45" x="59.5" y="49.9951">Client</text><!--cluster balancer--><polygon fill="#FFFFFF" filter="url(#f1c7m3uzpuleqs)" points="78,255,88,245,635,245,635,360,625,370,78,370,78,255" style="stroke: #000000; stroke-width: 1.5;"/><line style="stroke: #000000; stroke-width: 1.5;" x1="625" x2="634" y1="255" y2="246"/><line style="stroke: #000000; stroke-width: 1.5;" x1="78" x2="625" y1="255" y2="255"/><line style="stroke: #000000; stroke-width: 1.5;" x1="625" x2="625" y1="255" y2="370"/><text fill="#000000" font-family="sans-serif" font-size="14" font-weight="bold" lengthAdjust="spacingAndGlyphs" textLength="176" x="264.5" y="270.9951">Load Balancing Server</text><!--cluster Server--><polygon fill="#FFFFFF" filter="url(#f1c7m3uzpuleqs)" points="178,491,188,481,805,481,805,703,795,713,178,713,178,491" style="stroke: #000000; stroke-width: 1.5;"/><line style="stroke: #000000; stroke-width: 1.5;" x1="795" x2="804" y1="491" y2="482"/><line style="stroke: #000000; stroke-width: 1.5;" x1="178" x2="795" y1="491" y2="491"/><line style="stroke: #000000; stroke-width: 1.5;" x1="795" x2="795" y1="491" y2="713"/><text fill="#000000" font-family="sans-serif" font-size="14" font-weight="bold" lengthAdjust="spacingAndGlyphs" textLength="53" x="461" y="506.9951">Server</text><!--cluster db_server--><polygon fill="#FFFFFF" filter="url(#f1c7m3uzpuleqs)" points="259,772,269,762,505,762,505,869,495,879,259,879,259,772" style="stroke: #000000; stroke-width: 1.5;"/><line style="stroke: #000000; stroke-width: 1.5;" x1="495" x2="504" y1="772" y2="763"/><line style="stroke: #000000; stroke-width: 1.5;" x1="259" x2="495" y1="772" y2="772"/><line style="stroke: #000000; stroke-width: 1.5;" x1="495" x2="495" y1="772" y2="879"/><text fill="#000000" font-family="sans-serif" font-size="14" font-weight="bold" lengthAdjust="spacingAndGlyphs" textLength="131" x="312.5" y="787.9951">Database Server</text><!--entity Browser--><polygon fill="#FEFECE" filter="url(#f1c7m3uzpuleqs)" points="37.5,74,47.5,64,134.5,64,134.5,100.2969,124.5,110.2969,37.5,110.2969,37.5,74" style="stroke: #000000; stroke-width: 1.5;"/><line style="stroke: #000000; stroke-width: 1.5;" x1="124.5" x2="133.5" y1="74" y2="65"/><line style="stroke: #000000; stroke-width: 1.5;" x1="37.5" x2="124.5" y1="74" y2="74"/><line style="stroke: #000000; stroke-width: 1.5;" x1="124.5" x2="124.5" y1="74" y2="110.2969"/><text fill="#000000" font-family="sans-serif" font-size="14" lengthAdjust="spacingAndGlyphs" textLength="57" x="52.5" y="96.9951">Browser</text><!--entity nginx--><rect fill="#FEFECE" filter="url(#f1c7m3uzpuleqs)" height="52.5938" style="stroke: #A80036; stroke-width: 1.5;" width="130" x="121" y="293"/><rect fill="#FEFECE" height="5" style="stroke: #A80036; stroke-width: 1.5;" width="10" x="116" y="298"/><rect fill="#FEFECE" height="5" style="stroke: #A80036; stroke-width: 1.5;" width="10" x="116" y="335.5938"/><text fill="#000000" font-family="sans-serif" font-size="14" font-style="italic" lengthAdjust="spacingAndGlyphs" textLength="110" x="131" y="315.9951">«load balancer»</text><text fill="#000000" font-family="sans-serif" font-size="14" lengthAdjust="spacingAndGlyphs" textLength="43" x="164.5" y="332.292">NGINX</text><!--entity nginx_conf--><rect fill="#FEFECE" filter="url(#f1c7m3uzpuleqs)" height="39.2969" style="stroke: #000000; stroke-width: 1.5;" width="264" x="347" y="300"/><polygon fill="#FEFECE" points="594,305,594,319,606,319,606,311,600,305,594,305" style="stroke: #000000; stroke-width: 1.5;"/><line style="stroke: #000000; stroke-width: 1.5;" x1="600" x2="600" y1="305" y2="311"/><line style="stroke: #000000; stroke-width: 1.5;" x1="606" x2="600" y1="311" y2="311"/><text fill="#000000" font-family="sans-serif" font-size="14" lengthAdjust="spacingAndGlyphs" textLength="234" x="357" y="325.9951">/etc/nginx/sites-available/acanban</text><!--entity systemd_conf--><rect fill="#FEFECE" filter="url(#f1c7m3uzpuleqs)" height="39.2969" style="stroke: #000000; stroke-width: 1.5;" width="142" x="639" y="541"/><polygon fill="#FEFECE" points="764,546,764,560,776,560,776,552,770,546,764,546" style="stroke: #000000; stroke-width: 1.5;"/><line style="stroke: #000000; stroke-width: 1.5;" x1="770" x2="770" y1="546" y2="552"/><line style="stroke: #000000; stroke-width: 1.5;" x1="776" x2="770" y1="552" y2="552"/><text fill="#000000" font-family="sans-serif" font-size="14" lengthAdjust="spacingAndGlyphs" textLength="112" x="649" y="566.9951">acanban.service</text><!--entity Acanban--><rect fill="#FEFECE" filter="url(#f1c7m3uzpuleqs)" height="36.2969" style="stroke: #A80036; stroke-width: 1.5;" width="80" x="227" y="653"/><rect fill="#FEFECE" height="5" style="stroke: #A80036; stroke-width: 1.5;" width="10" x="222" y="658"/><rect fill="#FEFECE" height="5" style="stroke: #A80036; stroke-width: 1.5;" width="10" x="222" y="679.2969"/><text fill="#000000" font-family="sans-serif" font-size="14" lengthAdjust="spacingAndGlyphs" textLength="60" x="237" y="675.9951">Acanban</text><!--entity Hypercorn--><rect fill="#FEFECE" filter="url(#f1c7m3uzpuleqs)" height="36.2969" style="stroke: #A80036; stroke-width: 1.5;" width="91" x="221.5" y="542.5"/><rect fill="#FEFECE" height="5" style="stroke: #A80036; stroke-width: 1.5;" width="10" x="216.5" y="547.5"/><rect fill="#FEFECE" height="5" style="stroke: #A80036; stroke-width: 1.5;" width="10" x="216.5" y="568.7969"/><text fill="#000000" font-family="sans-serif" font-size="14" lengthAdjust="spacingAndGlyphs" textLength="71" x="231.5" y="565.4951">Hypercorn</text><!--entity systemd--><polygon fill="#FEFECE" filter="url(#f1c7m3uzpuleqs)" points="428.5,539,438.5,529,543.5,529,543.5,581.5938,533.5,591.5938,428.5,591.5938,428.5,539" style="stroke: #000000; stroke-width: 1.5;"/><line style="stroke: #000000; stroke-width: 1.5;" x1="533.5" x2="542.5" y1="539" y2="530"/><line style="stroke: #000000; stroke-width: 1.5;" x1="428.5" x2="533.5" y1="539" y2="539"/><line style="stroke: #000000; stroke-width: 1.5;" x1="533.5" x2="533.5" y1="539" y2="591.5938"/><text fill="#000000" font-family="sans-serif" font-size="14" font-style="italic" lengthAdjust="spacingAndGlyphs" textLength="75" x="443.5" y="561.9951">«daemon»</text><text fill="#000000" font-family="sans-serif" font-size="14" lengthAdjust="spacingAndGlyphs" textLength="59" x="451.5" y="578.292">systemd</text><!--entity db--><path d="M387,820 C387,810 434,810 434,810 C434,810 481,810 481,820 L481,845.2969 C481,855.2969 434,855.2969 434,855.2969 C434,855.2969 387,855.2969 387,845.2969 L387,820 " fill="#FEFECE" filter="url(#f1c7m3uzpuleqs)" style="stroke: #000000; stroke-width: 1.5;"/><path d="M387,820 C387,830 434,830 434,830 C434,830 481,830 481,820 " fill="none" style="stroke: #000000; stroke-width: 1.5;"/><text fill="#000000" font-family="sans-serif" font-size="14" lengthAdjust="spacingAndGlyphs" textLength="74" x="397" y="846.9951">RethinkDB</text><!--entity IPFS--><rect fill="#FEFECE" filter="url(#f1c7m3uzpuleqs)" height="36.2969" style="stroke: #A80036; stroke-width: 1.5;" width="49" x="302.5" y="814.5"/><rect fill="#FEFECE" height="5" style="stroke: #A80036; stroke-width: 1.5;" width="10" x="297.5" y="819.5"/><rect fill="#FEFECE" height="5" style="stroke: #A80036; stroke-width: 1.5;" width="10" x="297.5" y="840.7969"/><text fill="#000000" font-family="sans-serif" font-size="14" lengthAdjust="spacingAndGlyphs" textLength="29" x="312.5" y="837.4951">IPFS</text><!--link Browser to balancer--><path d="M86,110.1 C86,138.495 86,189.4225 86,233.8237 C86,236.5988 86,239.3484 86,242.0654 C86,242.7447 86,243.4219 86,244.0969 " fill="none" id="Browser-balancer" style="stroke: #A80036; stroke-width: 1.0;"/><text fill="#000000" font-family="sans-serif" font-size="13" lengthAdjust="spacingAndGlyphs" textLength="41" x="87" y="186.0669">HTTPS</text><!--link nginx to nginx_conf--><path d="M256.06,319.5 C283.36,319.5 315.58,319.5 346.91,319.5 " fill="none" id="nginx-nginx_conf" style="stroke: #A80036; stroke-width: 1.0; stroke-dasharray: 7.0,7.0;"/><polygon fill="#A80036" points="251.03,319.5,260.03,323.5,256.03,319.5,260.03,315.5,251.03,319.5" style="stroke: #A80036; stroke-width: 1.0;"/><text fill="#000000" font-family="sans-serif" font-size="13" lengthAdjust="spacingAndGlyphs" textLength="59" x="269.5" y="312.5669">configure</text><!--link nginx to Server--><path d="M186,346.08 C186,376.425 186,428.6 186,473.765 C186,475.1764 186,476.581 186,477.9778 C186,478.6762 186,479.3727 186,480.0671 " fill="none" id="nginx-Server" style="stroke: #A80036; stroke-width: 1.0;"/><text fill="#000000" font-family="sans-serif" font-size="13" lengthAdjust="spacingAndGlyphs" textLength="8" x="177.125" y="365.6609">1</text><text fill="#000000" font-family="sans-serif" font-size="13" lengthAdjust="spacingAndGlyphs" textLength="23" x="163" y="556.4569">1..*</text><!--link Hypercorn to systemd--><path d="M312.64,560.5 C346.24,560.5 392.16,560.5 428.3,560.5 " fill="none" id="Hypercorn-systemd" style="stroke: #A80036; stroke-width: 1.0;"/><text fill="#000000" font-family="sans-serif" font-size="13" lengthAdjust="spacingAndGlyphs" textLength="79" x="331" y="553.5669">run instance</text><!--link systemd to systemd_conf--><path d="M548.85,560.5 C576.86,560.5 609.98,560.5 638.89,560.5 " fill="none" id="systemd-systemd_conf" style="stroke: #A80036; stroke-width: 1.0; stroke-dasharray: 7.0,7.0;"/><polygon fill="#A80036" points="543.69,560.5,552.69,564.5,548.69,560.5,552.69,556.5,543.69,560.5" style="stroke: #A80036; stroke-width: 1.0;"/><text fill="#000000" font-family="sans-serif" font-size="13" lengthAdjust="spacingAndGlyphs" textLength="59" x="561.75" y="553.5669">configure</text><!--link Hypercorn to Acanban--><path d="M267,578.93 C267,599.3 267,632.78 267,652.97 " fill="none" id="Hypercorn-Acanban" style="stroke: #A80036; stroke-width: 1.0;"/><!--link Acanban to db_server--><path d="M267,689.07 C267,699.195 267,712.9625 267,727.9666 C267,735.4686 267,743.2798 267,751.0993 C267,753.0542 267,755.0096 267,756.9609 C267,757.9365 267,758.9111 267,759.884 C267,760.3705 267,760.8566 267,761.3422 " fill="none" id="Acanban-db_server" style="stroke: #A80036; stroke-width: 1.0;"/><text fill="#000000" font-family="sans-serif" font-size="13" lengthAdjust="spacingAndGlyphs" textLength="23" x="240.3344" y="709.2612">1..*</text><text fill="#000000" font-family="sans-serif" font-size="13" lengthAdjust="spacingAndGlyphs" textLength="8" x="259" y="828.4969">1</text><!--
@startuml
node Client {
   node Browser
}

node "Load Balancing Server" as balancer {
   component NGINX as nginx <<load balancer>>
   artifact "/etc/nginx/sites-available/acanban" as nginx_conf
}

node Server {
   artifact "acanban.service" as systemd_conf
   component Acanban
   component Hypercorn
   node systemd <<daemon>>
}

node "Database Server" as db_server {
   database "RethinkDB" as db
   component IPFS
}

Browser - - - balancer: HTTPS

nginx <. nginx_conf: configure
nginx "1" - - - "1..*" Server

Hypercorn - systemd: run instance
systemd <. systemd_conf: configure
Hypercorn - - Acanban
Acanban "1..*" - - "1" db_server

@enduml

PlantUML version 1.2018.13(Mon Nov 26 17:11:51 UTC 2018)
(GPL source distribution)
Java Runtime: OpenJDK Runtime Environment
JVM: OpenJDK 64-Bit Server VM
Java Version: 11.0.9.1+1
Operating System: Linux
OS Version: 5.4.0-1031-azure
Default Encoding: UTF-8
Language: en
Country: null
--></g></svg>