<?xml version="1.0" encoding="UTF-8" standalone="no"?><svg xmlns="http://www.w3.org/2000/svg" xmlns:xlink="http://www.w3.org/1999/xlink" contentScriptType="application/ecmascript" contentStyleType="text/css" height="351px" preserveAspectRatio="none" style="width:694px;height:351px;" version="1.1" viewBox="0 0 694 351" width="694px" zoomAndPan="magnify"><defs><filter height="300%" id="finokkqd99gcw" width="300%" x="-1" y="-1"><feGaussianBlur result="blurOut" stdDeviation="2.0"/><feColorMatrix in="blurOut" result="blurOut2" type="matrix" values="0 0 0 0 0 0 0 0 0 0 0 0 0 0 0 0 0 0 .4 0"/><feOffset dx="4.0" dy="4.0" in="blurOut2" result="blurOut3"/><feBlend in="SourceGraphic" in2="blurOut3" mode="normal"/></filter></defs><g><rect fill="#FFFFFF" filter="url(#finokkqd99gcw)" height="203.9297" style="stroke: #A80036; stroke-width: 1.0;" width="10" x="342.5" y="117.4297"/><rect fill="#FFFFFF" filter="url(#finokkqd99gcw)" height="29.1328" style="stroke: #A80036; stroke-width: 1.0;" width="10" x="526.5" y="146.5625"/><rect fill="#FFFFFF" filter="url(#finokkqd99gcw)" height="29.1328" style="stroke: #A80036; stroke-width: 1.0;" width="10" x="653.5" y="204.8281"/><rect fill="#FFFFFF" filter="url(#finokkqd99gcw)" height="29.1328" style="stroke: #A80036; stroke-width: 1.0;" width="10" x="653.5" y="263.0938"/><line style="stroke: #A80036; stroke-width: 1.0; stroke-dasharray: 5.0,5.0;" x1="29" x2="29" y1="86.2969" y2="339.3594"/><line style="stroke: #A80036; stroke-width: 1.0; stroke-dasharray: 5.0,5.0;" x1="135" x2="135" y1="86.2969" y2="339.3594"/><line style="stroke: #A80036; stroke-width: 1.0; stroke-dasharray: 5.0,5.0;" x1="347.5" x2="347.5" y1="86.2969" y2="339.3594"/><line style="stroke: #A80036; stroke-width: 1.0; stroke-dasharray: 5.0,5.0;" x1="531" x2="531" y1="86.2969" y2="339.3594"/><line style="stroke: #A80036; stroke-width: 1.0; stroke-dasharray: 5.0,5.0;" x1="658" x2="658" y1="86.2969" y2="339.3594"/><text fill="#000000" font-family="sans-serif" font-size="14" lengthAdjust="spacingAndGlyphs" text-decoration="underline" textLength="37" x="8" y="82.9951">:User</text><line style="stroke: #000000; stroke-width: 1.0;" x1="8" x2="45" y1="84.9951" y2="84.9951"/><ellipse cx="29.5" cy="13" fill="#FEFECE" filter="url(#finokkqd99gcw)" rx="8" ry="8" style="stroke: #A80036; stroke-width: 2.0;"/><path d="M29.5,21 L29.5,48 M16.5,29 L42.5,29 M29.5,48 L16.5,63 M29.5,48 L42.5,63 " fill="none" filter="url(#finokkqd99gcw)" style="stroke: #A80036; stroke-width: 2.0;"/><text fill="#000000" font-family="sans-serif" font-size="14" lengthAdjust="spacingAndGlyphs" text-decoration="underline" textLength="142" x="61" y="82.9951">:Create Project Form</text><line style="stroke: #000000; stroke-width: 1.0;" x1="61" x2="203" y1="84.9951" y2="84.9951"/><path d="M114.5,42 L114.5,66 M114.5,54 L131.5,54 " fill="none" filter="url(#finokkqd99gcw)" style="stroke: #A80036; stroke-width: 2.0;"/><ellipse cx="143.5" cy="54" fill="#FEFECE" filter="url(#finokkqd99gcw)" rx="12" ry="12" style="stroke: #A80036; stroke-width: 2.0;"/><text fill="#000000" font-family="sans-serif" font-size="14" lengthAdjust="spacingAndGlyphs" text-decoration="underline" textLength="124" x="282.5" y="82.9951">:Project Controller</text><line style="stroke: #000000; stroke-width: 1.0;" x1="282.5" x2="406.5" y1="84.9951" y2="84.9951"/><ellipse cx="347.5" cy="54" fill="#FEFECE" filter="url(#finokkqd99gcw)" rx="12" ry="12" style="stroke: #A80036; stroke-width: 2.0;"/><polygon fill="#A80036" points="343.5,42,349.5,37,347.5,42,349.5,47,343.5,42" style="stroke: #A80036; stroke-width: 1.0;"/><text fill="#000000" font-family="sans-serif" font-size="14" lengthAdjust="spacingAndGlyphs" text-decoration="underline" textLength="79" x="489" y="82.9951">:quart_auth</text><line style="stroke: #000000; stroke-width: 1.0;" x1="489" x2="568" y1="84.9951" y2="84.9951"/><ellipse cx="531.5" cy="54" fill="#FEFECE" filter="url(#finokkqd99gcw)" rx="12" ry="12" style="stroke: #A80036; stroke-width: 2.0;"/><line style="stroke: #A80036; stroke-width: 2.0;" x1="519.5" x2="543.5" y1="68" y2="68"/><text fill="#000000" font-family="sans-serif" font-size="14" lengthAdjust="spacingAndGlyphs" text-decoration="underline" textLength="53" x="629" y="82.9951">:Project</text><line style="stroke: #000000; stroke-width: 1.0;" x1="629" x2="682" y1="84.9951" y2="84.9951"/><ellipse cx="658.5" cy="54" fill="#FEFECE" filter="url(#finokkqd99gcw)" rx="12" ry="12" style="stroke: #A80036; stroke-width: 2.0;"/><line style="stroke: #A80036; stroke-width: 2.0;" x1="646.5" x2="670.5" y1="68" y2="68"/><rect fill="#FFFFFF" filter="url(#finokkqd99gcw)" height="203.9297" style="stroke: #A80036; stroke-width: 1.0;" width="10" x="342.5" y="117.4297"/><rect fill="#FFFFFF" filter="url(#finokkqd99gcw)" height="29.1328" style="stroke: #A80036; stroke-width: 1.0;" width="10" x="526.5" y="146.5625"/><rect fill="#FFFFFF" filter="url(#finokkqd99gcw)" height="29.1328" style="stroke: #A80036; stroke-width: 1.0;" width="10" x="653.5" y="204.8281"/><rect fill="#FFFFFF" filter="url(#finokkqd99gcw)" height="29.1328" style="stroke: #A80036; stroke-width: 1.0;" width="10" x="653.5" y="263.0938"/><polygon fill="#A80036" points="330.5,113.4297,340.5,117.4297,330.5,121.4297,334.5,117.4297" style="stroke: #A80036; stroke-width: 1.0;"/><line style="stroke: #A80036; stroke-width: 1.0;" x1="29.5" x2="336.5" y1="117.4297" y2="117.4297"/><text fill="#000000" font-family="sans-serif" font-size="13" lengthAdjust="spacingAndGlyphs" textLength="166" x="36.5" y="112.3638">// request editing project()</text><polygon fill="#A80036" points="514.5,142.5625,524.5,146.5625,514.5,150.5625,518.5,146.5625" style="stroke: #A80036; stroke-width: 1.0;"/><line style="stroke: #A80036; stroke-width: 1.0;" x1="352.5" x2="520.5" y1="146.5625" y2="146.5625"/><text fill="#000000" font-family="sans-serif" font-size="13" lengthAdjust="spacingAndGlyphs" textLength="155" x="359.5" y="141.4966">// check authentication()</text><polygon fill="#A80036" points="363.5,171.6953,353.5,175.6953,363.5,179.6953,359.5,175.6953" style="stroke: #A80036; stroke-width: 1.0;"/><line style="stroke: #A80036; stroke-width: 1.0; stroke-dasharray: 2.0,2.0;" x1="357.5" x2="530.5" y1="175.6953" y2="175.6953"/><text fill="#000000" font-family="sans-serif" font-size="13" lengthAdjust="spacingAndGlyphs" textLength="89" x="369.5" y="170.6294">authenticated</text><polygon fill="#A80036" points="641.5,200.8281,651.5,204.8281,641.5,208.8281,645.5,204.8281" style="stroke: #A80036; stroke-width: 1.0;"/><line style="stroke: #A80036; stroke-width: 1.0;" x1="352.5" x2="647.5" y1="204.8281" y2="204.8281"/><text fill="#000000" font-family="sans-serif" font-size="13" lengthAdjust="spacingAndGlyphs" textLength="263" x="359.5" y="199.7622">// check project id is in project database()</text><polygon fill="#A80036" points="363.5,229.9609,353.5,233.9609,363.5,237.9609,359.5,233.9609" style="stroke: #A80036; stroke-width: 1.0;"/><line style="stroke: #A80036; stroke-width: 1.0; stroke-dasharray: 2.0,2.0;" x1="357.5" x2="657.5" y1="233.9609" y2="233.9609"/><text fill="#000000" font-family="sans-serif" font-size="13" lengthAdjust="spacingAndGlyphs" textLength="212" x="369.5" y="228.895">// project id is in project database</text><polygon fill="#A80036" points="641.5,259.0938,651.5,263.0938,641.5,267.0938,645.5,263.0938" style="stroke: #A80036; stroke-width: 1.0;"/><line style="stroke: #A80036; stroke-width: 1.0;" x1="352.5" x2="647.5" y1="263.0938" y2="263.0938"/><text fill="#000000" font-family="sans-serif" font-size="13" lengthAdjust="spacingAndGlyphs" textLength="282" x="359.5" y="258.0278">// check current user is in project database()</text><polygon fill="#A80036" points="363.5,288.2266,353.5,292.2266,363.5,296.2266,359.5,292.2266" style="stroke: #A80036; stroke-width: 1.0;"/><line style="stroke: #A80036; stroke-width: 1.0; stroke-dasharray: 2.0,2.0;" x1="357.5" x2="657.5" y1="292.2266" y2="292.2266"/><text fill="#000000" font-family="sans-serif" font-size="13" lengthAdjust="spacingAndGlyphs" textLength="214" x="369.5" y="287.1606">// user is not a member of project</text><polygon fill="#A80036" points="40.5,317.3594,30.5,321.3594,40.5,325.3594,36.5,321.3594" style="stroke: #A80036; stroke-width: 1.0;"/><line style="stroke: #A80036; stroke-width: 1.0; stroke-dasharray: 2.0,2.0;" x1="34.5" x2="346.5" y1="321.3594" y2="321.3594"/><text fill="#000000" font-family="sans-serif" font-size="13" lengthAdjust="spacingAndGlyphs" textLength="289" x="46.5" y="316.2935">// inform that user is not a member of project</text><!--
@startuml
hide footbox
autoactivate on
skinparam sequenceParticipant underline
actor ":User" as usr
boundary ":Create Project Form" as form
control ":Project Controller" as ctl
entity ":quart_auth" as quart
entity ":Project" as db_prj

usr -> ctl : // request editing project()
ctl -> quart : // check authentication()
ctl <- - quart : authenticated 
ctl -> db_prj : // check project id is in project database()
ctl <- - db_prj : // project id is in project database
ctl -> db_prj : // check current user is in project database()
ctl <- - db_prj : // user is not a member of project
usr <- - ctl : // inform that user is not a member of project
@enduml

PlantUML version 1.2018.13(Mon Nov 26 17:11:51 UTC 2018)
(GPL source distribution)
Java Runtime: OpenJDK Runtime Environment
JVM: OpenJDK 64-Bit Server VM
Java Version: 11.0.10+9
Operating System: Linux
OS Version: 5.4.0-1039-azure
Default Encoding: UTF-8
Language: en
Country: null
--></g></svg>