<?xml version="1.0" encoding="UTF-8" standalone="no"?><svg xmlns="http://www.w3.org/2000/svg" xmlns:xlink="http://www.w3.org/1999/xlink" contentScriptType="application/ecmascript" contentStyleType="text/css" height="234px" preserveAspectRatio="none" style="width:560px;height:234px;" version="1.1" viewBox="0 0 560 234" width="560px" zoomAndPan="magnify"><defs><filter height="300%" id="feq7gmu7nv54u" width="300%" x="-1" y="-1"><feGaussianBlur result="blurOut" stdDeviation="2.0"/><feColorMatrix in="blurOut" result="blurOut2" type="matrix" values="0 0 0 0 0 0 0 0 0 0 0 0 0 0 0 0 0 0 .4 0"/><feOffset dx="4.0" dy="4.0" in="blurOut2" result="blurOut3"/><feBlend in="SourceGraphic" in2="blurOut3" mode="normal"/></filter></defs><g><rect fill="#FFFFFF" filter="url(#feq7gmu7nv54u)" height="87.3984" style="stroke: #A80036; stroke-width: 1.0;" width="10" x="300.5" y="117.4297"/><rect fill="#FFFFFF" filter="url(#feq7gmu7nv54u)" height="29.1328" style="stroke: #A80036; stroke-width: 1.0;" width="10" x="506.5" y="146.5625"/><line style="stroke: #A80036; stroke-width: 1.0; stroke-dasharray: 5.0,5.0;" x1="29" x2="29" y1="86.2969" y2="222.8281"/><line style="stroke: #A80036; stroke-width: 1.0; stroke-dasharray: 5.0,5.0;" x1="305.5" x2="305.5" y1="86.2969" y2="222.8281"/><line style="stroke: #A80036; stroke-width: 1.0; stroke-dasharray: 5.0,5.0;" x1="511" x2="511" y1="86.2969" y2="222.8281"/><text fill="#000000" font-family="sans-serif" font-size="14" lengthAdjust="spacingAndGlyphs" text-decoration="underline" textLength="37" x="8" y="82.9951">:User</text><line style="stroke: #000000; stroke-width: 1.0;" x1="8" x2="45" y1="84.9951" y2="84.9951"/><ellipse cx="29.5" cy="13" fill="#FEFECE" filter="url(#feq7gmu7nv54u)" rx="8" ry="8" style="stroke: #A80036; stroke-width: 2.0;"/><path d="M29.5,21 L29.5,48 M16.5,29 L42.5,29 M29.5,48 L16.5,63 M29.5,48 L42.5,63 " fill="none" filter="url(#feq7gmu7nv54u)" style="stroke: #A80036; stroke-width: 2.0;"/><text fill="#000000" font-family="sans-serif" font-size="14" lengthAdjust="spacingAndGlyphs" text-decoration="underline" textLength="124" x="240.5" y="82.9951">:Project Controller</text><line style="stroke: #000000; stroke-width: 1.0;" x1="240.5" x2="364.5" y1="84.9951" y2="84.9951"/><ellipse cx="305.5" cy="54" fill="#FEFECE" filter="url(#feq7gmu7nv54u)" rx="12" ry="12" style="stroke: #A80036; stroke-width: 2.0;"/><polygon fill="#A80036" points="301.5,42,307.5,37,305.5,42,307.5,47,301.5,42" style="stroke: #A80036; stroke-width: 1.0;"/><text fill="#000000" font-family="sans-serif" font-size="14" lengthAdjust="spacingAndGlyphs" text-decoration="underline" textLength="79" x="469" y="82.9951">:quart_auth</text><line style="stroke: #000000; stroke-width: 1.0;" x1="469" x2="548" y1="84.9951" y2="84.9951"/><ellipse cx="511.5" cy="54" fill="#FEFECE" filter="url(#feq7gmu7nv54u)" rx="12" ry="12" style="stroke: #A80036; stroke-width: 2.0;"/><line style="stroke: #A80036; stroke-width: 2.0;" x1="499.5" x2="523.5" y1="68" y2="68"/><rect fill="#FFFFFF" filter="url(#feq7gmu7nv54u)" height="87.3984" style="stroke: #A80036; stroke-width: 1.0;" width="10" x="300.5" y="117.4297"/><rect fill="#FFFFFF" filter="url(#feq7gmu7nv54u)" height="29.1328" style="stroke: #A80036; stroke-width: 1.0;" width="10" x="506.5" y="146.5625"/><polygon fill="#A80036" points="288.5,113.4297,298.5,117.4297,288.5,121.4297,292.5,117.4297" style="stroke: #A80036; stroke-width: 1.0;"/><line style="stroke: #A80036; stroke-width: 1.0;" x1="29.5" x2="294.5" y1="117.4297" y2="117.4297"/><text fill="#000000" font-family="sans-serif" font-size="13" lengthAdjust="spacingAndGlyphs" textLength="166" x="36.5" y="112.3638">// request editing project()</text><polygon fill="#A80036" points="494.5,142.5625,504.5,146.5625,494.5,150.5625,498.5,146.5625" style="stroke: #A80036; stroke-width: 1.0;"/><line style="stroke: #A80036; stroke-width: 1.0;" x1="310.5" x2="500.5" y1="146.5625" y2="146.5625"/><text fill="#000000" font-family="sans-serif" font-size="13" lengthAdjust="spacingAndGlyphs" textLength="155" x="317.5" y="141.4966">// check authentication()</text><polygon fill="#A80036" points="321.5,171.6953,311.5,175.6953,321.5,179.6953,317.5,175.6953" style="stroke: #A80036; stroke-width: 1.0;"/><line style="stroke: #A80036; stroke-width: 1.0; stroke-dasharray: 2.0,2.0;" x1="315.5" x2="510.5" y1="175.6953" y2="175.6953"/><text fill="#000000" font-family="sans-serif" font-size="13" lengthAdjust="spacingAndGlyphs" textLength="172" x="327.5" y="170.6294">// user is not authenticated</text><polygon fill="#A80036" points="40.5,200.8281,30.5,204.8281,40.5,208.8281,36.5,204.8281" style="stroke: #A80036; stroke-width: 1.0;"/><line style="stroke: #A80036; stroke-width: 1.0; stroke-dasharray: 2.0,2.0;" x1="34.5" x2="304.5" y1="204.8281" y2="204.8281"/><text fill="#000000" font-family="sans-serif" font-size="13" lengthAdjust="spacingAndGlyphs" textLength="247" x="46.5" y="199.7622">// inform that user is not authenticated</text><!--
@startuml
hide footbox
autoactivate on
skinparam sequenceParticipant underline
actor ":User" as usr
control ":Project Controller" as ctl
entity ":quart_auth" as quart

usr -> ctl : // request editing project()
ctl -> quart : // check authentication()
ctl <- - quart : // user is not authenticated
usr <- - ctl : // inform that user is not authenticated
@enduml

PlantUML version 1.2018.13(Mon Nov 26 17:11:51 UTC 2018)
(GPL source distribution)
Java Runtime: OpenJDK Runtime Environment
JVM: OpenJDK 64-Bit Server VM
Java Version: 11.0.10+9
Operating System: Linux
OS Version: 5.4.0-1039-azure
Default Encoding: UTF-8
Language: en
Country: null
--></g></svg>