<?xml version="1.0" encoding="UTF-8" standalone="no"?><svg xmlns="http://www.w3.org/2000/svg" xmlns:xlink="http://www.w3.org/1999/xlink" contentScriptType="application/ecmascript" contentStyleType="text/css" height="260px" preserveAspectRatio="none" style="width:649px;height:260px;" version="1.1" viewBox="0 0 649 260" width="649px" zoomAndPan="magnify"><defs><filter height="300%" id="fvzk18e5sqpwc" width="300%" x="-1" y="-1"><feGaussianBlur result="blurOut" stdDeviation="2.0"/><feColorMatrix in="blurOut" result="blurOut2" type="matrix" values="0 0 0 0 0 0 0 0 0 0 0 0 0 0 0 0 0 0 .4 0"/><feOffset dx="4.0" dy="4.0" in="blurOut2" result="blurOut3"/><feBlend in="SourceGraphic" in2="blurOut3" mode="normal"/></filter></defs><g><ellipse cx="471" cy="18" fill="#000000" filter="url(#fvzk18e5sqpwc)" rx="10" ry="10" style="stroke: none; stroke-width: 1.0;"/><rect fill="#FEFECE" filter="url(#fvzk18e5sqpwc)" height="33.9688" rx="12.5" ry="12.5" style="stroke: #A80036; stroke-width: 1.5;" width="121" x="410.5" y="68"/><text fill="#000000" font-family="sans-serif" font-size="12" lengthAdjust="spacingAndGlyphs" textLength="101" x="420.5" y="89.1387">/p/&lt;uuid&gt;/tasks</text><rect fill="#FEFECE" filter="url(#fvzk18e5sqpwc)" height="33.9688" rx="12.5" ry="12.5" style="stroke: #A80036; stroke-width: 1.5;" width="178" x="290" y="142"/><text fill="#000000" font-family="sans-serif" font-size="12" lengthAdjust="spacingAndGlyphs" textLength="158" x="300" y="163.1387">/p/&lt;uuid&gt;/tasks/&lt;index&gt;</text><rect fill="#FEFECE" filter="url(#fvzk18e5sqpwc)" height="33.9688" rx="12.5" ry="12.5" style="stroke: #A80036; stroke-width: 1.5;" width="240" x="6" y="216"/><text fill="#000000" font-family="sans-serif" font-size="12" lengthAdjust="spacingAndGlyphs" textLength="220" x="16" y="237.1387">/p/&lt;uuid&gt;/tasks/&lt;index&gt;/comment</text><rect fill="#FEFECE" filter="url(#fvzk18e5sqpwc)" height="33.9688" rx="12.5" ry="12.5" style="stroke: #A80036; stroke-width: 1.5;" width="225" x="266.5" y="216"/><text fill="#000000" font-family="sans-serif" font-size="12" lengthAdjust="spacingAndGlyphs" textLength="205" x="276.5" y="237.1387">/p/&lt;uuid&gt;/tasks/&lt;index&gt;/upload</text><rect fill="#FEFECE" filter="url(#fvzk18e5sqpwc)" height="33.9688" rx="12.5" ry="12.5" style="stroke: #A80036; stroke-width: 1.5;" width="88" x="512" y="216"/><text fill="#000000" font-family="sans-serif" font-size="12" lengthAdjust="spacingAndGlyphs" textLength="68" x="522" y="237.1387">/ipfs/&lt;cid&gt;</text><rect fill="#FEFECE" filter="url(#fvzk18e5sqpwc)" height="33.9688" rx="12.5" ry="12.5" style="stroke: #A80036; stroke-width: 1.5;" width="150" x="488" y="142"/><text fill="#000000" font-family="sans-serif" font-size="12" lengthAdjust="spacingAndGlyphs" textLength="130" x="498" y="163.1387">/p/&lt;uuid&gt;/tasks/eval</text><!--link start to tasks--><path d="M471,28.04 C471,36.93 471,50.84 471,62.57 " fill="none" id="start-tasks" style="stroke: #A80036; stroke-width: 1.0;"/><polygon fill="#A80036" points="471,67.78,475,58.78,471,62.78,467,58.78,471,67.78" style="stroke: #A80036; stroke-width: 1.0;"/><!--link tasks to task--><path d="M450.12,102.34 C436.26,113.18 418.02,127.47 403.47,138.85 " fill="none" id="tasks-task" style="stroke: #A80036; stroke-width: 1.0;"/><polygon fill="#A80036" points="399.48,141.97,409.034,139.5779,403.419,138.8904,404.1066,133.2755,399.48,141.97" style="stroke: #A80036; stroke-width: 1.0;"/><!--link task to /p/<uuid>/tasks/<index>/comment--><path d="M322.54,176.07 C282.37,187.5 228.45,202.84 187.25,214.57 " fill="none" id="task-/p/&lt;uuid&gt;/tasks/&lt;index&gt;/comment" style="stroke: #A80036; stroke-width: 1.0;"/><polygon fill="#A80036" points="182.29,215.98,192.0415,217.3613,187.0987,214.6102,189.8498,209.6673,182.29,215.98" style="stroke: #A80036; stroke-width: 1.0;"/><!--link task to /p/<uuid>/tasks/<index>/upload--><path d="M379,176.34 C379,186.46 379,199.58 379,210.54 " fill="none" id="task-/p/&lt;uuid&gt;/tasks/&lt;index&gt;/upload" style="stroke: #A80036; stroke-width: 1.0;"/><polygon fill="#A80036" points="379,215.73,383,206.73,379,210.73,375,206.73,379,215.73" style="stroke: #A80036; stroke-width: 1.0;"/><!--link task to /ipfs/<cid>--><path d="M418.72,176.16 C446.28,187.37 483.01,202.31 511.54,213.92 " fill="none" id="task-/ipfs/&lt;cid&gt;" style="stroke: #A80036; stroke-width: 1.0;"/><polygon fill="#A80036" points="516.41,215.9,509.5844,208.8,511.7795,214.0135,506.566,216.2087,516.41,215.9" style="stroke: #A80036; stroke-width: 1.0;"/><!--link tasks to /p/<uuid>/tasks/eval--><path d="M491.88,102.34 C505.74,113.18 523.98,127.47 538.53,138.85 " fill="none" id="tasks-/p/&lt;uuid&gt;/tasks/eval" style="stroke: #A80036; stroke-width: 1.0;"/><polygon fill="#A80036" points="542.52,141.97,537.8934,133.2755,538.581,138.8904,532.966,139.5779,542.52,141.97" style="stroke: #A80036; stroke-width: 1.0;"/><!--
@startuml
(*) - -> "/p/<uuid>/tasks" as tasks
tasks - -> "/p/<uuid>/tasks/<index>" as task
task - -> "/p/<uuid>/tasks/<index>/comment"
task - -> "/p/<uuid>/tasks/<index>/upload"
task - -> "/ipfs/<cid>"
tasks - -> "/p/<uuid>/tasks/eval"

@enduml

PlantUML version 1.2018.13(Mon Nov 26 17:11:51 UTC 2018)
(GPL source distribution)
Java Runtime: OpenJDK Runtime Environment
JVM: OpenJDK 64-Bit Server VM
Java Version: 11.0.10+9
Operating System: Linux
OS Version: 5.4.0-1039-azure
Default Encoding: UTF-8
Language: en
Country: null
--></g></svg>