<?xml version="1.0" encoding="UTF-8" standalone="no"?><svg xmlns="http://www.w3.org/2000/svg" xmlns:xlink="http://www.w3.org/1999/xlink" contentScriptType="application/ecmascript" contentStyleType="text/css" height="344px" preserveAspectRatio="none" style="width:380px;height:344px;" version="1.1" viewBox="0 0 380 344" width="380px" zoomAndPan="magnify"><defs><filter height="300%" id="f1w3cx592kxjc6" width="300%" x="-1" y="-1"><feGaussianBlur result="blurOut" stdDeviation="2.0"/><feColorMatrix in="blurOut" result="blurOut2" type="matrix" values="0 0 0 0 0 0 0 0 0 0 0 0 0 0 0 0 0 0 .4 0"/><feOffset dx="4.0" dy="4.0" in="blurOut2" result="blurOut3"/><feBlend in="SourceGraphic" in2="blurOut3" mode="normal"/></filter></defs><g><!--class User--><rect fill="#FEFECE" filter="url(#f1w3cx592kxjc6)" height="48" id="User" style="stroke: #A80036; stroke-width: 1.5;" width="61" x="170.5" y="8"/><ellipse cx="185.5" cy="24" fill="#ADD1B2" rx="11" ry="11" style="stroke: #A80036; stroke-width: 1.0;"/><path d="M189.6094,30 L181.8906,30 L181.8906,17.6094 L189.6094,17.6094 L189.6094,19.7656 L184.3438,19.7656 L184.3438,22.4375 L189.1094,22.4375 L189.1094,24.5938 L184.3438,24.5938 L184.3438,27.8438 L189.6094,27.8438 L189.6094,30 Z "/><text fill="#000000" font-family="sans-serif" font-size="12" lengthAdjust="spacingAndGlyphs" textLength="29" x="199.5" y="28.1543">User</text><line style="stroke: #A80036; stroke-width: 1.5;" x1="171.5" x2="230.5" y1="40" y2="40"/><line style="stroke: #A80036; stroke-width: 1.5;" x1="171.5" x2="230.5" y1="48" y2="48"/><!--class Report--><rect fill="#FEFECE" filter="url(#f1w3cx592kxjc6)" height="48" id="Report" style="stroke: #A80036; stroke-width: 1.5;" width="74" x="6" y="285"/><ellipse cx="21" cy="301" fill="#ADD1B2" rx="11" ry="11" style="stroke: #A80036; stroke-width: 1.0;"/><path d="M25.1094,307 L17.3906,307 L17.3906,294.6094 L25.1094,294.6094 L25.1094,296.7656 L19.8438,296.7656 L19.8438,299.4375 L24.6094,299.4375 L24.6094,301.5938 L19.8438,301.5938 L19.8438,304.8438 L25.1094,304.8438 L25.1094,307 Z "/><text fill="#000000" font-family="sans-serif" font-size="12" lengthAdjust="spacingAndGlyphs" textLength="42" x="35" y="305.1543">Report</text><line style="stroke: #A80036; stroke-width: 1.5;" x1="7" x2="79" y1="317" y2="317"/><line style="stroke: #A80036; stroke-width: 1.5;" x1="7" x2="79" y1="325" y2="325"/><!--class Slide--><rect fill="#FEFECE" filter="url(#f1w3cx592kxjc6)" height="48" id="Slide" style="stroke: #A80036; stroke-width: 1.5;" width="62" x="115" y="285"/><ellipse cx="130" cy="301" fill="#ADD1B2" rx="11" ry="11" style="stroke: #A80036; stroke-width: 1.0;"/><path d="M134.1094,307 L126.3906,307 L126.3906,294.6094 L134.1094,294.6094 L134.1094,296.7656 L128.8438,296.7656 L128.8438,299.4375 L133.6094,299.4375 L133.6094,301.5938 L128.8438,301.5938 L128.8438,304.8438 L134.1094,304.8438 L134.1094,307 Z "/><text fill="#000000" font-family="sans-serif" font-size="12" lengthAdjust="spacingAndGlyphs" textLength="30" x="144" y="305.1543">Slide</text><line style="stroke: #A80036; stroke-width: 1.5;" x1="116" x2="176" y1="317" y2="317"/><line style="stroke: #A80036; stroke-width: 1.5;" x1="116" x2="176" y1="325" y2="325"/><!--class Project--><rect fill="#FEFECE" filter="url(#f1w3cx592kxjc6)" height="48" id="Project" style="stroke: #A80036; stroke-width: 1.5;" width="76" x="77" y="177"/><ellipse cx="92" cy="193" fill="#ADD1B2" rx="11" ry="11" style="stroke: #A80036; stroke-width: 1.0;"/><path d="M96.1094,199 L88.3906,199 L88.3906,186.6094 L96.1094,186.6094 L96.1094,188.7656 L90.8438,188.7656 L90.8438,191.4375 L95.6094,191.4375 L95.6094,193.5938 L90.8438,193.5938 L90.8438,196.8438 L96.1094,196.8438 L96.1094,199 Z "/><text fill="#000000" font-family="sans-serif" font-size="12" lengthAdjust="spacingAndGlyphs" textLength="44" x="106" y="197.1543">Project</text><line style="stroke: #A80036; stroke-width: 1.5;" x1="78" x2="152" y1="209" y2="209"/><line style="stroke: #A80036; stroke-width: 1.5;" x1="78" x2="152" y1="217" y2="217"/><!--class Task--><rect fill="#FEFECE" filter="url(#f1w3cx592kxjc6)" height="48" id="Task" style="stroke: #A80036; stroke-width: 1.5;" width="61" x="257.5" y="177"/><ellipse cx="272.5" cy="193" fill="#ADD1B2" rx="11" ry="11" style="stroke: #A80036; stroke-width: 1.0;"/><path d="M276.6094,199 L268.8906,199 L268.8906,186.6094 L276.6094,186.6094 L276.6094,188.7656 L271.3438,188.7656 L271.3438,191.4375 L276.1094,191.4375 L276.1094,193.5938 L271.3438,193.5938 L271.3438,196.8438 L276.6094,196.8438 L276.6094,199 Z "/><text fill="#000000" font-family="sans-serif" font-size="12" lengthAdjust="spacingAndGlyphs" textLength="29" x="286.5" y="197.1543">Task</text><line style="stroke: #A80036; stroke-width: 1.5;" x1="258.5" x2="317.5" y1="209" y2="209"/><line style="stroke: #A80036; stroke-width: 1.5;" x1="258.5" x2="317.5" y1="217" y2="217"/><!--class Comment--><rect fill="#FEFECE" filter="url(#f1w3cx592kxjc6)" height="48" id="Comment" style="stroke: #A80036; stroke-width: 1.5;" width="91" x="242.5" y="285"/><ellipse cx="257.5" cy="301" fill="#ADD1B2" rx="11" ry="11" style="stroke: #A80036; stroke-width: 1.0;"/><path d="M261.6094,307 L253.8906,307 L253.8906,294.6094 L261.6094,294.6094 L261.6094,296.7656 L256.3438,296.7656 L256.3438,299.4375 L261.1094,299.4375 L261.1094,301.5938 L256.3438,301.5938 L256.3438,304.8438 L261.6094,304.8438 L261.6094,307 Z "/><text fill="#000000" font-family="sans-serif" font-size="12" lengthAdjust="spacingAndGlyphs" textLength="59" x="271.5" y="305.1543">Comment</text><line style="stroke: #A80036; stroke-width: 1.5;" x1="243.5" x2="332.5" y1="317" y2="317"/><line style="stroke: #A80036; stroke-width: 1.5;" x1="243.5" x2="332.5" y1="325" y2="325"/><!--link User to Project--><path d="M189.04,56.22 C172.61,88.13 143.23,145.17 126.86,176.98 " fill="none" id="User-Project" style="stroke: #A80036; stroke-width: 1.0;"/><text fill="#000000" font-family="sans-serif" font-size="13" lengthAdjust="spacingAndGlyphs" textLength="23" x="160.3216" y="76.0348">1..*</text><text fill="#000000" font-family="sans-serif" font-size="13" lengthAdjust="spacingAndGlyphs" textLength="23" x="103.9522" y="165.9869">0..*</text><!--link User to Task--><path d="M213.1,56.22 C229.72,88.13 259.44,145.17 276.01,176.98 " fill="none" id="User-Task" style="stroke: #A80036; stroke-width: 1.0;"/><text fill="#000000" font-family="sans-serif" font-size="13" lengthAdjust="spacingAndGlyphs" textLength="24" x="189.1244" y="76.0348">0..1</text><text fill="#000000" font-family="sans-serif" font-size="13" lengthAdjust="spacingAndGlyphs" textLength="23" x="246.9907" y="165.9869">1..*</text><!--link Project to Task--><path d="M153.18,201 C187.94,201 222.7,201 257.46,201 " fill="none" id="Project-Task" style="stroke: #A80036; stroke-width: 1.0;"/><text fill="#000000" font-family="sans-serif" font-size="13" lengthAdjust="spacingAndGlyphs" textLength="8" x="160.9569" y="196.6963">1</text><text fill="#000000" font-family="sans-serif" font-size="13" lengthAdjust="spacingAndGlyphs" textLength="23" x="226.4461" y="196.6499">0..*</text><!--link Task to Comment--><path d="M288,225 C288,242.66 288,266.94 288,284.68 " fill="none" id="Task-Comment" style="stroke: #A80036; stroke-width: 1.0;"/><text fill="#000000" font-family="sans-serif" font-size="13" lengthAdjust="spacingAndGlyphs" textLength="8" x="278.975" y="245.1558">1</text><text fill="#000000" font-family="sans-serif" font-size="13" lengthAdjust="spacingAndGlyphs" textLength="23" x="262.1969" y="274.007">0..*</text><!--link Comment to Comment--><path d="M333.52,288.93 C352.45,287.54 368.5,294.23 368.5,309 C368.5,323.77 352.45,330.46 333.52,329.07 " fill="none" id="Comment-Comment" style="stroke: #A80036; stroke-width: 1.0;"/><text fill="#000000" font-family="sans-serif" font-size="13" lengthAdjust="spacingAndGlyphs" textLength="8" x="341.4123" y="281.6135">1</text><text fill="#000000" font-family="sans-serif" font-size="13" lengthAdjust="spacingAndGlyphs" textLength="23" x="341.5384" y="327.9139">0..*</text><!--link Project to Report--><path d="M99.38,225 C87.38,242.66 70.89,266.94 58.84,284.68 " fill="none" id="Project-Report" style="stroke: #A80036; stroke-width: 1.0;"/><text fill="#000000" font-family="sans-serif" font-size="13" lengthAdjust="spacingAndGlyphs" textLength="24" x="68.3024" y="245.1558">0..1</text><text fill="#000000" font-family="sans-serif" font-size="13" lengthAdjust="spacingAndGlyphs" textLength="23" x="36.8979" y="274.007">0..*</text><!--link Project to Slide--><path d="M121.73,225 C126.89,242.66 133.99,266.94 139.18,284.68 " fill="none" id="Project-Slide" style="stroke: #A80036; stroke-width: 1.0;"/><text fill="#000000" font-family="sans-serif" font-size="13" lengthAdjust="spacingAndGlyphs" textLength="24" x="126.5296" y="245.1558">0..1</text><text fill="#000000" font-family="sans-serif" font-size="13" lengthAdjust="spacingAndGlyphs" textLength="23" x="111.7145" y="274.007">0..*</text><!--
@startuml

entity User
entity Report
entity Slide
entity Project
entity Task
entity Comment

User "1..*" - - - "0..*" Project
User "0..1" - - - "1..*" Task
Project "1" -[norank]- - - "0..*" Task
Task "1" - - "0..*" Comment
Comment "1" - - - "0..*" Comment
Project "0..1" - - "0..*" Report
Project "0..1" - - "0..*" Slide

@enduml

PlantUML version 1.2018.13(Mon Nov 26 17:11:51 UTC 2018)
(GPL source distribution)
Java Runtime: OpenJDK Runtime Environment
JVM: OpenJDK 64-Bit Server VM
Java Version: 11.0.9.1+1
Operating System: Linux
OS Version: 5.4.0-1036-azure
Default Encoding: UTF-8
Language: en
Country: null
--></g></svg>