<?xml version="1.0" encoding="UTF-8" standalone="no"?><svg xmlns="http://www.w3.org/2000/svg" xmlns:xlink="http://www.w3.org/1999/xlink" contentScriptType="application/ecmascript" contentStyleType="text/css" height="335px" preserveAspectRatio="none" style="width:762px;height:335px;" version="1.1" viewBox="0 0 762 335" width="762px" zoomAndPan="magnify"><defs><filter height="300%" id="f18079nj3qimgw" width="300%" x="-1" y="-1"><feGaussianBlur result="blurOut" stdDeviation="2.0"/><feColorMatrix in="blurOut" result="blurOut2" type="matrix" values="0 0 0 0 0 0 0 0 0 0 0 0 0 0 0 0 0 0 .4 0"/><feOffset dx="4.0" dy="4.0" in="blurOut2" result="blurOut3"/><feBlend in="SourceGraphic" in2="blurOut3" mode="normal"/></filter></defs><g><rect fill="#FFFFFF" filter="url(#f18079nj3qimgw)" height="196.7969" style="stroke: #A80036; stroke-width: 1.0;" width="10" x="264" y="117.4297"/><rect fill="#FFFFFF" filter="url(#f18079nj3qimgw)" height="159.7969" style="stroke: #A80036; stroke-width: 1.0;" width="10" x="269" y="154.4297"/><rect fill="#FFFFFF" filter="url(#f18079nj3qimgw)" height="116.5313" style="stroke: #A80036; stroke-width: 1.0;" width="10" x="274" y="188.6953"/><rect fill="#FFFFFF" filter="url(#f18079nj3qimgw)" height="87.3984" style="stroke: #A80036; stroke-width: 1.0;" width="10" x="514" y="217.8281"/><rect fill="#FFFFFF" filter="url(#f18079nj3qimgw)" height="29.1328" style="stroke: #A80036; stroke-width: 1.0;" width="10" x="717" y="246.9609"/><line style="stroke: #A80036; stroke-width: 1.0; stroke-dasharray: 5.0,5.0;" x1="78" x2="78" y1="86.2969" y2="323.2266"/><line style="stroke: #A80036; stroke-width: 1.0; stroke-dasharray: 5.0,5.0;" x1="269" x2="269" y1="86.2969" y2="323.2266"/><line style="stroke: #A80036; stroke-width: 1.0; stroke-dasharray: 5.0,5.0;" x1="519" x2="519" y1="86.2969" y2="323.2266"/><line style="stroke: #A80036; stroke-width: 1.0; stroke-dasharray: 5.0,5.0;" x1="722" x2="722" y1="86.2969" y2="323.2266"/><text fill="#000000" font-family="sans-serif" font-size="14" lengthAdjust="spacingAndGlyphs" text-decoration="underline" textLength="134" x="8" y="82.9951">:Unauthorized User</text><line style="stroke: #000000; stroke-width: 1.0;" x1="8" x2="142" y1="84.9951" y2="84.9951"/><ellipse cx="78" cy="13" fill="#FEFECE" filter="url(#f18079nj3qimgw)" rx="8" ry="8" style="stroke: #A80036; stroke-width: 2.0;"/><path d="M78,21 L78,48 M65,29 L91,29 M78,48 L65,63 M78,48 L91,63 " fill="none" filter="url(#f18079nj3qimgw)" style="stroke: #A80036; stroke-width: 2.0;"/><text fill="#000000" font-family="sans-serif" font-size="14" lengthAdjust="spacingAndGlyphs" text-decoration="underline" textLength="98" x="217" y="82.9951">:RegisterForm</text><line style="stroke: #000000; stroke-width: 1.0;" x1="217" x2="315" y1="84.9951" y2="84.9951"/><path d="M248.5,42 L248.5,66 M248.5,54 L265.5,54 " fill="none" filter="url(#f18079nj3qimgw)" style="stroke: #A80036; stroke-width: 2.0;"/><ellipse cx="277.5" cy="54" fill="#FEFECE" filter="url(#f18079nj3qimgw)" rx="12" ry="12" style="stroke: #A80036; stroke-width: 2.0;"/><text fill="#000000" font-family="sans-serif" font-size="14" lengthAdjust="spacingAndGlyphs" text-decoration="underline" textLength="130" x="451" y="82.9951">:RegisterController</text><line style="stroke: #000000; stroke-width: 1.0;" x1="451" x2="581" y1="84.9951" y2="84.9951"/><ellipse cx="519" cy="54" fill="#FEFECE" filter="url(#f18079nj3qimgw)" rx="12" ry="12" style="stroke: #A80036; stroke-width: 2.0;"/><polygon fill="#A80036" points="515,42,521,37,519,42,521,47,515,42" style="stroke: #A80036; stroke-width: 1.0;"/><text fill="#000000" font-family="sans-serif" font-size="14" lengthAdjust="spacingAndGlyphs" text-decoration="underline" textLength="62" x="688" y="82.9951">:Account</text><line style="stroke: #000000; stroke-width: 1.0;" x1="688" x2="750" y1="84.9951" y2="84.9951"/><ellipse cx="722" cy="54" fill="#FEFECE" filter="url(#f18079nj3qimgw)" rx="12" ry="12" style="stroke: #A80036; stroke-width: 2.0;"/><line style="stroke: #A80036; stroke-width: 2.0;" x1="710" x2="734" y1="68" y2="68"/><rect fill="#FFFFFF" filter="url(#f18079nj3qimgw)" height="196.7969" style="stroke: #A80036; stroke-width: 1.0;" width="10" x="264" y="117.4297"/><rect fill="#FFFFFF" filter="url(#f18079nj3qimgw)" height="159.7969" style="stroke: #A80036; stroke-width: 1.0;" width="10" x="269" y="154.4297"/><rect fill="#FFFFFF" filter="url(#f18079nj3qimgw)" height="116.5313" style="stroke: #A80036; stroke-width: 1.0;" width="10" x="274" y="188.6953"/><rect fill="#FFFFFF" filter="url(#f18079nj3qimgw)" height="87.3984" style="stroke: #A80036; stroke-width: 1.0;" width="10" x="514" y="217.8281"/><rect fill="#FFFFFF" filter="url(#f18079nj3qimgw)" height="29.1328" style="stroke: #A80036; stroke-width: 1.0;" width="10" x="717" y="246.9609"/><polygon fill="#A80036" points="252,113.4297,262,117.4297,252,121.4297,256,117.4297" style="stroke: #A80036; stroke-width: 1.0;"/><line style="stroke: #A80036; stroke-width: 1.0;" x1="78" x2="258" y1="117.4297" y2="117.4297"/><text fill="#000000" font-family="sans-serif" font-size="13" lengthAdjust="spacingAndGlyphs" textLength="167" x="85" y="112.3638">// open registration page()</text><line style="stroke: #A80036; stroke-width: 1.0;" x1="274" x2="321" y1="141.5625" y2="141.5625"/><line style="stroke: #A80036; stroke-width: 1.0;" x1="321" x2="321" y1="141.5625" y2="154.5625"/><line style="stroke: #A80036; stroke-width: 1.0;" x1="280" x2="321" y1="154.5625" y2="154.5625"/><polygon fill="#A80036" points="290,150.5625,280,154.5625,290,158.5625,286,154.5625" style="stroke: #A80036; stroke-width: 1.0;"/><text fill="#000000" font-family="sans-serif" font-size="13" lengthAdjust="spacingAndGlyphs" textLength="100" x="286" y="136.4966">// display form()</text><polygon fill="#A80036" points="262,184.6953,272,188.6953,262,192.6953,266,188.6953" style="stroke: #A80036; stroke-width: 1.0;"/><line style="stroke: #A80036; stroke-width: 1.0;" x1="78" x2="268" y1="188.6953" y2="188.6953"/><text fill="#000000" font-family="sans-serif" font-size="13" lengthAdjust="spacingAndGlyphs" textLength="100" x="85" y="183.6294">// submit form()</text><polygon fill="#A80036" points="502,213.8281,512,217.8281,502,221.8281,506,217.8281" style="stroke: #A80036; stroke-width: 1.0;"/><line style="stroke: #A80036; stroke-width: 1.0;" x1="284" x2="508" y1="217.8281" y2="217.8281"/><text fill="#000000" font-family="sans-serif" font-size="13" lengthAdjust="spacingAndGlyphs" textLength="199" x="291" y="212.7622">// try adding user to database()</text><polygon fill="#A80036" points="705,242.9609,715,246.9609,705,250.9609,709,246.9609" style="stroke: #A80036; stroke-width: 1.0;"/><line style="stroke: #A80036; stroke-width: 1.0;" x1="524" x2="711" y1="246.9609" y2="246.9609"/><text fill="#000000" font-family="sans-serif" font-size="13" lengthAdjust="spacingAndGlyphs" textLength="174" x="531" y="241.895">// check existing accounts()</text><polygon fill="#A80036" points="535,272.0938,525,276.0938,535,280.0938,531,276.0938" style="stroke: #A80036; stroke-width: 1.0;"/><line style="stroke: #A80036; stroke-width: 1.0; stroke-dasharray: 2.0,2.0;" x1="529" x2="721" y1="276.0938" y2="276.0938"/><text fill="#000000" font-family="sans-serif" font-size="13" lengthAdjust="spacingAndGlyphs" textLength="51" x="541" y="271.0278">// return</text><polygon fill="#A80036" points="290,301.2266,280,305.2266,290,309.2266,286,305.2266" style="stroke: #A80036; stroke-width: 1.0;"/><line style="stroke: #A80036; stroke-width: 1.0; stroke-dasharray: 2.0,2.0;" x1="284" x2="518" y1="305.2266" y2="305.2266"/><text fill="#000000" font-family="sans-serif" font-size="13" lengthAdjust="spacingAndGlyphs" textLength="206" x="296" y="300.1606">// Inform that the email is used()</text><!--
@startuml
hide footbox
autoactivate on
skinparam sequenceParticipant underline
actor ":Unauthorized User" as usr
boundary ":RegisterForm" as form
control ":RegisterController" as ctl
entity ":Account" as acc

usr -> form: // open registration page()
form -> form: // display form()
usr -> form: // submit form()
form -> ctl: // try adding user to database()
ctl -> acc: // check existing accounts()
ctl <- - acc: // return
form <- - ctl: // Inform that the email is used()
deactivate form
@enduml

PlantUML version 1.2018.13(Mon Nov 26 17:11:51 UTC 2018)
(GPL source distribution)
Java Runtime: OpenJDK Runtime Environment
JVM: OpenJDK 64-Bit Server VM
Java Version: 11.0.10+9
Operating System: Linux
OS Version: 5.4.0-1039-azure
Default Encoding: UTF-8
Language: en
Country: null
--></g></svg>