<?xml version="1.0" encoding="UTF-8" standalone="no"?><svg xmlns="http://www.w3.org/2000/svg" xmlns:xlink="http://www.w3.org/1999/xlink" contentScriptType="application/ecmascript" contentStyleType="text/css" height="632px" preserveAspectRatio="none" style="width:298px;height:632px;" version="1.1" viewBox="0 0 298 632" width="298px" zoomAndPan="magnify"><defs><filter height="300%" id="f1m8slztkp1900" width="300%" x="-1" y="-1"><feGaussianBlur result="blurOut" stdDeviation="2.0"/><feColorMatrix in="blurOut" result="blurOut2" type="matrix" values="0 0 0 0 0 0 0 0 0 0 0 0 0 0 0 0 0 0 .4 0"/><feOffset dx="4.0" dy="4.0" in="blurOut2" result="blurOut3"/><feBlend in="SourceGraphic" in2="blurOut3" mode="normal"/></filter></defs><g><ellipse cx="131.5" cy="20" fill="#000000" filter="url(#f1m8slztkp1900)" rx="10" ry="10" style="stroke: none; stroke-width: 1.0;"/><rect fill="#FEFECE" filter="url(#f1m8slztkp1900)" height="33.9688" rx="12.5" ry="12.5" style="stroke: #A80036; stroke-width: 1.5;" width="243" x="10" y="50"/><text fill="#000000" font-family="sans-serif" font-size="12" lengthAdjust="spacingAndGlyphs" textLength="223" x="20" y="71.1387">receive request for creating project</text><polygon fill="#FEFECE" filter="url(#f1m8slztkp1900)" points="37.5,103.9688,225.5,103.9688,237.5,115.9688,225.5,127.9688,37.5,127.9688,25.5,115.9688,37.5,103.9688" style="stroke: #A80036; stroke-width: 1.5;"/><text fill="#000000" font-family="sans-serif" font-size="11" lengthAdjust="spacingAndGlyphs" textLength="188" x="37.5" y="119.7769">current user is not authenticated</text><text fill="#000000" font-family="sans-serif" font-size="11" lengthAdjust="spacingAndGlyphs" textLength="20" x="237.5" y="113.3745">yes</text><ellipse cx="277.5" cy="115.9688" fill="none" filter="url(#f1m8slztkp1900)" rx="10" ry="10" style="stroke: #000000; stroke-width: 1.0;"/><ellipse cx="278" cy="116.4688" fill="#000000" filter="url(#f1m8slztkp1900)" rx="6" ry="6" style="stroke: none; stroke-width: 1.0;"/><polygon fill="#FEFECE" filter="url(#f1m8slztkp1900)" points="42.5,147.9688,220.5,147.9688,232.5,159.9688,220.5,171.9688,42.5,171.9688,30.5,159.9688,42.5,147.9688" style="stroke: #A80036; stroke-width: 1.5;"/><text fill="#000000" font-family="sans-serif" font-size="11" lengthAdjust="spacingAndGlyphs" textLength="178" x="42.5" y="163.7769">current user's role is assistant</text><text fill="#000000" font-family="sans-serif" font-size="11" lengthAdjust="spacingAndGlyphs" textLength="20" x="232.5" y="157.3745">yes</text><ellipse cx="272.5" cy="159.9688" fill="none" filter="url(#f1m8slztkp1900)" rx="10" ry="10" style="stroke: #000000; stroke-width: 1.0;"/><ellipse cx="273" cy="160.4688" fill="#000000" filter="url(#f1m8slztkp1900)" rx="6" ry="6" style="stroke: none; stroke-width: 1.0;"/><rect fill="#FEFECE" filter="url(#f1m8slztkp1900)" height="33.9688" rx="12.5" ry="12.5" style="stroke: #A80036; stroke-width: 1.5;" width="238" x="12.5" y="191.9688"/><text fill="#000000" font-family="sans-serif" font-size="12" lengthAdjust="spacingAndGlyphs" textLength="218" x="22.5" y="213.1074">send creation form to current user</text><rect fill="#FEFECE" filter="url(#f1m8slztkp1900)" height="33.9688" rx="12.5" ry="12.5" style="stroke: #A80036; stroke-width: 1.5;" width="211" x="26" y="245.9375"/><text fill="#000000" font-family="sans-serif" font-size="12" lengthAdjust="spacingAndGlyphs" textLength="191" x="36" y="267.0762">receive form from current user</text><polygon fill="#FEFECE" filter="url(#f1m8slztkp1900)" points="91,299.9063,172,299.9063,184,311.9063,172,323.9063,91,323.9063,79,311.9063,91,299.9063" style="stroke: #A80036; stroke-width: 1.5;"/><text fill="#000000" font-family="sans-serif" font-size="11" lengthAdjust="spacingAndGlyphs" textLength="81" x="91" y="315.7144">form is invalid</text><text fill="#000000" font-family="sans-serif" font-size="11" lengthAdjust="spacingAndGlyphs" textLength="20" x="184" y="309.312">yes</text><ellipse cx="224" cy="311.9063" fill="none" filter="url(#f1m8slztkp1900)" rx="10" ry="10" style="stroke: #000000; stroke-width: 1.0;"/><ellipse cx="224.5" cy="312.4063" fill="#000000" filter="url(#f1m8slztkp1900)" rx="6" ry="6" style="stroke: none; stroke-width: 1.0;"/><rect fill="#FEFECE" filter="url(#f1m8slztkp1900)" height="47.9375" rx="12.5" ry="12.5" style="stroke: #A80036; stroke-width: 1.5;" width="217" x="23" y="343.9063"/><text fill="#000000" font-family="sans-serif" font-size="12" lengthAdjust="spacingAndGlyphs" textLength="159" x="33" y="365.0449">extract project name and</text><text fill="#000000" font-family="sans-serif" font-size="12" lengthAdjust="spacingAndGlyphs" textLength="197" x="33" y="379.0137">description from request's form</text><rect fill="#FEFECE" filter="url(#f1m8slztkp1900)" height="61.9063" rx="12.5" ry="12.5" style="stroke: #A80036; stroke-width: 1.5;" width="227" x="18" y="411.8438"/><text fill="#000000" font-family="sans-serif" font-size="12" lengthAdjust="spacingAndGlyphs" textLength="207" x="28" y="432.9824">let project be collection of name,</text><text fill="#000000" font-family="sans-serif" font-size="12" lengthAdjust="spacingAndGlyphs" textLength="160" x="28" y="446.9512">description and members</text><text fill="#000000" font-family="sans-serif" font-size="12" lengthAdjust="spacingAndGlyphs" textLength="148" x="28" y="460.9199">(including current user)</text><rect fill="#FEFECE" filter="url(#f1m8slztkp1900)" height="33.9688" rx="12.5" ry="12.5" style="stroke: #A80036; stroke-width: 1.5;" width="196" x="33.5" y="493.75"/><text fill="#000000" font-family="sans-serif" font-size="12" lengthAdjust="spacingAndGlyphs" textLength="176" x="43.5" y="514.8887">insert project into database</text><rect fill="#FEFECE" filter="url(#f1m8slztkp1900)" height="33.9688" rx="12.5" ry="12.5" style="stroke: #A80036; stroke-width: 1.5;" width="236" x="13.5" y="547.7188"/><text fill="#000000" font-family="sans-serif" font-size="12" lengthAdjust="spacingAndGlyphs" textLength="216" x="23.5" y="568.8574">redirect to new project's info page</text><ellipse cx="131.5" cy="611.6875" fill="none" filter="url(#f1m8slztkp1900)" rx="10" ry="10" style="stroke: #000000; stroke-width: 1.0;"/><ellipse cx="132" cy="612.1875" fill="#000000" filter="url(#f1m8slztkp1900)" rx="6" ry="6" style="stroke: none; stroke-width: 1.0;"/><line style="stroke: #A80036; stroke-width: 1.5;" x1="131.5" x2="131.5" y1="30" y2="50"/><polygon fill="#A80036" points="127.5,40,131.5,50,135.5,40,131.5,44" style="stroke: #A80036; stroke-width: 1.0;"/><line style="stroke: #A80036; stroke-width: 1.5;" x1="131.5" x2="131.5" y1="127.9688" y2="147.9688"/><polygon fill="#A80036" points="127.5,137.9688,131.5,147.9688,135.5,137.9688,131.5,141.9688" style="stroke: #A80036; stroke-width: 1.0;"/><line style="stroke: #A80036; stroke-width: 1.5;" x1="237.5" x2="267.5" y1="115.9688" y2="115.9688"/><polygon fill="#A80036" points="257.5,111.9688,267.5,115.9688,257.5,119.9688,261.5,115.9688" style="stroke: #A80036; stroke-width: 1.0;"/><line style="stroke: #A80036; stroke-width: 1.5;" x1="131.5" x2="131.5" y1="83.9688" y2="103.9688"/><polygon fill="#A80036" points="127.5,93.9688,131.5,103.9688,135.5,93.9688,131.5,97.9688" style="stroke: #A80036; stroke-width: 1.0;"/><line style="stroke: #A80036; stroke-width: 1.5;" x1="131.5" x2="131.5" y1="171.9688" y2="191.9688"/><polygon fill="#A80036" points="127.5,181.9688,131.5,191.9688,135.5,181.9688,131.5,185.9688" style="stroke: #A80036; stroke-width: 1.0;"/><line style="stroke: #A80036; stroke-width: 1.5;" x1="232.5" x2="262.5" y1="159.9688" y2="159.9688"/><polygon fill="#A80036" points="252.5,155.9688,262.5,159.9688,252.5,163.9688,256.5,159.9688" style="stroke: #A80036; stroke-width: 1.0;"/><line style="stroke: #A80036; stroke-width: 1.5;" x1="131.5" x2="131.5" y1="225.9375" y2="245.9375"/><polygon fill="#A80036" points="127.5,235.9375,131.5,245.9375,135.5,235.9375,131.5,239.9375" style="stroke: #A80036; stroke-width: 1.0;"/><line style="stroke: #A80036; stroke-width: 1.5;" x1="131.5" x2="131.5" y1="323.9063" y2="343.9063"/><polygon fill="#A80036" points="127.5,333.9063,131.5,343.9063,135.5,333.9063,131.5,337.9063" style="stroke: #A80036; stroke-width: 1.0;"/><line style="stroke: #A80036; stroke-width: 1.5;" x1="184" x2="214" y1="311.9063" y2="311.9063"/><polygon fill="#A80036" points="204,307.9063,214,311.9063,204,315.9063,208,311.9063" style="stroke: #A80036; stroke-width: 1.0;"/><line style="stroke: #A80036; stroke-width: 1.5;" x1="131.5" x2="131.5" y1="279.9063" y2="299.9063"/><polygon fill="#A80036" points="127.5,289.9063,131.5,299.9063,135.5,289.9063,131.5,293.9063" style="stroke: #A80036; stroke-width: 1.0;"/><line style="stroke: #A80036; stroke-width: 1.5;" x1="131.5" x2="131.5" y1="391.8438" y2="411.8438"/><polygon fill="#A80036" points="127.5,401.8438,131.5,411.8438,135.5,401.8438,131.5,405.8438" style="stroke: #A80036; stroke-width: 1.0;"/><line style="stroke: #A80036; stroke-width: 1.5;" x1="131.5" x2="131.5" y1="473.75" y2="493.75"/><polygon fill="#A80036" points="127.5,483.75,131.5,493.75,135.5,483.75,131.5,487.75" style="stroke: #A80036; stroke-width: 1.0;"/><line style="stroke: #A80036; stroke-width: 1.5;" x1="131.5" x2="131.5" y1="527.7188" y2="547.7188"/><polygon fill="#A80036" points="127.5,537.7188,131.5,547.7188,135.5,537.7188,131.5,541.7188" style="stroke: #A80036; stroke-width: 1.0;"/><line style="stroke: #A80036; stroke-width: 1.5;" x1="131.5" x2="131.5" y1="581.6875" y2="601.6875"/><polygon fill="#A80036" points="127.5,591.6875,131.5,601.6875,135.5,591.6875,131.5,595.6875" style="stroke: #A80036; stroke-width: 1.0;"/><!--
@startuml
start
:receive request for creating project;
if (current user is not authenticated) then (yes)
  stop
endif
if (current user's role is assistant) then (yes)
  stop
endif
:send creation form to current user;
:receive form from current user;
if (form is invalid) then (yes)
  stop
endif
:extract project name and
description from request's form;
:let project be collection of name,
description and members
(including current user);
:insert project into database;
:redirect to new project's info page;
stop
@enduml

PlantUML version 1.2018.13(Mon Nov 26 17:11:51 UTC 2018)
(GPL source distribution)
Java Runtime: OpenJDK Runtime Environment
JVM: OpenJDK 64-Bit Server VM
Java Version: 11.0.10+9
Operating System: Linux
OS Version: 5.4.0-1036-azure
Default Encoding: UTF-8
Language: en
Country: null
--></g></svg>