<?xml version="1.0" encoding="UTF-8" standalone="no"?><svg xmlns="http://www.w3.org/2000/svg" xmlns:xlink="http://www.w3.org/1999/xlink" contentScriptType="application/ecmascript" contentStyleType="text/css" height="277px" preserveAspectRatio="none" style="width:825px;height:277px;" version="1.1" viewBox="0 0 825 277" width="825px" zoomAndPan="magnify"><defs><filter height="300%" id="f1rxvf7hd9yxgv" width="300%" x="-1" y="-1"><feGaussianBlur result="blurOut" stdDeviation="2.0"/><feColorMatrix in="blurOut" result="blurOut2" type="matrix" values="0 0 0 0 0 0 0 0 0 0 0 0 0 0 0 0 0 0 .4 0"/><feOffset dx="4.0" dy="4.0" in="blurOut2" result="blurOut3"/><feBlend in="SourceGraphic" in2="blurOut3" mode="normal"/></filter></defs><g><rect fill="#FFFFFF" filter="url(#f1rxvf7hd9yxgv)" height="130.5313" style="stroke: #A80036; stroke-width: 1.0;" width="10" x="333.5" y="117.4297"/><rect fill="#FFFFFF" filter="url(#f1rxvf7hd9yxgv)" height="72.2656" style="stroke: #A80036; stroke-width: 1.0;" width="10" x="482" y="146.5625"/><rect fill="#FFFFFF" filter="url(#f1rxvf7hd9yxgv)" height="29.1328" style="stroke: #A80036; stroke-width: 1.0;" width="10" x="793" y="175.6953"/><line style="stroke: #A80036; stroke-width: 1.0; stroke-dasharray: 5.0,5.0;" x1="29" x2="29" y1="86.2969" y2="265.9609"/><line style="stroke: #A80036; stroke-width: 1.0; stroke-dasharray: 5.0,5.0;" x1="338" x2="338" y1="86.2969" y2="265.9609"/><line style="stroke: #A80036; stroke-width: 1.0; stroke-dasharray: 5.0,5.0;" x1="487" x2="487" y1="86.2969" y2="265.9609"/><line style="stroke: #A80036; stroke-width: 1.0; stroke-dasharray: 5.0,5.0;" x1="797.5" x2="797.5" y1="86.2969" y2="265.9609"/><text fill="#000000" font-family="sans-serif" font-size="14" lengthAdjust="spacingAndGlyphs" text-decoration="underline" textLength="37" x="8" y="82.9951">:User</text><line style="stroke: #000000; stroke-width: 1.0;" x1="8" x2="45" y1="84.9951" y2="84.9951"/><ellipse cx="29.5" cy="13" fill="#FEFECE" filter="url(#f1rxvf7hd9yxgv)" rx="8" ry="8" style="stroke: #A80036; stroke-width: 2.0;"/><path d="M29.5,21 L29.5,48 M16.5,29 L42.5,29 M29.5,48 L16.5,63 M29.5,48 L42.5,63 " fill="none" filter="url(#f1rxvf7hd9yxgv)" style="stroke: #A80036; stroke-width: 2.0;"/><text fill="#000000" font-family="sans-serif" font-size="14" lengthAdjust="spacingAndGlyphs" text-decoration="underline" textLength="141" x="265" y="82.9951">:Invite Member Form</text><line style="stroke: #000000; stroke-width: 1.0;" x1="265" x2="406" y1="84.9951" y2="84.9951"/><path d="M318,42 L318,66 M318,54 L335,54 " fill="none" filter="url(#f1rxvf7hd9yxgv)" style="stroke: #A80036; stroke-width: 2.0;"/><ellipse cx="347" cy="54" fill="#FEFECE" filter="url(#f1rxvf7hd9yxgv)" rx="12" ry="12" style="stroke: #A80036; stroke-width: 2.0;"/><text fill="#000000" font-family="sans-serif" font-size="14" lengthAdjust="spacingAndGlyphs" text-decoration="underline" textLength="124" x="422" y="82.9951">:Project Controller</text><line style="stroke: #000000; stroke-width: 1.0;" x1="422" x2="546" y1="84.9951" y2="84.9951"/><ellipse cx="487" cy="54" fill="#FEFECE" filter="url(#f1rxvf7hd9yxgv)" rx="12" ry="12" style="stroke: #A80036; stroke-width: 2.0;"/><polygon fill="#A80036" points="483,42,489,37,487,42,489,47,483,42" style="stroke: #A80036; stroke-width: 1.0;"/><text fill="#000000" font-family="sans-serif" font-size="14" lengthAdjust="spacingAndGlyphs" text-decoration="underline" textLength="37" x="776.5" y="82.9951">:User</text><line style="stroke: #000000; stroke-width: 1.0;" x1="776.5" x2="813.5" y1="84.9951" y2="84.9951"/><ellipse cx="798" cy="54" fill="#FEFECE" filter="url(#f1rxvf7hd9yxgv)" rx="12" ry="12" style="stroke: #A80036; stroke-width: 2.0;"/><line style="stroke: #A80036; stroke-width: 2.0;" x1="786" x2="810" y1="68" y2="68"/><rect fill="#FFFFFF" filter="url(#f1rxvf7hd9yxgv)" height="130.5313" style="stroke: #A80036; stroke-width: 1.0;" width="10" x="333.5" y="117.4297"/><rect fill="#FFFFFF" filter="url(#f1rxvf7hd9yxgv)" height="72.2656" style="stroke: #A80036; stroke-width: 1.0;" width="10" x="482" y="146.5625"/><rect fill="#FFFFFF" filter="url(#f1rxvf7hd9yxgv)" height="29.1328" style="stroke: #A80036; stroke-width: 1.0;" width="10" x="793" y="175.6953"/><polygon fill="#A80036" points="321.5,113.4297,331.5,117.4297,321.5,121.4297,325.5,117.4297" style="stroke: #A80036; stroke-width: 1.0;"/><line style="stroke: #A80036; stroke-width: 1.0;" x1="29.5" x2="327.5" y1="117.4297" y2="117.4297"/><text fill="#000000" font-family="sans-serif" font-size="13" lengthAdjust="spacingAndGlyphs" textLength="219" x="36.5" y="112.3638">// enters invited member's name()</text><polygon fill="#A80036" points="470,142.5625,480,146.5625,470,150.5625,474,146.5625" style="stroke: #A80036; stroke-width: 1.0;"/><line style="stroke: #A80036; stroke-width: 1.0;" x1="343.5" x2="476" y1="146.5625" y2="146.5625"/><text fill="#000000" font-family="sans-serif" font-size="13" lengthAdjust="spacingAndGlyphs" textLength="87" x="350.5" y="141.4966">// send form()</text><polygon fill="#A80036" points="781,171.6953,791,175.6953,781,179.6953,785,175.6953" style="stroke: #A80036; stroke-width: 1.0;"/><line style="stroke: #A80036; stroke-width: 1.0;" x1="492" x2="787" y1="175.6953" y2="175.6953"/><text fill="#000000" font-family="sans-serif" font-size="13" lengthAdjust="spacingAndGlyphs" textLength="282" x="499" y="170.6294">// check new user's name in user database()</text><polygon fill="#A80036" points="503,200.8281,493,204.8281,503,208.8281,499,204.8281" style="stroke: #A80036; stroke-width: 1.0;"/><line style="stroke: #A80036; stroke-width: 1.0; stroke-dasharray: 2.0,2.0;" x1="497" x2="797" y1="204.8281" y2="204.8281"/><text fill="#000000" font-family="sans-serif" font-size="13" lengthAdjust="spacingAndGlyphs" textLength="187" x="509" y="199.7622">// new user is not in database</text><polygon fill="#A80036" points="354.5,214.8281,344.5,218.8281,354.5,222.8281,350.5,218.8281" style="stroke: #A80036; stroke-width: 1.0;"/><line style="stroke: #A80036; stroke-width: 1.0; stroke-dasharray: 2.0,2.0;" x1="348.5" x2="486" y1="218.8281" y2="218.8281"/><polygon fill="#A80036" points="40.5,243.9609,30.5,247.9609,40.5,251.9609,36.5,247.9609" style="stroke: #A80036; stroke-width: 1.0;"/><line style="stroke: #A80036; stroke-width: 1.0; stroke-dasharray: 2.0,2.0;" x1="34.5" x2="337.5" y1="247.9609" y2="247.9609"/><text fill="#000000" font-family="sans-serif" font-size="13" lengthAdjust="spacingAndGlyphs" textLength="280" x="46.5" y="242.895">// inform that added user has not registered</text><!--
@startuml
hide footbox
autoactivate on
skinparam sequenceParticipant underline
actor ":User" as usr
boundary ":Invite Member Form" as form
control ":Project Controller" as ctl
entity ":User" as db_usr

usr -> form : // enters invited member's name()
form -> ctl : // send form()
ctl -> db_usr : // check new user's name in user database()
ctl <- - db_usr : // new user is not in database
form <- - ctl
usr <- - form : // inform that added user has not registered
@enduml

PlantUML version 1.2018.13(Mon Nov 26 17:11:51 UTC 2018)
(GPL source distribution)
Java Runtime: OpenJDK Runtime Environment
JVM: OpenJDK 64-Bit Server VM
Java Version: 11.0.10+9
Operating System: Linux
OS Version: 5.4.0-1039-azure
Default Encoding: UTF-8
Language: en
Country: null
--></g></svg>