<?xml version="1.0" encoding="UTF-8" standalone="no"?><svg xmlns="http://www.w3.org/2000/svg" xmlns:xlink="http://www.w3.org/1999/xlink" contentScriptType="application/ecmascript" contentStyleType="text/css" height="351px" preserveAspectRatio="none" style="width:908px;height:351px;" version="1.1" viewBox="0 0 908 351" width="908px" zoomAndPan="magnify"><defs><filter height="300%" id="f18thjvlad4bfx" width="300%" x="-1" y="-1"><feGaussianBlur result="blurOut" stdDeviation="2.0"/><feColorMatrix in="blurOut" result="blurOut2" type="matrix" values="0 0 0 0 0 0 0 0 0 0 0 0 0 0 0 0 0 0 .4 0"/><feOffset dx="4.0" dy="4.0" in="blurOut2" result="blurOut3"/><feBlend in="SourceGraphic" in2="blurOut3" mode="normal"/></filter></defs><g><rect fill="#FFFFFF" filter="url(#f18thjvlad4bfx)" height="203.9297" style="stroke: #A80036; stroke-width: 1.0;" width="10" x="392.5" y="117.4297"/><rect fill="#FFFFFF" filter="url(#f18thjvlad4bfx)" height="29.1328" style="stroke: #A80036; stroke-width: 1.0;" width="10" x="703.5" y="204.8281"/><rect fill="#FFFFFF" filter="url(#f18thjvlad4bfx)" height="29.1328" style="stroke: #A80036; stroke-width: 1.0;" width="10" x="703.5" y="263.0938"/><rect fill="#FFFFFF" filter="url(#f18thjvlad4bfx)" height="29.1328" style="stroke: #A80036; stroke-width: 1.0;" width="10" x="854.5" y="146.5625"/><line style="stroke: #A80036; stroke-width: 1.0; stroke-dasharray: 5.0,5.0;" x1="29" x2="29" y1="86.2969" y2="339.3594"/><line style="stroke: #A80036; stroke-width: 1.0; stroke-dasharray: 5.0,5.0;" x1="397.5" x2="397.5" y1="86.2969" y2="339.3594"/><line style="stroke: #A80036; stroke-width: 1.0; stroke-dasharray: 5.0,5.0;" x1="708" x2="708" y1="86.2969" y2="339.3594"/><line style="stroke: #A80036; stroke-width: 1.0; stroke-dasharray: 5.0,5.0;" x1="777" x2="777" y1="86.2969" y2="339.3594"/><line style="stroke: #A80036; stroke-width: 1.0; stroke-dasharray: 5.0,5.0;" x1="859" x2="859" y1="86.2969" y2="339.3594"/><text fill="#000000" font-family="sans-serif" font-size="14" lengthAdjust="spacingAndGlyphs" text-decoration="underline" textLength="37" x="8" y="82.9951">:User</text><line style="stroke: #000000; stroke-width: 1.0;" x1="8" x2="45" y1="84.9951" y2="84.9951"/><ellipse cx="29.5" cy="13" fill="#FEFECE" filter="url(#f18thjvlad4bfx)" rx="8" ry="8" style="stroke: #A80036; stroke-width: 2.0;"/><path d="M29.5,21 L29.5,48 M16.5,29 L42.5,29 M29.5,48 L16.5,63 M29.5,48 L42.5,63 " fill="none" filter="url(#f18thjvlad4bfx)" style="stroke: #A80036; stroke-width: 2.0;"/><text fill="#000000" font-family="sans-serif" font-size="14" lengthAdjust="spacingAndGlyphs" text-decoration="underline" textLength="124" x="332.5" y="82.9951">:Project Controller</text><line style="stroke: #000000; stroke-width: 1.0;" x1="332.5" x2="456.5" y1="84.9951" y2="84.9951"/><ellipse cx="397.5" cy="54" fill="#FEFECE" filter="url(#f18thjvlad4bfx)" rx="12" ry="12" style="stroke: #A80036; stroke-width: 2.0;"/><polygon fill="#A80036" points="393.5,42,399.5,37,397.5,42,399.5,47,393.5,42" style="stroke: #A80036; stroke-width: 1.0;"/><text fill="#000000" font-family="sans-serif" font-size="14" lengthAdjust="spacingAndGlyphs" text-decoration="underline" textLength="53" x="679" y="82.9951">:Project</text><line style="stroke: #000000; stroke-width: 1.0;" x1="679" x2="732" y1="84.9951" y2="84.9951"/><ellipse cx="708.5" cy="54" fill="#FEFECE" filter="url(#f18thjvlad4bfx)" rx="12" ry="12" style="stroke: #A80036; stroke-width: 2.0;"/><line style="stroke: #A80036; stroke-width: 2.0;" x1="696.5" x2="720.5" y1="68" y2="68"/><text fill="#000000" font-family="sans-serif" font-size="14" lengthAdjust="spacingAndGlyphs" text-decoration="underline" textLength="53" x="748" y="82.9951">:Project</text><line style="stroke: #000000; stroke-width: 1.0;" x1="748" x2="801" y1="84.9951" y2="84.9951"/><ellipse cx="777.5" cy="54" fill="#FEFECE" filter="url(#f18thjvlad4bfx)" rx="12" ry="12" style="stroke: #A80036; stroke-width: 2.0;"/><line style="stroke: #A80036; stroke-width: 2.0;" x1="765.5" x2="789.5" y1="68" y2="68"/><text fill="#000000" font-family="sans-serif" font-size="14" lengthAdjust="spacingAndGlyphs" text-decoration="underline" textLength="79" x="817" y="82.9951">:quart_auth</text><line style="stroke: #000000; stroke-width: 1.0;" x1="817" x2="896" y1="84.9951" y2="84.9951"/><ellipse cx="859.5" cy="54" fill="#FEFECE" filter="url(#f18thjvlad4bfx)" rx="12" ry="12" style="stroke: #A80036; stroke-width: 2.0;"/><line style="stroke: #A80036; stroke-width: 2.0;" x1="847.5" x2="871.5" y1="68" y2="68"/><rect fill="#FFFFFF" filter="url(#f18thjvlad4bfx)" height="203.9297" style="stroke: #A80036; stroke-width: 1.0;" width="10" x="392.5" y="117.4297"/><rect fill="#FFFFFF" filter="url(#f18thjvlad4bfx)" height="29.1328" style="stroke: #A80036; stroke-width: 1.0;" width="10" x="703.5" y="204.8281"/><rect fill="#FFFFFF" filter="url(#f18thjvlad4bfx)" height="29.1328" style="stroke: #A80036; stroke-width: 1.0;" width="10" x="703.5" y="263.0938"/><rect fill="#FFFFFF" filter="url(#f18thjvlad4bfx)" height="29.1328" style="stroke: #A80036; stroke-width: 1.0;" width="10" x="854.5" y="146.5625"/><polygon fill="#A80036" points="380.5,113.4297,390.5,117.4297,380.5,121.4297,384.5,117.4297" style="stroke: #A80036; stroke-width: 1.0;"/><line style="stroke: #A80036; stroke-width: 1.0;" x1="29.5" x2="386.5" y1="117.4297" y2="117.4297"/><text fill="#000000" font-family="sans-serif" font-size="13" lengthAdjust="spacingAndGlyphs" textLength="112" x="36.5" y="112.3638">// select info tab()</text><polygon fill="#A80036" points="842.5,142.5625,852.5,146.5625,842.5,150.5625,846.5,146.5625" style="stroke: #A80036; stroke-width: 1.0;"/><line style="stroke: #A80036; stroke-width: 1.0;" x1="402.5" x2="848.5" y1="146.5625" y2="146.5625"/><text fill="#000000" font-family="sans-serif" font-size="13" lengthAdjust="spacingAndGlyphs" textLength="155" x="409.5" y="141.4966">// check authentication()</text><polygon fill="#A80036" points="413.5,171.6953,403.5,175.6953,413.5,179.6953,409.5,175.6953" style="stroke: #A80036; stroke-width: 1.0;"/><line style="stroke: #A80036; stroke-width: 1.0; stroke-dasharray: 2.0,2.0;" x1="407.5" x2="858.5" y1="175.6953" y2="175.6953"/><text fill="#000000" font-family="sans-serif" font-size="13" lengthAdjust="spacingAndGlyphs" textLength="101" x="419.5" y="170.6294">// authenticated</text><polygon fill="#A80036" points="691.5,200.8281,701.5,204.8281,691.5,208.8281,695.5,204.8281" style="stroke: #A80036; stroke-width: 1.0;"/><line style="stroke: #A80036; stroke-width: 1.0;" x1="402.5" x2="697.5" y1="204.8281" y2="204.8281"/><text fill="#000000" font-family="sans-serif" font-size="13" lengthAdjust="spacingAndGlyphs" textLength="263" x="409.5" y="199.7622">// check project id is in project database()</text><polygon fill="#A80036" points="413.5,229.9609,403.5,233.9609,413.5,237.9609,409.5,233.9609" style="stroke: #A80036; stroke-width: 1.0;"/><line style="stroke: #A80036; stroke-width: 1.0; stroke-dasharray: 2.0,2.0;" x1="407.5" x2="707.5" y1="233.9609" y2="233.9609"/><text fill="#000000" font-family="sans-serif" font-size="13" lengthAdjust="spacingAndGlyphs" textLength="212" x="419.5" y="228.895">// project id is in project database</text><polygon fill="#A80036" points="691.5,259.0938,701.5,263.0938,691.5,267.0938,695.5,263.0938" style="stroke: #A80036; stroke-width: 1.0;"/><line style="stroke: #A80036; stroke-width: 1.0;" x1="402.5" x2="697.5" y1="263.0938" y2="263.0938"/><text fill="#000000" font-family="sans-serif" font-size="13" lengthAdjust="spacingAndGlyphs" textLength="282" x="409.5" y="258.0278">// check current user is in project database()</text><polygon fill="#A80036" points="413.5,288.2266,403.5,292.2266,413.5,296.2266,409.5,292.2266" style="stroke: #A80036; stroke-width: 1.0;"/><line style="stroke: #A80036; stroke-width: 1.0; stroke-dasharray: 2.0,2.0;" x1="407.5" x2="707.5" y1="292.2266" y2="292.2266"/><text fill="#000000" font-family="sans-serif" font-size="13" lengthAdjust="spacingAndGlyphs" textLength="264" x="419.5" y="287.1606">// current user is not a member of project</text><polygon fill="#A80036" points="40.5,317.3594,30.5,321.3594,40.5,325.3594,36.5,321.3594" style="stroke: #A80036; stroke-width: 1.0;"/><line style="stroke: #A80036; stroke-width: 1.0; stroke-dasharray: 2.0,2.0;" x1="34.5" x2="396.5" y1="321.3594" y2="321.3594"/><text fill="#000000" font-family="sans-serif" font-size="13" lengthAdjust="spacingAndGlyphs" textLength="339" x="46.5" y="316.2935">// inform that current user is not a member of project</text><!--
@startuml
hide footbox
autoactivate on
skinparam sequenceParticipant underline
actor ":User" as usr
control ":Project Controller" as ctl
entity ":Project" as db_prj
entity ":Project" as db_usr
entity ":quart_auth" as quart

usr -> ctl : // select info tab()
ctl -> quart : // check authentication()
ctl <- - quart : // authenticated
ctl -> db_prj : // check project id is in project database()
ctl <- - db_prj : // project id is in project database
ctl -> db_prj : // check current user is in project database()
ctl <- - db_prj : // current user is not a member of project
usr <- - ctl : // inform that current user is not a member of project
@enduml

PlantUML version 1.2018.13(Mon Nov 26 17:11:51 UTC 2018)
(GPL source distribution)
Java Runtime: OpenJDK Runtime Environment
JVM: OpenJDK 64-Bit Server VM
Java Version: 11.0.10+9
Operating System: Linux
OS Version: 5.4.0-1039-azure
Default Encoding: UTF-8
Language: en
Country: null
--></g></svg>