<?xml version="1.0" encoding="UTF-8" standalone="no"?><svg xmlns="http://www.w3.org/2000/svg" xmlns:xlink="http://www.w3.org/1999/xlink" contentScriptType="application/ecmascript" contentStyleType="text/css" height="818px" preserveAspectRatio="none" style="width:770px;height:818px;" version="1.1" viewBox="0 0 770 818" width="770px" zoomAndPan="magnify"><defs><filter height="300%" id="f17g0w7xh2ff61" width="300%" x="-1" y="-1"><feGaussianBlur result="blurOut" stdDeviation="2.0"/><feColorMatrix in="blurOut" result="blurOut2" type="matrix" values="0 0 0 0 0 0 0 0 0 0 0 0 0 0 0 0 0 0 .4 0"/><feOffset dx="4.0" dy="4.0" in="blurOut2" result="blurOut3"/><feBlend in="SourceGraphic" in2="blurOut3" mode="normal"/></filter></defs><g><!--cluster Client--><polygon fill="#FFFFFF" filter="url(#f17g0w7xh2ff61)" points="481,47.5,491,37.5,631,37.5,631,169.5,621,179.5,481,179.5,481,47.5" style="stroke: #000000; stroke-width: 1.5;"/><line style="stroke: #000000; stroke-width: 1.5;" x1="621" x2="630" y1="47.5" y2="38.5"/><line style="stroke: #000000; stroke-width: 1.5;" x1="481" x2="621" y1="47.5" y2="47.5"/><line style="stroke: #000000; stroke-width: 1.5;" x1="621" x2="621" y1="47.5" y2="179.5"/><text fill="#000000" font-family="sans-serif" font-size="14" font-weight="bold" lengthAdjust="spacingAndGlyphs" textLength="45" x="529.5" y="73.4951">Client</text><!--cluster Load Balancing Server--><polygon fill="#FFFFFF" filter="url(#f17g0w7xh2ff61)" points="22,34,32,24,294,24,294,183,284,193,22,193,22,34" style="stroke: #000000; stroke-width: 1.5;"/><line style="stroke: #000000; stroke-width: 1.5;" x1="284" x2="293" y1="34" y2="25"/><line style="stroke: #000000; stroke-width: 1.5;" x1="22" x2="284" y1="34" y2="34"/><line style="stroke: #000000; stroke-width: 1.5;" x1="284" x2="284" y1="34" y2="193"/><text fill="#000000" font-family="sans-serif" font-size="14" font-weight="bold" lengthAdjust="spacingAndGlyphs" textLength="176" x="66" y="59.9951">Load Balancing Server</text><!--cluster server--><polygon fill="#FFFFFF" filter="url(#f17g0w7xh2ff61)" points="87,298,97,288,365,288,365,410,355,420,87,420,87,298" style="stroke: #000000; stroke-width: 1.5;"/><line style="stroke: #000000; stroke-width: 1.5;" x1="355" x2="364" y1="298" y2="289"/><line style="stroke: #000000; stroke-width: 1.5;" x1="87" x2="355" y1="298" y2="298"/><line style="stroke: #000000; stroke-width: 1.5;" x1="355" x2="355" y1="298" y2="420"/><text fill="#000000" font-family="sans-serif" font-size="14" font-weight="bold" lengthAdjust="spacingAndGlyphs" textLength="93" x="175.5" y="323.9951">Web Server</text><!--cluster db--><polygon fill="#FFFFFF" filter="url(#f17g0w7xh2ff61)" points="137,533,147,523,467,523,467,796,457,806,137,806,137,533" style="stroke: #000000; stroke-width: 1.5;"/><line style="stroke: #000000; stroke-width: 1.5;" x1="457" x2="466" y1="533" y2="524"/><line style="stroke: #000000; stroke-width: 1.5;" x1="137" x2="457" y1="533" y2="533"/><line style="stroke: #000000; stroke-width: 1.5;" x1="457" x2="457" y1="533" y2="806"/><text fill="#000000" font-family="sans-serif" font-size="14" font-weight="bold" lengthAdjust="spacingAndGlyphs" textLength="133" x="231.5" y="558.9951">Database cluster</text><!--cluster ipfs--><polygon fill="#FFFFFF" filter="url(#f17g0w7xh2ff61)" points="507,537.5,517,527.5,748,527.5,748,791.5,738,801.5,507,801.5,507,537.5" style="stroke: #000000; stroke-width: 1.5;"/><line style="stroke: #000000; stroke-width: 1.5;" x1="738" x2="747" y1="537.5" y2="528.5"/><line style="stroke: #000000; stroke-width: 1.5;" x1="507" x2="738" y1="537.5" y2="537.5"/><line style="stroke: #000000; stroke-width: 1.5;" x1="738" x2="738" y1="537.5" y2="801.5"/><text fill="#000000" font-family="sans-serif" font-size="14" font-weight="bold" lengthAdjust="spacingAndGlyphs" textLength="95" x="576" y="563.4951">IPFS Cluster</text><!--entity Browser--><polygon fill="#FEFECE" filter="url(#f17g0w7xh2ff61)" points="497.5,107.5,507.5,97.5,614.5,97.5,614.5,153.7969,604.5,163.7969,497.5,163.7969,497.5,107.5" style="stroke: #000000; stroke-width: 1.5;"/><line style="stroke: #000000; stroke-width: 1.5;" x1="604.5" x2="613.5" y1="107.5" y2="98.5"/><line style="stroke: #000000; stroke-width: 1.5;" x1="497.5" x2="604.5" y1="107.5" y2="107.5"/><line style="stroke: #000000; stroke-width: 1.5;" x1="604.5" x2="604.5" y1="107.5" y2="163.7969"/><text fill="#000000" font-family="sans-serif" font-size="14" lengthAdjust="spacingAndGlyphs" textLength="57" x="522.5" y="140.4951">Browser</text><!--entity nginx--><rect fill="#FEFECE" filter="url(#f17g0w7xh2ff61)" height="92.5938" style="stroke: #A80036; stroke-width: 1.5;" width="150" x="83" y="84"/><rect fill="#FEFECE" height="5" style="stroke: #A80036; stroke-width: 1.5;" width="10" x="78" y="89"/><rect fill="#FEFECE" height="5" style="stroke: #A80036; stroke-width: 1.5;" width="10" x="78" y="166.5938"/><text fill="#000000" font-family="sans-serif" font-size="14" font-style="italic" lengthAdjust="spacingAndGlyphs" textLength="110" x="103" y="116.9951">«load balancer»</text><text fill="#000000" font-family="sans-serif" font-size="14" lengthAdjust="spacingAndGlyphs" textLength="43" x="136.5" y="153.292">NGINX</text><!--entity acanban--><rect fill="#FEFECE" filter="url(#f17g0w7xh2ff61)" height="56.2969" style="stroke: #A80036; stroke-width: 1.5;" width="100" x="249" y="348"/><rect fill="#FEFECE" height="5" style="stroke: #A80036; stroke-width: 1.5;" width="10" x="244" y="353"/><rect fill="#FEFECE" height="5" style="stroke: #A80036; stroke-width: 1.5;" width="10" x="244" y="394.2969"/><text fill="#000000" font-family="sans-serif" font-size="14" lengthAdjust="spacingAndGlyphs" textLength="60" x="269" y="380.9951">Acanban</text><!--entity hypercorn--><rect fill="#FEFECE" filter="url(#f17g0w7xh2ff61)" height="56.2969" style="stroke: #A80036; stroke-width: 1.5;" width="111" x="102.5" y="348"/><rect fill="#FEFECE" height="5" style="stroke: #A80036; stroke-width: 1.5;" width="10" x="97.5" y="353"/><rect fill="#FEFECE" height="5" style="stroke: #A80036; stroke-width: 1.5;" width="10" x="97.5" y="394.2969"/><text fill="#000000" font-family="sans-serif" font-size="14" lengthAdjust="spacingAndGlyphs" textLength="71" x="122.5" y="380.9951">Hypercorn</text><!--entity r_1--><path d="M180,601 C180,591 237,591 237,591 C237,591 294,591 294,601 L294,646.2969 C294,656.2969 237,656.2969 237,656.2969 C237,656.2969 180,656.2969 180,646.2969 L180,601 " fill="#FEFECE" filter="url(#f17g0w7xh2ff61)" style="stroke: #000000; stroke-width: 1.5;"/><path d="M180,601 C180,611 237,611 237,611 C237,611 294,611 294,601 " fill="none" style="stroke: #000000; stroke-width: 1.5;"/><text fill="#000000" font-family="sans-serif" font-size="14" lengthAdjust="spacingAndGlyphs" textLength="74" x="200" y="637.9951">RethinkDB</text><!--entity r_2--><path d="M329,601 C329,591 386,591 386,591 C386,591 443,591 443,601 L443,646.2969 C443,656.2969 386,656.2969 386,656.2969 C386,656.2969 329,656.2969 329,646.2969 L329,601 " fill="#FEFECE" filter="url(#f17g0w7xh2ff61)" style="stroke: #000000; stroke-width: 1.5;"/><path d="M329,601 C329,611 386,611 386,611 C386,611 443,611 443,601 " fill="none" style="stroke: #000000; stroke-width: 1.5;"/><text fill="#000000" font-family="sans-serif" font-size="14" lengthAdjust="spacingAndGlyphs" textLength="74" x="349" y="637.9951">RethinkDB</text><!--entity r_3--><path d="M180,727 C180,717 237,717 237,717 C237,717 294,717 294,727 L294,772.2969 C294,782.2969 237,782.2969 237,782.2969 C237,782.2969 180,782.2969 180,772.2969 L180,727 " fill="#FEFECE" filter="url(#f17g0w7xh2ff61)" style="stroke: #000000; stroke-width: 1.5;"/><path d="M180,727 C180,737 237,737 237,737 C237,737 294,737 294,727 " fill="none" style="stroke: #000000; stroke-width: 1.5;"/><text fill="#000000" font-family="sans-serif" font-size="14" lengthAdjust="spacingAndGlyphs" textLength="74" x="200" y="763.9951">RethinkDB</text><!--entity r_4--><path d="M329,727 C329,717 386,717 386,717 C386,717 443,717 443,727 L443,772.2969 C443,782.2969 386,782.2969 386,782.2969 C386,782.2969 329,782.2969 329,772.2969 L329,727 " fill="#FEFECE" filter="url(#f17g0w7xh2ff61)" style="stroke: #000000; stroke-width: 1.5;"/><path d="M329,727 C329,737 386,737 386,737 C386,737 443,737 443,727 " fill="none" style="stroke: #000000; stroke-width: 1.5;"/><text fill="#000000" font-family="sans-serif" font-size="14" lengthAdjust="spacingAndGlyphs" textLength="74" x="349" y="763.9951">RethinkDB</text><!--entity i_1--><rect fill="#FEFECE" filter="url(#f17g0w7xh2ff61)" height="56.2969" style="stroke: #A80036; stroke-width: 1.5;" width="69" x="550.5" y="595.5"/><rect fill="#FEFECE" height="5" style="stroke: #A80036; stroke-width: 1.5;" width="10" x="545.5" y="600.5"/><rect fill="#FEFECE" height="5" style="stroke: #A80036; stroke-width: 1.5;" width="10" x="545.5" y="641.7969"/><text fill="#000000" font-family="sans-serif" font-size="14" lengthAdjust="spacingAndGlyphs" textLength="29" x="570.5" y="628.4951">IPFS</text><!--entity i_2--><rect fill="#FEFECE" filter="url(#f17g0w7xh2ff61)" height="56.2969" style="stroke: #A80036; stroke-width: 1.5;" width="69" x="654.5" y="595.5"/><rect fill="#FEFECE" height="5" style="stroke: #A80036; stroke-width: 1.5;" width="10" x="649.5" y="600.5"/><rect fill="#FEFECE" height="5" style="stroke: #A80036; stroke-width: 1.5;" width="10" x="649.5" y="641.7969"/><text fill="#000000" font-family="sans-serif" font-size="14" lengthAdjust="spacingAndGlyphs" textLength="29" x="674.5" y="628.4951">IPFS</text><!--entity i_3--><rect fill="#FEFECE" filter="url(#f17g0w7xh2ff61)" height="56.2969" style="stroke: #A80036; stroke-width: 1.5;" width="69" x="550.5" y="721.5"/><rect fill="#FEFECE" height="5" style="stroke: #A80036; stroke-width: 1.5;" width="10" x="545.5" y="726.5"/><rect fill="#FEFECE" height="5" style="stroke: #A80036; stroke-width: 1.5;" width="10" x="545.5" y="767.7969"/><text fill="#000000" font-family="sans-serif" font-size="14" lengthAdjust="spacingAndGlyphs" textLength="29" x="570.5" y="754.4951">IPFS</text><!--entity i_4--><rect fill="#FEFECE" filter="url(#f17g0w7xh2ff61)" height="56.2969" style="stroke: #A80036; stroke-width: 1.5;" width="69" x="654.5" y="721.5"/><rect fill="#FEFECE" height="5" style="stroke: #A80036; stroke-width: 1.5;" width="10" x="649.5" y="726.5"/><rect fill="#FEFECE" height="5" style="stroke: #A80036; stroke-width: 1.5;" width="10" x="649.5" y="767.7969"/><text fill="#000000" font-family="sans-serif" font-size="14" lengthAdjust="spacingAndGlyphs" textLength="29" x="674.5" y="754.4951">IPFS</text><!--link Browser to nginx--><path d="M497.47,130.5 C427.45,130.5 310.06,130.5 233.33,130.5 " fill="none" id="Browser-nginx" style="stroke: #A80036; stroke-width: 1.0;"/><text fill="#000000" font-family="sans-serif" font-size="13" lengthAdjust="spacingAndGlyphs" textLength="41" x="344.75" y="113.5669">HTTPS</text><!--link nginx to hypercorn--><path d="M158,177.01 C158,227.26 158,306.48 158,347.84 " fill="none" id="nginx-hypercorn" style="stroke: #A80036; stroke-width: 1.0;"/><text fill="#000000" font-family="sans-serif" font-size="13" lengthAdjust="spacingAndGlyphs" textLength="8" x="138.3813" y="206.5092">1</text><text fill="#000000" font-family="sans-serif" font-size="13" lengthAdjust="spacingAndGlyphs" textLength="23" x="121.3047" y="327.045">1..*</text><!--link hypercorn to acanban--><path d="M213.63,376 C225.41,376 237.19,376 248.98,376 " fill="none" id="hypercorn-acanban" style="stroke: #A80036; stroke-width: 1.0;"/><!--link acanban to db--><path d="M266.3,404.22 C230.56,434.67 176.67,482.88 164,507 C162.5119,509.8338 161.1349,512.756 159.8611,515.7452 C159.2242,517.2398 158.6131,518.7511 158.0267,520.2764 C157.7335,521.0391 157.4465,521.8052 157.1656,522.5746 " fill="none" id="acanban-db" style="stroke: #A80036; stroke-width: 1.0;"/><text fill="#000000" font-family="sans-serif" font-size="13" lengthAdjust="spacingAndGlyphs" textLength="23" x="223.6456" y="434.4162">1..*</text><text fill="#000000" font-family="sans-serif" font-size="13" lengthAdjust="spacingAndGlyphs" textLength="23" x="112" y="609.5169">1..*</text><!--link acanban to ipfs--><path d="M341.78,404 C376.79,427.77 425.77,465.06 459,507 C476.435,529.01 490.2725,557.3325 499.83,580.4225 C502.2194,586.195 504.3413,591.6405 506.185,596.5785 C506.4154,597.1958 506.6415,597.8051 506.8633,598.4061 " fill="none" id="acanban-ipfs" style="stroke: #A80036; stroke-width: 1.0;"/><text fill="#000000" font-family="sans-serif" font-size="13" lengthAdjust="spacingAndGlyphs" textLength="23" x="312.7035" y="434.4408">1..*</text><text fill="#000000" font-family="sans-serif" font-size="13" lengthAdjust="spacingAndGlyphs" textLength="23" x="481.98" y="609.5169">1..*</text><!--link r_1 to r_2--><!--link r_1 to r_3--><!--link r_3 to r_4--><!--link i_1 to i_2--><!--link i_1 to i_3--><!--link i_3 to i_4--><!--
@startuml
skinparam Padding 10

node Client {
   node Browser
}

node "Load Balancing Server" {
component NGINX as nginx <<load balancer>>
}

node "Web Server" as server {
   component Acanban as acanban
   component Hypercorn as hypercorn
}

node "Database cluster" as db {
   database "RethinkDB" as r_1
   database "RethinkDB" as r_2
   database "RethinkDB" as r_3
   database "RethinkDB" as r_4
}

node "IPFS Cluster" as ipfs {
   component "IPFS" as i_1
   component "IPFS" as i_2
   component "IPFS" as i_3
   component "IPFS" as i_4
}

Browser -[norank]- nginx: HTTPS

nginx "1" - - - "1..*" hypercorn

hypercorn - acanban
acanban "1..*" - - - "1..*" db
acanban "1..*" - - - "1..*" ipfs
@enduml

PlantUML version 1.2018.13(Mon Nov 26 17:11:51 UTC 2018)
(GPL source distribution)
Java Runtime: OpenJDK Runtime Environment
JVM: OpenJDK 64-Bit Server VM
Java Version: 11.0.9.1+1
Operating System: Linux
OS Version: 5.4.0-1032-azure
Default Encoding: UTF-8
Language: en
Country: null
--></g></svg>