<?xml version="1.0" encoding="UTF-8" standalone="no"?><svg xmlns="http://www.w3.org/2000/svg" xmlns:xlink="http://www.w3.org/1999/xlink" contentScriptType="application/ecmascript" contentStyleType="text/css" height="474px" preserveAspectRatio="none" style="width:638px;height:474px;" version="1.1" viewBox="0 0 638 474" width="638px" zoomAndPan="magnify"><defs><filter height="300%" id="fta79l3g8swxf" width="300%" x="-1" y="-1"><feGaussianBlur result="blurOut" stdDeviation="2.0"/><feColorMatrix in="blurOut" result="blurOut2" type="matrix" values="0 0 0 0 0 0 0 0 0 0 0 0 0 0 0 0 0 0 .4 0"/><feOffset dx="4.0" dy="4.0" in="blurOut2" result="blurOut3"/><feBlend in="SourceGraphic" in2="blurOut3" mode="normal"/></filter></defs><g><!--cluster Client--><polygon fill="#FFFFFF" filter="url(#fta79l3g8swxf)" points="22,34,32,24,150,24,150,116,140,126,22,126,22,34" style="stroke: #000000; stroke-width: 1.5;"/><line style="stroke: #000000; stroke-width: 1.5;" x1="140" x2="149" y1="34" y2="25"/><line style="stroke: #000000; stroke-width: 1.5;" x1="22" x2="140" y1="34" y2="34"/><line style="stroke: #000000; stroke-width: 1.5;" x1="140" x2="140" y1="34" y2="126"/><text fill="#000000" font-family="sans-serif" font-size="14" font-weight="bold" lengthAdjust="spacingAndGlyphs" textLength="45" x="59.5" y="49.9951">Client</text><!--cluster Server--><polygon fill="#FFFFFF" filter="url(#fta79l3g8swxf)" points="24,247,34,237,616,237,616,452,606,462,24,462,24,247" style="stroke: #000000; stroke-width: 1.5;"/><line style="stroke: #000000; stroke-width: 1.5;" x1="606" x2="615" y1="247" y2="238"/><line style="stroke: #000000; stroke-width: 1.5;" x1="24" x2="606" y1="247" y2="247"/><line style="stroke: #000000; stroke-width: 1.5;" x1="606" x2="606" y1="247" y2="462"/><text fill="#000000" font-family="sans-serif" font-size="14" font-weight="bold" lengthAdjust="spacingAndGlyphs" textLength="53" x="289.5" y="262.9951">Server</text><!--entity Browser--><polygon fill="#FEFECE" filter="url(#fta79l3g8swxf)" points="37.5,74,47.5,64,134.5,64,134.5,100.2969,124.5,110.2969,37.5,110.2969,37.5,74" style="stroke: #000000; stroke-width: 1.5;"/><line style="stroke: #000000; stroke-width: 1.5;" x1="124.5" x2="133.5" y1="74" y2="65"/><line style="stroke: #000000; stroke-width: 1.5;" x1="37.5" x2="124.5" y1="74" y2="74"/><line style="stroke: #000000; stroke-width: 1.5;" x1="124.5" x2="124.5" y1="74" y2="110.2969"/><text fill="#000000" font-family="sans-serif" font-size="14" lengthAdjust="spacingAndGlyphs" textLength="57" x="52.5" y="96.9951">Browser</text><!--entity db--><path d="M161,411 C161,401 208,401 208,401 C208,401 255,401 255,411 L255,436.2969 C255,446.2969 208,446.2969 208,446.2969 C208,446.2969 161,446.2969 161,436.2969 L161,411 " fill="#FEFECE" filter="url(#fta79l3g8swxf)" style="stroke: #000000; stroke-width: 1.5;"/><path d="M161,411 C161,421 208,421 208,421 C208,421 255,421 255,411 " fill="none" style="stroke: #000000; stroke-width: 1.5;"/><text fill="#000000" font-family="sans-serif" font-size="14" lengthAdjust="spacingAndGlyphs" textLength="74" x="171" y="437.9951">RethinkDB</text><!--entity systemd_conf--><rect fill="#FEFECE" filter="url(#fta79l3g8swxf)" height="39.2969" style="stroke: #000000; stroke-width: 1.5;" width="142" x="458" y="289"/><polygon fill="#FEFECE" points="583,294,583,308,595,308,595,300,589,294,583,294" style="stroke: #000000; stroke-width: 1.5;"/><line style="stroke: #000000; stroke-width: 1.5;" x1="589" x2="589" y1="294" y2="300"/><line style="stroke: #000000; stroke-width: 1.5;" x1="595" x2="589" y1="300" y2="300"/><text fill="#000000" font-family="sans-serif" font-size="14" lengthAdjust="spacingAndGlyphs" textLength="112" x="468" y="314.9951">acanban.service</text><!--entity Acanban--><rect fill="#FEFECE" filter="url(#fta79l3g8swxf)" height="36.2969" style="stroke: #A80036; stroke-width: 1.5;" width="80" x="46" y="405.5"/><rect fill="#FEFECE" height="5" style="stroke: #A80036; stroke-width: 1.5;" width="10" x="41" y="410.5"/><rect fill="#FEFECE" height="5" style="stroke: #A80036; stroke-width: 1.5;" width="10" x="41" y="431.7969"/><text fill="#000000" font-family="sans-serif" font-size="14" lengthAdjust="spacingAndGlyphs" textLength="60" x="56" y="428.4951">Acanban</text><!--entity Hypercorn--><rect fill="#FEFECE" filter="url(#fta79l3g8swxf)" height="36.2969" style="stroke: #A80036; stroke-width: 1.5;" width="91" x="40.5" y="290.5"/><rect fill="#FEFECE" height="5" style="stroke: #A80036; stroke-width: 1.5;" width="10" x="35.5" y="295.5"/><rect fill="#FEFECE" height="5" style="stroke: #A80036; stroke-width: 1.5;" width="10" x="35.5" y="316.7969"/><text fill="#000000" font-family="sans-serif" font-size="14" lengthAdjust="spacingAndGlyphs" textLength="71" x="50.5" y="313.4951">Hypercorn</text><!--entity systemd--><polygon fill="#FEFECE" filter="url(#fta79l3g8swxf)" points="247.5,287,257.5,277,362.5,277,362.5,329.5938,352.5,339.5938,247.5,339.5938,247.5,287" style="stroke: #000000; stroke-width: 1.5;"/><line style="stroke: #000000; stroke-width: 1.5;" x1="352.5" x2="361.5" y1="287" y2="278"/><line style="stroke: #000000; stroke-width: 1.5;" x1="247.5" x2="352.5" y1="287" y2="287"/><line style="stroke: #000000; stroke-width: 1.5;" x1="352.5" x2="352.5" y1="287" y2="339.5938"/><text fill="#000000" font-family="sans-serif" font-size="14" font-style="italic" lengthAdjust="spacingAndGlyphs" textLength="75" x="262.5" y="309.9951">«daemon»</text><text fill="#000000" font-family="sans-serif" font-size="14" lengthAdjust="spacingAndGlyphs" textLength="59" x="270.5" y="326.292">systemd</text><!--entity IPFS--><rect fill="#FEFECE" filter="url(#fta79l3g8swxf)" height="36.2969" style="stroke: #A80036; stroke-width: 1.5;" width="49" x="290.5" y="405.5"/><rect fill="#FEFECE" height="5" style="stroke: #A80036; stroke-width: 1.5;" width="10" x="285.5" y="410.5"/><rect fill="#FEFECE" height="5" style="stroke: #A80036; stroke-width: 1.5;" width="10" x="285.5" y="431.7969"/><text fill="#000000" font-family="sans-serif" font-size="14" lengthAdjust="spacingAndGlyphs" textLength="29" x="300.5" y="428.4951">IPFS</text><!--link Browser to Hypercorn--><path d="M86,110.25 C86,154.18 86,251.16 86,290.46 " fill="none" id="Browser-Hypercorn" style="stroke: #A80036; stroke-width: 1.0;"/><text fill="#000000" font-family="sans-serif" font-size="13" lengthAdjust="spacingAndGlyphs" textLength="41" x="87" y="186.0669">HTTPS</text><!--link Hypercorn to systemd--><path d="M131.64,308.5 C165.24,308.5 211.16,308.5 247.3,308.5 " fill="none" id="Hypercorn-systemd" style="stroke: #A80036; stroke-width: 1.0;"/><text fill="#000000" font-family="sans-serif" font-size="13" lengthAdjust="spacingAndGlyphs" textLength="79" x="150" y="301.5669">run instance</text><!--link systemd to systemd_conf--><path d="M367.85,308.5 C395.86,308.5 428.98,308.5 457.89,308.5 " fill="none" id="systemd-systemd_conf" style="stroke: #A80036; stroke-width: 1.0;"/><polygon fill="#A80036" points="362.69,308.5,371.69,312.5,367.69,308.5,371.69,304.5,362.69,308.5" style="stroke: #A80036; stroke-width: 1.0;"/><text fill="#000000" font-family="sans-serif" font-size="13" lengthAdjust="spacingAndGlyphs" textLength="59" x="380.75" y="301.5669">configure</text><!--link Hypercorn to Acanban--><path d="M86,326.66 C86,347.9 86,383.86 86,405.18 " fill="none" id="Hypercorn-Acanban" style="stroke: #A80036; stroke-width: 1.0;"/><!--link Acanban to IPFS--><path d="M104.68,405.41 C118.96,392.91 139.82,377.35 161.5,370.5 C201.34,357.91 216.46,355.63 255.5,370.5 C273.86,377.49 290.16,393.03 301.03,405.49 " fill="none" id="Acanban-IPFS" style="stroke: #A80036; stroke-width: 1.0;"/><!--link Acanban to db--><path d="M126.03,423.5 C137.66,423.5 149.3,423.5 160.93,423.5 " fill="none" id="Acanban-db" style="stroke: #A80036; stroke-width: 1.0;"/><!--
@startuml
node Client {
   node Browser
}

node Server {
   database "RethinkDB" as db
   artifact "acanban.service" as systemd_conf
   component Acanban
   component Hypercorn
   node systemd <<daemon>>
   component IPFS
}

Browser - - - Hypercorn: HTTPS
Hypercorn - systemd: run instance
systemd <- systemd_conf: configure
Hypercorn - - Acanban
Acanban - IPFS
Acanban - db

@enduml

PlantUML version 1.2018.13(Mon Nov 26 17:11:51 UTC 2018)
(GPL source distribution)
Java Runtime: OpenJDK Runtime Environment
JVM: OpenJDK 64-Bit Server VM
Java Version: 11.0.9.1+1
Operating System: Linux
OS Version: 5.4.0-1036-azure
Default Encoding: UTF-8
Language: en
Country: null
--></g></svg>