<?xml version="1.0" encoding="UTF-8" standalone="no"?><svg xmlns="http://www.w3.org/2000/svg" xmlns:xlink="http://www.w3.org/1999/xlink" contentScriptType="application/ecmascript" contentStyleType="text/css" height="1008px" preserveAspectRatio="none" style="width:883px;height:1008px;" version="1.1" viewBox="0 0 883 1008" width="883px" zoomAndPan="magnify"><defs><filter height="300%" id="flyzvnh7w1h76" width="300%" x="-1" y="-1"><feGaussianBlur result="blurOut" stdDeviation="2.0"/><feColorMatrix in="blurOut" result="blurOut2" type="matrix" values="0 0 0 0 0 0 0 0 0 0 0 0 0 0 0 0 0 0 .4 0"/><feOffset dx="4.0" dy="4.0" in="blurOut2" result="blurOut3"/><feBlend in="SourceGraphic" in2="blurOut3" mode="normal"/></filter></defs><g><!--entity Student--><ellipse cx="50" cy="375" fill="#FEFECE" filter="url(#flyzvnh7w1h76)" rx="8" ry="8" style="stroke: #A80036; stroke-width: 2.0;"/><path d="M50,383 L50,410 M37,391 L63,391 M50,410 L37,425 M50,410 L63,425 " fill="none" filter="url(#flyzvnh7w1h76)" style="stroke: #A80036; stroke-width: 2.0;"/><text fill="#000000" font-family="sans-serif" font-size="14" lengthAdjust="spacingAndGlyphs" textLength="55" x="22.5" y="444.9951">Student</text><!--entity Staff--><ellipse cx="50" cy="711" fill="#FEFECE" filter="url(#flyzvnh7w1h76)" rx="8" ry="8" style="stroke: #A80036; stroke-width: 2.0;"/><path d="M50,719 L50,746 M37,727 L63,727 M50,746 L37,761 M50,746 L63,761 " fill="none" filter="url(#flyzvnh7w1h76)" style="stroke: #A80036; stroke-width: 2.0;"/><text fill="#000000" font-family="sans-serif" font-size="14" lengthAdjust="spacingAndGlyphs" textLength="30" x="35" y="780.9951">Staff</text><!--entity Admin--><ellipse cx="50" cy="18" fill="#FEFECE" filter="url(#flyzvnh7w1h76)" rx="8" ry="8" style="stroke: #A80036; stroke-width: 2.0;"/><path d="M50,26 L50,53 M37,34 L63,34 M50,53 L37,68 M50,53 L63,68 " fill="none" filter="url(#flyzvnh7w1h76)" style="stroke: #A80036; stroke-width: 2.0;"/><text fill="#000000" font-family="sans-serif" font-size="14" lengthAdjust="spacingAndGlyphs" textLength="43" x="28.5" y="87.9951">Admin</text><!--entity Lecturer--><ellipse cx="619" cy="449" fill="#FEFECE" filter="url(#flyzvnh7w1h76)" rx="8" ry="8" style="stroke: #A80036; stroke-width: 2.0;"/><path d="M619,457 L619,484 M606,465 L632,465 M619,484 L606,499 M619,484 L632,499 " fill="none" filter="url(#flyzvnh7w1h76)" style="stroke: #A80036; stroke-width: 2.0;"/><text fill="#000000" font-family="sans-serif" font-size="14" lengthAdjust="spacingAndGlyphs" textLength="57" x="590.5" y="518.9951">Lecturer</text><ellipse cx="321.7254" cy="117.7451" fill="#FEFECE" filter="url(#flyzvnh7w1h76)" rx="66.7254" ry="15.7451" style="stroke: #A80036; stroke-width: 1.5;"/><text fill="#000000" font-family="sans-serif" font-size="14" lengthAdjust="spacingAndGlyphs" textLength="98" x="272.7254" y="122.3935">Create project</text><ellipse cx="321.7401" cy="182.5236" fill="#FEFECE" filter="url(#flyzvnh7w1h76)" rx="56.7401" ry="14.5236" style="stroke: #A80036; stroke-width: 1.5;"/><text fill="#000000" font-family="sans-serif" font-size="14" lengthAdjust="spacingAndGlyphs" textLength="76" x="283.7401" y="187.1721">Join project</text><ellipse cx="321.6001" cy="247.42" fill="#FEFECE" filter="url(#flyzvnh7w1h76)" rx="62.6001" ry="14.92" style="stroke: #A80036; stroke-width: 1.5;"/><text fill="#000000" font-family="sans-serif" font-size="14" lengthAdjust="spacingAndGlyphs" textLength="87" x="278.1001" y="252.0685">Create tasks</text><ellipse cx="321.4619" cy="312.5236" fill="#FEFECE" filter="url(#flyzvnh7w1h76)" rx="48.9619" ry="14.5236" style="stroke: #A80036; stroke-width: 1.5;"/><text fill="#000000" font-family="sans-serif" font-size="14" lengthAdjust="spacingAndGlyphs" textLength="65" x="288.9619" y="317.1721">Join tasks</text><ellipse cx="321.6456" cy="378.5291" fill="#FEFECE" filter="url(#flyzvnh7w1h76)" rx="70.6456" ry="16.5291" style="stroke: #A80036; stroke-width: 1.5;"/><text fill="#000000" font-family="sans-serif" font-size="14" lengthAdjust="spacingAndGlyphs" textLength="108" x="267.6456" y="383.1776">Complete tasks</text><ellipse cx="811.1565" cy="448.6313" fill="#FEFECE" filter="url(#flyzvnh7w1h76)" rx="61.1565" ry="14.6313" style="stroke: #A80036; stroke-width: 1.5;"/><text fill="#000000" font-family="sans-serif" font-size="14" lengthAdjust="spacingAndGlyphs" textLength="83" x="769.6565" y="453.2797">View results</text><ellipse cx="811.0122" cy="512.5236" fill="#FEFECE" filter="url(#flyzvnh7w1h76)" rx="44.0122" ry="14.5236" style="stroke: #A80036; stroke-width: 1.5;"/><text fill="#000000" font-family="sans-serif" font-size="14" lengthAdjust="spacingAndGlyphs" textLength="58" x="782.0122" y="517.1721">Evaluate</text><ellipse cx="321.6147" cy="452.6229" fill="#FEFECE" filter="url(#flyzvnh7w1h76)" rx="98.6147" ry="22.1229" style="stroke: #A80036; stroke-width: 1.5;"/><text fill="#000000" font-family="sans-serif" font-size="14" lengthAdjust="spacingAndGlyphs" textLength="173" x="235.1147" y="457.2714">Create discussion thread</text><ellipse cx="321.3417" cy="525.6683" fill="#FEFECE" filter="url(#flyzvnh7w1h76)" rx="66.3417" ry="15.6683" style="stroke: #A80036; stroke-width: 1.5;"/><text fill="#000000" font-family="sans-serif" font-size="14" lengthAdjust="spacingAndGlyphs" textLength="97" x="272.8417" y="530.3168">Add comment</text><ellipse cx="321.4151" cy="594.683" fill="#FEFECE" filter="url(#flyzvnh7w1h76)" rx="81.4151" ry="18.683" style="stroke: #A80036; stroke-width: 1.5;"/><text fill="#000000" font-family="sans-serif" font-size="14" lengthAdjust="spacingAndGlyphs" textLength="134" x="254.4151" y="599.3315">Receive notification</text><ellipse cx="321.4411" cy="662.5236" fill="#FEFECE" filter="url(#flyzvnh7w1h76)" rx="36.9411" ry="14.5236" style="stroke: #A80036; stroke-width: 1.5;"/><text fill="#000000" font-family="sans-serif" font-size="14" lengthAdjust="spacingAndGlyphs" textLength="48" x="297.4411" y="667.1721">Search</text><ellipse cx="618.85" cy="594.37" fill="#FEFECE" filter="url(#flyzvnh7w1h76)" rx="69.85" ry="16.37" style="stroke: #A80036; stroke-width: 1.5;"/><text fill="#000000" font-family="sans-serif" font-size="14" lengthAdjust="spacingAndGlyphs" textLength="106" x="565.85" y="599.0184">Search student</text><ellipse cx="618.9543" cy="662.2909" fill="#FEFECE" filter="url(#flyzvnh7w1h76)" rx="69.4543" ry="16.2909" style="stroke: #A80036; stroke-width: 1.5;"/><text fill="#000000" font-family="sans-serif" font-size="14" lengthAdjust="spacingAndGlyphs" textLength="105" x="566.4543" y="666.9393">Search lecturer</text><ellipse cx="618.9975" cy="730.3995" fill="#FEFECE" filter="url(#flyzvnh7w1h76)" rx="67.4975" ry="15.8995" style="stroke: #A80036; stroke-width: 1.5;"/><text fill="#000000" font-family="sans-serif" font-size="14" lengthAdjust="spacingAndGlyphs" textLength="100" x="568.9975" y="735.0479">Search project</text><ellipse cx="321.4975" cy="862.3995" fill="#FEFECE" filter="url(#flyzvnh7w1h76)" rx="67.4975" ry="15.8995" style="stroke: #A80036; stroke-width: 1.5;"/><text fill="#000000" font-family="sans-serif" font-size="14" lengthAdjust="spacingAndGlyphs" textLength="100" x="271.4975" y="867.0479">Authentication</text><ellipse cx="50.0122" cy="854.5236" fill="#FEFECE" filter="url(#flyzvnh7w1h76)" rx="44.0122" ry="14.5236" style="stroke: #A80036; stroke-width: 1.5;"/><text fill="#000000" font-family="sans-serif" font-size="14" lengthAdjust="spacingAndGlyphs" textLength="58" x="21.0122" y="859.1721">Register</text><ellipse cx="50.163" cy="918.5236" fill="#FEFECE" filter="url(#flyzvnh7w1h76)" rx="29.163" ry="14.5236" style="stroke: #A80036; stroke-width: 1.5;"/><text fill="#000000" font-family="sans-serif" font-size="14" lengthAdjust="spacingAndGlyphs" textLength="37" x="31.663" y="923.1721">Login</text><ellipse cx="49.9411" cy="982.5236" fill="#FEFECE" filter="url(#flyzvnh7w1h76)" rx="36.9411" ry="14.5236" style="stroke: #A80036; stroke-width: 1.5;"/><text fill="#000000" font-family="sans-serif" font-size="14" lengthAdjust="spacingAndGlyphs" textLength="48" x="25.9411" y="987.1721">Logout</text><ellipse cx="321.466" cy="727.4932" fill="#FEFECE" filter="url(#flyzvnh7w1h76)" rx="62.966" ry="14.9932" style="stroke: #A80036; stroke-width: 1.5;"/><text fill="#000000" font-family="sans-serif" font-size="14" lengthAdjust="spacingAndGlyphs" textLength="88" x="277.466" y="732.1416">Make Report</text><ellipse cx="321.6576" cy="794.4315" fill="#FEFECE" filter="url(#flyzvnh7w1h76)" rx="72.6576" ry="16.9315" style="stroke: #A80036; stroke-width: 1.5;"/><text fill="#000000" font-family="sans-serif" font-size="14" lengthAdjust="spacingAndGlyphs" textLength="113" x="265.1576" y="799.0799">Export transcript</text><ellipse cx="321.3489" cy="49.2698" fill="#FEFECE" filter="url(#flyzvnh7w1h76)" rx="71.8489" ry="16.7698" style="stroke: #A80036; stroke-width: 1.5;"/><text fill="#000000" font-family="sans-serif" font-size="14" lengthAdjust="spacingAndGlyphs" textLength="111" x="265.8489" y="53.9182">Maintain system</text><!--link Staff to Search--><path d="M65.01,735.77 C79.52,728.98 102.98,718.54 124,711.5 C178.24,693.34 242.91,678.47 282.84,670.05 " fill="none" id="Staff-Search" style="stroke: #A80036; stroke-width: 1.0;"/><polygon fill="#A80036" points="288.06,668.95,278.4302,666.8842,283.1666,669.9772,280.0737,674.7136,288.06,668.95" style="stroke: #A80036; stroke-width: 1.0;"/><!--link Staff to Export--><path d="M65.11,745.22 C100.77,752.1 196.18,770.51 259.74,782.78 " fill="none" id="Staff-Export" style="stroke: #A80036; stroke-width: 1.0;"/><polygon fill="#A80036" points="265.03,783.8,256.9607,778.1532,260.1222,782.8441,255.4313,786.0056,265.03,783.8" style="stroke: #A80036; stroke-width: 1.0;"/><!--link Staff to Report--><path d="M65.11,741.71 C99.82,739.78 191.14,734.7 254.61,731.17 " fill="none" id="Staff-Report" style="stroke: #A80036; stroke-width: 1.0;"/><polygon fill="#A80036" points="259.89,730.87,250.6864,727.3637,254.8974,731.141,251.1201,735.352,259.89,730.87" style="stroke: #A80036; stroke-width: 1.0;"/><!--link Staff to Authentication--><path d="M65.39,750.66 C94.53,766.99 162.83,804.25 223,829.5 C239.43,836.39 257.84,842.92 274.21,848.32 " fill="none" id="Staff-Authentication" style="stroke: #A80036; stroke-width: 1.0;"/><polygon fill="#A80036" points="279.22,849.96,271.8988,843.3721,274.4653,848.4133,269.4241,850.9797,279.22,849.96" style="stroke: #A80036; stroke-width: 1.0;"/><!--link Student to Search--><path d="M67.14,448.28 C79.86,478.05 99.52,518.03 124,548.5 C159.79,593.03 172.98,602.89 223,630.5 C241.96,640.97 264.9,648.71 283.76,653.95 " fill="none" id="Student-Search" style="stroke: #A80036; stroke-width: 1.0;"/><polygon fill="#A80036" points="288.97,655.37,281.3194,649.1678,284.1419,654.0701,279.2396,656.8927,288.97,655.37" style="stroke: #A80036; stroke-width: 1.0;"/><!--link Student to CreateP--><path d="M62.44,364.86 C73.95,327.93 94.27,273.75 124,233.5 C158.11,187.32 172.95,178.63 223,150.5 C237.82,142.17 255.1,135.47 270.95,130.34 " fill="none" id="Student-CreateP" style="stroke: #A80036; stroke-width: 1.0;"/><polygon fill="#A80036" points="275.82,128.8,266.0317,127.7099,271.0542,130.3125,268.4516,135.3351,275.82,128.8" style="stroke: #A80036; stroke-width: 1.0;"/><!--link Student to CreateT--><path d="M77.64,374.11 C90.63,359.61 107.08,343.01 124,330.5 C170.07,296.44 232.22,273.23 274.19,260.2 " fill="none" id="Student-CreateT" style="stroke: #A80036; stroke-width: 1.0;"/><polygon fill="#A80036" points="279.21,258.66,269.4341,257.4631,274.428,260.1204,271.7707,265.1142,279.21,258.66" style="stroke: #A80036; stroke-width: 1.0;"/><!--link Student to JoinP--><path d="M71.04,364.85 C84.04,340.4 102.52,309.82 124,286.5 C160.86,246.48 174.57,239.28 223,214.5 C239.39,206.12 258.42,199.29 275.31,194.12 " fill="none" id="Student-JoinP" style="stroke: #A80036; stroke-width: 1.0;"/><polygon fill="#A80036" points="280.47,192.58,270.6995,191.3402,275.6817,194.0194,273.0025,199.0015,280.47,192.58" style="stroke: #A80036; stroke-width: 1.0;"/><!--link Student to JoinT--><path d="M77.77,390.9 C91.32,383.44 108.2,374.79 124,368.5 C174.94,348.23 236,332.02 276.39,322.36 " fill="none" id="Student-JoinT" style="stroke: #A80036; stroke-width: 1.0;"/><polygon fill="#A80036" points="281.7,321.1,272.0192,319.2882,276.8354,322.2555,273.8681,327.0717,281.7,321.1" style="stroke: #A80036; stroke-width: 1.0;"/><!--link Student to Complete--><path d="M77.83,403.71 C118.02,399.54 195.18,391.52 251.74,385.64 " fill="none" id="Student-Complete" style="stroke: #A80036; stroke-width: 1.0;"/><polygon fill="#A80036" points="256.81,385.12,247.4375,382.094,251.838,385.6486,248.2833,390.0491,256.81,385.12" style="stroke: #A80036; stroke-width: 1.0;"/><!--link Student to Thread--><path d="M77.83,411.08 C114.71,417.38 182.74,428.99 237.4,438.32 " fill="none" id="Student-Thread" style="stroke: #A80036; stroke-width: 1.0;"/><polygon fill="#A80036" points="242.65,439.21,234.4531,433.7501,237.7215,438.3672,233.1045,441.6357,242.65,439.21" style="stroke: #A80036; stroke-width: 1.0;"/><!--link Student to Comment--><path d="M77.57,421.22 C110.92,439.36 170.15,470.47 223,492.5 C239.74,499.48 258.53,506.11 275.12,511.58 " fill="none" id="Student-Comment" style="stroke: #A80036; stroke-width: 1.0;"/><polygon fill="#A80036" points="280.19,513.23,272.8688,506.6421,275.4353,511.6833,270.3941,514.2497,280.19,513.23" style="stroke: #A80036; stroke-width: 1.0;"/><!--link Student to Notification--><path d="M77.8,438.19 C91.07,453.17 107.72,470.93 124,485.5 C164.73,521.96 174.88,532.55 223,558.5 C236.84,565.96 252.56,572.52 267.27,577.92 " fill="none" id="Student-Notification" style="stroke: #A80036; stroke-width: 1.0;"/><polygon fill="#A80036" points="272.21,579.7,265.1072,572.8773,267.5081,577.9993,262.3861,580.4003,272.21,579.7" style="stroke: #A80036; stroke-width: 1.0;"/><!--link Student to Authentication--><path d="M63.63,448.04 C77.2,491.53 100.08,561.58 124,620.5 C128.83,632.4 213.4,820.96 223,829.5 C234.15,839.43 248.41,846.39 262.56,851.27 " fill="none" id="Student-Authentication" style="stroke: #A80036; stroke-width: 1.0;"/><polygon fill="#A80036" points="267.35,852.84,260.0648,846.2124,262.6037,851.2674,257.5487,853.8064,267.35,852.84" style="stroke: #A80036; stroke-width: 1.0;"/><!--link Search to Lecturer--><path d="M361.1,655.34 C380.05,650.51 402.51,642.72 420,630.5 C437.64,618.18 434.19,607.09 450,592.5 C494.44,551.49 555.27,514.9 590.22,495.39 " fill="none" id="Search-Lecturer" style="stroke: #A80036; stroke-width: 1.0;"/><polygon fill="#A80036" points="355.85,656.62,365.5467,658.3446,360.7041,655.4208,363.6279,650.5781,355.85,656.62" style="stroke: #A80036; stroke-width: 1.0;"/><!--link CreateP to Lecturer--><path d="M373.89,129.98 C389.39,135.01 405.99,141.75 420,150.5 C473.04,183.64 484.03,198.65 519,250.5 C559.72,310.87 589.54,390.7 605.28,438.69 " fill="none" id="CreateP-Lecturer" style="stroke: #A80036; stroke-width: 1.0;"/><polygon fill="#A80036" points="369.12,128.47,376.5061,134.985,373.8899,129.9695,378.9053,127.3532,369.12,128.47" style="stroke: #A80036; stroke-width: 1.0;"/><!--link JoinP to Lecturer--><path d="M372.4,192.52 C388.59,197.37 405.98,204.41 420,214.5 C503.4,274.54 566.76,380.18 597.48,438.63 " fill="none" id="JoinP-Lecturer" style="stroke: #A80036; stroke-width: 1.0;"/><polygon fill="#A80036" points="367.42,191.08,374.9574,197.4193,372.2238,192.4668,377.1763,189.7332,367.42,191.08" style="stroke: #A80036; stroke-width: 1.0;"/><!--link Thread to Lecturer--><path d="M417.4,461.49 C477.48,467.19 551,474.15 590.22,477.87 " fill="none" id="Thread-Lecturer" style="stroke: #A80036; stroke-width: 1.0;"/><polygon fill="#A80036" points="412.36,461.01,420.9435,465.8395,417.3378,461.4807,421.6966,457.875,412.36,461.01" style="stroke: #A80036; stroke-width: 1.0;"/><!--link Comment to Lecturer--><path d="M383,516.29 C446.36,506.64 543.07,491.91 590.22,484.73 " fill="none" id="Comment-Lecturer" style="stroke: #A80036; stroke-width: 1.0;"/><polygon fill="#A80036" points="377.73,517.09,387.2319,519.6812,382.6724,516.3329,386.0206,511.7734,377.73,517.09" style="stroke: #A80036; stroke-width: 1.0;"/><!--link Authentication to Lecturer--><path d="M376.49,849.88 C391.35,844.94 406.95,838.3 420,829.5 C475.92,791.8 489.57,775.18 519,714.5 C549.43,651.76 518.54,623.23 549,560.5 C559.01,539.88 575.7,520.32 590.15,505.7 " fill="none" id="Authentication-Lecturer" style="stroke: #A80036; stroke-width: 1.0;"/><polygon fill="#A80036" points="371.48,851.49,381.2722,852.545,376.2403,849.9604,378.8249,844.9285,371.48,851.49" style="stroke: #A80036; stroke-width: 1.0;"/><!--link Lecturer to View--><path d="M647.63,475.85 C675.78,471.11 720.2,463.62 755.47,457.68 " fill="none" id="Lecturer-View" style="stroke: #A80036; stroke-width: 1.0;"/><polygon fill="#A80036" points="760.6,456.82,751.0626,454.363,755.6688,457.6466,752.3851,462.2529,760.6,456.82" style="stroke: #A80036; stroke-width: 1.0;"/><!--link Lecturer to Evaluate--><path d="M647.63,485.15 C678.72,490.39 729.66,498.97 766.2,505.12 " fill="none" id="Lecturer-Evaluate" style="stroke: #A80036; stroke-width: 1.0;"/><polygon fill="#A80036" points="771.48,506.01,763.2677,500.5733,766.5492,505.1811,761.9414,508.4625,771.48,506.01" style="stroke: #A80036; stroke-width: 1.0;"/><!--link Admin to Maintain--><path d="M71.7,49.5 C108.07,49.5 185.17,49.5 243.96,49.5 " fill="none" id="Admin-Maintain" style="stroke: #A80036; stroke-width: 1.0;"/><polygon fill="#A80036" points="249.23,49.5,240.23,45.5,244.23,49.5,240.23,53.5,249.23,49.5" style="stroke: #A80036; stroke-width: 1.0;"/><!--link Search to SearchS--><path d="M358.79,654.15 C411.43,642.04 509.12,619.55 568.38,605.92 " fill="none" id="Search-SearchS" style="stroke: #A80036; stroke-width: 1.0; stroke-dasharray: 7.0,7.0;"/><polygon fill="#A80036" points="353.84,655.29,363.5106,657.1555,358.711,654.1615,361.705,649.362,353.84,655.29" style="stroke: #A80036; stroke-width: 1.0;"/><text fill="#000000" font-family="sans-serif" font-size="13" lengthAdjust="spacingAndGlyphs" textLength="67" x="451" y="613.5669">«extends»</text><!--link Search to SearchL--><path d="M363.86,662.5 C411.91,662.5 491.93,662.5 549.35,662.5 " fill="none" id="Search-SearchL" style="stroke: #A80036; stroke-width: 1.0; stroke-dasharray: 7.0,7.0;"/><polygon fill="#A80036" points="358.73,662.5,367.73,666.5,363.73,662.5,367.73,658.5,358.73,662.5" style="stroke: #A80036; stroke-width: 1.0;"/><text fill="#000000" font-family="sans-serif" font-size="13" lengthAdjust="spacingAndGlyphs" textLength="67" x="451" y="658.5669">«extends»</text><!--link Search to SearchP--><path d="M358.84,670.86 C411.96,683.09 510.9,705.85 569.97,719.45 " fill="none" id="Search-SearchP" style="stroke: #A80036; stroke-width: 1.0; stroke-dasharray: 7.0,7.0;"/><polygon fill="#A80036" points="353.84,669.71,361.705,675.638,358.711,670.8385,363.5106,667.8445,353.84,669.71" style="stroke: #A80036; stroke-width: 1.0;"/><text fill="#000000" font-family="sans-serif" font-size="13" lengthAdjust="spacingAndGlyphs" textLength="67" x="451" y="687.5669">«extends»</text><!--link Register to Authentication--><path d="M91.88,859.08 C102.34,860.07 113.57,860.97 124,861.5 C165.24,863.58 211.42,863.91 248.64,863.69 " fill="none" id="Register-Authentication" style="stroke: #A80036; stroke-width: 1.0; stroke-dasharray: 7.0,7.0;"/><polygon fill="#A80036" points="254.06,863.65,245.0373,859.7015,249.0601,863.6786,245.083,867.7014,254.06,863.65" style="stroke: #A80036; stroke-width: 1.0;"/><text fill="#000000" font-family="sans-serif" font-size="13" lengthAdjust="spacingAndGlyphs" textLength="67" x="125" y="857.5669">«extends»</text><!--link Login to Authentication--><path d="M77.33,913.03 C120.59,904.04 207.63,885.95 264.97,874.04 " fill="none" id="Login-Authentication" style="stroke: #A80036; stroke-width: 1.0; stroke-dasharray: 7.0,7.0;"/><polygon fill="#A80036" points="270.08,872.98,260.456,870.8873,265.1838,873.9935,262.0776,878.7213,270.08,872.98" style="stroke: #A80036; stroke-width: 1.0;"/><text fill="#000000" font-family="sans-serif" font-size="13" lengthAdjust="spacingAndGlyphs" textLength="67" x="125" y="886.5669">«extends»</text><!--link Logout to Authentication--><path d="M77.73,972.78 C106.49,962.12 153.44,944.18 193,926.5 C225.99,911.75 262.8,893.02 288.35,879.64 " fill="none" id="Logout-Authentication" style="stroke: #A80036; stroke-width: 1.0; stroke-dasharray: 7.0,7.0;"/><polygon fill="#A80036" points="292.99,877.21,283.1609,877.8333,288.5586,879.5258,286.8661,884.9235,292.99,877.21" style="stroke: #A80036; stroke-width: 1.0;"/><text fill="#000000" font-family="sans-serif" font-size="13" lengthAdjust="spacingAndGlyphs" textLength="67" x="125" y="922.5669">«extends»</text><!--
@startuml
left to right direction
actor Student
actor Staff
actor Admin
actor Lecturer

usecase "Create project" as CreateP
usecase "Join project" as JoinP
usecase "Create tasks" as CreateT
usecase "Join tasks" as JoinT
usecase "Complete tasks" as Complete
usecase "View results" as View
usecase Evaluate
usecase "Create discussion thread" as Thread
usecase "Add comment" as Comment
usecase "Receive notification" as Notification

usecase Search
usecase "Search student" as SearchS
usecase "Search lecturer" as SearchL
usecase "Search project" as SearchP

usecase Authentication
usecase Register
usecase Login
usecase Logout

usecase "Make Report" as Report
usecase "Export transcript" as Export

usecase "Maintain system" as Maintain

Staff - -> Search
Staff - -> Export
Staff - -> Report
Staff - -> Authentication

Student - -> Search
Student - -> CreateP
Student - -> CreateT
Student - -> JoinP
Student - -> JoinT
Student - -> Complete
Student - -> Thread
Student - -> Comment
Student - -> Notification
Student - -> Authentication

Search <- - Lecturer
CreateP <- - Lecturer
JoinP <- - Lecturer
Thread <- - Lecturer
Comment <- - Lecturer
Authentication <- - Lecturer

Lecturer - -> View
Lecturer - -> Evaluate

Admin - -> Maintain

Search <.. SearchS: <<extends>>
Search <.. SearchL: <<extends>>
Search <.. SearchP: <<extends>>

Register ..> Authentication : <<extends>>
Login ..> Authentication : <<extends>>
Logout ..> Authentication : <<extends>>

@enduml

PlantUML version 1.2018.13(Mon Nov 26 17:11:51 UTC 2018)
(GPL source distribution)
Java Runtime: OpenJDK Runtime Environment
JVM: OpenJDK 64-Bit Server VM
Java Version: 11.0.9.1+1
Operating System: Linux
OS Version: 5.4.0-1031-azure
Default Encoding: UTF-8
Language: en
Country: null
--></g></svg>