<?xml version="1.0" encoding="UTF-8" standalone="no"?><svg xmlns="http://www.w3.org/2000/svg" xmlns:xlink="http://www.w3.org/1999/xlink" contentScriptType="application/ecmascript" contentStyleType="text/css" height="467px" preserveAspectRatio="none" style="width:827px;height:467px;" version="1.1" viewBox="0 0 827 467" width="827px" zoomAndPan="magnify"><defs><filter height="300%" id="fyv7fyyuxfpr3" width="300%" x="-1" y="-1"><feGaussianBlur result="blurOut" stdDeviation="2.0"/><feColorMatrix in="blurOut" result="blurOut2" type="matrix" values="0 0 0 0 0 0 0 0 0 0 0 0 0 0 0 0 0 0 .4 0"/><feOffset dx="4.0" dy="4.0" in="blurOut2" result="blurOut3"/><feBlend in="SourceGraphic" in2="blurOut3" mode="normal"/></filter></defs><g><rect fill="#FFFFFF" filter="url(#fyv7fyyuxfpr3)" height="29.1328" style="stroke: #A80036; stroke-width: 1.0;" width="10" x="302.5" y="263.0938"/><rect fill="#FFFFFF" filter="url(#fyv7fyyuxfpr3)" height="116.5313" style="stroke: #A80036; stroke-width: 1.0;" width="10" x="302.5" y="321.3594"/><rect fill="#FFFFFF" filter="url(#fyv7fyyuxfpr3)" height="329.4609" style="stroke: #A80036; stroke-width: 1.0;" width="10" x="467.5" y="117.4297"/><rect fill="#FFFFFF" filter="url(#fyv7fyyuxfpr3)" height="96.3984" style="stroke: #A80036; stroke-width: 1.0;" width="10" x="472.5" y="350.4922"/><rect fill="#FFFFFF" filter="url(#fyv7fyyuxfpr3)" height="29.1328" style="stroke: #A80036; stroke-width: 1.0;" width="10" x="651.5" y="146.5625"/><rect fill="#FFFFFF" filter="url(#fyv7fyyuxfpr3)" height="29.1328" style="stroke: #A80036; stroke-width: 1.0;" width="10" x="725.5" y="204.8281"/><rect fill="#FFFFFF" filter="url(#fyv7fyyuxfpr3)" height="29.1328" style="stroke: #A80036; stroke-width: 1.0;" width="10" x="786.5" y="379.625"/><line style="stroke: #A80036; stroke-width: 1.0; stroke-dasharray: 5.0,5.0;" x1="29" x2="29" y1="86.2969" y2="455.8906"/><line style="stroke: #A80036; stroke-width: 1.0; stroke-dasharray: 5.0,5.0;" x1="307.5" x2="307.5" y1="86.2969" y2="455.8906"/><line style="stroke: #A80036; stroke-width: 1.0; stroke-dasharray: 5.0,5.0;" x1="472.5" x2="472.5" y1="86.2969" y2="455.8906"/><line style="stroke: #A80036; stroke-width: 1.0; stroke-dasharray: 5.0,5.0;" x1="656" x2="656" y1="86.2969" y2="455.8906"/><line style="stroke: #A80036; stroke-width: 1.0; stroke-dasharray: 5.0,5.0;" x1="730" x2="730" y1="86.2969" y2="455.8906"/><line style="stroke: #A80036; stroke-width: 1.0; stroke-dasharray: 5.0,5.0;" x1="791" x2="791" y1="86.2969" y2="455.8906"/><text fill="#000000" font-family="sans-serif" font-size="14" lengthAdjust="spacingAndGlyphs" text-decoration="underline" textLength="37" x="8" y="82.9951">:User</text><line style="stroke: #000000; stroke-width: 1.0;" x1="8" x2="45" y1="84.9951" y2="84.9951"/><ellipse cx="29.5" cy="13" fill="#FEFECE" filter="url(#fyv7fyyuxfpr3)" rx="8" ry="8" style="stroke: #A80036; stroke-width: 2.0;"/><path d="M29.5,21 L29.5,48 M16.5,29 L42.5,29 M29.5,48 L16.5,63 M29.5,48 L42.5,63 " fill="none" filter="url(#fyv7fyyuxfpr3)" style="stroke: #A80036; stroke-width: 2.0;"/><text fill="#000000" font-family="sans-serif" font-size="14" lengthAdjust="spacingAndGlyphs" text-decoration="underline" textLength="142" x="233.5" y="82.9951">:Create Project Form</text><line style="stroke: #000000; stroke-width: 1.0;" x1="233.5" x2="375.5" y1="84.9951" y2="84.9951"/><path d="M287,42 L287,66 M287,54 L304,54 " fill="none" filter="url(#fyv7fyyuxfpr3)" style="stroke: #A80036; stroke-width: 2.0;"/><ellipse cx="316" cy="54" fill="#FEFECE" filter="url(#fyv7fyyuxfpr3)" rx="12" ry="12" style="stroke: #A80036; stroke-width: 2.0;"/><text fill="#000000" font-family="sans-serif" font-size="14" lengthAdjust="spacingAndGlyphs" text-decoration="underline" textLength="124" x="407.5" y="82.9951">:Project Controller</text><line style="stroke: #000000; stroke-width: 1.0;" x1="407.5" x2="531.5" y1="84.9951" y2="84.9951"/><ellipse cx="472.5" cy="54" fill="#FEFECE" filter="url(#fyv7fyyuxfpr3)" rx="12" ry="12" style="stroke: #A80036; stroke-width: 2.0;"/><polygon fill="#A80036" points="468.5,42,474.5,37,472.5,42,474.5,47,468.5,42" style="stroke: #A80036; stroke-width: 1.0;"/><text fill="#000000" font-family="sans-serif" font-size="14" lengthAdjust="spacingAndGlyphs" text-decoration="underline" textLength="79" x="614" y="82.9951">:quart_auth</text><line style="stroke: #000000; stroke-width: 1.0;" x1="614" x2="693" y1="84.9951" y2="84.9951"/><ellipse cx="656.5" cy="54" fill="#FEFECE" filter="url(#fyv7fyyuxfpr3)" rx="12" ry="12" style="stroke: #A80036; stroke-width: 2.0;"/><line style="stroke: #A80036; stroke-width: 2.0;" x1="644.5" x2="668.5" y1="68" y2="68"/><text fill="#000000" font-family="sans-serif" font-size="14" lengthAdjust="spacingAndGlyphs" text-decoration="underline" textLength="37" x="709" y="82.9951">:User</text><line style="stroke: #000000; stroke-width: 1.0;" x1="709" x2="746" y1="84.9951" y2="84.9951"/><ellipse cx="730.5" cy="54" fill="#FEFECE" filter="url(#fyv7fyyuxfpr3)" rx="12" ry="12" style="stroke: #A80036; stroke-width: 2.0;"/><line style="stroke: #A80036; stroke-width: 2.0;" x1="718.5" x2="742.5" y1="68" y2="68"/><text fill="#000000" font-family="sans-serif" font-size="14" lengthAdjust="spacingAndGlyphs" text-decoration="underline" textLength="53" x="762" y="82.9951">:Project</text><line style="stroke: #000000; stroke-width: 1.0;" x1="762" x2="815" y1="84.9951" y2="84.9951"/><ellipse cx="791.5" cy="54" fill="#FEFECE" filter="url(#fyv7fyyuxfpr3)" rx="12" ry="12" style="stroke: #A80036; stroke-width: 2.0;"/><line style="stroke: #A80036; stroke-width: 2.0;" x1="779.5" x2="803.5" y1="68" y2="68"/><rect fill="#FFFFFF" filter="url(#fyv7fyyuxfpr3)" height="29.1328" style="stroke: #A80036; stroke-width: 1.0;" width="10" x="302.5" y="263.0938"/><rect fill="#FFFFFF" filter="url(#fyv7fyyuxfpr3)" height="116.5313" style="stroke: #A80036; stroke-width: 1.0;" width="10" x="302.5" y="321.3594"/><rect fill="#FFFFFF" filter="url(#fyv7fyyuxfpr3)" height="329.4609" style="stroke: #A80036; stroke-width: 1.0;" width="10" x="467.5" y="117.4297"/><rect fill="#FFFFFF" filter="url(#fyv7fyyuxfpr3)" height="96.3984" style="stroke: #A80036; stroke-width: 1.0;" width="10" x="472.5" y="350.4922"/><rect fill="#FFFFFF" filter="url(#fyv7fyyuxfpr3)" height="29.1328" style="stroke: #A80036; stroke-width: 1.0;" width="10" x="651.5" y="146.5625"/><rect fill="#FFFFFF" filter="url(#fyv7fyyuxfpr3)" height="29.1328" style="stroke: #A80036; stroke-width: 1.0;" width="10" x="725.5" y="204.8281"/><rect fill="#FFFFFF" filter="url(#fyv7fyyuxfpr3)" height="29.1328" style="stroke: #A80036; stroke-width: 1.0;" width="10" x="786.5" y="379.625"/><polygon fill="#A80036" points="455.5,113.4297,465.5,117.4297,455.5,121.4297,459.5,117.4297" style="stroke: #A80036; stroke-width: 1.0;"/><line style="stroke: #A80036; stroke-width: 1.0;" x1="29.5" x2="461.5" y1="117.4297" y2="117.4297"/><text fill="#000000" font-family="sans-serif" font-size="13" lengthAdjust="spacingAndGlyphs" textLength="175" x="36.5" y="112.3638">// request creating project()</text><polygon fill="#A80036" points="639.5,142.5625,649.5,146.5625,639.5,150.5625,643.5,146.5625" style="stroke: #A80036; stroke-width: 1.0;"/><line style="stroke: #A80036; stroke-width: 1.0;" x1="477.5" x2="645.5" y1="146.5625" y2="146.5625"/><text fill="#000000" font-family="sans-serif" font-size="13" lengthAdjust="spacingAndGlyphs" textLength="155" x="484.5" y="141.4966">// check authentication()</text><polygon fill="#A80036" points="488.5,171.6953,478.5,175.6953,488.5,179.6953,484.5,175.6953" style="stroke: #A80036; stroke-width: 1.0;"/><line style="stroke: #A80036; stroke-width: 1.0; stroke-dasharray: 2.0,2.0;" x1="482.5" x2="655.5" y1="175.6953" y2="175.6953"/><text fill="#000000" font-family="sans-serif" font-size="13" lengthAdjust="spacingAndGlyphs" textLength="89" x="494.5" y="170.6294">authenticated</text><polygon fill="#A80036" points="713.5,200.8281,723.5,204.8281,713.5,208.8281,717.5,204.8281" style="stroke: #A80036; stroke-width: 1.0;"/><line style="stroke: #A80036; stroke-width: 1.0;" x1="477.5" x2="719.5" y1="204.8281" y2="204.8281"/><text fill="#000000" font-family="sans-serif" font-size="13" lengthAdjust="spacingAndGlyphs" textLength="129" x="484.5" y="199.7622">// check user's role()</text><polygon fill="#A80036" points="488.5,229.9609,478.5,233.9609,488.5,237.9609,484.5,233.9609" style="stroke: #A80036; stroke-width: 1.0;"/><line style="stroke: #A80036; stroke-width: 1.0; stroke-dasharray: 2.0,2.0;" x1="482.5" x2="729.5" y1="233.9609" y2="233.9609"/><text fill="#000000" font-family="sans-serif" font-size="13" lengthAdjust="spacingAndGlyphs" textLength="190" x="494.5" y="228.895">// new user is not an assistant</text><polygon fill="#A80036" points="323.5,259.0938,313.5,263.0938,323.5,267.0938,319.5,263.0938" style="stroke: #A80036; stroke-width: 1.0;"/><line style="stroke: #A80036; stroke-width: 1.0;" x1="317.5" x2="466.5" y1="263.0938" y2="263.0938"/><text fill="#000000" font-family="sans-serif" font-size="13" lengthAdjust="spacingAndGlyphs" textLength="136" x="329.5" y="258.0278">// send form to user()</text><polygon fill="#A80036" points="40.5,288.2266,30.5,292.2266,40.5,296.2266,36.5,292.2266" style="stroke: #A80036; stroke-width: 1.0;"/><line style="stroke: #A80036; stroke-width: 1.0; stroke-dasharray: 2.0,2.0;" x1="34.5" x2="306.5" y1="292.2266" y2="292.2266"/><text fill="#000000" font-family="sans-serif" font-size="13" lengthAdjust="spacingAndGlyphs" textLength="135" x="46.5" y="287.1606">// create project form</text><polygon fill="#A80036" points="290.5,317.3594,300.5,321.3594,290.5,325.3594,294.5,321.3594" style="stroke: #A80036; stroke-width: 1.0;"/><line style="stroke: #A80036; stroke-width: 1.0;" x1="29.5" x2="296.5" y1="321.3594" y2="321.3594"/><text fill="#000000" font-family="sans-serif" font-size="13" lengthAdjust="spacingAndGlyphs" textLength="254" x="36.5" y="316.2935">// enters project name and description()</text><polygon fill="#A80036" points="460.5,346.4922,470.5,350.4922,460.5,354.4922,464.5,350.4922" style="stroke: #A80036; stroke-width: 1.0;"/><line style="stroke: #A80036; stroke-width: 1.0;" x1="312.5" x2="466.5" y1="350.4922" y2="350.4922"/><text fill="#000000" font-family="sans-serif" font-size="13" lengthAdjust="spacingAndGlyphs" textLength="87" x="319.5" y="345.4263">// send form()</text><polygon fill="#A80036" points="774.5,375.625,784.5,379.625,774.5,383.625,778.5,379.625" style="stroke: #A80036; stroke-width: 1.0;"/><line style="stroke: #A80036; stroke-width: 1.0;" x1="482.5" x2="780.5" y1="379.625" y2="379.625"/><text fill="#000000" font-family="sans-serif" font-size="13" lengthAdjust="spacingAndGlyphs" textLength="131" x="489.5" y="374.5591">// update database()</text><polygon fill="#A80036" points="493.5,404.7578,483.5,408.7578,493.5,412.7578,489.5,408.7578" style="stroke: #A80036; stroke-width: 1.0;"/><line style="stroke: #A80036; stroke-width: 1.0; stroke-dasharray: 2.0,2.0;" x1="487.5" x2="790.5" y1="408.7578" y2="408.7578"/><text fill="#000000" font-family="sans-serif" font-size="13" lengthAdjust="spacingAndGlyphs" textLength="51" x="499.5" y="403.6919">// return</text><polygon fill="#A80036" points="40.5,433.8906,30.5,437.8906,40.5,441.8906,36.5,437.8906" style="stroke: #A80036; stroke-width: 1.0;"/><line style="stroke: #A80036; stroke-width: 1.0; stroke-dasharray: 2.0,2.0;" x1="34.5" x2="306.5" y1="437.8906" y2="437.8906"/><text fill="#000000" font-family="sans-serif" font-size="13" lengthAdjust="spacingAndGlyphs" textLength="63" x="46.5" y="432.8247">// success</text><!--
@startuml
hide footbox
autoactivate on
skinparam sequenceParticipant underline
actor ":User" as usr
boundary ":Create Project Form" as form
control ":Project Controller" as ctl
entity ":quart_auth" as quart
entity ":User" as db_usr
entity ":Project" as db_prj

usr -> ctl : // request creating project()
ctl -> quart : // check authentication()
ctl <- - quart : authenticated 
ctl -> db_usr : // check user's role()
ctl <- - db_usr : // new user is not an assistant
ctl -> form : // send form to user()
usr <- - form : // create project form
usr -> form : // enters project name and description()
form -> ctl : // send form()
ctl -> db_prj : // update database()
ctl <- - db_prj : // return
usr <- - form : // success
@enduml

PlantUML version 1.2018.13(Mon Nov 26 17:11:51 UTC 2018)
(GPL source distribution)
Java Runtime: OpenJDK Runtime Environment
JVM: OpenJDK 64-Bit Server VM
Java Version: 11.0.10+9
Operating System: Linux
OS Version: 5.4.0-1039-azure
Default Encoding: UTF-8
Language: en
Country: null
--></g></svg>