<?xml version="1.0" encoding="UTF-8" standalone="no"?><svg xmlns="http://www.w3.org/2000/svg" xmlns:xlink="http://www.w3.org/1999/xlink" contentScriptType="application/ecmascript" contentStyleType="text/css" height="430px" preserveAspectRatio="none" style="width:708px;height:430px;" version="1.1" viewBox="0 0 708 430" width="708px" zoomAndPan="magnify"><defs><filter height="300%" id="fqgn6hot2hm6d" width="300%" x="-1" y="-1"><feGaussianBlur result="blurOut" stdDeviation="2.0"/><feColorMatrix in="blurOut" result="blurOut2" type="matrix" values="0 0 0 0 0 0 0 0 0 0 0 0 0 0 0 0 0 0 .4 0"/><feOffset dx="4.0" dy="4.0" in="blurOut2" result="blurOut3"/><feBlend in="SourceGraphic" in2="blurOut3" mode="normal"/></filter></defs><g><ellipse cx="16" cy="187" fill="#000000" filter="url(#fqgn6hot2hm6d)" rx="10" ry="10" style="stroke: none; stroke-width: 1.0;"/><rect fill="#FEFECE" filter="url(#fqgn6hot2hm6d)" height="33.9688" rx="12.5" ry="12.5" style="stroke: #A80036; stroke-width: 1.5;" width="83" x="66" y="170"/><text fill="#000000" font-family="sans-serif" font-size="12" lengthAdjust="spacingAndGlyphs" textLength="63" x="76" y="191.1387">/p/&lt;uuid&gt;</text><rect fill="#FEFECE" filter="url(#fqgn6hot2hm6d)" height="33.9688" rx="12.5" ry="12.5" style="stroke: #A80036; stroke-width: 1.5;" width="110" x="189" y="170"/><text fill="#000000" font-family="sans-serif" font-size="12" lengthAdjust="spacingAndGlyphs" textLength="90" x="199" y="191.1387">/p/&lt;uuid&gt;/info</text><rect fill="#FEFECE" filter="url(#fqgn6hot2hm6d)" height="33.9688" rx="12.5" ry="12.5" style="stroke: #A80036; stroke-width: 1.5;" width="111" x="356" y="62"/><text fill="#000000" font-family="sans-serif" font-size="12" lengthAdjust="spacingAndGlyphs" textLength="91" x="366" y="83.1387">/p/&lt;uuid&gt;/edit</text><rect fill="#FEFECE" filter="url(#fqgn6hot2hm6d)" height="33.9688" rx="12.5" ry="12.5" style="stroke: #A80036; stroke-width: 1.5;" width="145" x="339" y="116"/><text fill="#000000" font-family="sans-serif" font-size="12" lengthAdjust="spacingAndGlyphs" textLength="125" x="349" y="137.1387">/p/&lt;uuid&gt;/members</text><rect fill="#FEFECE" filter="url(#fqgn6hot2hm6d)" height="33.9688" rx="12.5" ry="12.5" style="stroke: #A80036; stroke-width: 1.5;" width="121" x="351" y="170"/><text fill="#000000" font-family="sans-serif" font-size="12" lengthAdjust="spacingAndGlyphs" textLength="101" x="361" y="191.1387">/p/&lt;uuid&gt;/tasks</text><rect fill="#FEFECE" filter="url(#fqgn6hot2hm6d)" height="33.9688" rx="12.5" ry="12.5" style="stroke: #A80036; stroke-width: 1.5;" width="126" x="348.5" y="224"/><text fill="#000000" font-family="sans-serif" font-size="12" lengthAdjust="spacingAndGlyphs" textLength="106" x="358.5" y="245.1387">/p/&lt;uuid&gt;/report</text><rect fill="#FEFECE" filter="url(#fqgn6hot2hm6d)" height="33.9688" rx="12.5" ry="12.5" style="stroke: #A80036; stroke-width: 1.5;" width="123" x="350" y="305"/><text fill="#000000" font-family="sans-serif" font-size="12" lengthAdjust="spacingAndGlyphs" textLength="103" x="360" y="326.1387">/p/&lt;uuid&gt;/slides</text><rect fill="#FEFECE" filter="url(#fqgn6hot2hm6d)" height="33.9688" rx="12.5" ry="12.5" style="stroke: #A80036; stroke-width: 1.5;" width="119" x="551" y="8"/><text fill="#000000" font-family="sans-serif" font-size="12" lengthAdjust="spacingAndGlyphs" textLength="99" x="561" y="29.1387">/u/&lt;username&gt;</text><rect fill="#FEFECE" filter="url(#fqgn6hot2hm6d)" height="33.9688" rx="12.5" ry="12.5" style="stroke: #A80036; stroke-width: 1.5;" width="120" x="550.5" y="62"/><text fill="#000000" font-family="sans-serif" font-size="12" lengthAdjust="spacingAndGlyphs" textLength="100" x="560.5" y="83.1387">/p/&lt;uuid&gt;/invite</text><rect fill="#FEFECE" filter="url(#fqgn6hot2hm6d)" height="33.9688" rx="12.5" ry="12.5" style="stroke: #A80036; stroke-width: 1.5;" width="120" x="550.5" y="116"/><text fill="#000000" font-family="sans-serif" font-size="12" lengthAdjust="spacingAndGlyphs" textLength="100" x="560.5" y="137.1387">/p/&lt;uuid&gt;/leave</text><rect fill="#FEFECE" filter="url(#fqgn6hot2hm6d)" height="33.9688" rx="12.5" ry="12.5" style="stroke: #A80036; stroke-width: 1.5;" width="173" x="524" y="170"/><text fill="#000000" font-family="sans-serif" font-size="12" lengthAdjust="spacingAndGlyphs" textLength="153" x="534" y="191.1387">/p/&lt;uuid&gt;/report/upload</text><rect fill="#FEFECE" filter="url(#fqgn6hot2hm6d)" height="33.9688" rx="12.5" ry="12.5" style="stroke: #A80036; stroke-width: 1.5;" width="88" x="566.5" y="278"/><text fill="#000000" font-family="sans-serif" font-size="12" lengthAdjust="spacingAndGlyphs" textLength="68" x="576.5" y="299.1387">/ipfs/&lt;cid&gt;</text><rect fill="#FEFECE" filter="url(#fqgn6hot2hm6d)" height="33.9688" rx="12.5" ry="12.5" style="stroke: #A80036; stroke-width: 1.5;" width="155" x="533" y="224"/><text fill="#000000" font-family="sans-serif" font-size="12" lengthAdjust="spacingAndGlyphs" textLength="135" x="543" y="245.1387">/p/&lt;uuid&gt;/report/eval</text><rect fill="#FEFECE" filter="url(#fqgn6hot2hm6d)" height="33.9688" rx="12.5" ry="12.5" style="stroke: #A80036; stroke-width: 1.5;" width="170" x="525.5" y="332"/><text fill="#000000" font-family="sans-serif" font-size="12" lengthAdjust="spacingAndGlyphs" textLength="150" x="535.5" y="353.1387">/p/&lt;uuid&gt;/slides/upload</text><rect fill="#FEFECE" filter="url(#fqgn6hot2hm6d)" height="33.9688" rx="12.5" ry="12.5" style="stroke: #A80036; stroke-width: 1.5;" width="152" x="534.5" y="386"/><text fill="#000000" font-family="sans-serif" font-size="12" lengthAdjust="spacingAndGlyphs" textLength="132" x="544.5" y="407.1387">/p/&lt;uuid&gt;/slides/eval</text><!--link start to root--><path d="M26.24,187 C34.6,187 47.57,187 60.67,187 " fill="none" id="start-root" style="stroke: #A80036; stroke-width: 1.0;"/><polygon fill="#A80036" points="65.88,187,56.88,183,60.88,187,56.88,191,65.88,187" style="stroke: #A80036; stroke-width: 1.0;"/><!--link root to info--><path d="M149.22,187 C159.95,187 171.75,187 183.25,187 " fill="none" id="root-info" style="stroke: #A80036; stroke-width: 1.0;"/><polygon fill="#A80036" points="188.51,187,179.51,183,183.51,187,179.51,191,188.51,187" style="stroke: #A80036; stroke-width: 1.0;"/><!--link info to edit--><path d="M261.25,169.8 C278.96,151.87 308.81,123.94 339,106 C343.72,103.2 348.77,100.6 353.94,98.2 " fill="none" id="info-edit" style="stroke: #A80036; stroke-width: 1.0;"/><polygon fill="#A80036" points="358.71,96.07,348.8612,96.1015,354.1475,98.1153,352.1336,103.4015,358.71,96.07" style="stroke: #A80036; stroke-width: 1.0;"/><!--link info to members--><path d="M297.37,169.91 C315.11,164.12 335.02,157.63 353.13,151.72 " fill="none" id="info-members" style="stroke: #A80036; stroke-width: 1.0;"/><polygon fill="#A80036" points="358.19,150.07,348.395,149.0417,353.4339,151.6125,350.863,156.6514,358.19,150.07" style="stroke: #A80036; stroke-width: 1.0;"/><!--link info to tasks--><path d="M299.19,187 C314.01,187 330.23,187 345.58,187 " fill="none" id="info-tasks" style="stroke: #A80036; stroke-width: 1.0;"/><polygon fill="#A80036" points="350.75,187,341.75,183,345.75,187,341.75,191,350.75,187" style="stroke: #A80036; stroke-width: 1.0;"/><!--link info to report--><path d="M297.37,204.09 C315.11,209.88 335.02,216.37 353.13,222.28 " fill="none" id="info-report" style="stroke: #A80036; stroke-width: 1.0;"/><polygon fill="#A80036" points="358.19,223.93,350.863,217.3486,353.4339,222.3875,348.395,224.9583,358.19,223.93" style="stroke: #A80036; stroke-width: 1.0;"/><!--link info to slides--><path d="M264.13,204.12 C282.91,220.78 312.51,246.62 339,268 C353.26,279.51 369.54,291.86 382.96,301.84 " fill="none" id="info-slides" style="stroke: #A80036; stroke-width: 1.0;"/><polygon fill="#A80036" points="387.02,304.86,382.166,296.2904,383.0012,301.8852,377.4063,302.7205,387.02,304.86" style="stroke: #A80036; stroke-width: 1.0;"/><!--link members to /u/<username>--><path d="M467.71,115.91 C473.47,113.05 479.02,109.76 484,106 C507.83,87.99 499.68,69.34 524,52 C530.61,47.28 538.08,43.37 545.78,40.12 " fill="none" id="members-/u/&lt;username&gt;" style="stroke: #A80036; stroke-width: 1.0;"/><polygon fill="#A80036" points="550.6,38.19,540.7581,37.8186,545.9576,40.047,543.7293,45.2464,550.6,38.19" style="stroke: #A80036; stroke-width: 1.0;"/><!--link members to /p/<uuid>/invite--><path d="M474.56,115.99 C497.1,109.81 522.61,102.82 545.33,96.59 " fill="none" id="members-/p/&lt;uuid&gt;/invite" style="stroke: #A80036; stroke-width: 1.0;"/><polygon fill="#A80036" points="550.44,95.19,540.7013,93.7209,545.6192,96.5164,542.8236,101.4343,550.44,95.19" style="stroke: #A80036; stroke-width: 1.0;"/><!--link members to /p/<uuid>/leave--><path d="M484.18,133 C504.09,133 525.58,133 545.05,133 " fill="none" id="members-/p/&lt;uuid&gt;/leave" style="stroke: #A80036; stroke-width: 1.0;"/><polygon fill="#A80036" points="550.49,133,541.49,129,545.49,133,541.49,137,550.49,133" style="stroke: #A80036; stroke-width: 1.0;"/><!--link report to /p/<uuid>/report/upload--><path d="M474.56,223.99 C496.16,218.07 520.48,211.4 542.47,205.37 " fill="none" id="report-/p/&lt;uuid&gt;/report/upload" style="stroke: #A80036; stroke-width: 1.0;"/><polygon fill="#A80036" points="547.41,204.02,537.6754,202.5241,542.5855,205.3332,539.7765,210.2433,547.41,204.02" style="stroke: #A80036; stroke-width: 1.0;"/><!--link report to ipfs--><path d="M474.56,258.01 C502.58,265.69 535.18,274.63 561.32,281.79 " fill="none" id="report-ipfs" style="stroke: #A80036; stroke-width: 1.0;"/><polygon fill="#A80036" points="566.45,283.2,558.8165,276.9767,561.6255,281.8868,556.7154,284.6959,566.45,283.2" style="stroke: #A80036; stroke-width: 1.0;"/><!--link report to /p/<uuid>/report/eval--><path d="M474.56,241 C491.47,241 510.04,241 527.86,241 " fill="none" id="report-/p/&lt;uuid&gt;/report/eval" style="stroke: #A80036; stroke-width: 1.0;"/><polygon fill="#A80036" points="532.86,241,523.86,237,527.86,241,523.86,245,532.86,241" style="stroke: #A80036; stroke-width: 1.0;"/><!--link slides to /p/<uuid>/slides/upload--><path d="M473.21,330.32 C488.04,332.35 504.22,334.57 520.08,336.74 " fill="none" id="slides-/p/&lt;uuid&gt;/slides/upload" style="stroke: #A80036; stroke-width: 1.0;"/><polygon fill="#A80036" points="525.44,337.48,517.075,332.2812,520.4874,336.7929,515.9757,340.2053,525.44,337.48" style="stroke: #A80036; stroke-width: 1.0;"/><!--link slides to ipfs--><path d="M473.21,313.68 C501.51,309.8 534.72,305.25 561.26,301.61 " fill="none" id="slides-ipfs" style="stroke: #A80036; stroke-width: 1.0;"/><polygon fill="#A80036" points="566.48,300.9,557.0168,298.1709,561.5272,301.5851,558.113,306.0955,566.48,300.9" style="stroke: #A80036; stroke-width: 1.0;"/><!--link slides to /p/<uuid>/slides/eval--><path d="M444.63,339.1 C466.61,350.41 496.62,365.11 524,376 C531.31,378.91 539.06,381.72 546.8,384.35 " fill="none" id="slides-/p/&lt;uuid&gt;/slides/eval" style="stroke: #A80036; stroke-width: 1.0;"/><polygon fill="#A80036" points="551.61,385.98,544.3608,379.313,546.8723,384.3817,541.8036,386.8933,551.61,385.98" style="stroke: #A80036; stroke-width: 1.0;"/><!--
@startuml
left to right direction

(*) - -> "/p/<uuid>" as root
root - -> "/p/<uuid>/info" as info
info - -> "/p/<uuid>/edit" as edit
info - -> "/p/<uuid>/members" as members
info - -> "/p/<uuid>/tasks" as tasks
info - -> "/p/<uuid>/report" as report
info - -> "/p/<uuid>/slides" as slides

members - -> "/u/<username>"
members - -> "/p/<uuid>/invite"
members - -> "/p/<uuid>/leave"

report - -> "/p/<uuid>/report/upload"
report - -> "/ipfs/<cid>" as ipfs
report - -> "/p/<uuid>/report/eval"

slides - -> "/p/<uuid>/slides/upload"
slides - -> ipfs
slides - -> "/p/<uuid>/slides/eval"

@enduml

PlantUML version 1.2018.13(Mon Nov 26 17:11:51 UTC 2018)
(GPL source distribution)
Java Runtime: OpenJDK Runtime Environment
JVM: OpenJDK 64-Bit Server VM
Java Version: 11.0.10+9
Operating System: Linux
OS Version: 5.4.0-1036-azure
Default Encoding: UTF-8
Language: en
Country: null
--></g></svg>