<?xml version="1.0" encoding="UTF-8" standalone="no"?><svg xmlns="http://www.w3.org/2000/svg" xmlns:xlink="http://www.w3.org/1999/xlink" contentScriptType="application/ecmascript" contentStyleType="text/css" height="921px" preserveAspectRatio="none" style="width:883px;height:921px;" version="1.1" viewBox="0 0 883 921" width="883px" zoomAndPan="magnify"><defs><filter height="300%" id="f1meanqkm38rie" width="300%" x="-1" y="-1"><feGaussianBlur result="blurOut" stdDeviation="2.0"/><feColorMatrix in="blurOut" result="blurOut2" type="matrix" values="0 0 0 0 0 0 0 0 0 0 0 0 0 0 0 0 0 0 .4 0"/><feOffset dx="4.0" dy="4.0" in="blurOut2" result="blurOut3"/><feBlend in="SourceGraphic" in2="blurOut3" mode="normal"/></filter></defs><g><!--entity Student--><ellipse cx="50" cy="337.5" fill="#FEFECE" filter="url(#f1meanqkm38rie)" rx="8" ry="8" style="stroke: #A80036; stroke-width: 2.0;"/><path d="M50,345.5 L50,372.5 M37,353.5 L63,353.5 M50,372.5 L37,387.5 M50,372.5 L63,387.5 " fill="#FEFECE" filter="url(#f1meanqkm38rie)" style="stroke: #A80036; stroke-width: 2.0;"/><text fill="#000000" font-family="sans-serif" font-size="14" lengthAdjust="spacingAndGlyphs" textLength="55" x="22.5" y="407.4951">Student</text><!--entity Staff--><ellipse cx="50" cy="774.5" fill="#FEFECE" filter="url(#f1meanqkm38rie)" rx="8" ry="8" style="stroke: #A80036; stroke-width: 2.0;"/><path d="M50,782.5 L50,809.5 M37,790.5 L63,790.5 M50,809.5 L37,824.5 M50,809.5 L63,824.5 " fill="#FEFECE" filter="url(#f1meanqkm38rie)" style="stroke: #A80036; stroke-width: 2.0;"/><text fill="#000000" font-family="sans-serif" font-size="14" lengthAdjust="spacingAndGlyphs" textLength="30" x="35" y="844.4951">Staff</text><!--entity Admin--><ellipse cx="50" cy="18.5" fill="#FEFECE" filter="url(#f1meanqkm38rie)" rx="8" ry="8" style="stroke: #A80036; stroke-width: 2.0;"/><path d="M50,26.5 L50,53.5 M37,34.5 L63,34.5 M50,53.5 L37,68.5 M50,53.5 L63,68.5 " fill="#FEFECE" filter="url(#f1meanqkm38rie)" style="stroke: #A80036; stroke-width: 2.0;"/><text fill="#000000" font-family="sans-serif" font-size="14" lengthAdjust="spacingAndGlyphs" textLength="43" x="28.5" y="88.4951">Admin</text><!--entity Lecturer--><ellipse cx="619" cy="449.5" fill="#FEFECE" filter="url(#f1meanqkm38rie)" rx="8" ry="8" style="stroke: #A80036; stroke-width: 2.0;"/><path d="M619,457.5 L619,484.5 M606,465.5 L632,465.5 M619,484.5 L606,499.5 M619,484.5 L632,499.5 " fill="#FEFECE" filter="url(#f1meanqkm38rie)" style="stroke: #A80036; stroke-width: 2.0;"/><text fill="#000000" font-family="sans-serif" font-size="14" lengthAdjust="spacingAndGlyphs" textLength="57" x="590.5" y="519.4951">Lecturer</text><ellipse cx="321.7254" cy="525.2451" fill="#FEFECE" filter="url(#f1meanqkm38rie)" rx="66.7254" ry="15.7451" style="stroke: #A80036; stroke-width: 1.5;"/><text fill="#000000" font-family="sans-serif" font-size="14" lengthAdjust="spacingAndGlyphs" textLength="98" x="272.7254" y="529.8935">Create project</text><ellipse cx="321.7401" cy="460.0236" fill="#FEFECE" filter="url(#f1meanqkm38rie)" rx="56.7401" ry="14.5236" style="stroke: #A80036; stroke-width: 1.5;"/><text fill="#000000" font-family="sans-serif" font-size="14" lengthAdjust="spacingAndGlyphs" textLength="76" x="283.7401" y="464.6721">Join project</text><ellipse cx="321.6001" cy="116.92" fill="#FEFECE" filter="url(#f1meanqkm38rie)" rx="62.6001" ry="14.92" style="stroke: #A80036; stroke-width: 1.5;"/><text fill="#000000" font-family="sans-serif" font-size="14" lengthAdjust="spacingAndGlyphs" textLength="87" x="278.1001" y="121.5685">Create tasks</text><ellipse cx="321.4619" cy="182.0236" fill="#FEFECE" filter="url(#f1meanqkm38rie)" rx="48.9619" ry="14.5236" style="stroke: #A80036; stroke-width: 1.5;"/><text fill="#000000" font-family="sans-serif" font-size="14" lengthAdjust="spacingAndGlyphs" textLength="65" x="288.9619" y="186.6721">Join tasks</text><ellipse cx="321.6456" cy="328.0291" fill="#FEFECE" filter="url(#f1meanqkm38rie)" rx="70.6456" ry="16.5291" style="stroke: #A80036; stroke-width: 1.5;"/><text fill="#000000" font-family="sans-serif" font-size="14" lengthAdjust="spacingAndGlyphs" textLength="108" x="267.6456" y="332.6776">Complete tasks</text><ellipse cx="811.1565" cy="449.1313" fill="#FEFECE" filter="url(#f1meanqkm38rie)" rx="61.1565" ry="14.6313" style="stroke: #A80036; stroke-width: 1.5;"/><text fill="#000000" font-family="sans-serif" font-size="14" lengthAdjust="spacingAndGlyphs" textLength="83" x="769.6565" y="453.7797">View results</text><ellipse cx="811.0122" cy="513.0236" fill="#FEFECE" filter="url(#f1meanqkm38rie)" rx="44.0122" ry="14.5236" style="stroke: #A80036; stroke-width: 1.5;"/><text fill="#000000" font-family="sans-serif" font-size="14" lengthAdjust="spacingAndGlyphs" textLength="58" x="782.0122" y="517.6721">Evaluate</text><ellipse cx="321.6147" cy="254.1229" fill="#FEFECE" filter="url(#f1meanqkm38rie)" rx="98.6147" ry="22.1229" style="stroke: #A80036; stroke-width: 1.5;"/><text fill="#000000" font-family="sans-serif" font-size="14" lengthAdjust="spacingAndGlyphs" textLength="173" x="235.1147" y="258.7714">Create discussion thread</text><ellipse cx="321.3417" cy="395.1683" fill="#FEFECE" filter="url(#f1meanqkm38rie)" rx="66.3417" ry="15.6683" style="stroke: #A80036; stroke-width: 1.5;"/><text fill="#000000" font-family="sans-serif" font-size="14" lengthAdjust="spacingAndGlyphs" textLength="97" x="272.8417" y="399.8168">Add comment</text><ellipse cx="321.4411" cy="680.0236" fill="#FEFECE" filter="url(#f1meanqkm38rie)" rx="36.9411" ry="14.5236" style="stroke: #A80036; stroke-width: 1.5;"/><text fill="#000000" font-family="sans-serif" font-size="14" lengthAdjust="spacingAndGlyphs" textLength="48" x="297.4411" y="684.6721">Search</text><ellipse cx="618.85" cy="753.87" fill="#FEFECE" filter="url(#f1meanqkm38rie)" rx="69.85" ry="16.37" style="stroke: #A80036; stroke-width: 1.5;"/><text fill="#000000" font-family="sans-serif" font-size="14" lengthAdjust="spacingAndGlyphs" textLength="106" x="565.85" y="758.5184">Search student</text><ellipse cx="618.9543" cy="617.7909" fill="#FEFECE" filter="url(#f1meanqkm38rie)" rx="69.4543" ry="16.2909" style="stroke: #A80036; stroke-width: 1.5;"/><text fill="#000000" font-family="sans-serif" font-size="14" lengthAdjust="spacingAndGlyphs" textLength="105" x="566.4543" y="622.4393">Search lecturer</text><ellipse cx="618.9975" cy="685.8995" fill="#FEFECE" filter="url(#f1meanqkm38rie)" rx="67.4975" ry="15.8995" style="stroke: #A80036; stroke-width: 1.5;"/><text fill="#000000" font-family="sans-serif" font-size="14" lengthAdjust="spacingAndGlyphs" textLength="100" x="568.9975" y="690.5479">Search project</text><ellipse cx="321.4975" cy="597.8995" fill="#FEFECE" filter="url(#f1meanqkm38rie)" rx="67.4975" ry="15.8995" style="stroke: #A80036; stroke-width: 1.5;"/><text fill="#000000" font-family="sans-serif" font-size="14" lengthAdjust="spacingAndGlyphs" textLength="100" x="271.4975" y="602.5479">Authentication</text><ellipse cx="50.0122" cy="694.0236" fill="#FEFECE" filter="url(#f1meanqkm38rie)" rx="44.0122" ry="14.5236" style="stroke: #A80036; stroke-width: 1.5;"/><text fill="#000000" font-family="sans-serif" font-size="14" lengthAdjust="spacingAndGlyphs" textLength="58" x="21.0122" y="698.6721">Register</text><ellipse cx="50.163" cy="566.0236" fill="#FEFECE" filter="url(#f1meanqkm38rie)" rx="29.163" ry="14.5236" style="stroke: #A80036; stroke-width: 1.5;"/><text fill="#000000" font-family="sans-serif" font-size="14" lengthAdjust="spacingAndGlyphs" textLength="37" x="31.663" y="570.6721">Login</text><ellipse cx="49.9411" cy="630.0236" fill="#FEFECE" filter="url(#f1meanqkm38rie)" rx="36.9411" ry="14.5236" style="stroke: #A80036; stroke-width: 1.5;"/><text fill="#000000" font-family="sans-serif" font-size="14" lengthAdjust="spacingAndGlyphs" textLength="48" x="25.9411" y="634.6721">Logout</text><ellipse cx="321.466" cy="826.9932" fill="#FEFECE" filter="url(#f1meanqkm38rie)" rx="62.966" ry="14.9932" style="stroke: #A80036; stroke-width: 1.5;"/><text fill="#000000" font-family="sans-serif" font-size="14" lengthAdjust="spacingAndGlyphs" textLength="88" x="277.466" y="831.6416">Make Report</text><ellipse cx="321.6576" cy="893.9315" fill="#FEFECE" filter="url(#f1meanqkm38rie)" rx="72.6576" ry="16.9315" style="stroke: #A80036; stroke-width: 1.5;"/><text fill="#000000" font-family="sans-serif" font-size="14" lengthAdjust="spacingAndGlyphs" textLength="113" x="265.1576" y="898.5799">Export transcript</text><ellipse cx="321.3489" cy="49.7698" fill="#FEFECE" filter="url(#f1meanqkm38rie)" rx="71.8489" ry="16.7698" style="stroke: #A80036; stroke-width: 1.5;"/><text fill="#000000" font-family="sans-serif" font-size="14" lengthAdjust="spacingAndGlyphs" textLength="111" x="265.8489" y="54.4182">Maintain system</text><!--link Staff to Search--><path d="M65.1333,803.0857 C91.8136,797.6176 148.5955,784.4897 193,764 C233.7212,745.2099 276.4268,714.8305 300.9155,696.2147 " fill="none" id="Staff-Search" style="stroke: #A80036; stroke-width: 1.0;"/><polygon fill="#A80036" points="304.9788,693.1065,295.4001,695.3976,301.0075,696.1444,300.2607,701.7517,304.9788,693.1065" style="stroke: #A80036; stroke-width: 1.0;"/><!--link Staff to Export--><path d="M65.3749,810.9834 C104.9516,823.8112 211.6013,858.379 274.0945,878.6347 " fill="none" id="Staff-Export" style="stroke: #A80036; stroke-width: 1.0;"/><polygon fill="#A80036" points="278.8869,880.188,271.5588,873.6078,274.1305,878.6463,269.0921,881.218,278.8869,880.188" style="stroke: #A80036; stroke-width: 1.0;"/><!--link Staff to Report--><path d="M65.3749,807.1892 C101.3808,809.9742 192.9024,817.0532 256.1825,821.9478 " fill="none" id="Staff-Report" style="stroke: #A80036; stroke-width: 1.0;"/><polygon fill="#A80036" points="261.4506,822.3553,252.786,817.6729,256.4655,821.9696,252.1689,825.6491,261.4506,822.3553" style="stroke: #A80036; stroke-width: 1.0;"/><!--link Staff to Authentication--><path d="M65.0884,792.4016 C91.2321,768.8132 146.6056,718.7357 193,676 C206.4146,663.6432 208.0543,658.4531 223,648 C241.834,634.8275 264.6208,623.0304 283.532,614.2077 " fill="none" id="Staff-Authentication" style="stroke: #A80036; stroke-width: 1.0;"/><polygon fill="#A80036" points="288.2517,612.0298,278.4038,612.1689,283.7118,614.1248,281.7559,619.4328,288.2517,612.0298" style="stroke: #A80036; stroke-width: 1.0;"/><!--link Student to Search--><path d="M64.9575,410.7639 C77.3399,441.1034 97.2369,481.7934 124,511 C148.5721,537.8156 169.9235,526.887 193,555 C216.3028,583.3887 198.1148,604.9877 223,632 C239.825,650.2631 265.1018,662.3814 285.8368,669.873 " fill="none" id="Student-Search" style="stroke: #A80036; stroke-width: 1.0;"/><polygon fill="#A80036" points="290.7294,671.5864,283.5573,664.8366,286.0104,669.9338,280.9131,672.387,290.7294,671.5864" style="stroke: #A80036; stroke-width: 1.0;"/><!--link Student to CreateP--><path d="M77.5809,389.8796 C91.423,400.2611 108.5025,412.9243 124,424 C134.8572,431.7594 211.0575,486.0449 223,492 C238.6504,499.804 256.5771,506.4307 272.8101,511.6523 " fill="none" id="Student-CreateP" style="stroke: #A80036; stroke-width: 1.0;"/><polygon fill="#A80036" points="277.7892,513.2274,270.4149,506.699,273.0221,511.7193,268.0019,514.3265,277.7892,513.2274" style="stroke: #A80036; stroke-width: 1.0;"/><!--link Student to CreateT--><path d="M67.054,327.466 C80.0916,298.6284 99.8999,260.2814 124,231 C160.1279,187.1049 173.232,177.48 223,150 C238.4525,141.4677 256.4872,134.636 272.8709,129.4516 " fill="none" id="Student-CreateT" style="stroke: #A80036; stroke-width: 1.0;"/><polygon fill="#A80036" points="277.8978,127.8955,268.1174,126.7361,273.1215,129.3742,270.4833,134.3782,277.8978,127.8955" style="stroke: #A80036; stroke-width: 1.0;"/><!--link Student to JoinP--><path d="M77.5238,378.5247 C111.6209,390.2923 171.5145,410.8586 223,428 C242.0244,434.3339 263.1652,441.2218 280.9686,446.9791 " fill="none" id="Student-JoinP" style="stroke: #A80036; stroke-width: 1.0;"/><polygon fill="#A80036" points="285.8971,448.5715,278.563,441.998,281.1393,447.0341,276.1032,449.6104,285.8971,448.5715" style="stroke: #A80036; stroke-width: 1.0;"/><!--link Student to JoinT--><path d="M77.5525,332.3668 C90.7041,316.0488 107.2145,297.1404 124,282 C163.6375,246.2474 175.1215,237.6015 223,214 C240.6898,205.2799 261.3037,198.1576 279.0882,192.8649 " fill="none" id="Student-JoinT" style="stroke: #A80036; stroke-width: 1.0;"/><polygon fill="#A80036" points="284.0246,191.4208,274.2635,190.1087,279.2257,192.8247,276.5097,197.7868,284.0246,191.4208" style="stroke: #A80036; stroke-width: 1.0;"/><!--link Student to Complete--><path d="M77.6495,362.4236 C91.5085,359.2801 108.5825,355.6374 124,353 C166.221,345.7774 213.8508,339.6887 251.7568,335.3288 " fill="none" id="Student-Complete" style="stroke: #A80036; stroke-width: 1.0;"/><polygon fill="#A80036" points="256.8023,334.752,247.4062,331.8003,251.8347,335.32,248.315,339.7485,256.8023,334.752" style="stroke: #A80036; stroke-width: 1.0;"/><!--link Student to Thread--><path d="M77.5678,349.3104 C91.1203,340.2059 107.9561,329.7248 124,322 C165.9013,301.8253 215.3841,284.7991 254.3375,272.8297 " fill="none" id="Student-Thread" style="stroke: #A80036; stroke-width: 1.0;"/><polygon fill="#A80036" points="259.5189,271.2482,249.7432,270.0499,254.7367,272.7079,252.0787,277.7014,259.5189,271.2482" style="stroke: #A80036; stroke-width: 1.0;"/><!--link Student to Comment--><path d="M77.527,371.6361 C118.7483,375.5836 197.7494,383.1491 254.7034,388.6033 " fill="none" id="Student-Comment" style="stroke: #A80036; stroke-width: 1.0;"/><polygon fill="#A80036" points="259.7983,389.0912,251.2207,384.2513,254.8211,388.6145,250.4579,392.2149,259.7983,389.0912" style="stroke: #A80036; stroke-width: 1.0;"/><!--link Student to Authentication--><path d="M75.3464,410.6105 C88.3929,430.0156 105.4444,452.6069 124,470 C150.5361,494.8736 166.8893,488.6802 193,514 C209.9915,530.4768 204.5821,543.1347 223,558 C237.0573,569.3458 254.7636,577.8629 271.274,584.0559 " fill="none" id="Student-Authentication" style="stroke: #A80036; stroke-width: 1.0;"/><polygon fill="#A80036" points="276.3541,585.9038,269.2638,579.0681,271.6553,584.1945,266.5289,586.5861,276.3541,585.9038" style="stroke: #A80036; stroke-width: 1.0;"/><!--link Search to Lecturer--><path d="M351.5718,667.1971 C371.5044,658.2675 397.9467,645.5597 420,632 C484.0978,592.5888 552.7185,537.2403 590.2898,505.6596 " fill="none" id="Search-Lecturer" style="stroke: #A80036; stroke-width: 1.0;"/><polygon fill="#A80036" points="346.909,669.2704,356.7579,669.2685,351.4777,667.2388,353.5074,661.9587,346.909,669.2704" style="stroke: #A80036; stroke-width: 1.0;"/><!--link CreateP to Lecturer--><path d="M383.0843,515.8917 C446.5972,506.4982 542.8688,492.2597 590.3943,485.2308 " fill="none" id="CreateP-Lecturer" style="stroke: #A80036; stroke-width: 1.0;"/><polygon fill="#A80036" points="377.8072,516.6722,387.2956,519.3124,382.7534,515.9406,386.1251,511.3984,377.8072,516.6722" style="stroke: #A80036; stroke-width: 1.0;"/><!--link JoinP to Lecturer--><path d="M381.3384,464.2239 C444.8353,468.706 542.4771,475.5984 590.4281,478.9832 " fill="none" id="JoinP-Lecturer" style="stroke: #A80036; stroke-width: 1.0;"/><polygon fill="#A80036" points="376.0661,463.8517,384.762,468.4756,381.0537,464.2038,385.3255,460.4955,376.0661,463.8517" style="stroke: #A80036; stroke-width: 1.0;"/><!--link Thread to Lecturer--><path d="M381.5188,274.2572 C394.6592,279.8036 408.1676,286.4153 420,294 C488.2508,337.7498 554.113,406.4887 590.3254,447.3124 " fill="none" id="Thread-Lecturer" style="stroke: #A80036; stroke-width: 1.0;"/><polygon fill="#A80036" points="376.698,272.2621,383.4844,279.3997,381.318,274.1741,386.5436,272.0077,376.698,272.2621" style="stroke: #A80036; stroke-width: 1.0;"/><!--link Comment to Lecturer--><path d="M375.0368,407.0595 C414.9894,416.4197 470.7679,430.2514 519,445 C543.3505,452.446 570.507,462.3255 590.3683,469.8511 " fill="none" id="Comment-Lecturer" style="stroke: #A80036; stroke-width: 1.0;"/><polygon fill="#A80036" points="369.7532,405.8261,377.6081,411.7675,374.6223,406.9628,379.4269,403.977,369.7532,405.8261" style="stroke: #A80036; stroke-width: 1.0;"/><!--link Authentication to Lecturer--><path d="M361.5102,582.2649 C422.4336,558.3051 536.997,513.2499 590.3304,492.2751 " fill="none" id="Authentication-Lecturer" style="stroke: #A80036; stroke-width: 1.0;"/><polygon fill="#A80036" points="356.5019,584.2346,366.3414,584.663,361.155,582.4046,363.4134,577.2181,356.5019,584.2346" style="stroke: #A80036; stroke-width: 1.0;"/><!--link Lecturer to View--><path d="M647.7443,476.2093 C676.1613,471.4731 720.3786,464.1036 755.6316,458.2281 " fill="none" id="Lecturer-View" style="stroke: #A80036; stroke-width: 1.0;"/><polygon fill="#A80036" points="760.7649,457.3725,751.2297,454.9068,755.833,458.1946,752.5451,462.7979,760.7649,457.3725" style="stroke: #A80036; stroke-width: 1.0;"/><!--link Lecturer to Evaluate--><path d="M647.7443,485.7907 C679.1526,491.0254 729.8625,499.4771 766.4373,505.5729 " fill="none" id="Lecturer-Evaluate" style="stroke: #A80036; stroke-width: 1.0;"/><polygon fill="#A80036" points="771.727,506.4545,763.5072,501.0291,766.7951,505.6324,762.1918,508.9202,771.727,506.4545" style="stroke: #A80036; stroke-width: 1.0;"/><!--link Admin to Maintain--><path d="M71.759,50 C108.708,50 185.4193,50 244.1315,50 " fill="none" id="Admin-Maintain" style="stroke: #A80036; stroke-width: 1.0;"/><polygon fill="#A80036" points="249.3967,50,240.3967,46,244.3967,50,240.3967,54,249.3967,50" style="stroke: #A80036; stroke-width: 1.0;"/><!--link Search to SearchS--><path d="M357.8006,689.0294 C411.2586,702.3265 511.2442,727.1969 570.799,742.0105 " fill="none" id="Search-SearchS" style="stroke: #A80036; stroke-width: 1.0; stroke-dasharray: 7.0,7.0;"/><polygon fill="#A80036" points="352.7754,687.7794,360.5436,693.8337,357.6275,688.9864,362.4748,686.0703,352.7754,687.7794" style="stroke: #A80036; stroke-width: 1.0;"/><text fill="#000000" font-family="sans-serif" font-size="13" lengthAdjust="spacingAndGlyphs" textLength="67" x="451" y="708.0669">«extends»</text><!--link Search to SearchL--><path d="M359.1323,672.1573 C411.6285,661.2169 507.07,641.3266 566.5281,628.9353 " fill="none" id="Search-SearchL" style="stroke: #A80036; stroke-width: 1.0; stroke-dasharray: 7.0,7.0;"/><polygon fill="#A80036" points="354.1887,673.1876,363.8155,675.2672,359.0835,672.1675,362.1833,667.4355,354.1887,673.1876" style="stroke: #A80036; stroke-width: 1.0;"/><text fill="#000000" font-family="sans-serif" font-size="13" lengthAdjust="spacingAndGlyphs" textLength="67" x="451" y="635.0669">«extends»</text><!--link Search to SearchP--><path d="M363.8434,681.0481 C388.8979,681.6534 421.2562,682.4094 450,683 C483.4461,683.6873 520.6175,684.3574 551.5639,684.8893 " fill="none" id="Search-SearchP" style="stroke: #A80036; stroke-width: 1.0; stroke-dasharray: 7.0,7.0;"/><polygon fill="#A80036" points="358.6118,680.9213,367.5121,685.1384,363.6103,681.0426,367.7062,677.1408,358.6118,680.9213" style="stroke: #A80036; stroke-width: 1.0;"/><text fill="#000000" font-family="sans-serif" font-size="13" lengthAdjust="spacingAndGlyphs" textLength="67" x="451" y="679.0669">«extends»</text><!--link Register to Authentication--><path d="M81.0271,683.573 C110.0357,673.7759 154.5328,658.6238 193,645 C222.179,634.6658 254.9481,622.6741 280.0916,613.3901 " fill="none" id="Register-Authentication" style="stroke: #A80036; stroke-width: 1.0; stroke-dasharray: 7.0,7.0;"/><polygon fill="#A80036" points="285.0154,611.5707,275.1869,610.9384,280.3254,613.3038,277.9599,618.4424,285.0154,611.5707" style="stroke: #A80036; stroke-width: 1.0;"/><text fill="#000000" font-family="sans-serif" font-size="13" lengthAdjust="spacingAndGlyphs" textLength="67" x="125" y="641.0669">«extends»</text><!--link Login to Authentication--><path d="M78.2869,569.334 C120.0134,574.252 199.236,583.5895 255.9312,590.2718 " fill="none" id="Login-Authentication" style="stroke: #A80036; stroke-width: 1.0; stroke-dasharray: 7.0,7.0;"/><polygon fill="#A80036" points="261.0013,590.8694,252.5316,585.8431,256.0357,590.284,251.5949,593.7881,261.0013,590.8694" style="stroke: #A80036; stroke-width: 1.0;"/><text fill="#000000" font-family="sans-serif" font-size="13" lengthAdjust="spacingAndGlyphs" textLength="67" x="125" y="571.0669">«extends»</text><!--link Logout to Authentication--><path d="M85.4939,625.8166 C128.5903,620.7371 202.1455,612.0676 255.707,605.7546 " fill="none" id="Logout-Authentication" style="stroke: #A80036; stroke-width: 1.0; stroke-dasharray: 7.0,7.0;"/><polygon fill="#A80036" points="260.8262,605.1512,251.4198,602.2325,255.8606,605.7366,252.3564,610.1774,260.8262,605.1512" style="stroke: #A80036; stroke-width: 1.0;"/><text fill="#000000" font-family="sans-serif" font-size="13" lengthAdjust="spacingAndGlyphs" textLength="67" x="125" y="610.0669">«extends»</text><!--
@startuml
left to right direction
actor Student
actor Staff
actor Admin
actor Lecturer

usecase "Create project" as CreateP
usecase "Join project" as JoinP
usecase "Create tasks" as CreateT
usecase "Join tasks" as JoinT
usecase "Complete tasks" as Complete
usecase "View results" as View
usecase Evaluate
usecase "Create discussion thread" as Thread
usecase "Add comment" as Comment

usecase Search
usecase "Search student" as SearchS
usecase "Search lecturer" as SearchL
usecase "Search project" as SearchP

usecase Authentication
usecase Register
usecase Login
usecase Logout

usecase "Make Report" as Report
usecase "Export transcript" as Export

usecase "Maintain system" as Maintain

Staff - -> Search
Staff - -> Export
Staff - -> Report
Staff - -> Authentication

Student - -> Search
Student - -> CreateP
Student - -> CreateT
Student - -> JoinP
Student - -> JoinT
Student - -> Complete
Student - -> Thread
Student - -> Comment
Student - -> Authentication

Search <- - Lecturer
CreateP <- - Lecturer
JoinP <- - Lecturer
Thread <- - Lecturer
Comment <- - Lecturer
Authentication <- - Lecturer

Lecturer - -> View
Lecturer - -> Evaluate

Admin - -> Maintain

Search <.. SearchS: <<extends>>
Search <.. SearchL: <<extends>>
Search <.. SearchP: <<extends>>

Register ..> Authentication : <<extends>>
Login ..> Authentication : <<extends>>
Logout ..> Authentication : <<extends>>

@enduml

PlantUML version 1.2017.15(Mon Jul 03 16:45:34 UTC 2017)
(GPL source distribution)
Java Runtime: OpenJDK Runtime Environment
JVM: OpenJDK 64-Bit Server VM
Java Version: 1.8.0_272-b10
Operating System: Linux
OS Version: 5.4.0-1031-azure
Default Encoding: UTF-8
Language: en
Country: null
--></g></svg>