<?xml version="1.0" encoding="UTF-8" standalone="no"?><svg xmlns="http://www.w3.org/2000/svg" xmlns:xlink="http://www.w3.org/1999/xlink" contentScriptType="application/ecmascript" contentStyleType="text/css" height="277px" preserveAspectRatio="none" style="width:688px;height:277px;" version="1.1" viewBox="0 0 688 277" width="688px" zoomAndPan="magnify"><defs><filter height="300%" id="flpetnb6gkspt" width="300%" x="-1" y="-1"><feGaussianBlur result="blurOut" stdDeviation="2.0"/><feColorMatrix in="blurOut" result="blurOut2" type="matrix" values="0 0 0 0 0 0 0 0 0 0 0 0 0 0 0 0 0 0 .4 0"/><feOffset dx="4.0" dy="4.0" in="blurOut2" result="blurOut3"/><feBlend in="SourceGraphic" in2="blurOut3" mode="normal"/></filter></defs><g><rect fill="#FFFFFF" filter="url(#flpetnb6gkspt)" height="130.5313" style="stroke: #A80036; stroke-width: 1.0;" width="10" x="308.5" y="117.4297"/><rect fill="#FFFFFF" filter="url(#flpetnb6gkspt)" height="72.2656" style="stroke: #A80036; stroke-width: 1.0;" width="10" x="457" y="146.5625"/><rect fill="#FFFFFF" filter="url(#flpetnb6gkspt)" height="29.1328" style="stroke: #A80036; stroke-width: 1.0;" width="10" x="656" y="175.6953"/><line style="stroke: #A80036; stroke-width: 1.0; stroke-dasharray: 5.0,5.0;" x1="29" x2="29" y1="86.2969" y2="265.9609"/><line style="stroke: #A80036; stroke-width: 1.0; stroke-dasharray: 5.0,5.0;" x1="313" x2="313" y1="86.2969" y2="265.9609"/><line style="stroke: #A80036; stroke-width: 1.0; stroke-dasharray: 5.0,5.0;" x1="462" x2="462" y1="86.2969" y2="265.9609"/><line style="stroke: #A80036; stroke-width: 1.0; stroke-dasharray: 5.0,5.0;" x1="660.5" x2="660.5" y1="86.2969" y2="265.9609"/><text fill="#000000" font-family="sans-serif" font-size="14" lengthAdjust="spacingAndGlyphs" text-decoration="underline" textLength="37" x="8" y="82.9951">:User</text><line style="stroke: #000000; stroke-width: 1.0;" x1="8" x2="45" y1="84.9951" y2="84.9951"/><ellipse cx="29.5" cy="13" fill="#FEFECE" filter="url(#flpetnb6gkspt)" rx="8" ry="8" style="stroke: #A80036; stroke-width: 2.0;"/><path d="M29.5,21 L29.5,48 M16.5,29 L42.5,29 M29.5,48 L16.5,63 M29.5,48 L42.5,63 " fill="none" filter="url(#flpetnb6gkspt)" style="stroke: #A80036; stroke-width: 2.0;"/><text fill="#000000" font-family="sans-serif" font-size="14" lengthAdjust="spacingAndGlyphs" text-decoration="underline" textLength="141" x="240" y="82.9951">:Invite Member Form</text><line style="stroke: #000000; stroke-width: 1.0;" x1="240" x2="381" y1="84.9951" y2="84.9951"/><path d="M293,42 L293,66 M293,54 L310,54 " fill="none" filter="url(#flpetnb6gkspt)" style="stroke: #A80036; stroke-width: 2.0;"/><ellipse cx="322" cy="54" fill="#FEFECE" filter="url(#flpetnb6gkspt)" rx="12" ry="12" style="stroke: #A80036; stroke-width: 2.0;"/><text fill="#000000" font-family="sans-serif" font-size="14" lengthAdjust="spacingAndGlyphs" text-decoration="underline" textLength="124" x="397" y="82.9951">:Project Controller</text><line style="stroke: #000000; stroke-width: 1.0;" x1="397" x2="521" y1="84.9951" y2="84.9951"/><ellipse cx="462" cy="54" fill="#FEFECE" filter="url(#flpetnb6gkspt)" rx="12" ry="12" style="stroke: #A80036; stroke-width: 2.0;"/><polygon fill="#A80036" points="458,42,464,37,462,42,464,47,458,42" style="stroke: #A80036; stroke-width: 1.0;"/><text fill="#000000" font-family="sans-serif" font-size="14" lengthAdjust="spacingAndGlyphs" text-decoration="underline" textLength="37" x="639.5" y="82.9951">:User</text><line style="stroke: #000000; stroke-width: 1.0;" x1="639.5" x2="676.5" y1="84.9951" y2="84.9951"/><ellipse cx="661" cy="54" fill="#FEFECE" filter="url(#flpetnb6gkspt)" rx="12" ry="12" style="stroke: #A80036; stroke-width: 2.0;"/><line style="stroke: #A80036; stroke-width: 2.0;" x1="649" x2="673" y1="68" y2="68"/><rect fill="#FFFFFF" filter="url(#flpetnb6gkspt)" height="130.5313" style="stroke: #A80036; stroke-width: 1.0;" width="10" x="308.5" y="117.4297"/><rect fill="#FFFFFF" filter="url(#flpetnb6gkspt)" height="72.2656" style="stroke: #A80036; stroke-width: 1.0;" width="10" x="457" y="146.5625"/><rect fill="#FFFFFF" filter="url(#flpetnb6gkspt)" height="29.1328" style="stroke: #A80036; stroke-width: 1.0;" width="10" x="656" y="175.6953"/><polygon fill="#A80036" points="296.5,113.4297,306.5,117.4297,296.5,121.4297,300.5,117.4297" style="stroke: #A80036; stroke-width: 1.0;"/><line style="stroke: #A80036; stroke-width: 1.0;" x1="29.5" x2="302.5" y1="117.4297" y2="117.4297"/><text fill="#000000" font-family="sans-serif" font-size="13" lengthAdjust="spacingAndGlyphs" textLength="219" x="36.5" y="112.3638">// enters invited member's name()</text><polygon fill="#A80036" points="445,142.5625,455,146.5625,445,150.5625,449,146.5625" style="stroke: #A80036; stroke-width: 1.0;"/><line style="stroke: #A80036; stroke-width: 1.0;" x1="318.5" x2="451" y1="146.5625" y2="146.5625"/><text fill="#000000" font-family="sans-serif" font-size="13" lengthAdjust="spacingAndGlyphs" textLength="87" x="325.5" y="141.4966">// send form()</text><polygon fill="#A80036" points="644,171.6953,654,175.6953,644,179.6953,648,175.6953" style="stroke: #A80036; stroke-width: 1.0;"/><line style="stroke: #A80036; stroke-width: 1.0;" x1="467" x2="650" y1="175.6953" y2="175.6953"/><text fill="#000000" font-family="sans-serif" font-size="13" lengthAdjust="spacingAndGlyphs" textLength="158" x="474" y="170.6294">// check new user's role()</text><polygon fill="#A80036" points="478,200.8281,468,204.8281,478,208.8281,474,204.8281" style="stroke: #A80036; stroke-width: 1.0;"/><line style="stroke: #A80036; stroke-width: 1.0; stroke-dasharray: 2.0,2.0;" x1="472" x2="660" y1="204.8281" y2="204.8281"/><text fill="#000000" font-family="sans-serif" font-size="13" lengthAdjust="spacingAndGlyphs" textLength="165" x="484" y="199.7622">// new user is an assistant</text><polygon fill="#A80036" points="329.5,214.8281,319.5,218.8281,329.5,222.8281,325.5,218.8281" style="stroke: #A80036; stroke-width: 1.0;"/><line style="stroke: #A80036; stroke-width: 1.0; stroke-dasharray: 2.0,2.0;" x1="323.5" x2="461" y1="218.8281" y2="218.8281"/><polygon fill="#A80036" points="40.5,243.9609,30.5,247.9609,40.5,251.9609,36.5,247.9609" style="stroke: #A80036; stroke-width: 1.0;"/><line style="stroke: #A80036; stroke-width: 1.0; stroke-dasharray: 2.0,2.0;" x1="34.5" x2="312.5" y1="247.9609" y2="247.9609"/><text fill="#000000" font-family="sans-serif" font-size="13" lengthAdjust="spacingAndGlyphs" textLength="255" x="46.5" y="242.895">// inform that added user is an assistant</text><!--
@startuml
hide footbox
autoactivate on
skinparam sequenceParticipant underline
actor ":User" as usr
boundary ":Invite Member Form" as form
control ":Project Controller" as ctl
entity ":User" as db_usr

usr -> form : // enters invited member's name()
form -> ctl : // send form()
ctl -> db_usr : // check new user's role()
ctl <- - db_usr : // new user is an assistant
form <- - ctl
usr <- - form : // inform that added user is an assistant
@enduml

PlantUML version 1.2018.13(Mon Nov 26 17:11:51 UTC 2018)
(GPL source distribution)
Java Runtime: OpenJDK Runtime Environment
JVM: OpenJDK 64-Bit Server VM
Java Version: 11.0.10+9
Operating System: Linux
OS Version: 5.4.0-1039-azure
Default Encoding: UTF-8
Language: en
Country: null
--></g></svg>