<?xml version="1.0" encoding="UTF-8" standalone="no"?>
<svg xmlns="http://www.w3.org/2000/svg" xmlns:xlink="http://www.w3.org/1999/xlink" contentScriptType="application/ecmascript" contentStyleType="text/css" height="868px" preserveAspectRatio="none" style="width:947px;height:868px;" version="1.1" viewBox="0 0 947 868" width="947px" zoomAndPan="magnify"><defs/><g><rect fill="#CCFF02" height="20.2969" rx="2" ry="2" style="stroke:#CCFF02;stroke-width:1.0;" width="208" x="11.5" y="156"/><text fill="#000000" font-family="sans-serif" font-size="14" font-weight="bold" lengthAdjust="spacing" textLength="42" x="35" y="170.9951">table</text><text fill="#000000" font-family="sans-serif" font-size="14" font-weight="bold" lengthAdjust="spacing" textLength="67" x="107" y="170.9951">projects</text><line style="stroke:#A80036;stroke-width:1.0;" x1="102" x2="102" y1="156" y2="176.2969"/><line style="stroke:#A80036;stroke-width:1.0;" x1="10" x2="220" y1="176.2969" y2="176.2969"/><text fill="#000000" font-family="sans-serif" font-size="14" lengthAdjust="spacing" textLength="81" x="15.5" y="191.292">created_on</text><text fill="#000000" font-family="sans-serif" font-size="14" lengthAdjust="spacing" textLength="0" x="119" y="191.292"/><line style="stroke:#A80036;stroke-width:1.0;" x1="102" x2="102" y1="176.2969" y2="196.5938"/><line style="stroke:#A80036;stroke-width:1.0;" x1="10" x2="220" y1="196.5938" y2="196.5938"/><text fill="#000000" font-family="sans-serif" font-size="14" lengthAdjust="spacing" textLength="61" x="25.5" y="211.5889">deadline</text><text fill="#000000" font-family="sans-serif" font-size="14" lengthAdjust="spacing" textLength="0" x="119" y="211.5889"/><line style="stroke:#A80036;stroke-width:1.0;" x1="102" x2="102" y1="196.5938" y2="216.8906"/><line style="stroke:#A80036;stroke-width:1.0;" x1="10" x2="220" y1="216.8906" y2="216.8906"/><text fill="#000000" font-family="sans-serif" font-size="14" lengthAdjust="spacing" textLength="82" x="15" y="231.8857">description</text><text fill="#000000" font-family="sans-serif" font-size="14" lengthAdjust="spacing" textLength="108" x="107" y="231.8857">Lorem ipsum...</text><line style="stroke:#A80036;stroke-width:1.0;" x1="102" x2="102" y1="216.8906" y2="237.1875"/><line style="stroke:#A80036;stroke-width:1.0;" x1="10" x2="220" y1="237.1875" y2="237.1875"/><text fill="#000000" font-family="sans-serif" font-size="14" lengthAdjust="spacing" textLength="13" x="49.5" y="252.1826">id</text><text fill="#000000" font-family="sans-serif" font-size="14" lengthAdjust="spacing" textLength="82" x="107" y="252.1826">(project ID)</text><line style="stroke:#A80036;stroke-width:1.0;" x1="102" x2="102" y1="237.1875" y2="257.4844"/><line style="stroke:#A80036;stroke-width:1.0;" x1="10" x2="220" y1="257.4844" y2="257.4844"/><text fill="#000000" font-family="sans-serif" font-size="14" lengthAdjust="spacing" textLength="40" x="36" y="272.4795">name</text><text fill="#000000" font-family="sans-serif" font-size="14" lengthAdjust="spacing" textLength="107" x="107" y="272.4795">(project name)</text><line style="stroke:#A80036;stroke-width:1.0;" x1="102" x2="102" y1="257.4844" y2="277.7813"/><line style="stroke:#A80036;stroke-width:1.0;" x1="10" x2="220" y1="277.7813" y2="277.7813"/><text fill="#008000" font-family="sans-serif" font-size="14" lengthAdjust="spacing" textLength="47" x="32.5" y="292.7764">report</text><text fill="#000000" font-family="sans-serif" font-size="14" lengthAdjust="spacing" textLength="0" x="119" y="292.7764"/><line style="stroke:#A80036;stroke-width:1.0;" x1="102" x2="102" y1="277.7813" y2="298.0781"/><line style="stroke:#A80036;stroke-width:1.0;" x1="10" x2="220" y1="298.0781" y2="298.0781"/><text fill="#008000" font-family="sans-serif" font-size="14" lengthAdjust="spacing" textLength="40" x="36" y="313.0732">slides</text><text fill="#000000" font-family="sans-serif" font-size="14" lengthAdjust="spacing" textLength="0" x="119" y="313.0732"/><line style="stroke:#A80036;stroke-width:1.0;" x1="102" x2="102" y1="298.0781" y2="318.375"/><line style="stroke:#A80036;stroke-width:1.0;" x1="10" x2="220" y1="318.375" y2="318.375"/><text fill="#000000" font-family="sans-serif" font-size="14" lengthAdjust="spacing" textLength="63" x="24.5" y="333.3701">students</text><text fill="#000000" font-family="sans-serif" font-size="14" lengthAdjust="spacing" textLength="0" x="119" y="333.3701"/><line style="stroke:#A80036;stroke-width:1.0;" x1="102" x2="102" y1="318.375" y2="338.6719"/><line style="stroke:#A80036;stroke-width:1.0;" x1="10" x2="220" y1="338.6719" y2="338.6719"/><text fill="#000000" font-family="sans-serif" font-size="14" lengthAdjust="spacing" textLength="81" x="15.5" y="353.667">supervisors</text><text fill="#000000" font-family="sans-serif" font-size="14" lengthAdjust="spacing" textLength="0" x="119" y="353.667"/><line style="stroke:#A80036;stroke-width:1.0;" x1="102" x2="102" y1="338.6719" y2="358.9688"/><line style="stroke:#A80036;stroke-width:1.0;" x1="10" x2="220" y1="358.9688" y2="358.9688"/><text fill="#008000" font-family="sans-serif" font-size="14" lengthAdjust="spacing" textLength="38" x="37" y="373.9639">tasks</text><text fill="#000000" font-family="sans-serif" font-size="14" lengthAdjust="spacing" textLength="0" x="119" y="373.9639"/><line style="stroke:#A80036;stroke-width:1.0;" x1="102" x2="102" y1="358.9688" y2="379.2656"/><rect fill="none" height="223.2656" rx="5" ry="5" style="stroke:#A80036;stroke-width:1.5;" width="210" x="10" y="156"/><text fill="#000000" font-family="sans-serif" font-size="14" lengthAdjust="spacing" textLength="85" x="263" y="24.9951">$reql_type$</text><text fill="#000000" font-family="sans-serif" font-size="14" font-weight="bold" lengthAdjust="spacing" textLength="39" x="358.5" y="24.9951">TIME</text><line style="stroke:#A80036;stroke-width:1.0;" x1="353.5" x2="353.5" y1="10" y2="30.2969"/><line style="stroke:#A80036;stroke-width:1.0;" x1="257.5" x2="452.5" y1="30.2969" y2="30.2969"/><text fill="#000000" font-family="sans-serif" font-size="14" lengthAdjust="spacing" textLength="86" x="262.5" y="45.292">epoch_time</text><text fill="#000000" font-family="sans-serif" font-size="14" lengthAdjust="spacing" textLength="89" x="358.5" y="45.292">1604163600</text><line style="stroke:#A80036;stroke-width:1.0;" x1="353.5" x2="353.5" y1="30.2969" y2="50.5938"/><line style="stroke:#A80036;stroke-width:1.0;" x1="257.5" x2="452.5" y1="50.5938" y2="50.5938"/><text fill="#000000" font-family="sans-serif" font-size="14" lengthAdjust="spacing" textLength="69" x="271" y="65.5889">timezone</text><text fill="#000000" font-family="sans-serif" font-size="14" lengthAdjust="spacing" textLength="52" x="358.5" y="65.5889">+07:00</text><line style="stroke:#A80036;stroke-width:1.0;" x1="353.5" x2="353.5" y1="50.5938" y2="70.8906"/><rect fill="none" height="60.8906" rx="5" ry="5" style="stroke:#A80036;stroke-width:1.5;" width="195" x="257.5" y="10"/><text fill="#000000" font-family="sans-serif" font-size="14" lengthAdjust="spacing" textLength="85" x="262.5" y="103.9951">$reql_type$</text><text fill="#000000" font-family="sans-serif" font-size="14" font-weight="bold" lengthAdjust="spacing" textLength="39" x="358" y="103.9951">TIME</text><line style="stroke:#A80036;stroke-width:1.0;" x1="353" x2="353" y1="89" y2="109.2969"/><line style="stroke:#A80036;stroke-width:1.0;" x1="257" x2="453" y1="109.2969" y2="109.2969"/><text fill="#000000" font-family="sans-serif" font-size="14" lengthAdjust="spacing" textLength="86" x="262" y="124.292">epoch_time</text><text fill="#000000" font-family="sans-serif" font-size="14" lengthAdjust="spacing" textLength="90" x="358" y="124.292">1611075600</text><line style="stroke:#A80036;stroke-width:1.0;" x1="353" x2="353" y1="109.2969" y2="129.5938"/><line style="stroke:#A80036;stroke-width:1.0;" x1="257" x2="453" y1="129.5938" y2="129.5938"/><text fill="#000000" font-family="sans-serif" font-size="14" lengthAdjust="spacing" textLength="69" x="270.5" y="144.5889">timezone</text><text fill="#000000" font-family="sans-serif" font-size="14" lengthAdjust="spacing" textLength="52" x="358" y="144.5889">+07:00</text><line style="stroke:#A80036;stroke-width:1.0;" x1="353" x2="353" y1="129.5938" y2="149.8906"/><rect fill="none" height="60.8906" rx="5" ry="5" style="stroke:#A80036;stroke-width:1.5;" width="196" x="257" y="89"/><rect fill="#CCFF02" height="20.2969" rx="2" ry="2" style="stroke:#CCFF02;stroke-width:1.0;" width="153" x="279" y="168"/><text fill="#000000" font-family="sans-serif" font-size="14" font-weight="bold" lengthAdjust="spacing" textLength="49" x="293" y="182.9951">Entity</text><text fill="#000000" font-family="sans-serif" font-size="14" font-weight="bold" lengthAdjust="spacing" textLength="65" x="362.5" y="182.9951">Artifact</text><line style="stroke:#A80036;stroke-width:1.0;" x1="357.5" x2="357.5" y1="168" y2="188.2969"/><line style="stroke:#A80036;stroke-width:1.0;" x1="277.5" x2="432.5" y1="188.2969" y2="188.2969"/><text fill="#000000" font-family="sans-serif" font-size="14" lengthAdjust="spacing" textLength="70" x="282.5" y="203.292">comment</text><text fill="#000000" font-family="sans-serif" font-size="14" lengthAdjust="spacing" textLength="0" x="366.5" y="203.292"/><line style="stroke:#A80036;stroke-width:1.0;" x1="357.5" x2="357.5" y1="188.2969" y2="208.5938"/><line style="stroke:#A80036;stroke-width:1.0;" x1="277.5" x2="432.5" y1="208.5938" y2="208.5938"/><text fill="#000000" font-family="sans-serif" font-size="14" lengthAdjust="spacing" textLength="41" x="297" y="223.5889">grade</text><text fill="#000000" font-family="sans-serif" font-size="14" lengthAdjust="spacing" textLength="15" x="362.5" y="223.5889">-1</text><line style="stroke:#A80036;stroke-width:1.0;" x1="357.5" x2="357.5" y1="208.5938" y2="228.8906"/><line style="stroke:#A80036;stroke-width:1.0;" x1="277.5" x2="432.5" y1="228.8906" y2="228.8906"/><text fill="#000000" font-family="sans-serif" font-size="14" lengthAdjust="spacing" textLength="63" x="286" y="243.8857">revisions</text><text fill="#000000" font-family="sans-serif" font-size="14" lengthAdjust="spacing" textLength="7" x="362.5" y="243.8857">␀</text><line style="stroke:#A80036;stroke-width:1.0;" x1="357.5" x2="357.5" y1="228.8906" y2="249.1875"/><rect fill="none" height="81.1875" rx="5" ry="5" style="stroke:#A80036;stroke-width:1.5;" width="155" x="277.5" y="168"/><rect fill="#CCFF02" height="20.2969" rx="2" ry="2" style="stroke:#CCFF02;stroke-width:1.0;" width="153" x="279" y="267"/><text fill="#000000" font-family="sans-serif" font-size="14" font-weight="bold" lengthAdjust="spacing" textLength="49" x="293" y="281.9951">Entity</text><text fill="#000000" font-family="sans-serif" font-size="14" font-weight="bold" lengthAdjust="spacing" textLength="65" x="362.5" y="281.9951">Artifact</text><line style="stroke:#A80036;stroke-width:1.0;" x1="357.5" x2="357.5" y1="267" y2="287.2969"/><line style="stroke:#A80036;stroke-width:1.0;" x1="277.5" x2="432.5" y1="287.2969" y2="287.2969"/><text fill="#000000" font-family="sans-serif" font-size="14" lengthAdjust="spacing" textLength="70" x="282.5" y="302.292">comment</text><text fill="#000000" font-family="sans-serif" font-size="14" lengthAdjust="spacing" textLength="0" x="366.5" y="302.292"/><line style="stroke:#A80036;stroke-width:1.0;" x1="357.5" x2="357.5" y1="287.2969" y2="307.5938"/><line style="stroke:#A80036;stroke-width:1.0;" x1="277.5" x2="432.5" y1="307.5938" y2="307.5938"/><text fill="#000000" font-family="sans-serif" font-size="14" lengthAdjust="spacing" textLength="41" x="297" y="322.5889">grade</text><text fill="#000000" font-family="sans-serif" font-size="14" lengthAdjust="spacing" textLength="15" x="362.5" y="322.5889">-1</text><line style="stroke:#A80036;stroke-width:1.0;" x1="357.5" x2="357.5" y1="307.5938" y2="327.8906"/><line style="stroke:#A80036;stroke-width:1.0;" x1="277.5" x2="432.5" y1="327.8906" y2="327.8906"/><text fill="#000000" font-family="sans-serif" font-size="14" lengthAdjust="spacing" textLength="63" x="286" y="342.8857">revisions</text><text fill="#000000" font-family="sans-serif" font-size="14" lengthAdjust="spacing" textLength="7" x="362.5" y="342.8857">␀</text><line style="stroke:#A80036;stroke-width:1.0;" x1="357.5" x2="357.5" y1="327.8906" y2="348.1875"/><rect fill="none" height="81.1875" rx="5" ry="5" style="stroke:#A80036;stroke-width:1.5;" width="155" x="277.5" y="267"/><text fill="#000000" font-family="sans-serif" font-size="14" font-weight="bold" lengthAdjust="spacing" textLength="43" x="333.5" y="381.4951">array</text><line style="stroke:#A80036;stroke-width:1.0;" x1="318.5" x2="391.5" y1="386.7969" y2="386.7969"/><text fill="#000000" font-family="sans-serif" font-size="14" lengthAdjust="spacing" textLength="62" x="324" y="401.792">opheliad</text><line style="stroke:#A80036;stroke-width:1.0;" x1="318.5" x2="391.5" y1="407.0938" y2="407.0938"/><text fill="#000000" font-family="sans-serif" font-size="14" lengthAdjust="spacing" textLength="56" x="327" y="422.0889">jamesm</text><line style="stroke:#A80036;stroke-width:1.0;" x1="318.5" x2="391.5" y1="427.3906" y2="427.3906"/><text fill="#000000" font-family="sans-serif" font-size="14" lengthAdjust="spacing" textLength="63" x="323.5" y="442.3857">arabellaf</text><line style="stroke:#A80036;stroke-width:1.0;" x1="318.5" x2="391.5" y1="447.6875" y2="447.6875"/><text fill="#000000" font-family="sans-serif" font-size="14" lengthAdjust="spacing" textLength="56" x="327" y="462.6826">evelynd</text><line style="stroke:#A80036;stroke-width:1.0;" x1="318.5" x2="391.5" y1="467.9844" y2="467.9844"/><text fill="#000000" font-family="sans-serif" font-size="14" lengthAdjust="spacing" textLength="62" x="324" y="482.9795">audreym</text><rect fill="none" height="121.7813" rx="5" ry="5" style="stroke:#A80036;stroke-width:1.5;" width="73" x="318.5" y="366.5"/><text fill="#000000" font-family="sans-serif" font-size="14" lengthAdjust="spacing" textLength="47" x="331.5" y="521.4951">ronanf</text><rect fill="none" height="20.2969" rx="5" ry="5" style="stroke:#A80036;stroke-width:1.5;" width="57" x="326.5" y="506.5"/><text fill="#000000" font-family="sans-serif" font-size="14" font-weight="bold" lengthAdjust="spacing" textLength="43" x="333.5" y="559.9951">array</text><line style="stroke:#A80036;stroke-width:1.0;" x1="328.5" x2="381.5" y1="565.2969" y2="565.2969"/><text fill="#000000" font-family="sans-serif" font-size="14" lengthAdjust="spacing" textLength="0" x="361" y="580.292"/><line style="stroke:#A80036;stroke-width:1.0;" x1="328.5" x2="381.5" y1="585.5938" y2="585.5938"/><text fill="#000000" font-family="sans-serif" font-size="14" lengthAdjust="spacing" textLength="0" x="361" y="600.5889"/><line style="stroke:#A80036;stroke-width:1.0;" x1="328.5" x2="381.5" y1="605.8906" y2="605.8906"/><text fill="#000000" font-family="sans-serif" font-size="14" lengthAdjust="spacing" textLength="0" x="361" y="620.8857"/><rect fill="none" height="81.1875" rx="5" ry="5" style="stroke:#A80036;stroke-width:1.5;" width="53" x="328.5" y="545"/><rect fill="#CCFF02" height="20.2969" rx="2" ry="2" style="stroke:#CCFF02;stroke-width:1.0;" width="211" x="491.5" y="334.5"/><text fill="#000000" font-family="sans-serif" font-size="14" font-weight="bold" lengthAdjust="spacing" textLength="49" x="513" y="349.4951">Entity</text><text fill="#000000" font-family="sans-serif" font-size="14" font-weight="bold" lengthAdjust="spacing" textLength="39" x="590" y="349.4951">Task</text><line style="stroke:#A80036;stroke-width:1.0;" x1="585" x2="585" y1="334.5" y2="354.7969"/><line style="stroke:#A80036;stroke-width:1.0;" x1="490" x2="703" y1="354.7969" y2="354.7969"/><text fill="#000000" font-family="sans-serif" font-size="14" lengthAdjust="spacing" textLength="85" x="495" y="369.792">assigned_to</text><text fill="#000000" font-family="sans-serif" font-size="14" lengthAdjust="spacing" textLength="63" x="590" y="369.792">arabellaf</text><line style="stroke:#A80036;stroke-width:1.0;" x1="585" x2="585" y1="354.7969" y2="375.0938"/><line style="stroke:#A80036;stroke-width:1.0;" x1="490" x2="703" y1="375.0938" y2="375.0938"/><text fill="#000000" font-family="sans-serif" font-size="14" lengthAdjust="spacing" textLength="81" x="497" y="390.0889">created_on</text><text fill="#000000" font-family="sans-serif" font-size="14" lengthAdjust="spacing" textLength="0" x="602" y="390.0889"/><line style="stroke:#A80036;stroke-width:1.0;" x1="585" x2="585" y1="375.0938" y2="395.3906"/><line style="stroke:#A80036;stroke-width:1.0;" x1="490" x2="703" y1="395.3906" y2="395.3906"/><text fill="#000000" font-family="sans-serif" font-size="14" lengthAdjust="spacing" textLength="53" x="511" y="410.3857">creator</text><text fill="#000000" font-family="sans-serif" font-size="14" lengthAdjust="spacing" textLength="56" x="590" y="410.3857">jamesm</text><line style="stroke:#A80036;stroke-width:1.0;" x1="585" x2="585" y1="395.3906" y2="415.6875"/><line style="stroke:#A80036;stroke-width:1.0;" x1="490" x2="703" y1="415.6875" y2="415.6875"/><text fill="#000000" font-family="sans-serif" font-size="14" lengthAdjust="spacing" textLength="61" x="507" y="430.6826">deadline</text><text fill="#000000" font-family="sans-serif" font-size="14" lengthAdjust="spacing" textLength="0" x="602" y="430.6826"/><line style="stroke:#A80036;stroke-width:1.0;" x1="585" x2="585" y1="415.6875" y2="435.9844"/><line style="stroke:#A80036;stroke-width:1.0;" x1="490" x2="703" y1="435.9844" y2="435.9844"/><text fill="#000000" font-family="sans-serif" font-size="14" lengthAdjust="spacing" textLength="40" x="517.5" y="450.9795">name</text><text fill="#000000" font-family="sans-serif" font-size="14" lengthAdjust="spacing" textLength="85" x="590" y="450.9795">(task name)</text><line style="stroke:#A80036;stroke-width:1.0;" x1="585" x2="585" y1="435.9844" y2="456.2813"/><line style="stroke:#A80036;stroke-width:1.0;" x1="490" x2="703" y1="456.2813" y2="456.2813"/><text fill="#000000" font-family="sans-serif" font-size="14" lengthAdjust="spacing" textLength="82" x="496.5" y="471.2764">description</text><text fill="#000000" font-family="sans-serif" font-size="14" lengthAdjust="spacing" textLength="108" x="590" y="471.2764">Lorem ipsum...</text><line style="stroke:#A80036;stroke-width:1.0;" x1="585" x2="585" y1="456.2813" y2="476.5781"/><line style="stroke:#A80036;stroke-width:1.0;" x1="490" x2="703" y1="476.5781" y2="476.5781"/><text fill="#000000" font-family="sans-serif" font-size="14" lengthAdjust="spacing" textLength="44" x="515.5" y="491.5732">status</text><text fill="#000000" font-family="sans-serif" font-size="14" lengthAdjust="spacing" textLength="9" x="590" y="491.5732">0</text><line style="stroke:#A80036;stroke-width:1.0;" x1="585" x2="585" y1="476.5781" y2="496.875"/><rect fill="none" height="162.375" rx="5" ry="5" style="stroke:#A80036;stroke-width:1.5;" width="213" x="490" y="334.5"/><text fill="#000000" font-family="sans-serif" font-size="14" lengthAdjust="spacing" textLength="85" x="746.5" y="355.9951">$reql_type$</text><text fill="#000000" font-family="sans-serif" font-size="14" font-weight="bold" lengthAdjust="spacing" textLength="39" x="842" y="355.9951">TIME</text><line style="stroke:#A80036;stroke-width:1.0;" x1="837" x2="837" y1="341" y2="361.2969"/><line style="stroke:#A80036;stroke-width:1.0;" x1="741" x2="934" y1="361.2969" y2="361.2969"/><text fill="#000000" font-family="sans-serif" font-size="14" lengthAdjust="spacing" textLength="86" x="746" y="376.292">epoch_time</text><text fill="#000000" font-family="sans-serif" font-size="14" lengthAdjust="spacing" textLength="87" x="842" y="376.292">1607878800</text><line style="stroke:#A80036;stroke-width:1.0;" x1="837" x2="837" y1="361.2969" y2="381.5938"/><line style="stroke:#A80036;stroke-width:1.0;" x1="741" x2="934" y1="381.5938" y2="381.5938"/><text fill="#000000" font-family="sans-serif" font-size="14" lengthAdjust="spacing" textLength="69" x="754.5" y="396.5889">timezone</text><text fill="#000000" font-family="sans-serif" font-size="14" lengthAdjust="spacing" textLength="52" x="842" y="396.5889">+07:00</text><line style="stroke:#A80036;stroke-width:1.0;" x1="837" x2="837" y1="381.5938" y2="401.8906"/><rect fill="none" height="60.8906" rx="5" ry="5" style="stroke:#A80036;stroke-width:1.5;" width="193" x="741" y="341"/><text fill="#000000" font-family="sans-serif" font-size="14" lengthAdjust="spacing" textLength="85" x="747" y="434.9951">$reql_type$</text><text fill="#000000" font-family="sans-serif" font-size="14" font-weight="bold" lengthAdjust="spacing" textLength="39" x="842.5" y="434.9951">TIME</text><line style="stroke:#A80036;stroke-width:1.0;" x1="837.5" x2="837.5" y1="420" y2="440.2969"/><line style="stroke:#A80036;stroke-width:1.0;" x1="741.5" x2="933.5" y1="440.2969" y2="440.2969"/><text fill="#000000" font-family="sans-serif" font-size="14" lengthAdjust="spacing" textLength="86" x="746.5" y="455.292">epoch_time</text><text fill="#000000" font-family="sans-serif" font-size="14" lengthAdjust="spacing" textLength="86" x="842.5" y="455.292">1608742800</text><line style="stroke:#A80036;stroke-width:1.0;" x1="837.5" x2="837.5" y1="440.2969" y2="460.5938"/><line style="stroke:#A80036;stroke-width:1.0;" x1="741.5" x2="933.5" y1="460.5938" y2="460.5938"/><text fill="#000000" font-family="sans-serif" font-size="14" lengthAdjust="spacing" textLength="69" x="755" y="475.5889">timezone</text><text fill="#000000" font-family="sans-serif" font-size="14" lengthAdjust="spacing" textLength="52" x="842.5" y="475.5889">+07:00</text><line style="stroke:#A80036;stroke-width:1.0;" x1="837.5" x2="837.5" y1="460.5938" y2="480.8906"/><rect fill="none" height="60.8906" rx="5" ry="5" style="stroke:#A80036;stroke-width:1.5;" width="192" x="741.5" y="420"/><rect fill="#CCFF02" height="20.2969" rx="2" ry="2" style="stroke:#CCFF02;stroke-width:1.0;" width="211" x="491.5" y="514.5"/><text fill="#000000" font-family="sans-serif" font-size="14" font-weight="bold" lengthAdjust="spacing" textLength="49" x="513" y="529.4951">Entity</text><text fill="#000000" font-family="sans-serif" font-size="14" font-weight="bold" lengthAdjust="spacing" textLength="39" x="590" y="529.4951">Task</text><line style="stroke:#A80036;stroke-width:1.0;" x1="585" x2="585" y1="514.5" y2="534.7969"/><line style="stroke:#A80036;stroke-width:1.0;" x1="490" x2="703" y1="534.7969" y2="534.7969"/><text fill="#000000" font-family="sans-serif" font-size="14" lengthAdjust="spacing" textLength="85" x="495" y="549.792">assigned_to</text><text fill="#000000" font-family="sans-serif" font-size="14" lengthAdjust="spacing" textLength="62" x="590" y="549.792">opheliad</text><line style="stroke:#A80036;stroke-width:1.0;" x1="585" x2="585" y1="534.7969" y2="555.0938"/><line style="stroke:#A80036;stroke-width:1.0;" x1="490" x2="703" y1="555.0938" y2="555.0938"/><text fill="#000000" font-family="sans-serif" font-size="14" lengthAdjust="spacing" textLength="81" x="497" y="570.0889">created_on</text><text fill="#000000" font-family="sans-serif" font-size="14" lengthAdjust="spacing" textLength="0" x="602" y="570.0889"/><line style="stroke:#A80036;stroke-width:1.0;" x1="585" x2="585" y1="555.0938" y2="575.3906"/><line style="stroke:#A80036;stroke-width:1.0;" x1="490" x2="703" y1="575.3906" y2="575.3906"/><text fill="#000000" font-family="sans-serif" font-size="14" lengthAdjust="spacing" textLength="53" x="511" y="590.3857">creator</text><text fill="#000000" font-family="sans-serif" font-size="14" lengthAdjust="spacing" textLength="56" x="590" y="590.3857">evelynd</text><line style="stroke:#A80036;stroke-width:1.0;" x1="585" x2="585" y1="575.3906" y2="595.6875"/><line style="stroke:#A80036;stroke-width:1.0;" x1="490" x2="703" y1="595.6875" y2="595.6875"/><text fill="#000000" font-family="sans-serif" font-size="14" lengthAdjust="spacing" textLength="61" x="507" y="610.6826">deadline</text><text fill="#000000" font-family="sans-serif" font-size="14" lengthAdjust="spacing" textLength="0" x="602" y="610.6826"/><line style="stroke:#A80036;stroke-width:1.0;" x1="585" x2="585" y1="595.6875" y2="615.9844"/><line style="stroke:#A80036;stroke-width:1.0;" x1="490" x2="703" y1="615.9844" y2="615.9844"/><text fill="#000000" font-family="sans-serif" font-size="14" lengthAdjust="spacing" textLength="82" x="496.5" y="630.9795">description</text><text fill="#000000" font-family="sans-serif" font-size="14" lengthAdjust="spacing" textLength="108" x="590" y="630.9795">Lorem ipsum...</text><line style="stroke:#A80036;stroke-width:1.0;" x1="585" x2="585" y1="615.9844" y2="636.2813"/><line style="stroke:#A80036;stroke-width:1.0;" x1="490" x2="703" y1="636.2813" y2="636.2813"/><text fill="#000000" font-family="sans-serif" font-size="14" lengthAdjust="spacing" textLength="40" x="517.5" y="651.2764">name</text><text fill="#000000" font-family="sans-serif" font-size="14" lengthAdjust="spacing" textLength="85" x="590" y="651.2764">(task name)</text><line style="stroke:#A80036;stroke-width:1.0;" x1="585" x2="585" y1="636.2813" y2="656.5781"/><line style="stroke:#A80036;stroke-width:1.0;" x1="490" x2="703" y1="656.5781" y2="656.5781"/><text fill="#000000" font-family="sans-serif" font-size="14" lengthAdjust="spacing" textLength="44" x="515.5" y="671.5732">status</text><text fill="#000000" font-family="sans-serif" font-size="14" lengthAdjust="spacing" textLength="8" x="590" y="671.5732">2</text><line style="stroke:#A80036;stroke-width:1.0;" x1="585" x2="585" y1="656.5781" y2="676.875"/><rect fill="none" height="162.375" rx="5" ry="5" style="stroke:#A80036;stroke-width:1.5;" width="213" x="490" y="514.5"/><text fill="#000000" font-family="sans-serif" font-size="14" lengthAdjust="spacing" textLength="85" x="745.5" y="524.9951">$reql_type$</text><text fill="#000000" font-family="sans-serif" font-size="14" font-weight="bold" lengthAdjust="spacing" textLength="39" x="841" y="524.9951">TIME</text><line style="stroke:#A80036;stroke-width:1.0;" x1="836" x2="836" y1="510" y2="530.2969"/><line style="stroke:#A80036;stroke-width:1.0;" x1="740" x2="935" y1="530.2969" y2="530.2969"/><text fill="#000000" font-family="sans-serif" font-size="14" lengthAdjust="spacing" textLength="86" x="745" y="545.292">epoch_time</text><text fill="#000000" font-family="sans-serif" font-size="14" lengthAdjust="spacing" textLength="89" x="841" y="545.292">1606150800</text><line style="stroke:#A80036;stroke-width:1.0;" x1="836" x2="836" y1="530.2969" y2="550.5938"/><line style="stroke:#A80036;stroke-width:1.0;" x1="740" x2="935" y1="550.5938" y2="550.5938"/><text fill="#000000" font-family="sans-serif" font-size="14" lengthAdjust="spacing" textLength="69" x="753.5" y="565.5889">timezone</text><text fill="#000000" font-family="sans-serif" font-size="14" lengthAdjust="spacing" textLength="52" x="841" y="565.5889">+07:00</text><line style="stroke:#A80036;stroke-width:1.0;" x1="836" x2="836" y1="550.5938" y2="570.8906"/><rect fill="none" height="60.8906" rx="5" ry="5" style="stroke:#A80036;stroke-width:1.5;" width="195" x="740" y="510"/><text fill="#000000" font-family="sans-serif" font-size="14" lengthAdjust="spacing" textLength="85" x="746" y="603.9951">$reql_type$</text><text fill="#000000" font-family="sans-serif" font-size="14" font-weight="bold" lengthAdjust="spacing" textLength="39" x="841.5" y="603.9951">TIME</text><line style="stroke:#A80036;stroke-width:1.0;" x1="836.5" x2="836.5" y1="589" y2="609.2969"/><line style="stroke:#A80036;stroke-width:1.0;" x1="740.5" x2="934.5" y1="609.2969" y2="609.2969"/><text fill="#000000" font-family="sans-serif" font-size="14" lengthAdjust="spacing" textLength="86" x="745.5" y="624.292">epoch_time</text><text fill="#000000" font-family="sans-serif" font-size="14" lengthAdjust="spacing" textLength="88" x="841.5" y="624.292">1607014800</text><line style="stroke:#A80036;stroke-width:1.0;" x1="836.5" x2="836.5" y1="609.2969" y2="629.5938"/><line style="stroke:#A80036;stroke-width:1.0;" x1="740.5" x2="934.5" y1="629.5938" y2="629.5938"/><text fill="#000000" font-family="sans-serif" font-size="14" lengthAdjust="spacing" textLength="69" x="754" y="644.5889">timezone</text><text fill="#000000" font-family="sans-serif" font-size="14" lengthAdjust="spacing" textLength="52" x="841.5" y="644.5889">+07:00</text><line style="stroke:#A80036;stroke-width:1.0;" x1="836.5" x2="836.5" y1="629.5938" y2="649.8906"/><rect fill="none" height="60.8906" rx="5" ry="5" style="stroke:#A80036;stroke-width:1.5;" width="194" x="740.5" y="589"/><rect fill="#CCFF02" height="20.2969" rx="2" ry="2" style="stroke:#CCFF02;stroke-width:1.0;" width="211" x="491.5" y="694.5"/><text fill="#000000" font-family="sans-serif" font-size="14" font-weight="bold" lengthAdjust="spacing" textLength="49" x="513" y="709.4951">Entity</text><text fill="#000000" font-family="sans-serif" font-size="14" font-weight="bold" lengthAdjust="spacing" textLength="39" x="590" y="709.4951">Task</text><line style="stroke:#A80036;stroke-width:1.0;" x1="585" x2="585" y1="694.5" y2="714.7969"/><line style="stroke:#A80036;stroke-width:1.0;" x1="490" x2="703" y1="714.7969" y2="714.7969"/><text fill="#000000" font-family="sans-serif" font-size="14" lengthAdjust="spacing" textLength="85" x="495" y="729.792">assigned_to</text><text fill="#000000" font-family="sans-serif" font-size="14" lengthAdjust="spacing" textLength="63" x="590" y="729.792">arabellaf</text><line style="stroke:#A80036;stroke-width:1.0;" x1="585" x2="585" y1="714.7969" y2="735.0938"/><line style="stroke:#A80036;stroke-width:1.0;" x1="490" x2="703" y1="735.0938" y2="735.0938"/><text fill="#000000" font-family="sans-serif" font-size="14" lengthAdjust="spacing" textLength="81" x="497" y="750.0889">created_on</text><text fill="#000000" font-family="sans-serif" font-size="14" lengthAdjust="spacing" textLength="0" x="602" y="750.0889"/><line style="stroke:#A80036;stroke-width:1.0;" x1="585" x2="585" y1="735.0938" y2="755.3906"/><line style="stroke:#A80036;stroke-width:1.0;" x1="490" x2="703" y1="755.3906" y2="755.3906"/><text fill="#000000" font-family="sans-serif" font-size="14" lengthAdjust="spacing" textLength="53" x="511" y="770.3857">creator</text><text fill="#000000" font-family="sans-serif" font-size="14" lengthAdjust="spacing" textLength="56" x="590" y="770.3857">jamesm</text><line style="stroke:#A80036;stroke-width:1.0;" x1="585" x2="585" y1="755.3906" y2="775.6875"/><line style="stroke:#A80036;stroke-width:1.0;" x1="490" x2="703" y1="775.6875" y2="775.6875"/><text fill="#000000" font-family="sans-serif" font-size="14" lengthAdjust="spacing" textLength="61" x="507" y="790.6826">deadline</text><text fill="#000000" font-family="sans-serif" font-size="14" lengthAdjust="spacing" textLength="0" x="602" y="790.6826"/><line style="stroke:#A80036;stroke-width:1.0;" x1="585" x2="585" y1="775.6875" y2="795.9844"/><line style="stroke:#A80036;stroke-width:1.0;" x1="490" x2="703" y1="795.9844" y2="795.9844"/><text fill="#000000" font-family="sans-serif" font-size="14" lengthAdjust="spacing" textLength="40" x="517.5" y="810.9795">name</text><text fill="#000000" font-family="sans-serif" font-size="14" lengthAdjust="spacing" textLength="85" x="590" y="810.9795">(task name)</text><line style="stroke:#A80036;stroke-width:1.0;" x1="585" x2="585" y1="795.9844" y2="816.2813"/><line style="stroke:#A80036;stroke-width:1.0;" x1="490" x2="703" y1="816.2813" y2="816.2813"/><text fill="#000000" font-family="sans-serif" font-size="14" lengthAdjust="spacing" textLength="82" x="496.5" y="831.2764">description</text><text fill="#000000" font-family="sans-serif" font-size="14" lengthAdjust="spacing" textLength="108" x="590" y="831.2764">Lorem ipsum...</text><line style="stroke:#A80036;stroke-width:1.0;" x1="585" x2="585" y1="816.2813" y2="836.5781"/><line style="stroke:#A80036;stroke-width:1.0;" x1="490" x2="703" y1="836.5781" y2="836.5781"/><text fill="#000000" font-family="sans-serif" font-size="14" lengthAdjust="spacing" textLength="44" x="515.5" y="851.5732">status</text><text fill="#000000" font-family="sans-serif" font-size="14" lengthAdjust="spacing" textLength="8" x="590" y="851.5732">2</text><line style="stroke:#A80036;stroke-width:1.0;" x1="585" x2="585" y1="836.5781" y2="856.875"/><rect fill="none" height="162.375" rx="5" ry="5" style="stroke:#A80036;stroke-width:1.5;" width="213" x="490" y="694.5"/><text fill="#000000" font-family="sans-serif" font-size="14" lengthAdjust="spacing" textLength="85" x="745.5" y="709.9951">$reql_type$</text><text fill="#000000" font-family="sans-serif" font-size="14" font-weight="bold" lengthAdjust="spacing" textLength="39" x="841" y="709.9951">TIME</text><line style="stroke:#A80036;stroke-width:1.0;" x1="836" x2="836" y1="695" y2="715.2969"/><line style="stroke:#A80036;stroke-width:1.0;" x1="740" x2="935" y1="715.2969" y2="715.2969"/><text fill="#000000" font-family="sans-serif" font-size="14" lengthAdjust="spacing" textLength="86" x="745" y="730.292">epoch_time</text><text fill="#000000" font-family="sans-serif" font-size="14" lengthAdjust="spacing" textLength="89" x="841" y="730.292">1605978000</text><line style="stroke:#A80036;stroke-width:1.0;" x1="836" x2="836" y1="715.2969" y2="735.5938"/><line style="stroke:#A80036;stroke-width:1.0;" x1="740" x2="935" y1="735.5938" y2="735.5938"/><text fill="#000000" font-family="sans-serif" font-size="14" lengthAdjust="spacing" textLength="69" x="753.5" y="750.5889">timezone</text><text fill="#000000" font-family="sans-serif" font-size="14" lengthAdjust="spacing" textLength="52" x="841" y="750.5889">+07:00</text><line style="stroke:#A80036;stroke-width:1.0;" x1="836" x2="836" y1="735.5938" y2="755.8906"/><rect fill="none" height="60.8906" rx="5" ry="5" style="stroke:#A80036;stroke-width:1.5;" width="195" x="740" y="695"/><text fill="#000000" font-family="sans-serif" font-size="14" lengthAdjust="spacing" textLength="85" x="746.5" y="788.9951">$reql_type$</text><text fill="#000000" font-family="sans-serif" font-size="14" font-weight="bold" lengthAdjust="spacing" textLength="39" x="842" y="788.9951">TIME</text><line style="stroke:#A80036;stroke-width:1.0;" x1="837" x2="837" y1="774" y2="794.2969"/><line style="stroke:#A80036;stroke-width:1.0;" x1="741" x2="934" y1="794.2969" y2="794.2969"/><text fill="#000000" font-family="sans-serif" font-size="14" lengthAdjust="spacing" textLength="86" x="746" y="809.292">epoch_time</text><text fill="#000000" font-family="sans-serif" font-size="14" lengthAdjust="spacing" textLength="87" x="842" y="809.292">1606842000</text><line style="stroke:#A80036;stroke-width:1.0;" x1="837" x2="837" y1="794.2969" y2="814.5938"/><line style="stroke:#A80036;stroke-width:1.0;" x1="741" x2="934" y1="814.5938" y2="814.5938"/><text fill="#000000" font-family="sans-serif" font-size="14" lengthAdjust="spacing" textLength="69" x="754.5" y="829.5889">timezone</text><text fill="#000000" font-family="sans-serif" font-size="14" lengthAdjust="spacing" textLength="52" x="842" y="829.5889">+07:00</text><line style="stroke:#A80036;stroke-width:1.0;" x1="837" x2="837" y1="814.5938" y2="834.8906"/><rect fill="none" height="60.8906" rx="5" ry="5" style="stroke:#A80036;stroke-width:1.5;" width="193" x="741" y="774"/><path d="M208,185.5 L221,185.5 C270.754,185.5 222.7651,115.603 257,79.5 C258.1721,78.2639 259.3886,77.0661 260.6446,75.9054 " fill="none" style="stroke:#A80036;stroke-width:1.0;stroke-dasharray:3.0,3.0;"/><path d="M262.5865,78.2035 L262.3681,74.449 L258.7026,73.6073 L266.3899,71.0507 L262.5865,78.2035 " fill="#A80036" style="stroke:#A80036;stroke-width:1.0;"/><ellipse cx="208" cy="185.5" fill="#A80036" rx="3" ry="3" style="stroke:#A80036;stroke-width:1.0;"/><path d="M208,205.5 L221,205.5 C247.3125,205.5 236.0345,174.3995 257,158.5 C258.961,157.0128 260.9864,155.574 263.0638,154.1826 " fill="none" style="stroke:#A80036;stroke-width:1.0;stroke-dasharray:3.0,3.0;"/><path d="M264.677,156.7332 L264.9767,152.9728 L261.4507,151.6321 L269.4401,150.1499 L264.677,156.7332 " fill="#A80036" style="stroke:#A80036;stroke-width:1.0;"/><ellipse cx="208" cy="205.5" fill="#A80036" rx="3" ry="3" style="stroke:#A80036;stroke-width:1.0;"/><path d="M208,287.5 L221,287.5 C241.8273,287.5 239.5812,268.9177 257,257.5 C261.575,254.5012 266.3583,251.5555 271.2449,248.689 " fill="none" style="stroke:#A80036;stroke-width:1.0;stroke-dasharray:3.0,3.0;"/><path d="M272.7877,251.376 L273.2601,247.5319 L269.702,246.002 L277.9623,244.8319 L272.7877,251.376 " fill="#A80036" style="stroke:#A80036;stroke-width:1.0;"/><ellipse cx="208" cy="287.5" fill="#A80036" rx="3" ry="3" style="stroke:#A80036;stroke-width:1.0;"/><path d="M208,307.5 L221,307.5 C236.8347,307.5 253.7258,307.5 269.9817,307.5 " fill="none" style="stroke:#A80036;stroke-width:1.0;stroke-dasharray:3.0,3.0;"/><path d="M269.9817,310.6687 L272.3582,307.5 L269.9817,304.3313 L277.9034,307.5 L269.9817,310.6687 " fill="#A80036" style="stroke:#A80036;stroke-width:1.0;"/><ellipse cx="208" cy="307.5" fill="#A80036" rx="3" ry="3" style="stroke:#A80036;stroke-width:1.0;"/><path d="M208,328.5 L221,328.5 C241.5456,328.5 240.6489,345.0596 257,357.5 C275.0192,371.2095 295.3068,385.8917 312.691,398.2511 " fill="none" style="stroke:#A80036;stroke-width:1.0;stroke-dasharray:3.0,3.0;"/><path d="M310.9141,400.7567 L314.5701,399.5838 L314.4679,395.7456 L318.9548,402.6934 L310.9141,400.7567 " fill="#A80036" style="stroke:#A80036;stroke-width:1.0;"/><ellipse cx="208" cy="328.5" fill="#A80036" rx="3" ry="3" style="stroke:#A80036;stroke-width:1.0;"/><path d="M208,348.5 L221,348.5 C289.1277,348.5 207.7641,450.4128 257,497.5 C273.3562,513.1424 298.5653,517.7402 319.2524,518.5064 " fill="none" style="stroke:#A80036;stroke-width:1.0;stroke-dasharray:3.0,3.0;"/><path d="M319.204,521.5781 L321.5562,518.5427 L319.3008,515.4347 L326.9316,518.6275 L319.204,521.5781 " fill="#A80036" style="stroke:#A80036;stroke-width:1.0;"/><ellipse cx="208" cy="348.5" fill="#A80036" rx="3" ry="3" style="stroke:#A80036;stroke-width:1.0;"/><path d="M691,384.5 L704,384.5 C713.6136,384.5 723.5997,384.1594 733.5857,383.5885 " fill="none" style="stroke:#A80036;stroke-width:1.0;stroke-dasharray:3.0,3.0;"/><path d="M733.7776,386.6405 L735.8748,383.4445 L733.3938,380.5364 L741.2159,383.1088 L733.7776,386.6405 " fill="#A80036" style="stroke:#A80036;stroke-width:1.0;"/><ellipse cx="691" cy="384.5" fill="#A80036" rx="3" ry="3" style="stroke:#A80036;stroke-width:1.0;"/><path d="M691,425.5 L704,425.5 C713.8292,425.5 723.9978,426.1677 734.1323,427.2848 " fill="none" style="stroke:#A80036;stroke-width:1.0;stroke-dasharray:3.0,3.0;"/><path d="M733.757,430.3796 L736.4534,427.5663 L734.5076,424.1899 L741.8694,428.223 L733.757,430.3796 " fill="#A80036" style="stroke:#A80036;stroke-width:1.0;"/><ellipse cx="691" cy="425.5" fill="#A80036" rx="3" ry="3" style="stroke:#A80036;stroke-width:1.0;"/><path d="M370.5,574.5 L383.5,574.5 C419.3081,574.5 424.5164,555.8209 454,535.5 C455.4561,534.4964 472.5671,520.1079 494.4404,501.6194 " fill="none" style="stroke:#A80036;stroke-width:1.0;stroke-dasharray:3.0,3.0;"/><path d="M496.4596,504.0075 L496.2315,500.1049 L492.4212,499.2313 L500.4106,496.5713 L496.4596,504.0075 " fill="#A80036" style="stroke:#A80036;stroke-width:1.0;"/><ellipse cx="370.5" cy="574.5" fill="#A80036" rx="3" ry="3" style="stroke:#A80036;stroke-width:1.0;"/><path d="M691,564.5 L704,564.5 C713.3495,564.5 723.0109,563.9185 732.6604,562.9366 " fill="none" style="stroke:#A80036;stroke-width:1.0;stroke-dasharray:3.0,3.0;"/><path d="M733.0083,566.0286 L734.9794,562.6756 L732.3124,559.8446 L740.3904,562.0667 L733.0083,566.0286 " fill="#A80036" style="stroke:#A80036;stroke-width:1.0;"/><ellipse cx="691" cy="564.5" fill="#A80036" rx="3" ry="3" style="stroke:#A80036;stroke-width:1.0;"/><path d="M691,605.5 L704,605.5 C713.5284,605.5 723.4198,605.8598 733.3129,606.464 " fill="none" style="stroke:#A80036;stroke-width:1.0;stroke-dasharray:3.0,3.0;"/><path d="M733.1098,609.4879 L735.5808,606.6163 L733.516,603.4401 L740.8726,606.9718 L733.1098,609.4879 " fill="#A80036" style="stroke:#A80036;stroke-width:1.0;"/><ellipse cx="691" cy="605.5" fill="#A80036" rx="3" ry="3" style="stroke:#A80036;stroke-width:1.0;"/><path d="M370.5,595.5 L383.5,595.5 C415.6904,595.5 450.6237,595.5 482.6906,595.5 " fill="none" style="stroke:#A80036;stroke-width:1.0;stroke-dasharray:3.0,3.0;"/><path d="M482.6906,598.5616 L484.9868,595.5 L482.6906,592.4384 L490.3447,595.5 L482.6906,598.5616 " fill="#A80036" style="stroke:#A80036;stroke-width:1.0;"/><ellipse cx="370.5" cy="595.5" fill="#A80036" rx="3" ry="3" style="stroke:#A80036;stroke-width:1.0;"/><path d="M691,744.5 L704,744.5 C713.2943,744.5 722.9177,744.0397 732.5423,743.2623 " fill="none" style="stroke:#A80036;stroke-width:1.0;stroke-dasharray:3.0,3.0;"/><path d="M732.8178,746.3474 L734.8562,743.0557 L732.2669,740.1772 L740.2552,742.5736 L732.8178,746.3474 " fill="#A80036" style="stroke:#A80036;stroke-width:1.0;"/><ellipse cx="691" cy="744.5" fill="#A80036" rx="3" ry="3" style="stroke:#A80036;stroke-width:1.0;"/><path d="M691,785.5 L704,785.5 C713.6652,785.5 723.6861,785.9978 733.6943,786.8323 " fill="none" style="stroke:#A80036;stroke-width:1.0;stroke-dasharray:3.0,3.0;"/><path d="M733.4139,789.8902 L735.9878,787.0426 L733.9748,783.7743 L741.3391,787.5333 L733.4139,789.8902 " fill="#A80036" style="stroke:#A80036;stroke-width:1.0;"/><ellipse cx="691" cy="785.5" fill="#A80036" rx="3" ry="3" style="stroke:#A80036;stroke-width:1.0;"/><path d="M370.5,615.5 L383.5,615.5 C397.5333,615.5 446.1472,651.5711 493.3396,689.4594 " fill="none" style="stroke:#A80036;stroke-width:1.0;stroke-dasharray:3.0,3.0;"/><path d="M491.3921,691.8773 L495.1529,690.92 L495.2871,687.0416 L499.3842,694.3282 L491.3921,691.8773 " fill="#A80036" style="stroke:#A80036;stroke-width:1.0;"/><ellipse cx="370.5" cy="615.5" fill="#A80036" rx="3" ry="3" style="stroke:#A80036;stroke-width:1.0;"/><path d="M208,368.5 L221,368.5 C296.9272,368.5 210.7704,475.2691 257,535.5 C272.9559,556.2883 299.9725,569.182 321.5256,576.6579 " fill="none" style="stroke:#A80036;stroke-width:1.0;stroke-dasharray:3.0,3.0;"/><path d="M320.5567,579.6054 L323.7362,577.3846 L322.4946,573.7105 L328.8943,579.0803 L320.5567,579.6054 " fill="#A80036" style="stroke:#A80036;stroke-width:1.0;"/><ellipse cx="208" cy="368.5" fill="#A80036" rx="3" ry="3" style="stroke:#A80036;stroke-width:1.0;"/><!--MD5=[26587c2915d0ced010b16dd7696149dc]
@startjson
#highlight "**table**"
#highlight "<color:green>report" / "**Entity**"
#highlight "<color:green>slides" / "**Entity**"
#highlight "<color:green>tasks" / "1"/ "**Entity**"
#highlight "<color:green>tasks" / "2" / "**Entity**"
#highlight "<color:green>tasks" / "3" / "**Entity**"
#highlight "**Entity**"
  {
    "**table**": "**projects**",
    "created_on": {
      "$reql_type$": "**TIME**",
      "epoch_time": 1604163600,
      "timezone": "+07:00"
    },
    "deadline": {
      "$reql_type$": "**TIME**",
      "epoch_time": 1611075600,
      "timezone": "+07:00"
    },
    "description": "Lorem ipsum...",
    "id": "(project ID)",
    "name": "(project name)",
    "<color:green>report": {
      "**Entity**": "**Artifact**",
      "comment": "",
      "grade": -1,
      "revisions": null
    },
    "<color:green>slides": {
      "**Entity**": "**Artifact**",
      "comment": "",
      "grade": -1,
      "revisions": null
    },
    "students": [
      "**array**",
      "opheliad",
      "jamesm",
      "arabellaf",
      "evelynd",
      "audreym"
    ],
    "supervisors": [
      "ronanf"
    ],
    "<color:green>tasks": [
      "**array**",
      { 
        "**Entity**": "**Task**",
        "assigned_to": "arabellaf",
        "created_on": {
          "$reql_type$": "**TIME**",
          "epoch_time": 1607878800,
          "timezone": "+07:00"
        },
        "creator": "jamesm",
        "deadline": {
          "$reql_type$": "**TIME**",
          "epoch_time": 1608742800,
          "timezone": "+07:00"
        },
        "name": "(task name)",
        "description": "Lorem ipsum...",
        "status": 0
      },
      {
        "**Entity**": "**Task**",
        "assigned_to": "opheliad",
        "created_on": {
          "$reql_type$": "**TIME**",
          "epoch_time": 1606150800,
          "timezone": "+07:00"
        },
        "creator": "evelynd",
        "deadline": {
          "$reql_type$": "**TIME**",
          "epoch_time": 1607014800,
          "timezone": "+07:00"
        },
        "description": "Lorem ipsum...",
        "name": "(task name)",
        "status": 2
      },
      {
        "**Entity**": "**Task**",
        "assigned_to": "arabellaf",
        "created_on": {
          "$reql_type$": "**TIME**",
          "epoch_time": 1605978000,
          "timezone": "+07:00"
        },
        "creator": "jamesm",
        "deadline": {
          "$reql_type$": "**TIME**",
          "epoch_time": 1606842000,
          "timezone": "+07:00"
        },
        "name": "(task name)",
        "description": "Lorem ipsum...",
        "status": 2
      }
    ]
  }

@endjson

PlantUML version 1.2021.01beta3(Unknown compile time)
(GPL source distribution)
Java Runtime: Java(TM) SE Runtime Environment
JVM: Java HotSpot(TM) 64-Bit Server VM
Default Encoding: UTF-8
Language: en
Country: US
--></g></svg>