<?xml version="1.0" encoding="UTF-8" standalone="no"?><svg xmlns="http://www.w3.org/2000/svg" xmlns:xlink="http://www.w3.org/1999/xlink" contentScriptType="application/ecmascript" contentStyleType="text/css" height="452px" preserveAspectRatio="none" style="width:486px;height:452px;" version="1.1" viewBox="0 0 486 452" width="486px" zoomAndPan="magnify"><defs><filter height="300%" id="f1q1aib6lj5s8r" width="300%" x="-1" y="-1"><feGaussianBlur result="blurOut" stdDeviation="2.0"/><feColorMatrix in="blurOut" result="blurOut2" type="matrix" values="0 0 0 0 0 0 0 0 0 0 0 0 0 0 0 0 0 0 .4 0"/><feOffset dx="4.0" dy="4.0" in="blurOut2" result="blurOut3"/><feBlend in="SourceGraphic" in2="blurOut3" mode="normal"/></filter></defs><g><!--class User--><rect fill="#FEFECE" filter="url(#f1q1aib6lj5s8r)" height="48" id="User" style="stroke: #A80036; stroke-width: 1.5;" width="61" x="238.5" y="8"/><ellipse cx="253.5" cy="24" fill="#ADD1B2" rx="11" ry="11" style="stroke: #A80036; stroke-width: 1.0;"/><path d="M257.6094,30 L249.8906,30 L249.8906,17.6094 L257.6094,17.6094 L257.6094,19.7656 L252.3438,19.7656 L252.3438,22.4375 L257.1094,22.4375 L257.1094,24.5938 L252.3438,24.5938 L252.3438,27.8438 L257.6094,27.8438 L257.6094,30 Z "/><text fill="#000000" font-family="sans-serif" font-size="12" lengthAdjust="spacingAndGlyphs" textLength="29" x="267.5" y="28.1543">User</text><line style="stroke: #A80036; stroke-width: 1.5;" x1="239.5" x2="298.5" y1="40" y2="40"/><line style="stroke: #A80036; stroke-width: 1.5;" x1="239.5" x2="298.5" y1="48" y2="48"/><!--class Report--><rect fill="#FEFECE" filter="url(#f1q1aib6lj5s8r)" height="48" id="Report" style="stroke: #A80036; stroke-width: 1.5;" width="74" x="6" y="285"/><ellipse cx="21" cy="301" fill="#ADD1B2" rx="11" ry="11" style="stroke: #A80036; stroke-width: 1.0;"/><path d="M25.1094,307 L17.3906,307 L17.3906,294.6094 L25.1094,294.6094 L25.1094,296.7656 L19.8438,296.7656 L19.8438,299.4375 L24.6094,299.4375 L24.6094,301.5938 L19.8438,301.5938 L19.8438,304.8438 L25.1094,304.8438 L25.1094,307 Z "/><text fill="#000000" font-family="sans-serif" font-size="12" lengthAdjust="spacingAndGlyphs" textLength="42" x="35" y="305.1543">Report</text><line style="stroke: #A80036; stroke-width: 1.5;" x1="7" x2="79" y1="317" y2="317"/><line style="stroke: #A80036; stroke-width: 1.5;" x1="7" x2="79" y1="325" y2="325"/><!--class Slide--><rect fill="#FEFECE" filter="url(#f1q1aib6lj5s8r)" height="48" id="Slide" style="stroke: #A80036; stroke-width: 1.5;" width="62" x="160" y="285"/><ellipse cx="175" cy="301" fill="#ADD1B2" rx="11" ry="11" style="stroke: #A80036; stroke-width: 1.0;"/><path d="M179.1094,307 L171.3906,307 L171.3906,294.6094 L179.1094,294.6094 L179.1094,296.7656 L173.8438,296.7656 L173.8438,299.4375 L178.6094,299.4375 L178.6094,301.5938 L173.8438,301.5938 L173.8438,304.8438 L179.1094,304.8438 L179.1094,307 Z "/><text fill="#000000" font-family="sans-serif" font-size="12" lengthAdjust="spacingAndGlyphs" textLength="30" x="189" y="305.1543">Slide</text><line style="stroke: #A80036; stroke-width: 1.5;" x1="161" x2="221" y1="317" y2="317"/><line style="stroke: #A80036; stroke-width: 1.5;" x1="161" x2="221" y1="325" y2="325"/><!--class Project--><rect fill="#FEFECE" filter="url(#f1q1aib6lj5s8r)" height="48" id="Project" style="stroke: #A80036; stroke-width: 1.5;" width="76" x="152" y="177"/><ellipse cx="167" cy="193" fill="#ADD1B2" rx="11" ry="11" style="stroke: #A80036; stroke-width: 1.0;"/><path d="M171.1094,199 L163.3906,199 L163.3906,186.6094 L171.1094,186.6094 L171.1094,188.7656 L165.8438,188.7656 L165.8438,191.4375 L170.6094,191.4375 L170.6094,193.5938 L165.8438,193.5938 L165.8438,196.8438 L171.1094,196.8438 L171.1094,199 Z "/><text fill="#000000" font-family="sans-serif" font-size="12" lengthAdjust="spacingAndGlyphs" textLength="44" x="181" y="197.1543">Project</text><line style="stroke: #A80036; stroke-width: 1.5;" x1="153" x2="227" y1="209" y2="209"/><line style="stroke: #A80036; stroke-width: 1.5;" x1="153" x2="227" y1="217" y2="217"/><!--class Task--><rect fill="#FEFECE" filter="url(#f1q1aib6lj5s8r)" height="48" id="Task" style="stroke: #A80036; stroke-width: 1.5;" width="61" x="318.5" y="177"/><ellipse cx="333.5" cy="193" fill="#ADD1B2" rx="11" ry="11" style="stroke: #A80036; stroke-width: 1.0;"/><path d="M337.6094,199 L329.8906,199 L329.8906,186.6094 L337.6094,186.6094 L337.6094,188.7656 L332.3438,188.7656 L332.3438,191.4375 L337.1094,191.4375 L337.1094,193.5938 L332.3438,193.5938 L332.3438,196.8438 L337.6094,196.8438 L337.6094,199 Z "/><text fill="#000000" font-family="sans-serif" font-size="12" lengthAdjust="spacingAndGlyphs" textLength="29" x="347.5" y="197.1543">Task</text><line style="stroke: #A80036; stroke-width: 1.5;" x1="319.5" x2="378.5" y1="209" y2="209"/><line style="stroke: #A80036; stroke-width: 1.5;" x1="319.5" x2="378.5" y1="217" y2="217"/><!--class Comment--><rect fill="#FEFECE" filter="url(#f1q1aib6lj5s8r)" height="48" id="Comment" style="stroke: #A80036; stroke-width: 1.5;" width="91" x="303.5" y="285"/><ellipse cx="318.5" cy="301" fill="#ADD1B2" rx="11" ry="11" style="stroke: #A80036; stroke-width: 1.0;"/><path d="M322.6094,307 L314.8906,307 L314.8906,294.6094 L322.6094,294.6094 L322.6094,296.7656 L317.3438,296.7656 L317.3438,299.4375 L322.1094,299.4375 L322.1094,301.5938 L317.3438,301.5938 L317.3438,304.8438 L322.6094,304.8438 L322.6094,307 Z "/><text fill="#000000" font-family="sans-serif" font-size="12" lengthAdjust="spacingAndGlyphs" textLength="59" x="332.5" y="305.1543">Comment</text><line style="stroke: #A80036; stroke-width: 1.5;" x1="304.5" x2="393.5" y1="317" y2="317"/><line style="stroke: #A80036; stroke-width: 1.5;" x1="304.5" x2="393.5" y1="325" y2="325"/><!--class Artifact--><rect fill="#FEFECE" filter="url(#f1q1aib6lj5s8r)" height="48" id="Artifact" style="stroke: #A80036; stroke-width: 1.5;" width="77" x="78.5" y="393"/><ellipse cx="93.5" cy="409" fill="#ADD1B2" rx="11" ry="11" style="stroke: #A80036; stroke-width: 1.0;"/><path d="M97.6094,415 L89.8906,415 L89.8906,402.6094 L97.6094,402.6094 L97.6094,404.7656 L92.3438,404.7656 L92.3438,407.4375 L97.1094,407.4375 L97.1094,409.5938 L92.3438,409.5938 L92.3438,412.8438 L97.6094,412.8438 L97.6094,415 Z "/><text fill="#000000" font-family="sans-serif" font-size="12" lengthAdjust="spacingAndGlyphs" textLength="45" x="107.5" y="413.1543">Artifact</text><line style="stroke: #A80036; stroke-width: 1.5;" x1="79.5" x2="154.5" y1="425" y2="425"/><line style="stroke: #A80036; stroke-width: 1.5;" x1="79.5" x2="154.5" y1="433" y2="433"/><!--class File--><rect fill="#FEFECE" filter="url(#f1q1aib6lj5s8r)" height="48" id="File" style="stroke: #A80036; stroke-width: 1.5;" width="53" x="235.5" y="393"/><ellipse cx="250.5" cy="409" fill="#ADD1B2" rx="11" ry="11" style="stroke: #A80036; stroke-width: 1.0;"/><path d="M254.6094,415 L246.8906,415 L246.8906,402.6094 L254.6094,402.6094 L254.6094,404.7656 L249.3438,404.7656 L249.3438,407.4375 L254.1094,407.4375 L254.1094,409.5938 L249.3438,409.5938 L249.3438,412.8438 L254.6094,412.8438 L254.6094,415 Z "/><text fill="#000000" font-family="sans-serif" font-size="12" lengthAdjust="spacingAndGlyphs" textLength="21" x="264.5" y="413.1543">File</text><line style="stroke: #A80036; stroke-width: 1.5;" x1="236.5" x2="287.5" y1="425" y2="425"/><line style="stroke: #A80036; stroke-width: 1.5;" x1="236.5" x2="287.5" y1="433" y2="433"/><!--link User to Project--><path d="M258.02,56.22 C242.92,88.13 215.94,145.17 200.89,176.98 " fill="none" id="User-Project" style="stroke: #A80036; stroke-width: 1.0;"/><text fill="#000000" font-family="sans-serif" font-size="13" lengthAdjust="spacingAndGlyphs" textLength="23" x="229.5405" y="76.0348">1..*</text><text fill="#000000" font-family="sans-serif" font-size="13" lengthAdjust="spacingAndGlyphs" textLength="23" x="177.7337" y="165.9869">0..*</text><!--link User to Task--><path d="M280.12,56.22 C295.41,88.13 322.74,145.17 337.97,176.98 " fill="none" id="User-Task" style="stroke: #A80036; stroke-width: 1.0;"/><text fill="#000000" font-family="sans-serif" font-size="13" lengthAdjust="spacingAndGlyphs" textLength="24" x="285.7555" y="76.0348">0..1</text><text fill="#000000" font-family="sans-serif" font-size="13" lengthAdjust="spacingAndGlyphs" textLength="23" x="309.1967" y="165.9869">1..*</text><!--link Project to Task--><path d="M228.2,201 C258.24,201 288.28,201 318.33,201 " fill="none" id="Project-Task" style="stroke: #A80036; stroke-width: 1.0;"/><text fill="#000000" font-family="sans-serif" font-size="13" lengthAdjust="spacingAndGlyphs" textLength="8" x="235.9806" y="196.6963">1</text><text fill="#000000" font-family="sans-serif" font-size="13" lengthAdjust="spacingAndGlyphs" textLength="23" x="287.5549" y="196.6963">0..*</text><!--link Task to Comment--><path d="M349,225 C349,242.66 349,266.94 349,284.68 " fill="none" id="Task-Comment" style="stroke: #A80036; stroke-width: 1.0;"/><text fill="#000000" font-family="sans-serif" font-size="13" lengthAdjust="spacingAndGlyphs" textLength="8" x="339.975" y="245.1558">1</text><text fill="#000000" font-family="sans-serif" font-size="13" lengthAdjust="spacingAndGlyphs" textLength="23" x="323.1969" y="274.007">0..*</text><!--link Comment to Comment--><path d="M394.69,291.96 C433.59,284.44 474.5,290.12 474.5,309 C474.5,327.88 433.59,333.56 394.69,326.04 " fill="none" id="Comment-Comment" style="stroke: #A80036; stroke-width: 1.0;"/><text fill="#000000" font-family="sans-serif" font-size="13" lengthAdjust="spacingAndGlyphs" textLength="8" x="402.6093" y="285.1264">1</text><text fill="#000000" font-family="sans-serif" font-size="13" lengthAdjust="spacingAndGlyphs" textLength="23" x="402.3749" y="324.3978">0..*</text><!--link Project to Report--><path d="M158.1,225 C133.53,242.72 99.71,267.11 75.09,284.86 " fill="none" id="Project-Report" style="stroke: #A80036; stroke-width: 1.0;"/><text fill="#000000" font-family="sans-serif" font-size="13" lengthAdjust="spacingAndGlyphs" textLength="8" x="140.9006" y="245.1558">1</text><text fill="#000000" font-family="sans-serif" font-size="13" lengthAdjust="spacingAndGlyphs" textLength="24" x="56.2381" y="273.8362">0..1</text><!--link Project to Slide--><path d="M190.22,225 C190.38,242.66 190.61,266.94 190.78,284.68 " fill="none" id="Project-Slide" style="stroke: #A80036; stroke-width: 1.0;"/><text fill="#000000" font-family="sans-serif" font-size="13" lengthAdjust="spacingAndGlyphs" textLength="8" x="181.2514" y="245.1558">1</text><text fill="#000000" font-family="sans-serif" font-size="13" lengthAdjust="spacingAndGlyphs" textLength="24" x="163.8014" y="274.007">0..1</text><!--link Report to Artifact--><path d="M59.06,333 C67.82,345.55 78.92,361.46 89.06,375.97 " fill="none" id="Report-Artifact" style="stroke: #A80036; stroke-width: 1.0;"/><polygon fill="none" points="95.01,372.27,100.72,392.68,83.53,380.29,95.01,372.27" style="stroke: #A80036; stroke-width: 1.0;"/><!--link Slide to Artifact--><path d="M174.94,333 C166.18,345.55 155.08,361.46 144.94,375.97 " fill="none" id="Slide-Artifact" style="stroke: #A80036; stroke-width: 1.0;"/><polygon fill="none" points="150.47,380.29,133.28,392.68,138.99,372.27,150.47,380.29" style="stroke: #A80036; stroke-width: 1.0;"/><!--link Artifact to File--><path d="M155.52,417 C182.14,417 208.76,417 235.38,417 " fill="none" id="Artifact-File" style="stroke: #A80036; stroke-width: 1.0;"/><text fill="#000000" font-family="sans-serif" font-size="13" lengthAdjust="spacingAndGlyphs" textLength="24" x="163.5716" y="412.8822">0..1</text><text fill="#000000" font-family="sans-serif" font-size="13" lengthAdjust="spacingAndGlyphs" textLength="23" x="204.5178" y="412.5337">1..*</text><!--
@startuml

skinparam nodesep 80

entity User
entity Report
entity Slide
entity Project
entity Task
entity Comment
entity Artifact
entity File

User "1..*" - - - "0..*" Project
User "0..1" - - - "1..*" Task
Project "1" -right- "0..*" Task
Task "1" - - "0..*" Comment
Comment "1" - - - "0..*" Comment
Project "1" - - "0..1" Report
Project "1" - - "0..1" Slide
Report - -|> Artifact
Slide - -|> Artifact
Artifact "0..1" -right- "1..*" File

@enduml

PlantUML version 1.2018.13(Mon Nov 26 17:11:51 UTC 2018)
(GPL source distribution)
Java Runtime: OpenJDK Runtime Environment
JVM: OpenJDK 64-Bit Server VM
Java Version: 11.0.10+9
Operating System: Linux
OS Version: 5.4.0-1036-azure
Default Encoding: UTF-8
Language: en
Country: null
--></g></svg>