<?xml version="1.0" encoding="UTF-8" standalone="no"?><svg xmlns="http://www.w3.org/2000/svg" xmlns:xlink="http://www.w3.org/1999/xlink" contentScriptType="application/ecmascript" contentStyleType="text/css" height="507px" preserveAspectRatio="none" style="width:775px;height:507px;" version="1.1" viewBox="0 0 775 507" width="775px" zoomAndPan="magnify"><defs><filter height="300%" id="f1h9yngw1hm496" width="300%" x="-1" y="-1"><feGaussianBlur result="blurOut" stdDeviation="2.0"/><feColorMatrix in="blurOut" result="blurOut2" type="matrix" values="0 0 0 0 0 0 0 0 0 0 0 0 0 0 0 0 0 0 .4 0"/><feOffset dx="4.0" dy="4.0" in="blurOut2" result="blurOut3"/><feBlend in="SourceGraphic" in2="blurOut3" mode="normal"/></filter></defs><g><!--cluster server--><polygon fill="#FFFFFF" filter="url(#f1h9yngw1hm496)" points="88.01,34.5,98.01,24.5,257.01,24.5,257.01,217,247.01,227,88.01,227,88.01,34.5" style="stroke: #000000; stroke-width: 1.5;"/><line style="stroke: #000000; stroke-width: 1.5;" x1="247.01" x2="256.01" y1="34.5" y2="25.5"/><line style="stroke: #000000; stroke-width: 1.5;" x1="88.01" x2="247.01" y1="34.5" y2="34.5"/><line style="stroke: #000000; stroke-width: 1.5;" x1="247.01" x2="247.01" y1="34.5" y2="227"/><text fill="#000000" font-family="sans-serif" font-size="14" font-weight="bold" lengthAdjust="spacingAndGlyphs" textLength="93" x="122.01" y="50.4951">Web Server</text><!--cluster db--><polygon fill="#FFFFFF" filter="url(#f1h9yngw1hm496)" points="36.01,278,46.01,268,326.01,268,326.01,485,316.01,495,36.01,495,36.01,278" style="stroke: #000000; stroke-width: 1.5;"/><line style="stroke: #000000; stroke-width: 1.5;" x1="316.01" x2="325.01" y1="278" y2="269"/><line style="stroke: #000000; stroke-width: 1.5;" x1="36.01" x2="316.01" y1="278" y2="278"/><line style="stroke: #000000; stroke-width: 1.5;" x1="316.01" x2="316.01" y1="278" y2="495"/><text fill="#000000" font-family="sans-serif" font-size="14" font-weight="bold" lengthAdjust="spacingAndGlyphs" textLength="133" x="110.51" y="293.9951">Database cluster</text><!--cluster ipfs--><polygon fill="#FFFFFF" filter="url(#f1h9yngw1hm496)" points="366.01,282.5,376.01,272.5,567.01,272.5,567.01,480.5,557.01,490.5,366.01,490.5,366.01,282.5" style="stroke: #000000; stroke-width: 1.5;"/><line style="stroke: #000000; stroke-width: 1.5;" x1="557.01" x2="566.01" y1="282.5" y2="273.5"/><line style="stroke: #000000; stroke-width: 1.5;" x1="366.01" x2="557.01" y1="282.5" y2="282.5"/><line style="stroke: #000000; stroke-width: 1.5;" x1="557.01" x2="557.01" y1="282.5" y2="490.5"/><text fill="#000000" font-family="sans-serif" font-size="14" font-weight="bold" lengthAdjust="spacingAndGlyphs" textLength="93" x="416.01" y="298.4951">IPFS cluster</text><!--entity acanban--><rect fill="#FEFECE" filter="url(#f1h9yngw1hm496)" height="36.2969" style="stroke: #A80036; stroke-width: 1.5;" width="80" x="132.01" y="175"/><rect fill="#FEFECE" height="5" style="stroke: #A80036; stroke-width: 1.5;" width="10" x="127.01" y="180"/><rect fill="#FEFECE" height="5" style="stroke: #A80036; stroke-width: 1.5;" width="10" x="127.01" y="201.2969"/><text fill="#000000" font-family="sans-serif" font-size="14" lengthAdjust="spacingAndGlyphs" textLength="60" x="142.01" y="197.9951">Acanban</text><!--entity hypercorn--><rect fill="#FEFECE" filter="url(#f1h9yngw1hm496)" height="36.2969" style="stroke: #A80036; stroke-width: 1.5;" width="91" x="126.51" y="64.5"/><rect fill="#FEFECE" height="5" style="stroke: #A80036; stroke-width: 1.5;" width="10" x="121.51" y="69.5"/><rect fill="#FEFECE" height="5" style="stroke: #A80036; stroke-width: 1.5;" width="10" x="121.51" y="90.7969"/><text fill="#000000" font-family="sans-serif" font-size="14" lengthAdjust="spacingAndGlyphs" textLength="71" x="136.51" y="87.4951">Hypercorn</text><!--entity r_1--><path d="M79.01,326 C79.01,316 126.01,316 126.01,316 C126.01,316 173.01,316 173.01,326 L173.01,351.2969 C173.01,361.2969 126.01,361.2969 126.01,361.2969 C126.01,361.2969 79.01,361.2969 79.01,351.2969 L79.01,326 " fill="#FEFECE" filter="url(#f1h9yngw1hm496)" style="stroke: #000000; stroke-width: 1.5;"/><path d="M79.01,326 C79.01,336 126.01,336 126.01,336 C126.01,336 173.01,336 173.01,326 " fill="none" style="stroke: #000000; stroke-width: 1.5;"/><text fill="#000000" font-family="sans-serif" font-size="14" lengthAdjust="spacingAndGlyphs" textLength="74" x="89.01" y="352.9951">RethinkDB</text><!--entity r_2--><path d="M208.01,326 C208.01,316 255.01,316 255.01,316 C255.01,316 302.01,316 302.01,326 L302.01,351.2969 C302.01,361.2969 255.01,361.2969 255.01,361.2969 C255.01,361.2969 208.01,361.2969 208.01,351.2969 L208.01,326 " fill="#FEFECE" filter="url(#f1h9yngw1hm496)" style="stroke: #000000; stroke-width: 1.5;"/><path d="M208.01,326 C208.01,336 255.01,336 255.01,336 C255.01,336 302.01,336 302.01,326 " fill="none" style="stroke: #000000; stroke-width: 1.5;"/><text fill="#000000" font-family="sans-serif" font-size="14" lengthAdjust="spacingAndGlyphs" textLength="74" x="218.01" y="352.9951">RethinkDB</text><!--entity r_3--><path d="M79.01,436 C79.01,426 126.01,426 126.01,426 C126.01,426 173.01,426 173.01,436 L173.01,461.2969 C173.01,471.2969 126.01,471.2969 126.01,471.2969 C126.01,471.2969 79.01,471.2969 79.01,461.2969 L79.01,436 " fill="#FEFECE" filter="url(#f1h9yngw1hm496)" style="stroke: #000000; stroke-width: 1.5;"/><path d="M79.01,436 C79.01,446 126.01,446 126.01,446 C126.01,446 173.01,446 173.01,436 " fill="none" style="stroke: #000000; stroke-width: 1.5;"/><text fill="#000000" font-family="sans-serif" font-size="14" lengthAdjust="spacingAndGlyphs" textLength="74" x="89.01" y="462.9951">RethinkDB</text><!--entity r_4--><path d="M208.01,436 C208.01,426 255.01,426 255.01,426 C255.01,426 302.01,426 302.01,436 L302.01,461.2969 C302.01,471.2969 255.01,471.2969 255.01,471.2969 C255.01,471.2969 208.01,471.2969 208.01,461.2969 L208.01,436 " fill="#FEFECE" filter="url(#f1h9yngw1hm496)" style="stroke: #000000; stroke-width: 1.5;"/><path d="M208.01,436 C208.01,446 255.01,446 255.01,446 C255.01,446 302.01,446 302.01,436 " fill="none" style="stroke: #000000; stroke-width: 1.5;"/><text fill="#000000" font-family="sans-serif" font-size="14" lengthAdjust="spacingAndGlyphs" textLength="74" x="218.01" y="462.9951">RethinkDB</text><!--entity i_1--><rect fill="#FEFECE" filter="url(#f1h9yngw1hm496)" height="32.2969" style="stroke: #000000; stroke-width: 1.5;" width="45" x="413.51" y="324.5"/><rect fill="#FEFECE" height="32.2969" style="stroke: #000000; stroke-width: 1.5;" width="45" x="409.51" y="320.5"/><text fill="#000000" font-family="sans-serif" font-size="14" lengthAdjust="spacingAndGlyphs" textLength="29" x="417.51" y="341.4951">IPFS</text><!--entity i_2--><rect fill="#FEFECE" filter="url(#f1h9yngw1hm496)" height="32.2969" style="stroke: #000000; stroke-width: 1.5;" width="45" x="497.51" y="324.5"/><rect fill="#FEFECE" height="32.2969" style="stroke: #000000; stroke-width: 1.5;" width="45" x="493.51" y="320.5"/><text fill="#000000" font-family="sans-serif" font-size="14" lengthAdjust="spacingAndGlyphs" textLength="29" x="501.51" y="341.4951">IPFS</text><!--entity i_3--><rect fill="#FEFECE" filter="url(#f1h9yngw1hm496)" height="32.2969" style="stroke: #000000; stroke-width: 1.5;" width="45" x="413.51" y="434.5"/><rect fill="#FEFECE" height="32.2969" style="stroke: #000000; stroke-width: 1.5;" width="45" x="409.51" y="430.5"/><text fill="#000000" font-family="sans-serif" font-size="14" lengthAdjust="spacingAndGlyphs" textLength="29" x="417.51" y="451.4951">IPFS</text><!--entity i_4--><rect fill="#FEFECE" filter="url(#f1h9yngw1hm496)" height="32.2969" style="stroke: #000000; stroke-width: 1.5;" width="45" x="497.51" y="434.5"/><rect fill="#FEFECE" height="32.2969" style="stroke: #000000; stroke-width: 1.5;" width="45" x="493.51" y="430.5"/><text fill="#000000" font-family="sans-serif" font-size="14" lengthAdjust="spacingAndGlyphs" textLength="29" x="501.51" y="451.4951">IPFS</text><!--entity Browser--><path d="M594.01,319 C594.01,316 596.01,314 599.01,314 C602.01,314 604.01,316 604.01,319 C604.01,316 606.01,314 609.01,314 C612.01,314 614.01,316 614.01,319 C614.01,316 616.01,314 619.01,314 C622.01,314 624.01,316 624.01,319 C624.01,316 626.01,314 629.01,314 C632.01,314 634.01,316 634.01,319 C634.01,316 636.01,314 639.01,314 C642.01,314 644.01,316 644.01,319 C644.01,316 646.01,314 649.01,314 C652.01,314 654.01,316 654.01,319 C654.01,316 656.01,314 659.01,314 C662.01,314 664.01,316 664.01,319 C664.01,316 666.01,314 669.01,314 C672.01,314 674.01,316 674.01,319 C674.01,316 676.01,314 679.01,314 C682.01,314 684.01,316 684.01,319 C684.01,316 686.01,314 689.01,314 C692.01,314 694.01,316 694.01,319 C694.01,316 696.01,314 699.01,314 C702.01,314 704.01,316 704.01,319 C707.01,319 709.01,321 709.01,324 C709.01,327 707.01,329 704.01,329 C707.01,329 709.01,331 709.01,334 C709.01,337 707.01,339 704.01,339 C707.01,339 709.01,341 709.01,344 C709.01,347 707.01,349 704.01,349 C707.01,349 709.01,351 709.01,354 C709.01,357 707.01,359 704.01,359 C704.01,362 701.01,364 699.01,364 C696.01,364 694.01,362 694.01,359 C694.01,362 691.01,364 689.01,364 C686.01,364 684.01,362 684.01,359 C684.01,362 681.01,364 679.01,364 C676.01,364 674.01,362 674.01,359 C674.01,362 671.01,364 669.01,364 C666.01,364 664.01,362 664.01,359 C664.01,362 661.01,364 659.01,364 C656.01,364 654.01,362 654.01,359 C654.01,362 651.01,364 649.01,364 C646.01,364 644.01,362 644.01,359 C644.01,362 641.01,364 639.01,364 C636.01,364 634.01,362 634.01,359 C634.01,362 631.01,364 629.01,364 C626.01,364 624.01,362 624.01,359 C624.01,362 621.01,364 619.01,364 C616.01,364 614.01,362 614.01,359 C614.01,362 611.01,364 609.01,364 C606.01,364 604.01,362 604.01,359 C604.01,362 601.01,364 599.01,364 C596.01,364 594.01,362 594.01,359 C591.01,359 589.01,357 589.01,354 C589.01,351 591.01,349 594.01,349 C591.01,349 589.01,347 589.01,344 C589.01,341 591.01,339 594.01,339 C591.01,339 589.01,337 589.01,334 C589.01,331 591.01,329 594.01,329 C591.01,329 589.01,327 589.01,324 C589.01,321 591.01,319 594.01,319 " fill="#FEFECE" filter="url(#f1h9yngw1hm496)" style="stroke: #000000; stroke-width: 1.5;"/><text fill="#000000" font-family="sans-serif" font-size="14" font-style="italic" lengthAdjust="spacingAndGlyphs" textLength="57" x="618.51" y="334.9951">«Client»</text><text fill="#000000" font-family="sans-serif" font-size="14" lengthAdjust="spacingAndGlyphs" textLength="92" x="601.01" y="351.292">Web Browser</text><!--entity nginx--><polygon fill="#FEFECE" filter="url(#f1h9yngw1hm496)" points="541.01,61,551.01,51,753.01,51,753.01,103.5938,743.01,113.5938,541.01,113.5938,541.01,61" style="stroke: #000000; stroke-width: 1.5;"/><line style="stroke: #000000; stroke-width: 1.5;" x1="743.01" x2="752.01" y1="61" y2="52"/><line style="stroke: #000000; stroke-width: 1.5;" x1="541.01" x2="743.01" y1="61" y2="61"/><line style="stroke: #000000; stroke-width: 1.5;" x1="743.01" x2="743.01" y1="61" y2="113.5938"/><text fill="#000000" font-family="sans-serif" font-size="14" font-style="italic" lengthAdjust="spacingAndGlyphs" textLength="172" x="556.01" y="83.9951">«Load Balancing Server»</text><text fill="#000000" font-family="sans-serif" font-size="14" lengthAdjust="spacingAndGlyphs" textLength="37" x="623.51" y="100.292">nginx</text><!--link nginx to Browser--><path d="M647.01,114.14 C647.01,164.67 647.01,264.59 647.01,311.73 " fill="none" id="nginx-Browser" style="stroke: #A80036; stroke-width: 1.0;"/><text fill="#000000" font-family="sans-serif" font-size="13" lengthAdjust="spacingAndGlyphs" textLength="41" x="648.01" y="197.5669">HTTPS</text><text fill="#000000" font-family="sans-serif" font-size="13" lengthAdjust="spacingAndGlyphs" textLength="23" x="621.8178" y="133.7193">0..*</text><text fill="#000000" font-family="sans-serif" font-size="13" lengthAdjust="spacingAndGlyphs" textLength="8" x="638.085" y="300.9343">1</text><!--link nginx to hypercorn--><path d="M541,82.5 C433.31,82.5 325.62,82.5 217.93,82.5 " fill="none" id="nginx-hypercorn" style="stroke: #A80036; stroke-width: 1.0;"/><text fill="#000000" font-family="sans-serif" font-size="13" lengthAdjust="spacingAndGlyphs" textLength="8" x="524.9211" y="79.0359">1</text><text fill="#000000" font-family="sans-serif" font-size="13" lengthAdjust="spacingAndGlyphs" textLength="23" x="225.6458" y="78.5481">1..*</text><!--link hypercorn to acanban--><path d="M172.01,100.93 C172.01,121.3 172.01,154.78 172.01,174.97 " fill="none" id="hypercorn-acanban" style="stroke: #A80036; stroke-width: 1.0;"/><text fill="#000000" font-family="sans-serif" font-size="13" lengthAdjust="spacingAndGlyphs" textLength="8" x="162.785" y="120.9128">1</text><text fill="#000000" font-family="sans-serif" font-size="13" lengthAdjust="spacingAndGlyphs" textLength="8" x="162.735" y="163.8731">1</text><!--link acanban to db--><path d="M131.85,205.89 C108.37,214.87 80.07,229.56 63.01,252 C60.1563,255.7525 57.715,259.85 55.6282,264.1539 C55.1065,265.2299 54.607,266.3188 54.1287,267.4184 C54.0689,267.5558 54.0094,267.6934 53.9503,267.8312 " fill="none" id="acanban-db" style="stroke: #A80036; stroke-width: 1.0;"/><text fill="#000000" font-family="sans-serif" font-size="13" lengthAdjust="spacingAndGlyphs" textLength="23" x="100.9396" y="203.7697">1..*</text><text fill="#000000" font-family="sans-serif" font-size="13" lengthAdjust="spacingAndGlyphs" textLength="23" x="21" y="334.4069">1..*</text><!--link acanban to ipfs--><path d="M212.3,202.89 C243.72,211.39 287.06,226.73 318.01,252 C335.055,265.915 348.7275,286.41 358.295,303.8463 C360.6869,308.2053 362.8222,312.3732 364.6895,316.1993 C364.9229,316.6776 365.1521,317.1505 365.3771,317.6178 C365.4897,317.8514 365.6011,318.0837 365.7115,318.3145 C365.7667,318.4299 365.8216,318.5449 365.8763,318.6596 " fill="none" id="acanban-ipfs" style="stroke: #A80036; stroke-width: 1.0;"/><text fill="#000000" font-family="sans-serif" font-size="13" lengthAdjust="spacingAndGlyphs" textLength="23" x="219.9067" y="200.2959">1..*</text><text fill="#000000" font-family="sans-serif" font-size="13" lengthAdjust="spacingAndGlyphs" textLength="23" x="350.95" y="334.4069">1..*</text><!--link r_1 to r_2--><!--link r_1 to r_3--><!--link r_3 to r_4--><!--link i_1 to i_2--><!--link i_1 to i_3--><!--link i_3 to i_4--><!--
@startuml
cloud "Web Browser" as Browser << Client >>
node nginx << Load Balancing Server >>

node "Web Server" as server {
   component Acanban as acanban
   component Hypercorn as hypercorn
}

node "Database cluster" as db {
   database "RethinkDB" as r_1
   database "RethinkDB" as r_2
   database "RethinkDB" as r_3
   database "RethinkDB" as r_4
}

node "IPFS cluster" as ipfs {
   collections "IPFS" as i_1
   collections "IPFS" as i_2
   collections "IPFS" as i_3
   collections "IPFS" as i_4
}

nginx "0..*" - - - "1" Browser : HTTPS
nginx "1" -[norank]- "1..*" hypercorn
hypercorn "1" - - "1" acanban
acanban "1..*" - - "1..*" db
acanban "1..*" - - "1..*" ipfs
@enduml

PlantUML version 1.2018.13(Mon Nov 26 17:11:51 UTC 2018)
(GPL source distribution)
Java Runtime: OpenJDK Runtime Environment
JVM: OpenJDK 64-Bit Server VM
Java Version: 11.0.9.1+1
Operating System: Linux
OS Version: 5.4.0-1032-azure
Default Encoding: UTF-8
Language: en
Country: null
--></g></svg>