<?xml version="1.0" encoding="UTF-8" standalone="no"?><svg xmlns="http://www.w3.org/2000/svg" xmlns:xlink="http://www.w3.org/1999/xlink" contentScriptType="application/ecmascript" contentStyleType="text/css" height="393px" preserveAspectRatio="none" style="width:797px;height:393px;" version="1.1" viewBox="0 0 797 393" width="797px" zoomAndPan="magnify"><defs><filter height="300%" id="f1twfmfswu4r7h" width="300%" x="-1" y="-1"><feGaussianBlur result="blurOut" stdDeviation="2.0"/><feColorMatrix in="blurOut" result="blurOut2" type="matrix" values="0 0 0 0 0 0 0 0 0 0 0 0 0 0 0 0 0 0 .4 0"/><feOffset dx="4.0" dy="4.0" in="blurOut2" result="blurOut3"/><feBlend in="SourceGraphic" in2="blurOut3" mode="normal"/></filter></defs><g><rect fill="#FFFFFF" filter="url(#f1twfmfswu4r7h)" height="255.0625" style="stroke: #A80036; stroke-width: 1.0;" width="10" x="264" y="117.4297"/><rect fill="#FFFFFF" filter="url(#f1twfmfswu4r7h)" height="218.0625" style="stroke: #A80036; stroke-width: 1.0;" width="10" x="269" y="154.4297"/><rect fill="#FFFFFF" filter="url(#f1twfmfswu4r7h)" height="174.7969" style="stroke: #A80036; stroke-width: 1.0;" width="10" x="274" y="188.6953"/><rect fill="#FFFFFF" filter="url(#f1twfmfswu4r7h)" height="145.6641" style="stroke: #A80036; stroke-width: 1.0;" width="10" x="549" y="217.8281"/><rect fill="#FFFFFF" filter="url(#f1twfmfswu4r7h)" height="29.1328" style="stroke: #A80036; stroke-width: 1.0;" width="10" x="752" y="246.9609"/><rect fill="#FFFFFF" filter="url(#f1twfmfswu4r7h)" height="29.1328" style="stroke: #A80036; stroke-width: 1.0;" width="10" x="752" y="305.2266"/><line style="stroke: #A80036; stroke-width: 1.0; stroke-dasharray: 5.0,5.0;" x1="78" x2="78" y1="86.2969" y2="381.4922"/><line style="stroke: #A80036; stroke-width: 1.0; stroke-dasharray: 5.0,5.0;" x1="269" x2="269" y1="86.2969" y2="381.4922"/><line style="stroke: #A80036; stroke-width: 1.0; stroke-dasharray: 5.0,5.0;" x1="554" x2="554" y1="86.2969" y2="381.4922"/><line style="stroke: #A80036; stroke-width: 1.0; stroke-dasharray: 5.0,5.0;" x1="757" x2="757" y1="86.2969" y2="381.4922"/><text fill="#000000" font-family="sans-serif" font-size="14" lengthAdjust="spacingAndGlyphs" text-decoration="underline" textLength="134" x="8" y="82.9951">:Unauthorized User</text><line style="stroke: #000000; stroke-width: 1.0;" x1="8" x2="142" y1="84.9951" y2="84.9951"/><ellipse cx="78" cy="13" fill="#FEFECE" filter="url(#f1twfmfswu4r7h)" rx="8" ry="8" style="stroke: #A80036; stroke-width: 2.0;"/><path d="M78,21 L78,48 M65,29 L91,29 M78,48 L65,63 M78,48 L91,63 " fill="none" filter="url(#f1twfmfswu4r7h)" style="stroke: #A80036; stroke-width: 2.0;"/><text fill="#000000" font-family="sans-serif" font-size="14" lengthAdjust="spacingAndGlyphs" text-decoration="underline" textLength="98" x="217" y="82.9951">:RegisterForm</text><line style="stroke: #000000; stroke-width: 1.0;" x1="217" x2="315" y1="84.9951" y2="84.9951"/><path d="M248.5,42 L248.5,66 M248.5,54 L265.5,54 " fill="none" filter="url(#f1twfmfswu4r7h)" style="stroke: #A80036; stroke-width: 2.0;"/><ellipse cx="277.5" cy="54" fill="#FEFECE" filter="url(#f1twfmfswu4r7h)" rx="12" ry="12" style="stroke: #A80036; stroke-width: 2.0;"/><text fill="#000000" font-family="sans-serif" font-size="14" lengthAdjust="spacingAndGlyphs" text-decoration="underline" textLength="130" x="486" y="82.9951">:RegisterController</text><line style="stroke: #000000; stroke-width: 1.0;" x1="486" x2="616" y1="84.9951" y2="84.9951"/><ellipse cx="554" cy="54" fill="#FEFECE" filter="url(#f1twfmfswu4r7h)" rx="12" ry="12" style="stroke: #A80036; stroke-width: 2.0;"/><polygon fill="#A80036" points="550,42,556,37,554,42,556,47,550,42" style="stroke: #A80036; stroke-width: 1.0;"/><text fill="#000000" font-family="sans-serif" font-size="14" lengthAdjust="spacingAndGlyphs" text-decoration="underline" textLength="62" x="723" y="82.9951">:Account</text><line style="stroke: #000000; stroke-width: 1.0;" x1="723" x2="785" y1="84.9951" y2="84.9951"/><ellipse cx="757" cy="54" fill="#FEFECE" filter="url(#f1twfmfswu4r7h)" rx="12" ry="12" style="stroke: #A80036; stroke-width: 2.0;"/><line style="stroke: #A80036; stroke-width: 2.0;" x1="745" x2="769" y1="68" y2="68"/><rect fill="#FFFFFF" filter="url(#f1twfmfswu4r7h)" height="255.0625" style="stroke: #A80036; stroke-width: 1.0;" width="10" x="264" y="117.4297"/><rect fill="#FFFFFF" filter="url(#f1twfmfswu4r7h)" height="218.0625" style="stroke: #A80036; stroke-width: 1.0;" width="10" x="269" y="154.4297"/><rect fill="#FFFFFF" filter="url(#f1twfmfswu4r7h)" height="174.7969" style="stroke: #A80036; stroke-width: 1.0;" width="10" x="274" y="188.6953"/><rect fill="#FFFFFF" filter="url(#f1twfmfswu4r7h)" height="145.6641" style="stroke: #A80036; stroke-width: 1.0;" width="10" x="549" y="217.8281"/><rect fill="#FFFFFF" filter="url(#f1twfmfswu4r7h)" height="29.1328" style="stroke: #A80036; stroke-width: 1.0;" width="10" x="752" y="246.9609"/><rect fill="#FFFFFF" filter="url(#f1twfmfswu4r7h)" height="29.1328" style="stroke: #A80036; stroke-width: 1.0;" width="10" x="752" y="305.2266"/><polygon fill="#A80036" points="252,113.4297,262,117.4297,252,121.4297,256,117.4297" style="stroke: #A80036; stroke-width: 1.0;"/><line style="stroke: #A80036; stroke-width: 1.0;" x1="78" x2="258" y1="117.4297" y2="117.4297"/><text fill="#000000" font-family="sans-serif" font-size="13" lengthAdjust="spacingAndGlyphs" textLength="167" x="85" y="112.3638">// open registration page()</text><line style="stroke: #A80036; stroke-width: 1.0;" x1="274" x2="321" y1="141.5625" y2="141.5625"/><line style="stroke: #A80036; stroke-width: 1.0;" x1="321" x2="321" y1="141.5625" y2="154.5625"/><line style="stroke: #A80036; stroke-width: 1.0;" x1="280" x2="321" y1="154.5625" y2="154.5625"/><polygon fill="#A80036" points="290,150.5625,280,154.5625,290,158.5625,286,154.5625" style="stroke: #A80036; stroke-width: 1.0;"/><text fill="#000000" font-family="sans-serif" font-size="13" lengthAdjust="spacingAndGlyphs" textLength="100" x="286" y="136.4966">// display form()</text><polygon fill="#A80036" points="262,184.6953,272,188.6953,262,192.6953,266,188.6953" style="stroke: #A80036; stroke-width: 1.0;"/><line style="stroke: #A80036; stroke-width: 1.0;" x1="78" x2="268" y1="188.6953" y2="188.6953"/><text fill="#000000" font-family="sans-serif" font-size="13" lengthAdjust="spacingAndGlyphs" textLength="100" x="85" y="183.6294">// submit form()</text><polygon fill="#A80036" points="537,213.8281,547,217.8281,537,221.8281,541,217.8281" style="stroke: #A80036; stroke-width: 1.0;"/><line style="stroke: #A80036; stroke-width: 1.0;" x1="284" x2="543" y1="217.8281" y2="217.8281"/><text fill="#000000" font-family="sans-serif" font-size="13" lengthAdjust="spacingAndGlyphs" textLength="199" x="291" y="212.7622">// try adding user to database()</text><polygon fill="#A80036" points="740,242.9609,750,246.9609,740,250.9609,744,246.9609" style="stroke: #A80036; stroke-width: 1.0;"/><line style="stroke: #A80036; stroke-width: 1.0;" x1="559" x2="746" y1="246.9609" y2="246.9609"/><text fill="#000000" font-family="sans-serif" font-size="13" lengthAdjust="spacingAndGlyphs" textLength="174" x="566" y="241.895">// check existing accounts()</text><polygon fill="#A80036" points="570,272.0938,560,276.0938,570,280.0938,566,276.0938" style="stroke: #A80036; stroke-width: 1.0;"/><line style="stroke: #A80036; stroke-width: 1.0; stroke-dasharray: 2.0,2.0;" x1="564" x2="756" y1="276.0938" y2="276.0938"/><text fill="#000000" font-family="sans-serif" font-size="13" lengthAdjust="spacingAndGlyphs" textLength="51" x="576" y="271.0278">// return</text><polygon fill="#A80036" points="740,301.2266,750,305.2266,740,309.2266,744,305.2266" style="stroke: #A80036; stroke-width: 1.0;"/><line style="stroke: #A80036; stroke-width: 1.0;" x1="559" x2="746" y1="305.2266" y2="305.2266"/><text fill="#000000" font-family="sans-serif" font-size="13" lengthAdjust="spacingAndGlyphs" textLength="101" x="566" y="300.1606">// add account()</text><polygon fill="#A80036" points="570,330.3594,560,334.3594,570,338.3594,566,334.3594" style="stroke: #A80036; stroke-width: 1.0;"/><line style="stroke: #A80036; stroke-width: 1.0; stroke-dasharray: 2.0,2.0;" x1="564" x2="756" y1="334.3594" y2="334.3594"/><text fill="#000000" font-family="sans-serif" font-size="13" lengthAdjust="spacingAndGlyphs" textLength="104" x="576" y="329.2935">// raise key error</text><polygon fill="#A80036" points="290,359.4922,280,363.4922,290,367.4922,286,363.4922" style="stroke: #A80036; stroke-width: 1.0;"/><line style="stroke: #A80036; stroke-width: 1.0; stroke-dasharray: 2.0,2.0;" x1="284" x2="553" y1="363.4922" y2="363.4922"/><text fill="#000000" font-family="sans-serif" font-size="13" lengthAdjust="spacingAndGlyphs" textLength="241" x="296" y="358.4263">// Inform that the username is taken()</text><!--
@startuml
hide footbox
autoactivate on
skinparam sequenceParticipant underline
actor ":Unauthorized User" as usr
boundary ":RegisterForm" as form
control ":RegisterController" as ctl
entity ":Account" as acc

usr -> form: // open registration page()
form -> form: // display form()
usr -> form: // submit form()
form -> ctl: // try adding user to database()
ctl -> acc: // check existing accounts()
ctl <- - acc: // return
ctl -> acc: // add account()
ctl <- - acc: // raise key error
form <- - ctl: // Inform that the username is taken()
deactivate form
@enduml

PlantUML version 1.2018.13(Mon Nov 26 17:11:51 UTC 2018)
(GPL source distribution)
Java Runtime: OpenJDK Runtime Environment
JVM: OpenJDK 64-Bit Server VM
Java Version: 11.0.10+9
Operating System: Linux
OS Version: 5.4.0-1036-azure
Default Encoding: UTF-8
Language: en
Country: null
--></g></svg>