<?xml version="1.0" encoding="UTF-8" standalone="no"?>
<svg xmlns="http://www.w3.org/2000/svg" xmlns:xlink="http://www.w3.org/1999/xlink" contentScriptType="application/ecmascript" contentStyleType="text/css" height="534px" preserveAspectRatio="none" style="width:1268px;height:534px;" version="1.1" viewBox="0 0 1268 534" width="1268px" zoomAndPan="magnify"><defs/><g><rect fill="#CCFF02" height="20.2969" rx="2" ry="2" style="stroke:#CCFF02;stroke-width:1.0;" width="166" x="11.5" y="174.5"/><text fill="#000000" font-family="sans-serif" font-size="14" font-weight="bold" lengthAdjust="spacing" textLength="49" x="33" y="189.4951">Entity</text><text fill="#000000" font-family="sans-serif" font-size="14" font-weight="bold" lengthAdjust="spacing" textLength="39" x="110" y="189.4951">Task</text><line style="stroke:#A80036;stroke-width:1.0;" x1="105" x2="105" y1="174.5" y2="194.7969"/><line style="stroke:#A80036;stroke-width:1.0;" x1="10" x2="178" y1="194.7969" y2="194.7969"/><text fill="#000000" font-family="sans-serif" font-size="14" lengthAdjust="spacing" textLength="85" x="15" y="209.792">assigned_to</text><text fill="#000000" font-family="sans-serif" font-size="14" lengthAdjust="spacing" textLength="63" x="110" y="209.792">arabellaf</text><line style="stroke:#A80036;stroke-width:1.0;" x1="105" x2="105" y1="194.7969" y2="215.0938"/><line style="stroke:#A80036;stroke-width:1.0;" x1="10" x2="178" y1="215.0938" y2="215.0938"/><text fill="#000000" font-family="sans-serif" font-size="14" lengthAdjust="spacing" textLength="72" x="21.5" y="230.0889">discussion</text><text fill="#000000" font-family="sans-serif" font-size="14" lengthAdjust="spacing" textLength="0" x="122" y="230.0889"/><line style="stroke:#A80036;stroke-width:1.0;" x1="105" x2="105" y1="215.0938" y2="235.3906"/><line style="stroke:#A80036;stroke-width:1.0;" x1="10" x2="178" y1="235.3906" y2="235.3906"/><text fill="#000000" font-family="sans-serif" font-size="14" lengthAdjust="spacing" textLength="15" x="50" y="250.3857">...</text><text fill="#000000" font-family="sans-serif" font-size="14" lengthAdjust="spacing" textLength="15" x="110" y="250.3857">...</text><line style="stroke:#A80036;stroke-width:1.0;" x1="105" x2="105" y1="235.3906" y2="255.6875"/><rect fill="none" height="81.1875" rx="5" ry="5" style="stroke:#A80036;stroke-width:1.5;" width="168" x="10" y="174.5"/><text fill="#000000" font-family="sans-serif" font-size="14" lengthAdjust="spacing" textLength="0" x="232" y="219.4951"/><line style="stroke:#A80036;stroke-width:1.0;" x1="215" x2="237" y1="224.7969" y2="224.7969"/><text fill="#000000" font-family="sans-serif" font-size="14" lengthAdjust="spacing" textLength="0" x="232" y="239.792"/><rect fill="none" height="40.5938" rx="5" ry="5" style="stroke:#A80036;stroke-width:1.5;" width="22" x="215" y="204.5"/><rect fill="#CCFF02" height="20.2969" rx="2" ry="2" style="stroke:#CCFF02;stroke-width:1.0;" width="244" x="277.5" y="102.5"/><text fill="#000000" font-family="sans-serif" font-size="14" font-weight="bold" lengthAdjust="spacing" textLength="49" x="297" y="117.4951">Entity</text><text fill="#000000" font-family="sans-serif" font-size="14" font-weight="bold" lengthAdjust="spacing" textLength="77" x="372" y="117.4951">Comment</text><line style="stroke:#A80036;stroke-width:1.0;" x1="367" x2="367" y1="102.5" y2="122.7969"/><line style="stroke:#A80036;stroke-width:1.0;" x1="276" x2="522" y1="122.7969" y2="122.7969"/><text fill="#000000" font-family="sans-serif" font-size="14" lengthAdjust="spacing" textLength="53" x="295" y="137.792">creator</text><text fill="#000000" font-family="sans-serif" font-size="14" lengthAdjust="spacing" textLength="63" x="372" y="137.792">arabellaf</text><line style="stroke:#A80036;stroke-width:1.0;" x1="367" x2="367" y1="122.7969" y2="143.0938"/><line style="stroke:#A80036;stroke-width:1.0;" x1="276" x2="522" y1="143.0938" y2="143.0938"/><text fill="#000000" font-family="sans-serif" font-size="14" lengthAdjust="spacing" textLength="58" x="292.5" y="158.0889">content</text><text fill="#000000" font-family="sans-serif" font-size="14" lengthAdjust="spacing" textLength="145" x="372" y="158.0889">How to do this task?</text><line style="stroke:#A80036;stroke-width:1.0;" x1="367" x2="367" y1="143.0938" y2="163.3906"/><line style="stroke:#A80036;stroke-width:1.0;" x1="276" x2="522" y1="163.3906" y2="163.3906"/><text fill="#000000" font-family="sans-serif" font-size="14" lengthAdjust="spacing" textLength="81" x="281" y="178.3857">created_on</text><text fill="#000000" font-family="sans-serif" font-size="14" lengthAdjust="spacing" textLength="95" x="372" y="178.3857">(time object)</text><line style="stroke:#A80036;stroke-width:1.0;" x1="367" x2="367" y1="163.3906" y2="183.6875"/><line style="stroke:#A80036;stroke-width:1.0;" x1="276" x2="522" y1="183.6875" y2="183.6875"/><text fill="#000000" font-family="sans-serif" font-size="14" lengthAdjust="spacing" textLength="77" x="283" y="198.6826">comments</text><text fill="#000000" font-family="sans-serif" font-size="14" lengthAdjust="spacing" textLength="0" x="384" y="198.6826"/><line style="stroke:#A80036;stroke-width:1.0;" x1="367" x2="367" y1="183.6875" y2="203.9844"/><rect fill="none" height="101.4844" rx="5" ry="5" style="stroke:#A80036;stroke-width:1.5;" width="246" x="276" y="102.5"/><text fill="#000000" font-family="sans-serif" font-size="14" lengthAdjust="spacing" textLength="0" x="576" y="187.4951"/><line style="stroke:#A80036;stroke-width:1.0;" x1="559" x2="581" y1="192.7969" y2="192.7969"/><text fill="#000000" font-family="sans-serif" font-size="14" lengthAdjust="spacing" textLength="0" x="576" y="207.792"/><rect fill="none" height="40.5938" rx="5" ry="5" style="stroke:#A80036;stroke-width:1.5;" width="22" x="559" y="172.5"/><rect fill="#CCFF02" height="20.2969" rx="2" ry="2" style="stroke:#CCFF02;stroke-width:1.0;" width="245" x="622" y="10"/><text fill="#000000" font-family="sans-serif" font-size="14" font-weight="bold" lengthAdjust="spacing" textLength="49" x="641.5" y="24.9951">Entity</text><text fill="#000000" font-family="sans-serif" font-size="14" font-weight="bold" lengthAdjust="spacing" textLength="77" x="716.5" y="24.9951">Comment</text><line style="stroke:#A80036;stroke-width:1.0;" x1="711.5" x2="711.5" y1="10" y2="30.2969"/><line style="stroke:#A80036;stroke-width:1.0;" x1="620.5" x2="867.5" y1="30.2969" y2="30.2969"/><text fill="#000000" font-family="sans-serif" font-size="14" lengthAdjust="spacing" textLength="53" x="639.5" y="45.292">creator</text><text fill="#000000" font-family="sans-serif" font-size="14" lengthAdjust="spacing" textLength="56" x="716.5" y="45.292">jamesm</text><line style="stroke:#A80036;stroke-width:1.0;" x1="711.5" x2="711.5" y1="30.2969" y2="50.5938"/><line style="stroke:#A80036;stroke-width:1.0;" x1="620.5" x2="867.5" y1="50.5938" y2="50.5938"/><text fill="#000000" font-family="sans-serif" font-size="14" lengthAdjust="spacing" textLength="58" x="637" y="65.5889">content</text><text fill="#000000" font-family="sans-serif" font-size="14" lengthAdjust="spacing" textLength="104" x="716.5" y="65.5889">This may help:</text><text fill="#000000" font-family="sans-serif" font-size="14" lengthAdjust="spacing" textLength="146" x="716.5" y="81.8857">https://example.org</text><line style="stroke:#A80036;stroke-width:1.0;" x1="711.5" x2="711.5" y1="50.5938" y2="87.1875"/><line style="stroke:#A80036;stroke-width:1.0;" x1="620.5" x2="867.5" y1="87.1875" y2="87.1875"/><text fill="#000000" font-family="sans-serif" font-size="14" lengthAdjust="spacing" textLength="81" x="625.5" y="102.1826">created_on</text><text fill="#000000" font-family="sans-serif" font-size="14" lengthAdjust="spacing" textLength="95" x="716.5" y="102.1826">(time object)</text><line style="stroke:#A80036;stroke-width:1.0;" x1="711.5" x2="711.5" y1="87.1875" y2="107.4844"/><line style="stroke:#A80036;stroke-width:1.0;" x1="620.5" x2="867.5" y1="107.4844" y2="107.4844"/><text fill="#000000" font-family="sans-serif" font-size="14" lengthAdjust="spacing" textLength="77" x="627.5" y="122.4795">comments</text><text fill="#000000" font-family="sans-serif" font-size="14" lengthAdjust="spacing" textLength="0" x="728.5" y="122.4795"/><line style="stroke:#A80036;stroke-width:1.0;" x1="711.5" x2="711.5" y1="107.4844" y2="127.7813"/><rect fill="none" height="117.7813" rx="5" ry="5" style="stroke:#A80036;stroke-width:1.5;" width="247" x="620.5" y="10"/><text fill="#000000" font-family="sans-serif" font-size="14" lengthAdjust="spacing" textLength="0" x="922" y="120.9951"/><rect fill="none" height="20.2969" rx="5" ry="5" style="stroke:#A80036;stroke-width:1.5;" width="22" x="905" y="106"/><rect fill="#CCFF02" height="20.2969" rx="2" ry="2" style="stroke:#CCFF02;stroke-width:1.0;" width="210" x="973.5" y="57"/><text fill="#000000" font-family="sans-serif" font-size="14" font-weight="bold" lengthAdjust="spacing" textLength="49" x="993" y="71.9951">Entity</text><text fill="#000000" font-family="sans-serif" font-size="14" font-weight="bold" lengthAdjust="spacing" textLength="77" x="1068" y="71.9951">Comment</text><line style="stroke:#A80036;stroke-width:1.0;" x1="1063" x2="1063" y1="57" y2="77.2969"/><line style="stroke:#A80036;stroke-width:1.0;" x1="972" x2="1184" y1="77.2969" y2="77.2969"/><text fill="#000000" font-family="sans-serif" font-size="14" lengthAdjust="spacing" textLength="53" x="991" y="92.292">creator</text><text fill="#000000" font-family="sans-serif" font-size="14" lengthAdjust="spacing" textLength="63" x="1068" y="92.292">arabellaf</text><line style="stroke:#A80036;stroke-width:1.0;" x1="1063" x2="1063" y1="77.2969" y2="97.5938"/><line style="stroke:#A80036;stroke-width:1.0;" x1="972" x2="1184" y1="97.5938" y2="97.5938"/><text fill="#000000" font-family="sans-serif" font-size="14" lengthAdjust="spacing" textLength="58" x="988.5" y="112.5889">content</text><text fill="#000000" font-family="sans-serif" font-size="14" lengthAdjust="spacing" textLength="111" x="1068" y="112.5889">Thanks but this</text><text fill="#000000" font-family="sans-serif" font-size="14" lengthAdjust="spacing" textLength="85" x="1068" y="128.8857">is irrelevant</text><line style="stroke:#A80036;stroke-width:1.0;" x1="1063" x2="1063" y1="97.5938" y2="134.1875"/><line style="stroke:#A80036;stroke-width:1.0;" x1="972" x2="1184" y1="134.1875" y2="134.1875"/><text fill="#000000" font-family="sans-serif" font-size="14" lengthAdjust="spacing" textLength="81" x="977" y="149.1826">created_on</text><text fill="#000000" font-family="sans-serif" font-size="14" lengthAdjust="spacing" textLength="95" x="1068" y="149.1826">(time object)</text><line style="stroke:#A80036;stroke-width:1.0;" x1="1063" x2="1063" y1="134.1875" y2="154.4844"/><line style="stroke:#A80036;stroke-width:1.0;" x1="972" x2="1184" y1="154.4844" y2="154.4844"/><text fill="#000000" font-family="sans-serif" font-size="14" lengthAdjust="spacing" textLength="77" x="979" y="169.4795">comments</text><text fill="#000000" font-family="sans-serif" font-size="14" lengthAdjust="spacing" textLength="0" x="1080" y="169.4795"/><line style="stroke:#A80036;stroke-width:1.0;" x1="1063" x2="1063" y1="154.4844" y2="174.7813"/><rect fill="none" height="117.7813" rx="5" ry="5" style="stroke:#A80036;stroke-width:1.5;" width="212" x="972" y="57"/><rect fill="none" height="15" rx="5" ry="5" style="stroke:#A80036;stroke-width:1.5;" width="30" x="1227" y="155"/><rect fill="#CCFF02" height="20.2969" rx="2" ry="2" style="stroke:#CCFF02;stroke-width:1.0;" width="246" x="621.5" y="146"/><text fill="#000000" font-family="sans-serif" font-size="14" font-weight="bold" lengthAdjust="spacing" textLength="49" x="641" y="160.9951">Entity</text><text fill="#000000" font-family="sans-serif" font-size="14" font-weight="bold" lengthAdjust="spacing" textLength="77" x="716" y="160.9951">Comment</text><line style="stroke:#A80036;stroke-width:1.0;" x1="711" x2="711" y1="146" y2="166.2969"/><line style="stroke:#A80036;stroke-width:1.0;" x1="620" x2="868" y1="166.2969" y2="166.2969"/><text fill="#000000" font-family="sans-serif" font-size="14" lengthAdjust="spacing" textLength="53" x="639" y="181.292">creator</text><text fill="#000000" font-family="sans-serif" font-size="14" lengthAdjust="spacing" textLength="56" x="716" y="181.292">evelynd</text><line style="stroke:#A80036;stroke-width:1.0;" x1="711" x2="711" y1="166.2969" y2="186.5938"/><line style="stroke:#A80036;stroke-width:1.0;" x1="620" x2="868" y1="186.5938" y2="186.5938"/><text fill="#000000" font-family="sans-serif" font-size="14" lengthAdjust="spacing" textLength="58" x="636.5" y="201.5889">content</text><text fill="#000000" font-family="sans-serif" font-size="14" lengthAdjust="spacing" textLength="115" x="716" y="201.5889">I found this link:</text><text fill="#000000" font-family="sans-serif" font-size="14" lengthAdjust="spacing" textLength="147" x="716" y="217.8857">https://example.net</text><line style="stroke:#A80036;stroke-width:1.0;" x1="711" x2="711" y1="186.5938" y2="223.1875"/><line style="stroke:#A80036;stroke-width:1.0;" x1="620" x2="868" y1="223.1875" y2="223.1875"/><text fill="#000000" font-family="sans-serif" font-size="14" lengthAdjust="spacing" textLength="81" x="625" y="238.1826">created_on</text><text fill="#000000" font-family="sans-serif" font-size="14" lengthAdjust="spacing" textLength="95" x="716" y="238.1826">(time object)</text><line style="stroke:#A80036;stroke-width:1.0;" x1="711" x2="711" y1="223.1875" y2="243.4844"/><line style="stroke:#A80036;stroke-width:1.0;" x1="620" x2="868" y1="243.4844" y2="243.4844"/><text fill="#000000" font-family="sans-serif" font-size="14" lengthAdjust="spacing" textLength="77" x="627" y="258.4795">comments</text><text fill="#000000" font-family="sans-serif" font-size="14" lengthAdjust="spacing" textLength="0" x="728" y="258.4795"/><line style="stroke:#A80036;stroke-width:1.0;" x1="711" x2="711" y1="243.4844" y2="263.7813"/><rect fill="none" height="117.7813" rx="5" ry="5" style="stroke:#A80036;stroke-width:1.5;" width="248" x="620" y="146"/><text fill="#000000" font-family="sans-serif" font-size="14" lengthAdjust="spacing" textLength="0" x="922" y="256.9951"/><rect fill="none" height="20.2969" rx="5" ry="5" style="stroke:#A80036;stroke-width:1.5;" width="22" x="905" y="242"/><rect fill="#CCFF02" height="20.2969" rx="2" ry="2" style="stroke:#CCFF02;stroke-width:1.0;" width="222" x="967.5" y="193"/><text fill="#000000" font-family="sans-serif" font-size="14" font-weight="bold" lengthAdjust="spacing" textLength="49" x="987" y="207.9951">Entity</text><text fill="#000000" font-family="sans-serif" font-size="14" font-weight="bold" lengthAdjust="spacing" textLength="77" x="1062" y="207.9951">Comment</text><line style="stroke:#A80036;stroke-width:1.0;" x1="1057" x2="1057" y1="193" y2="213.2969"/><line style="stroke:#A80036;stroke-width:1.0;" x1="966" x2="1190" y1="213.2969" y2="213.2969"/><text fill="#000000" font-family="sans-serif" font-size="14" lengthAdjust="spacing" textLength="53" x="985" y="228.292">creator</text><text fill="#000000" font-family="sans-serif" font-size="14" lengthAdjust="spacing" textLength="63" x="1062" y="228.292">arabellaf</text><line style="stroke:#A80036;stroke-width:1.0;" x1="1057" x2="1057" y1="213.2969" y2="233.5938"/><line style="stroke:#A80036;stroke-width:1.0;" x1="966" x2="1190" y1="233.5938" y2="233.5938"/><text fill="#000000" font-family="sans-serif" font-size="14" lengthAdjust="spacing" textLength="58" x="982.5" y="248.5889">content</text><text fill="#000000" font-family="sans-serif" font-size="14" lengthAdjust="spacing" textLength="123" x="1062" y="248.5889">Wow this is really</text><text fill="#000000" font-family="sans-serif" font-size="14" lengthAdjust="spacing" textLength="112" x="1062" y="264.8857">helpful, thanks.</text><line style="stroke:#A80036;stroke-width:1.0;" x1="1057" x2="1057" y1="233.5938" y2="270.1875"/><line style="stroke:#A80036;stroke-width:1.0;" x1="966" x2="1190" y1="270.1875" y2="270.1875"/><text fill="#000000" font-family="sans-serif" font-size="14" lengthAdjust="spacing" textLength="81" x="971" y="285.1826">created_on</text><text fill="#000000" font-family="sans-serif" font-size="14" lengthAdjust="spacing" textLength="95" x="1062" y="285.1826">(time object)</text><line style="stroke:#A80036;stroke-width:1.0;" x1="1057" x2="1057" y1="270.1875" y2="290.4844"/><line style="stroke:#A80036;stroke-width:1.0;" x1="966" x2="1190" y1="290.4844" y2="290.4844"/><text fill="#000000" font-family="sans-serif" font-size="14" lengthAdjust="spacing" textLength="77" x="973" y="305.4795">comments</text><text fill="#000000" font-family="sans-serif" font-size="14" lengthAdjust="spacing" textLength="0" x="1074" y="305.4795"/><line style="stroke:#A80036;stroke-width:1.0;" x1="1057" x2="1057" y1="290.4844" y2="310.7813"/><rect fill="none" height="117.7813" rx="5" ry="5" style="stroke:#A80036;stroke-width:1.5;" width="224" x="966" y="193"/><rect fill="none" height="15" rx="5" ry="5" style="stroke:#A80036;stroke-width:1.5;" width="30" x="1227" y="291"/><rect fill="#CCFF02" height="20.2969" rx="2" ry="2" style="stroke:#CCFF02;stroke-width:1.0;" width="231" x="284" y="222"/><text fill="#000000" font-family="sans-serif" font-size="14" font-weight="bold" lengthAdjust="spacing" textLength="49" x="303.5" y="236.9951">Entity</text><text fill="#000000" font-family="sans-serif" font-size="14" font-weight="bold" lengthAdjust="spacing" textLength="77" x="378.5" y="236.9951">Comment</text><line style="stroke:#A80036;stroke-width:1.0;" x1="373.5" x2="373.5" y1="222" y2="242.2969"/><line style="stroke:#A80036;stroke-width:1.0;" x1="282.5" x2="515.5" y1="242.2969" y2="242.2969"/><text fill="#000000" font-family="sans-serif" font-size="14" lengthAdjust="spacing" textLength="53" x="301.5" y="257.292">creator</text><text fill="#000000" font-family="sans-serif" font-size="14" lengthAdjust="spacing" textLength="62" x="378.5" y="257.292">opheliad</text><line style="stroke:#A80036;stroke-width:1.0;" x1="373.5" x2="373.5" y1="242.2969" y2="262.5938"/><line style="stroke:#A80036;stroke-width:1.0;" x1="282.5" x2="515.5" y1="262.5938" y2="262.5938"/><text fill="#000000" font-family="sans-serif" font-size="14" lengthAdjust="spacing" textLength="58" x="299" y="277.5889">content</text><text fill="#000000" font-family="sans-serif" font-size="14" lengthAdjust="spacing" textLength="132" x="378.5" y="277.5889">Task #14 depends</text><text fill="#000000" font-family="sans-serif" font-size="14" lengthAdjust="spacing" textLength="98" x="378.5" y="293.8857">on this so can</text><text fill="#000000" font-family="sans-serif" font-size="14" lengthAdjust="spacing" textLength="112" x="378.5" y="310.1826">you resolve this</text><text fill="#000000" font-family="sans-serif" font-size="14" lengthAdjust="spacing" textLength="131" x="378.5" y="326.4795">faster? @arabellaf</text><line style="stroke:#A80036;stroke-width:1.0;" x1="373.5" x2="373.5" y1="262.5938" y2="331.7813"/><line style="stroke:#A80036;stroke-width:1.0;" x1="282.5" x2="515.5" y1="331.7813" y2="331.7813"/><text fill="#000000" font-family="sans-serif" font-size="14" lengthAdjust="spacing" textLength="81" x="287.5" y="346.7764">created_on</text><text fill="#000000" font-family="sans-serif" font-size="14" lengthAdjust="spacing" textLength="95" x="378.5" y="346.7764">(time object)</text><line style="stroke:#A80036;stroke-width:1.0;" x1="373.5" x2="373.5" y1="331.7813" y2="352.0781"/><line style="stroke:#A80036;stroke-width:1.0;" x1="282.5" x2="515.5" y1="352.0781" y2="352.0781"/><text fill="#000000" font-family="sans-serif" font-size="14" lengthAdjust="spacing" textLength="77" x="289.5" y="367.0732">comments</text><text fill="#000000" font-family="sans-serif" font-size="14" lengthAdjust="spacing" textLength="0" x="390.5" y="367.0732"/><line style="stroke:#A80036;stroke-width:1.0;" x1="373.5" x2="373.5" y1="352.0781" y2="372.375"/><rect fill="none" height="150.375" rx="5" ry="5" style="stroke:#A80036;stroke-width:1.5;" width="233" x="282.5" y="222"/><text fill="#000000" font-family="sans-serif" font-size="14" lengthAdjust="spacing" textLength="0" x="576" y="351.4951"/><line style="stroke:#A80036;stroke-width:1.0;" x1="559" x2="581" y1="356.7969" y2="356.7969"/><text fill="#000000" font-family="sans-serif" font-size="14" lengthAdjust="spacing" textLength="0" x="576" y="371.792"/><rect fill="none" height="40.5938" rx="5" ry="5" style="stroke:#A80036;stroke-width:1.5;" width="22" x="559" y="336.5"/><rect fill="#CCFF02" height="20.2969" rx="2" ry="2" style="stroke:#CCFF02;stroke-width:1.0;" width="219" x="635" y="285"/><text fill="#000000" font-family="sans-serif" font-size="14" font-weight="bold" lengthAdjust="spacing" textLength="49" x="654.5" y="299.9951">Entity</text><text fill="#000000" font-family="sans-serif" font-size="14" font-weight="bold" lengthAdjust="spacing" textLength="77" x="729.5" y="299.9951">Comment</text><line style="stroke:#A80036;stroke-width:1.0;" x1="724.5" x2="724.5" y1="285" y2="305.2969"/><line style="stroke:#A80036;stroke-width:1.0;" x1="633.5" x2="854.5" y1="305.2969" y2="305.2969"/><text fill="#000000" font-family="sans-serif" font-size="14" lengthAdjust="spacing" textLength="53" x="652.5" y="320.292">creator</text><text fill="#000000" font-family="sans-serif" font-size="14" lengthAdjust="spacing" textLength="56" x="729.5" y="320.292">evelynd</text><line style="stroke:#A80036;stroke-width:1.0;" x1="724.5" x2="724.5" y1="305.2969" y2="325.5938"/><line style="stroke:#A80036;stroke-width:1.0;" x1="633.5" x2="854.5" y1="325.5938" y2="325.5938"/><text fill="#000000" font-family="sans-serif" font-size="14" lengthAdjust="spacing" textLength="58" x="650" y="340.5889">content</text><text fill="#000000" font-family="sans-serif" font-size="14" lengthAdjust="spacing" textLength="111" x="729.5" y="340.5889">You can do #17</text><text fill="#000000" font-family="sans-serif" font-size="14" lengthAdjust="spacing" textLength="120" x="729.5" y="356.8857">in the meantime</text><line style="stroke:#A80036;stroke-width:1.0;" x1="724.5" x2="724.5" y1="325.5938" y2="362.1875"/><line style="stroke:#A80036;stroke-width:1.0;" x1="633.5" x2="854.5" y1="362.1875" y2="362.1875"/><text fill="#000000" font-family="sans-serif" font-size="14" lengthAdjust="spacing" textLength="81" x="638.5" y="377.1826">created_on</text><text fill="#000000" font-family="sans-serif" font-size="14" lengthAdjust="spacing" textLength="95" x="729.5" y="377.1826">(time object)</text><line style="stroke:#A80036;stroke-width:1.0;" x1="724.5" x2="724.5" y1="362.1875" y2="382.4844"/><line style="stroke:#A80036;stroke-width:1.0;" x1="633.5" x2="854.5" y1="382.4844" y2="382.4844"/><text fill="#000000" font-family="sans-serif" font-size="14" lengthAdjust="spacing" textLength="77" x="640.5" y="397.4795">comments</text><text fill="#000000" font-family="sans-serif" font-size="14" lengthAdjust="spacing" textLength="0" x="741.5" y="397.4795"/><line style="stroke:#A80036;stroke-width:1.0;" x1="724.5" x2="724.5" y1="382.4844" y2="402.7813"/><rect fill="none" height="117.7813" rx="5" ry="5" style="stroke:#A80036;stroke-width:1.5;" width="221" x="633.5" y="285"/><rect fill="none" height="15" rx="5" ry="5" style="stroke:#A80036;stroke-width:1.5;" width="30" x="905" y="383"/><rect fill="#CCFF02" height="20.2969" rx="2" ry="2" style="stroke:#CCFF02;stroke-width:1.0;" width="194" x="647.5" y="421.5"/><text fill="#000000" font-family="sans-serif" font-size="14" font-weight="bold" lengthAdjust="spacing" textLength="49" x="667" y="436.4951">Entity</text><text fill="#000000" font-family="sans-serif" font-size="14" font-weight="bold" lengthAdjust="spacing" textLength="77" x="742" y="436.4951">Comment</text><line style="stroke:#A80036;stroke-width:1.0;" x1="737" x2="737" y1="421.5" y2="441.7969"/><line style="stroke:#A80036;stroke-width:1.0;" x1="646" x2="842" y1="441.7969" y2="441.7969"/><text fill="#000000" font-family="sans-serif" font-size="14" lengthAdjust="spacing" textLength="53" x="665" y="456.792">creator</text><text fill="#000000" font-family="sans-serif" font-size="14" lengthAdjust="spacing" textLength="63" x="742" y="456.792">arabellaf</text><line style="stroke:#A80036;stroke-width:1.0;" x1="737" x2="737" y1="441.7969" y2="462.0938"/><line style="stroke:#A80036;stroke-width:1.0;" x1="646" x2="842" y1="462.0938" y2="462.0938"/><text fill="#000000" font-family="sans-serif" font-size="14" lengthAdjust="spacing" textLength="58" x="662.5" y="477.0889">content</text><text fill="#000000" font-family="sans-serif" font-size="14" lengthAdjust="spacing" textLength="32" x="742" y="477.0889">Sure</text><line style="stroke:#A80036;stroke-width:1.0;" x1="737" x2="737" y1="462.0938" y2="482.3906"/><line style="stroke:#A80036;stroke-width:1.0;" x1="646" x2="842" y1="482.3906" y2="482.3906"/><text fill="#000000" font-family="sans-serif" font-size="14" lengthAdjust="spacing" textLength="81" x="651" y="497.3857">created_on</text><text fill="#000000" font-family="sans-serif" font-size="14" lengthAdjust="spacing" textLength="95" x="742" y="497.3857">(time object)</text><line style="stroke:#A80036;stroke-width:1.0;" x1="737" x2="737" y1="482.3906" y2="502.6875"/><line style="stroke:#A80036;stroke-width:1.0;" x1="646" x2="842" y1="502.6875" y2="502.6875"/><text fill="#000000" font-family="sans-serif" font-size="14" lengthAdjust="spacing" textLength="77" x="653" y="517.6826">comments</text><text fill="#000000" font-family="sans-serif" font-size="14" lengthAdjust="spacing" textLength="0" x="754" y="517.6826"/><line style="stroke:#A80036;stroke-width:1.0;" x1="737" x2="737" y1="502.6875" y2="522.9844"/><rect fill="none" height="101.4844" rx="5" ry="5" style="stroke:#A80036;stroke-width:1.5;" width="196" x="646" y="421.5"/><rect fill="none" height="15" rx="5" ry="5" style="stroke:#A80036;stroke-width:1.5;" width="30" x="905" y="504"/><path d="M1172.5,163 L1185.5,163 C1196.7142,163 1209.2631,163 1219.3342,163 " fill="none" style="stroke:#A80036;stroke-width:1.0;stroke-dasharray:3.0,3.0;"/><path d="M1219.3342,166.1173 L1221.6722,163 L1219.3342,159.8827 L1227.1274,163 L1219.3342,166.1173 " fill="#A80036" style="stroke:#A80036;stroke-width:1.0;"/><ellipse cx="1172.5" cy="163" fill="#A80036" rx="3" ry="3" style="stroke:#A80036;stroke-width:1.0;"/><path d="M916.526,116 L929.526,116 C938.1284,116 950.662,116 964.8495,116 " fill="none" style="stroke:#A80036;stroke-width:1.0;stroke-dasharray:3.0,3.0;"/><path d="M964.8495,119.0231 L967.1168,116 L964.8495,112.9769 L972.4073,116 L964.8495,119.0231 " fill="#A80036" style="stroke:#A80036;stroke-width:1.0;"/><ellipse cx="916.526" cy="116" fill="#A80036" rx="3" ry="3" style="stroke:#A80036;stroke-width:1.0;"/><path d="M856,116 L869,116 C878.374,116 888.7885,116 897.4714,116 " fill="none" style="stroke:#A80036;stroke-width:1.0;stroke-dasharray:3.0,3.0;"/><path d="M897.4714,119.0815 L899.7825,116 L897.4714,112.9185 L905.1751,116 L897.4714,119.0815 " fill="#A80036" style="stroke:#A80036;stroke-width:1.0;"/><ellipse cx="856" cy="116" fill="#A80036" rx="3" ry="3" style="stroke:#A80036;stroke-width:1.0;"/><path d="M571,182 L584,182 C609.6125,182 600.4052,153.4938 620,137 C621.7116,135.5592 623.4585,134.1347 625.2358,132.727 " fill="none" style="stroke:#A80036;stroke-width:1.0;stroke-dasharray:3.0,3.0;"/><path d="M627.1239,135.1885 L627.082,131.311 L623.3478,130.2655 L631.3897,128.0069 L627.1239,135.1885 " fill="#A80036" style="stroke:#A80036;stroke-width:1.0;"/><ellipse cx="571" cy="182" fill="#A80036" rx="3" ry="3" style="stroke:#A80036;stroke-width:1.0;"/><path d="M1178,299 L1191,299 C1200.374,299 1210.7885,299 1219.4714,299 " fill="none" style="stroke:#A80036;stroke-width:1.0;stroke-dasharray:3.0,3.0;"/><path d="M1219.4714,302.0815 L1221.7825,299 L1219.4714,295.9185 L1227.1751,299 L1219.4714,302.0815 " fill="#A80036" style="stroke:#A80036;stroke-width:1.0;"/><ellipse cx="1178" cy="299" fill="#A80036" rx="3" ry="3" style="stroke:#A80036;stroke-width:1.0;"/><path d="M916.526,252 L929.526,252 C936.7992,252 946.8827,252 958.4,252 " fill="none" style="stroke:#A80036;stroke-width:1.0;stroke-dasharray:3.0,3.0;"/><path d="M958.4,255.1042 L960.7281,252 L958.4,248.8958 L966.1603,252 L958.4,255.1042 " fill="#A80036" style="stroke:#A80036;stroke-width:1.0;"/><ellipse cx="916.526" cy="252" fill="#A80036" rx="3" ry="3" style="stroke:#A80036;stroke-width:1.0;"/><path d="M856,252 L869,252 C878.374,252 888.7885,252 897.4714,252 " fill="none" style="stroke:#A80036;stroke-width:1.0;stroke-dasharray:3.0,3.0;"/><path d="M897.4714,255.0815 L899.7825,252 L897.4714,248.9185 L905.1751,252 L897.4714,255.0815 " fill="#A80036" style="stroke:#A80036;stroke-width:1.0;"/><ellipse cx="856" cy="252" fill="#A80036" rx="3" ry="3" style="stroke:#A80036;stroke-width:1.0;"/><path d="M571,203 L584,203 C593.2869,203 602.8778,203.0343 612.5336,203.094 " fill="none" style="stroke:#A80036;stroke-width:1.0;stroke-dasharray:3.0,3.0;"/><path d="M612.5124,206.1952 L614.8595,203.1099 L612.5548,199.9927 L620.2867,203.1471 L612.5124,206.1952 " fill="#A80036" style="stroke:#A80036;stroke-width:1.0;"/><ellipse cx="571" cy="203" fill="#A80036" rx="3" ry="3" style="stroke:#A80036;stroke-width:1.0;"/><path d="M510,193 L523,193 C532.374,193 542.7885,193 551.4714,193 " fill="none" style="stroke:#A80036;stroke-width:1.0;stroke-dasharray:3.0,3.0;"/><path d="M551.4714,196.0815 L553.7825,193 L551.4714,189.9185 L559.1751,193 L551.4714,196.0815 " fill="#A80036" style="stroke:#A80036;stroke-width:1.0;"/><ellipse cx="510" cy="193" fill="#A80036" rx="3" ry="3" style="stroke:#A80036;stroke-width:1.0;"/><path d="M227,214 L240,214 C257.4145,214 275.2302,210.7531 292.3351,205.7574 " fill="none" style="stroke:#A80036;stroke-width:1.0;stroke-dasharray:3.0,3.0;"/><path d="M293.2326,208.671 L294.5202,205.0843 L291.4376,202.8439 L299.619,203.5137 L293.2326,208.671 " fill="#A80036" style="stroke:#A80036;stroke-width:1.0;"/><ellipse cx="227" cy="214" fill="#A80036" rx="3" ry="3" style="stroke:#A80036;stroke-width:1.0;"/><path d="M843.5,391 L856.5,391 C870.3802,391 886.0666,391 897.9184,391 " fill="none" style="stroke:#A80036;stroke-width:1.0;stroke-dasharray:3.0,3.0;"/><path d="M897.9184,394.0092 L900.1753,391 L897.9184,387.9908 L905.4415,391 L897.9184,394.0092 " fill="#A80036" style="stroke:#A80036;stroke-width:1.0;"/><ellipse cx="843.5" cy="391" fill="#A80036" rx="3" ry="3" style="stroke:#A80036;stroke-width:1.0;"/><path d="M571,346 L584,346 C597.5523,346 611.7519,345.9269 625.856,345.8087 " fill="none" style="stroke:#A80036;stroke-width:1.0;stroke-dasharray:3.0,3.0;"/><path d="M625.884,348.9371 L628.2023,345.7876 L625.8279,342.6803 L633.677,345.7385 L625.884,348.9371 " fill="#A80036" style="stroke:#A80036;stroke-width:1.0;"/><ellipse cx="571" cy="346" fill="#A80036" rx="3" ry="3" style="stroke:#A80036;stroke-width:1.0;"/><path d="M830.5,512 L843.5,512 C861.7223,512 882.5032,512 897.2205,512 " fill="none" style="stroke:#A80036;stroke-width:1.0;stroke-dasharray:3.0,3.0;"/><path d="M897.2205,515.1598 L899.5903,512 L897.2205,508.8402 L905.1199,512 L897.2205,515.1598 " fill="#A80036" style="stroke:#A80036;stroke-width:1.0;"/><ellipse cx="830.5" cy="512" fill="#A80036" rx="3" ry="3" style="stroke:#A80036;stroke-width:1.0;"/><path d="M571,367 L584,367 C609.6125,367 599.9906,396.0118 620,412 C626.2022,416.9558 632.8809,421.6376 639.8071,426.0329 " fill="none" style="stroke:#A80036;stroke-width:1.0;stroke-dasharray:3.0,3.0;"/><path d="M638.2249,428.6024 L641.7343,427.2196 L641.3894,423.4634 L646.231,429.9885 L638.2249,428.6024 " fill="#A80036" style="stroke:#A80036;stroke-width:1.0;"/><ellipse cx="571" cy="367" fill="#A80036" rx="3" ry="3" style="stroke:#A80036;stroke-width:1.0;"/><path d="M504.5,357 L517.5,357 C528.7142,357 541.2631,357 551.3342,357 " fill="none" style="stroke:#A80036;stroke-width:1.0;stroke-dasharray:3.0,3.0;"/><path d="M551.3342,360.1173 L553.6722,357 L551.3342,353.8827 L559.1274,357 L551.3342,360.1173 " fill="#A80036" style="stroke:#A80036;stroke-width:1.0;"/><ellipse cx="504.5" cy="357" fill="#A80036" rx="3" ry="3" style="stroke:#A80036;stroke-width:1.0;"/><path d="M227,235 L240,235 C251.6344,235 263.4395,236.4667 275.0876,238.949 " fill="none" style="stroke:#A80036;stroke-width:1.0;stroke-dasharray:3.0,3.0;"/><path d="M274.3785,242.0004 L277.3761,239.4808 L275.7966,235.8977 L282.716,240.7217 L274.3785,242.0004 " fill="#A80036" style="stroke:#A80036;stroke-width:1.0;"/><ellipse cx="227" cy="235" fill="#A80036" rx="3" ry="3" style="stroke:#A80036;stroke-width:1.0;"/><path d="M166,225 L179,225 C188.374,225 198.7885,225 207.4714,225 " fill="none" style="stroke:#A80036;stroke-width:1.0;stroke-dasharray:3.0,3.0;"/><path d="M207.4714,228.0815 L209.7825,225 L207.4714,221.9185 L215.1751,225 L207.4714,228.0815 " fill="#A80036" style="stroke:#A80036;stroke-width:1.0;"/><ellipse cx="166" cy="225" fill="#A80036" rx="3" ry="3" style="stroke:#A80036;stroke-width:1.0;"/><!--MD5=[6b2889191c2cb8970d9b1eb000616b88]
@startjson
#highlight "**Entity**"
#highlight "discussion" / "0" / "**Entity**"
#highlight "discussion" / "1" / "**Entity**"
#highlight "discussion" / "0" / "comments" / "0" / "**Entity**"
#highlight "discussion" / "0" / "comments" / "1" / "**Entity**"
#highlight "discussion" / "0" / "comments" / "0" / "comments" / "0" / "**Entity**"
#highlight "discussion" / "0" / "comments" / "1" / "comments" / "0" / "**Entity**"
#highlight "discussion" / "1" / "comments" / "0" / "**Entity**"
#highlight "discussion" / "1" / "comments" / "1" / "**Entity**"
{
  "**Entity**": "**Task**",
  "assigned_to": "arabellaf",
  "discussion": [
    {
      "**Entity**": "**Comment**",
      "creator": "arabellaf",
      "content": "How to do this task?",
      "created_on": "(time object)",
      "comments": [
        {
          "**Entity**": "**Comment**",
          "creator": "jamesm",
          "content": "This may help:\\nhttps://example.org",
          "created_on": "(time object)",
          "comments": [
            {
              "**Entity**": "**Comment**",
              "creator": "arabellaf",
              "content": "Thanks but this\\nis irrelevant",
              "created_on": "(time object)",
              "comments": []
            }
          ]
        },
        {
          "**Entity**": "**Comment**",
          "creator": "evelynd",
          "content": "I found this link:\\nhttps://example.net",
          "created_on": "(time object)",
          "comments": [
            {
              "**Entity**": "**Comment**",
              "creator": "arabellaf",
              "content": "Wow this is really\\nhelpful, thanks.",
              "created_on": "(time object)",
              "comments": []
            }
          ]
        }
      ]
    },
    {
      "**Entity**": "**Comment**",
      "creator": "opheliad",
      "content": "Task #14 depends\\non this so can\\nyou resolve this\\nfaster? @arabellaf",
      "created_on": "(time object)",
      "comments": [
        {
          "**Entity**": "**Comment**",
          "creator": "evelynd",
          "content": "You can do #17\\nin the meantime",
          "created_on": "(time object)",
          "comments": []
        },
	{
          "**Entity**": "**Comment**",
	  "creator": "arabellaf",
	  "content": "Sure",
	  "created_on": "(time object)",
	  "comments": []
	}
      ]
    }
  ],
  "...": "..."
}
@endjson

PlantUML version 1.2021.01beta3(Unknown compile time)
(GPL source distribution)
Java Runtime: Java(TM) SE Runtime Environment
JVM: Java HotSpot(TM) 64-Bit Server VM
Default Encoding: UTF-8
Language: en
Country: US
--></g></svg>