<?xml version="1.0" encoding="UTF-8" standalone="no"?>
<svg xmlns="http://www.w3.org/2000/svg" xmlns:xlink="http://www.w3.org/1999/xlink" contentScriptType="application/ecmascript" contentStyleType="text/css" height="164px" preserveAspectRatio="none" style="width:478px;height:164px;" version="1.1" viewBox="0 0 478 164" width="478px" zoomAndPan="magnify"><defs/><g><rect fill="#CCFF02" height="20.2969" rx="2" ry="2" style="stroke:#CCFF02;stroke-width:1.0;" width="194" x="11.5" y="10"/><text fill="#000000" font-family="sans-serif" font-size="14" font-weight="bold" lengthAdjust="spacing" textLength="42" x="15" y="24.9951">table</text><text fill="#000000" font-family="sans-serif" font-size="14" font-weight="bold" lengthAdjust="spacing" textLength="28" x="67" y="24.9951">File</text><line style="stroke:#A80036;stroke-width:1.0;" x1="62" x2="62" y1="10" y2="30.2969"/><line style="stroke:#A80036;stroke-width:1.0;" x1="10" x2="206" y1="30.2969" y2="30.2969"/><text fill="#000000" font-family="sans-serif" font-size="14" lengthAdjust="spacing" textLength="21" x="25.5" y="45.292">cid</text><text fill="#000000" font-family="sans-serif" font-size="14" lengthAdjust="spacing" textLength="69" x="67" y="45.292">(IPFS CID)</text><line style="stroke:#A80036;stroke-width:1.0;" x1="62" x2="62" y1="30.2969" y2="50.5938"/><line style="stroke:#A80036;stroke-width:1.0;" x1="10" x2="206" y1="50.5938" y2="50.5938"/><text fill="#000000" font-family="sans-serif" font-size="14" lengthAdjust="spacing" textLength="13" x="29.5" y="65.5889">id</text><text fill="#000000" font-family="sans-serif" font-size="14" lengthAdjust="spacing" textLength="122" x="67" y="65.5889">(generated UUID)</text><line style="stroke:#A80036;stroke-width:1.0;" x1="62" x2="62" y1="50.5938" y2="70.8906"/><line style="stroke:#A80036;stroke-width:1.0;" x1="10" x2="206" y1="70.8906" y2="70.8906"/><text fill="#000000" font-family="sans-serif" font-size="14" lengthAdjust="spacing" textLength="40" x="16" y="85.8857">name</text><text fill="#000000" font-family="sans-serif" font-size="14" lengthAdjust="spacing" textLength="134" x="67" y="85.8857">report-draft-1.pdf</text><line style="stroke:#A80036;stroke-width:1.0;" x1="62" x2="62" y1="70.8906" y2="91.1875"/><line style="stroke:#A80036;stroke-width:1.0;" x1="10" x2="206" y1="91.1875" y2="91.1875"/><text fill="#000000" font-family="sans-serif" font-size="14" lengthAdjust="spacing" textLength="28" x="22" y="106.1826">size</text><text fill="#000000" font-family="sans-serif" font-size="14" lengthAdjust="spacing" textLength="44" x="67" y="106.1826">34537</text><line style="stroke:#A80036;stroke-width:1.0;" x1="62" x2="62" y1="91.1875" y2="111.4844"/><line style="stroke:#A80036;stroke-width:1.0;" x1="10" x2="206" y1="111.4844" y2="111.4844"/><text fill="#000000" font-family="sans-serif" font-size="14" lengthAdjust="spacing" textLength="34" x="19" y="126.4795">time</text><text fill="#000000" font-family="sans-serif" font-size="14" lengthAdjust="spacing" textLength="0" x="79" y="126.4795"/><line style="stroke:#A80036;stroke-width:1.0;" x1="62" x2="62" y1="111.4844" y2="131.7813"/><line style="stroke:#A80036;stroke-width:1.0;" x1="10" x2="206" y1="131.7813" y2="131.7813"/><text fill="#000000" font-family="sans-serif" font-size="14" lengthAdjust="spacing" textLength="30" x="21" y="146.7764">user</text><text fill="#000000" font-family="sans-serif" font-size="14" lengthAdjust="spacing" textLength="43" x="67" y="146.7764">adaml</text><line style="stroke:#A80036;stroke-width:1.0;" x1="62" x2="62" y1="131.7813" y2="152.0781"/><rect fill="none" height="142.0781" rx="5" ry="5" style="stroke:#A80036;stroke-width:1.5;" width="196" x="10" y="10"/><text fill="#000000" font-family="sans-serif" font-size="14" lengthAdjust="spacing" textLength="85" x="248.5" y="105.4951">$reql_type$</text><text fill="#000000" font-family="sans-serif" font-size="14" lengthAdjust="spacing" textLength="34" x="344" y="105.4951">TIME</text><line style="stroke:#A80036;stroke-width:1.0;" x1="339" x2="339" y1="90.5" y2="110.7969"/><line style="stroke:#A80036;stroke-width:1.0;" x1="243" x2="466" y1="110.7969" y2="110.7969"/><text fill="#000000" font-family="sans-serif" font-size="14" lengthAdjust="spacing" textLength="86" x="248" y="125.792">epoch_time</text><text fill="#000000" font-family="sans-serif" font-size="14" lengthAdjust="spacing" textLength="117" x="344" y="125.792">1610878758.474</text><line style="stroke:#A80036;stroke-width:1.0;" x1="339" x2="339" y1="110.7969" y2="131.0938"/><line style="stroke:#A80036;stroke-width:1.0;" x1="243" x2="466" y1="131.0938" y2="131.0938"/><text fill="#000000" font-family="sans-serif" font-size="14" lengthAdjust="spacing" textLength="69" x="256.5" y="146.0889">timezone</text><text fill="#000000" font-family="sans-serif" font-size="14" lengthAdjust="spacing" textLength="52" x="344" y="146.0889">+00:00</text><line style="stroke:#A80036;stroke-width:1.0;" x1="339" x2="339" y1="131.0938" y2="151.3906"/><rect fill="none" height="60.8906" rx="5" ry="5" style="stroke:#A80036;stroke-width:1.5;" width="223" x="243" y="90.5"/><path d="M194,121 L207,121 C216.2633,121 225.8549,121 235.4955,121 " fill="none" style="stroke:#A80036;stroke-width:1.0;stroke-dasharray:3.0,3.0;"/><path d="M235.4955,124.0947 L237.8165,121 L235.4955,117.9053 L243.2323,121 L235.4955,124.0947 " fill="#A80036" style="stroke:#A80036;stroke-width:1.0;"/><ellipse cx="194" cy="121" fill="#A80036" rx="3" ry="3" style="stroke:#A80036;stroke-width:1.0;"/><!--MD5=[a4a5b6da759c50dcad536dfefbb8db2f]
@startjson
#highlight "**table**"
  {
    "**table**": "**File**",
    "cid": "(IPFS CID)",
    "id": "(generated UUID)",
    "name": "report-draft-1.pdf",
    "size": 34537,
    "time": {
      "$reql_type$": "TIME",
      "epoch_time": 1610878758.474,
      "timezone": "+00:00"
    },  
    "user": "adaml"
  }
@endjson

PlantUML version 1.2021.01beta3(Unknown compile time)
(GPL source distribution)
Java Runtime: Java(TM) SE Runtime Environment
JVM: Java HotSpot(TM) 64-Bit Server VM
Default Encoding: UTF-8
Language: en
Country: US
--></g></svg>