<?xml version="1.0" encoding="UTF-8" standalone="no"?>
<svg xmlns="http://www.w3.org/2000/svg" xmlns:xlink="http://www.w3.org/1999/xlink" contentScriptType="application/ecmascript" contentStyleType="text/css" height="741px" preserveAspectRatio="none" style="width:696px;height:741px;" version="1.1" viewBox="0 0 696 741" width="696px" zoomAndPan="magnify"><defs/><g><rect fill="#CCFF02" height="20.2969" rx="2" ry="2" style="stroke:#CCFF02;stroke-width:1.0;" width="208" x="11.5" y="97"/><text fill="#000000" font-family="sans-serif" font-size="14" font-weight="bold" lengthAdjust="spacing" textLength="42" x="35" y="111.9951">table</text><text fill="#000000" font-family="sans-serif" font-size="14" font-weight="bold" lengthAdjust="spacing" textLength="67" x="107" y="111.9951">projects</text><line style="stroke:#A80036;stroke-width:1.0;" x1="102" x2="102" y1="97" y2="117.2969"/><line style="stroke:#A80036;stroke-width:1.0;" x1="10" x2="220" y1="117.2969" y2="117.2969"/><text fill="#000000" font-family="sans-serif" font-size="14" lengthAdjust="spacing" textLength="81" x="15.5" y="132.292">created_on</text><text fill="#000000" font-family="sans-serif" font-size="14" lengthAdjust="spacing" textLength="95" x="107" y="132.292">(time object)</text><line style="stroke:#A80036;stroke-width:1.0;" x1="102" x2="102" y1="117.2969" y2="137.5938"/><line style="stroke:#A80036;stroke-width:1.0;" x1="10" x2="220" y1="137.5938" y2="137.5938"/><text fill="#000000" font-family="sans-serif" font-size="14" lengthAdjust="spacing" textLength="61" x="25.5" y="152.5889">deadline</text><text fill="#000000" font-family="sans-serif" font-size="14" lengthAdjust="spacing" textLength="95" x="107" y="152.5889">(time object)</text><line style="stroke:#A80036;stroke-width:1.0;" x1="102" x2="102" y1="137.5938" y2="157.8906"/><line style="stroke:#A80036;stroke-width:1.0;" x1="10" x2="220" y1="157.8906" y2="157.8906"/><text fill="#000000" font-family="sans-serif" font-size="14" lengthAdjust="spacing" textLength="82" x="15" y="172.8857">description</text><text fill="#000000" font-family="sans-serif" font-size="14" lengthAdjust="spacing" textLength="108" x="107" y="172.8857">Lorem ipsum...</text><line style="stroke:#A80036;stroke-width:1.0;" x1="102" x2="102" y1="157.8906" y2="178.1875"/><line style="stroke:#A80036;stroke-width:1.0;" x1="10" x2="220" y1="178.1875" y2="178.1875"/><text fill="#000000" font-family="sans-serif" font-size="14" lengthAdjust="spacing" textLength="13" x="49.5" y="193.1826">id</text><text fill="#000000" font-family="sans-serif" font-size="14" lengthAdjust="spacing" textLength="82" x="107" y="193.1826">(project ID)</text><line style="stroke:#A80036;stroke-width:1.0;" x1="102" x2="102" y1="178.1875" y2="198.4844"/><line style="stroke:#A80036;stroke-width:1.0;" x1="10" x2="220" y1="198.4844" y2="198.4844"/><text fill="#000000" font-family="sans-serif" font-size="14" lengthAdjust="spacing" textLength="40" x="36" y="213.4795">name</text><text fill="#000000" font-family="sans-serif" font-size="14" lengthAdjust="spacing" textLength="107" x="107" y="213.4795">(project name)</text><line style="stroke:#A80036;stroke-width:1.0;" x1="102" x2="102" y1="198.4844" y2="218.7813"/><line style="stroke:#A80036;stroke-width:1.0;" x1="10" x2="220" y1="218.7813" y2="218.7813"/><text fill="#008000" font-family="sans-serif" font-size="14" lengthAdjust="spacing" textLength="47" x="32.5" y="233.7764">report</text><text fill="#000000" font-family="sans-serif" font-size="14" lengthAdjust="spacing" textLength="0" x="119" y="233.7764"/><line style="stroke:#A80036;stroke-width:1.0;" x1="102" x2="102" y1="218.7813" y2="239.0781"/><line style="stroke:#A80036;stroke-width:1.0;" x1="10" x2="220" y1="239.0781" y2="239.0781"/><text fill="#008000" font-family="sans-serif" font-size="14" lengthAdjust="spacing" textLength="40" x="36" y="254.0732">slides</text><text fill="#000000" font-family="sans-serif" font-size="14" lengthAdjust="spacing" textLength="0" x="119" y="254.0732"/><line style="stroke:#A80036;stroke-width:1.0;" x1="102" x2="102" y1="239.0781" y2="259.375"/><rect fill="#CCFF02" height="20.2969" rx="2" ry="2" style="stroke:#CCFF02;stroke-width:1.0;" width="208" x="11.5" y="259.375"/><line style="stroke:#A80036;stroke-width:1.0;" x1="10" x2="220" y1="259.375" y2="259.375"/><text fill="#000000" font-family="sans-serif" font-size="14" lengthAdjust="spacing" textLength="63" x="24.5" y="274.3701">students</text><text fill="#000000" font-family="sans-serif" font-size="14" lengthAdjust="spacing" textLength="0" x="119" y="274.3701"/><line style="stroke:#A80036;stroke-width:1.0;" x1="102" x2="102" y1="259.375" y2="279.6719"/><rect fill="#CCFF02" height="20.2969" rx="2" ry="2" style="stroke:#CCFF02;stroke-width:1.0;" width="208" x="11.5" y="279.6719"/><line style="stroke:#A80036;stroke-width:1.0;" x1="10" x2="220" y1="279.6719" y2="279.6719"/><text fill="#000000" font-family="sans-serif" font-size="14" lengthAdjust="spacing" textLength="81" x="15.5" y="294.667">supervisors</text><text fill="#000000" font-family="sans-serif" font-size="14" lengthAdjust="spacing" textLength="0" x="119" y="294.667"/><line style="stroke:#A80036;stroke-width:1.0;" x1="102" x2="102" y1="279.6719" y2="299.9688"/><line style="stroke:#A80036;stroke-width:1.0;" x1="10" x2="220" y1="299.9688" y2="299.9688"/><text fill="#008000" font-family="sans-serif" font-size="14" lengthAdjust="spacing" textLength="38" x="37" y="314.9639">tasks</text><text fill="#000000" font-family="sans-serif" font-size="14" lengthAdjust="spacing" textLength="0" x="119" y="314.9639"/><line style="stroke:#A80036;stroke-width:1.0;" x1="102" x2="102" y1="299.9688" y2="320.2656"/><rect fill="none" height="223.2656" rx="5" ry="5" style="stroke:#A80036;stroke-width:1.5;" width="210" x="10" y="97"/><rect fill="#CCFF02" height="20.2969" rx="2" ry="2" style="stroke:#CCFF02;stroke-width:1.0;" width="153" x="258.5" y="10"/><text fill="#000000" font-family="sans-serif" font-size="14" font-weight="bold" lengthAdjust="spacing" textLength="49" x="272.5" y="24.9951">Entity</text><text fill="#000000" font-family="sans-serif" font-size="14" font-weight="bold" lengthAdjust="spacing" textLength="65" x="342" y="24.9951">Artifact</text><line style="stroke:#A80036;stroke-width:1.0;" x1="337" x2="337" y1="10" y2="30.2969"/><line style="stroke:#A80036;stroke-width:1.0;" x1="257" x2="412" y1="30.2969" y2="30.2969"/><text fill="#000000" font-family="sans-serif" font-size="14" lengthAdjust="spacing" textLength="70" x="262" y="45.292">comment</text><text fill="#000000" font-family="sans-serif" font-size="14" lengthAdjust="spacing" textLength="0" x="346" y="45.292"/><line style="stroke:#A80036;stroke-width:1.0;" x1="337" x2="337" y1="30.2969" y2="50.5938"/><line style="stroke:#A80036;stroke-width:1.0;" x1="257" x2="412" y1="50.5938" y2="50.5938"/><text fill="#000000" font-family="sans-serif" font-size="14" lengthAdjust="spacing" textLength="41" x="276.5" y="65.5889">grade</text><text fill="#000000" font-family="sans-serif" font-size="14" lengthAdjust="spacing" textLength="15" x="342" y="65.5889">-1</text><line style="stroke:#A80036;stroke-width:1.0;" x1="337" x2="337" y1="50.5938" y2="70.8906"/><line style="stroke:#A80036;stroke-width:1.0;" x1="257" x2="412" y1="70.8906" y2="70.8906"/><text fill="#000000" font-family="sans-serif" font-size="14" lengthAdjust="spacing" textLength="63" x="265.5" y="85.8857">revisions</text><text fill="#000000" font-family="sans-serif" font-size="14" lengthAdjust="spacing" textLength="7" x="342" y="85.8857">␀</text><line style="stroke:#A80036;stroke-width:1.0;" x1="337" x2="337" y1="70.8906" y2="91.1875"/><rect fill="none" height="81.1875" rx="5" ry="5" style="stroke:#A80036;stroke-width:1.5;" width="155" x="257" y="10"/><rect fill="#CCFF02" height="20.2969" rx="2" ry="2" style="stroke:#CCFF02;stroke-width:1.0;" width="153" x="258.5" y="109"/><text fill="#000000" font-family="sans-serif" font-size="14" font-weight="bold" lengthAdjust="spacing" textLength="49" x="272.5" y="123.9951">Entity</text><text fill="#000000" font-family="sans-serif" font-size="14" font-weight="bold" lengthAdjust="spacing" textLength="65" x="342" y="123.9951">Artifact</text><line style="stroke:#A80036;stroke-width:1.0;" x1="337" x2="337" y1="109" y2="129.2969"/><line style="stroke:#A80036;stroke-width:1.0;" x1="257" x2="412" y1="129.2969" y2="129.2969"/><text fill="#000000" font-family="sans-serif" font-size="14" lengthAdjust="spacing" textLength="70" x="262" y="144.292">comment</text><text fill="#000000" font-family="sans-serif" font-size="14" lengthAdjust="spacing" textLength="0" x="346" y="144.292"/><line style="stroke:#A80036;stroke-width:1.0;" x1="337" x2="337" y1="129.2969" y2="149.5938"/><line style="stroke:#A80036;stroke-width:1.0;" x1="257" x2="412" y1="149.5938" y2="149.5938"/><text fill="#000000" font-family="sans-serif" font-size="14" lengthAdjust="spacing" textLength="41" x="276.5" y="164.5889">grade</text><text fill="#000000" font-family="sans-serif" font-size="14" lengthAdjust="spacing" textLength="15" x="342" y="164.5889">-1</text><line style="stroke:#A80036;stroke-width:1.0;" x1="337" x2="337" y1="149.5938" y2="169.8906"/><line style="stroke:#A80036;stroke-width:1.0;" x1="257" x2="412" y1="169.8906" y2="169.8906"/><text fill="#000000" font-family="sans-serif" font-size="14" lengthAdjust="spacing" textLength="63" x="265.5" y="184.8857">revisions</text><text fill="#000000" font-family="sans-serif" font-size="14" lengthAdjust="spacing" textLength="7" x="342" y="184.8857">␀</text><line style="stroke:#A80036;stroke-width:1.0;" x1="337" x2="337" y1="169.8906" y2="190.1875"/><rect fill="none" height="81.1875" rx="5" ry="5" style="stroke:#A80036;stroke-width:1.5;" width="155" x="257" y="109"/><text fill="#000000" font-family="sans-serif" font-size="14" font-weight="bold" lengthAdjust="spacing" textLength="43" x="313" y="223.4951">array</text><line style="stroke:#A80036;stroke-width:1.0;" x1="298" x2="371" y1="228.7969" y2="228.7969"/><text fill="#000000" font-family="sans-serif" font-size="14" lengthAdjust="spacing" textLength="62" x="303.5" y="243.792">opheliad</text><line style="stroke:#A80036;stroke-width:1.0;" x1="298" x2="371" y1="249.0938" y2="249.0938"/><text fill="#000000" font-family="sans-serif" font-size="14" lengthAdjust="spacing" textLength="56" x="306.5" y="264.0889">jamesm</text><line style="stroke:#A80036;stroke-width:1.0;" x1="298" x2="371" y1="269.3906" y2="269.3906"/><text fill="#000000" font-family="sans-serif" font-size="14" lengthAdjust="spacing" textLength="63" x="303" y="284.3857">arabellaf</text><line style="stroke:#A80036;stroke-width:1.0;" x1="298" x2="371" y1="289.6875" y2="289.6875"/><text fill="#000000" font-family="sans-serif" font-size="14" lengthAdjust="spacing" textLength="56" x="306.5" y="304.6826">evelynd</text><line style="stroke:#A80036;stroke-width:1.0;" x1="298" x2="371" y1="309.9844" y2="309.9844"/><text fill="#000000" font-family="sans-serif" font-size="14" lengthAdjust="spacing" textLength="62" x="303.5" y="324.9795">audreym</text><rect fill="none" height="121.7813" rx="5" ry="5" style="stroke:#A80036;stroke-width:1.5;" width="73" x="298" y="208.5"/><text fill="#000000" font-family="sans-serif" font-size="14" lengthAdjust="spacing" textLength="47" x="311" y="363.4951">ronanf</text><rect fill="none" height="20.2969" rx="5" ry="5" style="stroke:#A80036;stroke-width:1.5;" width="57" x="306" y="348.5"/><text fill="#000000" font-family="sans-serif" font-size="14" font-weight="bold" lengthAdjust="spacing" textLength="43" x="313" y="401.9951">array</text><line style="stroke:#A80036;stroke-width:1.0;" x1="308" x2="361" y1="407.2969" y2="407.2969"/><text fill="#000000" font-family="sans-serif" font-size="14" lengthAdjust="spacing" textLength="0" x="340.5" y="422.292"/><line style="stroke:#A80036;stroke-width:1.0;" x1="308" x2="361" y1="427.5938" y2="427.5938"/><text fill="#000000" font-family="sans-serif" font-size="14" lengthAdjust="spacing" textLength="0" x="340.5" y="442.5889"/><line style="stroke:#A80036;stroke-width:1.0;" x1="308" x2="361" y1="447.8906" y2="447.8906"/><text fill="#000000" font-family="sans-serif" font-size="14" lengthAdjust="spacing" textLength="0" x="340.5" y="462.8857"/><rect fill="none" height="81.1875" rx="5" ry="5" style="stroke:#A80036;stroke-width:1.5;" width="53" x="308" y="387"/><rect fill="#CCFF02" height="20.2969" rx="2" ry="2" style="stroke:#CCFF02;stroke-width:1.0;" width="233" x="450.5" y="145"/><text fill="#000000" font-family="sans-serif" font-size="14" font-weight="bold" lengthAdjust="spacing" textLength="49" x="472" y="159.9951">Entity</text><text fill="#000000" font-family="sans-serif" font-size="14" font-weight="bold" lengthAdjust="spacing" textLength="39" x="549" y="159.9951">Task</text><line style="stroke:#A80036;stroke-width:1.0;" x1="544" x2="544" y1="145" y2="165.2969"/><line style="stroke:#A80036;stroke-width:1.0;" x1="449" x2="684" y1="165.2969" y2="165.2969"/><text fill="#000000" font-family="sans-serif" font-size="14" lengthAdjust="spacing" textLength="85" x="454" y="180.292">assigned_to</text><text fill="#000000" font-family="sans-serif" font-size="14" lengthAdjust="spacing" textLength="63" x="549" y="180.292">arabellaf</text><line style="stroke:#A80036;stroke-width:1.0;" x1="544" x2="544" y1="165.2969" y2="185.5938"/><line style="stroke:#A80036;stroke-width:1.0;" x1="449" x2="684" y1="185.5938" y2="185.5938"/><text fill="#000000" font-family="sans-serif" font-size="14" lengthAdjust="spacing" textLength="81" x="456" y="200.5889">created_on</text><text fill="#000000" font-family="sans-serif" font-size="14" lengthAdjust="spacing" textLength="95" x="549" y="200.5889">(time object)</text><line style="stroke:#A80036;stroke-width:1.0;" x1="544" x2="544" y1="185.5938" y2="205.8906"/><line style="stroke:#A80036;stroke-width:1.0;" x1="449" x2="684" y1="205.8906" y2="205.8906"/><text fill="#000000" font-family="sans-serif" font-size="14" lengthAdjust="spacing" textLength="53" x="470" y="220.8857">creator</text><text fill="#000000" font-family="sans-serif" font-size="14" lengthAdjust="spacing" textLength="56" x="549" y="220.8857">jamesm</text><line style="stroke:#A80036;stroke-width:1.0;" x1="544" x2="544" y1="205.8906" y2="226.1875"/><line style="stroke:#A80036;stroke-width:1.0;" x1="449" x2="684" y1="226.1875" y2="226.1875"/><text fill="#000000" font-family="sans-serif" font-size="14" lengthAdjust="spacing" textLength="61" x="466" y="241.1826">deadline</text><text fill="#000000" font-family="sans-serif" font-size="14" lengthAdjust="spacing" textLength="95" x="549" y="241.1826">(time object)</text><line style="stroke:#A80036;stroke-width:1.0;" x1="544" x2="544" y1="226.1875" y2="246.4844"/><line style="stroke:#A80036;stroke-width:1.0;" x1="449" x2="684" y1="246.4844" y2="246.4844"/><text fill="#000000" font-family="sans-serif" font-size="14" lengthAdjust="spacing" textLength="72" x="460.5" y="261.4795">discussion</text><text fill="#000000" font-family="sans-serif" font-size="14" lengthAdjust="spacing" textLength="130" x="549" y="261.4795">(discussion forest)</text><line style="stroke:#A80036;stroke-width:1.0;" x1="544" x2="544" y1="246.4844" y2="266.7813"/><line style="stroke:#A80036;stroke-width:1.0;" x1="449" x2="684" y1="266.7813" y2="266.7813"/><text fill="#000000" font-family="sans-serif" font-size="14" lengthAdjust="spacing" textLength="40" x="476.5" y="281.7764">name</text><text fill="#000000" font-family="sans-serif" font-size="14" lengthAdjust="spacing" textLength="85" x="549" y="281.7764">(task name)</text><line style="stroke:#A80036;stroke-width:1.0;" x1="544" x2="544" y1="266.7813" y2="287.0781"/><line style="stroke:#A80036;stroke-width:1.0;" x1="449" x2="684" y1="287.0781" y2="287.0781"/><text fill="#000000" font-family="sans-serif" font-size="14" lengthAdjust="spacing" textLength="82" x="455.5" y="302.0732">description</text><text fill="#000000" font-family="sans-serif" font-size="14" lengthAdjust="spacing" textLength="108" x="549" y="302.0732">Lorem ipsum...</text><line style="stroke:#A80036;stroke-width:1.0;" x1="544" x2="544" y1="287.0781" y2="307.375"/><line style="stroke:#A80036;stroke-width:1.0;" x1="449" x2="684" y1="307.375" y2="307.375"/><text fill="#000000" font-family="sans-serif" font-size="14" lengthAdjust="spacing" textLength="44" x="474.5" y="322.3701">status</text><text fill="#000000" font-family="sans-serif" font-size="14" lengthAdjust="spacing" textLength="9" x="549" y="322.3701">0</text><line style="stroke:#A80036;stroke-width:1.0;" x1="544" x2="544" y1="307.375" y2="327.6719"/><rect fill="none" height="182.6719" rx="5" ry="5" style="stroke:#A80036;stroke-width:1.5;" width="235" x="449" y="145"/><rect fill="#CCFF02" height="20.2969" rx="2" ry="2" style="stroke:#CCFF02;stroke-width:1.0;" width="233" x="450.5" y="346"/><text fill="#000000" font-family="sans-serif" font-size="14" font-weight="bold" lengthAdjust="spacing" textLength="49" x="472" y="360.9951">Entity</text><text fill="#000000" font-family="sans-serif" font-size="14" font-weight="bold" lengthAdjust="spacing" textLength="39" x="549" y="360.9951">Task</text><line style="stroke:#A80036;stroke-width:1.0;" x1="544" x2="544" y1="346" y2="366.2969"/><line style="stroke:#A80036;stroke-width:1.0;" x1="449" x2="684" y1="366.2969" y2="366.2969"/><text fill="#000000" font-family="sans-serif" font-size="14" lengthAdjust="spacing" textLength="85" x="454" y="381.292">assigned_to</text><text fill="#000000" font-family="sans-serif" font-size="14" lengthAdjust="spacing" textLength="62" x="549" y="381.292">opheliad</text><line style="stroke:#A80036;stroke-width:1.0;" x1="544" x2="544" y1="366.2969" y2="386.5938"/><line style="stroke:#A80036;stroke-width:1.0;" x1="449" x2="684" y1="386.5938" y2="386.5938"/><text fill="#000000" font-family="sans-serif" font-size="14" lengthAdjust="spacing" textLength="81" x="456" y="401.5889">created_on</text><text fill="#000000" font-family="sans-serif" font-size="14" lengthAdjust="spacing" textLength="95" x="549" y="401.5889">(time object)</text><line style="stroke:#A80036;stroke-width:1.0;" x1="544" x2="544" y1="386.5938" y2="406.8906"/><line style="stroke:#A80036;stroke-width:1.0;" x1="449" x2="684" y1="406.8906" y2="406.8906"/><text fill="#000000" font-family="sans-serif" font-size="14" lengthAdjust="spacing" textLength="53" x="470" y="421.8857">creator</text><text fill="#000000" font-family="sans-serif" font-size="14" lengthAdjust="spacing" textLength="56" x="549" y="421.8857">evelynd</text><line style="stroke:#A80036;stroke-width:1.0;" x1="544" x2="544" y1="406.8906" y2="427.1875"/><line style="stroke:#A80036;stroke-width:1.0;" x1="449" x2="684" y1="427.1875" y2="427.1875"/><text fill="#000000" font-family="sans-serif" font-size="14" lengthAdjust="spacing" textLength="61" x="466" y="442.1826">deadline</text><text fill="#000000" font-family="sans-serif" font-size="14" lengthAdjust="spacing" textLength="95" x="549" y="442.1826">(time object)</text><line style="stroke:#A80036;stroke-width:1.0;" x1="544" x2="544" y1="427.1875" y2="447.4844"/><line style="stroke:#A80036;stroke-width:1.0;" x1="449" x2="684" y1="447.4844" y2="447.4844"/><text fill="#000000" font-family="sans-serif" font-size="14" lengthAdjust="spacing" textLength="72" x="460.5" y="462.4795">discussion</text><text fill="#000000" font-family="sans-serif" font-size="14" lengthAdjust="spacing" textLength="130" x="549" y="462.4795">(discussion forest)</text><line style="stroke:#A80036;stroke-width:1.0;" x1="544" x2="544" y1="447.4844" y2="467.7813"/><line style="stroke:#A80036;stroke-width:1.0;" x1="449" x2="684" y1="467.7813" y2="467.7813"/><text fill="#000000" font-family="sans-serif" font-size="14" lengthAdjust="spacing" textLength="82" x="455.5" y="482.7764">description</text><text fill="#000000" font-family="sans-serif" font-size="14" lengthAdjust="spacing" textLength="108" x="549" y="482.7764">Lorem ipsum...</text><line style="stroke:#A80036;stroke-width:1.0;" x1="544" x2="544" y1="467.7813" y2="488.0781"/><line style="stroke:#A80036;stroke-width:1.0;" x1="449" x2="684" y1="488.0781" y2="488.0781"/><text fill="#000000" font-family="sans-serif" font-size="14" lengthAdjust="spacing" textLength="40" x="476.5" y="503.0732">name</text><text fill="#000000" font-family="sans-serif" font-size="14" lengthAdjust="spacing" textLength="85" x="549" y="503.0732">(task name)</text><line style="stroke:#A80036;stroke-width:1.0;" x1="544" x2="544" y1="488.0781" y2="508.375"/><line style="stroke:#A80036;stroke-width:1.0;" x1="449" x2="684" y1="508.375" y2="508.375"/><text fill="#000000" font-family="sans-serif" font-size="14" lengthAdjust="spacing" textLength="44" x="474.5" y="523.3701">status</text><text fill="#000000" font-family="sans-serif" font-size="14" lengthAdjust="spacing" textLength="8" x="549" y="523.3701">2</text><line style="stroke:#A80036;stroke-width:1.0;" x1="544" x2="544" y1="508.375" y2="528.6719"/><rect fill="none" height="182.6719" rx="5" ry="5" style="stroke:#A80036;stroke-width:1.5;" width="235" x="449" y="346"/><rect fill="#CCFF02" height="20.2969" rx="2" ry="2" style="stroke:#CCFF02;stroke-width:1.0;" width="233" x="450.5" y="547"/><text fill="#000000" font-family="sans-serif" font-size="14" font-weight="bold" lengthAdjust="spacing" textLength="49" x="472" y="561.9951">Entity</text><text fill="#000000" font-family="sans-serif" font-size="14" font-weight="bold" lengthAdjust="spacing" textLength="39" x="549" y="561.9951">Task</text><line style="stroke:#A80036;stroke-width:1.0;" x1="544" x2="544" y1="547" y2="567.2969"/><line style="stroke:#A80036;stroke-width:1.0;" x1="449" x2="684" y1="567.2969" y2="567.2969"/><text fill="#000000" font-family="sans-serif" font-size="14" lengthAdjust="spacing" textLength="85" x="454" y="582.292">assigned_to</text><text fill="#000000" font-family="sans-serif" font-size="14" lengthAdjust="spacing" textLength="63" x="549" y="582.292">arabellaf</text><line style="stroke:#A80036;stroke-width:1.0;" x1="544" x2="544" y1="567.2969" y2="587.5938"/><line style="stroke:#A80036;stroke-width:1.0;" x1="449" x2="684" y1="587.5938" y2="587.5938"/><text fill="#000000" font-family="sans-serif" font-size="14" lengthAdjust="spacing" textLength="81" x="456" y="602.5889">created_on</text><text fill="#000000" font-family="sans-serif" font-size="14" lengthAdjust="spacing" textLength="95" x="549" y="602.5889">(time object)</text><line style="stroke:#A80036;stroke-width:1.0;" x1="544" x2="544" y1="587.5938" y2="607.8906"/><line style="stroke:#A80036;stroke-width:1.0;" x1="449" x2="684" y1="607.8906" y2="607.8906"/><text fill="#000000" font-family="sans-serif" font-size="14" lengthAdjust="spacing" textLength="53" x="470" y="622.8857">creator</text><text fill="#000000" font-family="sans-serif" font-size="14" lengthAdjust="spacing" textLength="56" x="549" y="622.8857">jamesm</text><line style="stroke:#A80036;stroke-width:1.0;" x1="544" x2="544" y1="607.8906" y2="628.1875"/><line style="stroke:#A80036;stroke-width:1.0;" x1="449" x2="684" y1="628.1875" y2="628.1875"/><text fill="#000000" font-family="sans-serif" font-size="14" lengthAdjust="spacing" textLength="61" x="466" y="643.1826">deadline</text><text fill="#000000" font-family="sans-serif" font-size="14" lengthAdjust="spacing" textLength="95" x="549" y="643.1826">(time object)</text><line style="stroke:#A80036;stroke-width:1.0;" x1="544" x2="544" y1="628.1875" y2="648.4844"/><line style="stroke:#A80036;stroke-width:1.0;" x1="449" x2="684" y1="648.4844" y2="648.4844"/><text fill="#000000" font-family="sans-serif" font-size="14" lengthAdjust="spacing" textLength="72" x="460.5" y="663.4795">discussion</text><text fill="#000000" font-family="sans-serif" font-size="14" lengthAdjust="spacing" textLength="130" x="549" y="663.4795">(discussion forest)</text><line style="stroke:#A80036;stroke-width:1.0;" x1="544" x2="544" y1="648.4844" y2="668.7813"/><line style="stroke:#A80036;stroke-width:1.0;" x1="449" x2="684" y1="668.7813" y2="668.7813"/><text fill="#000000" font-family="sans-serif" font-size="14" lengthAdjust="spacing" textLength="40" x="476.5" y="683.7764">name</text><text fill="#000000" font-family="sans-serif" font-size="14" lengthAdjust="spacing" textLength="85" x="549" y="683.7764">(task name)</text><line style="stroke:#A80036;stroke-width:1.0;" x1="544" x2="544" y1="668.7813" y2="689.0781"/><line style="stroke:#A80036;stroke-width:1.0;" x1="449" x2="684" y1="689.0781" y2="689.0781"/><text fill="#000000" font-family="sans-serif" font-size="14" lengthAdjust="spacing" textLength="82" x="455.5" y="704.0732">description</text><text fill="#000000" font-family="sans-serif" font-size="14" lengthAdjust="spacing" textLength="108" x="549" y="704.0732">Lorem ipsum...</text><line style="stroke:#A80036;stroke-width:1.0;" x1="544" x2="544" y1="689.0781" y2="709.375"/><line style="stroke:#A80036;stroke-width:1.0;" x1="449" x2="684" y1="709.375" y2="709.375"/><text fill="#000000" font-family="sans-serif" font-size="14" lengthAdjust="spacing" textLength="44" x="474.5" y="724.3701">status</text><text fill="#000000" font-family="sans-serif" font-size="14" lengthAdjust="spacing" textLength="8" x="549" y="724.3701">2</text><line style="stroke:#A80036;stroke-width:1.0;" x1="544" x2="544" y1="709.375" y2="729.6719"/><rect fill="none" height="182.6719" rx="5" ry="5" style="stroke:#A80036;stroke-width:1.5;" width="235" x="449" y="547"/><path d="M208,228.5 L221,228.5 C280.0961,228.5 221.9683,148.0933 257,100.5 C257.8858,99.2966 258.81,98.1142 259.7686,96.953 " fill="none" style="stroke:#A80036;stroke-width:1.0;stroke-dasharray:3.0,3.0;"/><path d="M262.0203,98.9774 L261.2869,95.2642 L257.5168,94.9286 L264.8295,91.3237 L262.0203,98.9774 " fill="#A80036" style="stroke:#A80036;stroke-width:1.0;"/><ellipse cx="208" cy="228.5" fill="#A80036" rx="3" ry="3" style="stroke:#A80036;stroke-width:1.0;"/><path d="M208,248.5 L221,248.5 C248.0235,248.5 237.3481,218.0492 257,199.5 C258.5757,198.0127 260.2011,196.5424 261.8666,195.0915 " fill="none" style="stroke:#A80036;stroke-width:1.0;stroke-dasharray:3.0,3.0;"/><path d="M263.8087,197.4126 L263.6075,193.635 L259.9246,192.7704 L267.6695,190.2364 L263.8087,197.4126 " fill="#A80036" style="stroke:#A80036;stroke-width:1.0;"/><ellipse cx="208" cy="248.5" fill="#A80036" rx="3" ry="3" style="stroke:#A80036;stroke-width:1.0;"/><path d="M208,269.5 L221,269.5 C244.0635,269.5 269.7748,269.5 290.8382,269.5 " fill="none" style="stroke:#A80036;stroke-width:1.0;stroke-dasharray:3.0,3.0;"/><path d="M290.8382,272.5146 L293.0991,269.5 L290.8382,266.4854 L298.3745,269.5 L290.8382,272.5146 " fill="#A80036" style="stroke:#A80036;stroke-width:1.0;"/><ellipse cx="208" cy="269.5" fill="#A80036" rx="3" ry="3" style="stroke:#A80036;stroke-width:1.0;"/><path d="M208,289.5 L221,289.5 C248.383,289.5 234.3128,324.1664 257,339.5 C269.3205,347.827 284.9499,352.5097 298.9035,355.1409 " fill="none" style="stroke:#A80036;stroke-width:1.0;stroke-dasharray:3.0,3.0;"/><path d="M298.3992,358.1601 L301.1679,355.5192 L299.4079,352.1217 L306.4515,356.4018 L298.3992,358.1601 " fill="#A80036" style="stroke:#A80036;stroke-width:1.0;"/><ellipse cx="208" cy="289.5" fill="#A80036" rx="3" ry="3" style="stroke:#A80036;stroke-width:1.0;"/><path d="M350,416.5 L363,416.5 C391.1828,416.5 392.3829,396.7147 413,377.5 C430.4969,361.1933 431.9138,354.2365 449,337.5 C450.3838,336.1445 451.7826,334.7852 453.1945,333.4232 " fill="none" style="stroke:#A80036;stroke-width:1.0;stroke-dasharray:3.0,3.0;"/><path d="M455.2997,335.6257 L454.8463,331.8443 L451.0892,331.2207 L458.7007,328.1601 L455.2997,335.6257 " fill="#A80036" style="stroke:#A80036;stroke-width:1.0;"/><ellipse cx="350" cy="416.5" fill="#A80036" rx="3" ry="3" style="stroke:#A80036;stroke-width:1.0;"/><path d="M350,437.5 L363,437.5 C388.4208,437.5 415.6322,437.5 441.6071,437.5 " fill="none" style="stroke:#A80036;stroke-width:1.0;stroke-dasharray:3.0,3.0;"/><path d="M441.6071,440.5612 L443.903,437.5 L441.6071,434.4388 L449.2601,437.5 L441.6071,440.5612 " fill="#A80036" style="stroke:#A80036;stroke-width:1.0;"/><ellipse cx="350" cy="437.5" fill="#A80036" rx="3" ry="3" style="stroke:#A80036;stroke-width:1.0;"/><path d="M350,457.5 L363,457.5 C415.5066,457.5 409.9205,503.4325 449,538.5 C450.2523,539.6237 451.5138,540.7527 452.7833,541.886 " fill="none" style="stroke:#A80036;stroke-width:1.0;stroke-dasharray:3.0,3.0;"/><path d="M450.7859,544.1313 L454.4673,543.384 L454.7806,539.6406 L458.3967,546.8793 L450.7859,544.1313 " fill="#A80036" style="stroke:#A80036;stroke-width:1.0;"/><ellipse cx="350" cy="457.5" fill="#A80036" rx="3" ry="3" style="stroke:#A80036;stroke-width:1.0;"/><path d="M208,309.5 L221,309.5 C255.1962,309.5 233.9195,352.2676 257,377.5 C269.5945,391.2687 286.7728,402.9008 301.7087,411.471 " fill="none" style="stroke:#A80036;stroke-width:1.0;stroke-dasharray:3.0,3.0;"/><path d="M300.2211,414.1431 L303.7127,412.5867 L303.1962,408.799 L308.3888,415.1899 L300.2211,414.1431 " fill="#A80036" style="stroke:#A80036;stroke-width:1.0;"/><ellipse cx="208" cy="309.5" fill="#A80036" rx="3" ry="3" style="stroke:#A80036;stroke-width:1.0;"/><!--MD5=[11382ae05fb9faaa43981ad50e4b43a2]
@startjson
#highlight "**table**"
#highlight "supervisors"
#highlight "students"
#highlight "<color:green>report" / "**Entity**"
#highlight "<color:green>slides" / "**Entity**"
#highlight "<color:green>tasks" / "1"/ "**Entity**"
#highlight "<color:green>tasks" / "2" / "**Entity**"
#highlight "<color:green>tasks" / "3" / "**Entity**"
#highlight "**Entity**"
  {
    "**table**": "**projects**",
    "created_on": "(time object)",
    "deadline": "(time object)",
    "description": "Lorem ipsum...",
    "id": "(project ID)",
    "name": "(project name)",
    "<color:green>report": {
      "**Entity**": "**Artifact**",
      "comment": "",
      "grade": -1,
      "revisions": null
    },
    "<color:green>slides": {
      "**Entity**": "**Artifact**",
      "comment": "",
      "grade": -1,
      "revisions": null
    },
    "students": [
      "**array**",
      "opheliad",
      "jamesm",
      "arabellaf",
      "evelynd",
      "audreym"
    ],
    "supervisors": [
      "ronanf"
    ],
    "<color:green>tasks": [
      "**array**",
      { 
        "**Entity**": "**Task**",
        "assigned_to": "arabellaf",
        "created_on": "(time object)",
        "creator": "jamesm",
        "deadline": "(time object)",
        "discussion": "(discussion forest)",
        "name": "(task name)",
        "description": "Lorem ipsum...",
        "status": 0
      },
      {
        "**Entity**": "**Task**",
        "assigned_to": "opheliad",
        "created_on": "(time object)",
        "creator": "evelynd",
        "deadline": "(time object)",
        "discussion": "(discussion forest)",
        "description": "Lorem ipsum...",
        "name": "(task name)",
        "status": 2
      },
      {
        "**Entity**": "**Task**",
        "assigned_to": "arabellaf",
        "created_on": "(time object)",
        "creator": "jamesm",
        "deadline": "(time object)",
        "discussion": "(discussion forest)",
        "name": "(task name)",
        "description": "Lorem ipsum...",
        "status": 2
      }
    ]
  }
@endjson

PlantUML version 1.2021.01beta3(Unknown compile time)
(GPL source distribution)
Java Runtime: Java(TM) SE Runtime Environment
JVM: Java HotSpot(TM) 64-Bit Server VM
Default Encoding: UTF-8
Language: en
Country: US
--></g></svg>