<?xml version="1.0" encoding="UTF-8" standalone="no"?><svg xmlns="http://www.w3.org/2000/svg" xmlns:xlink="http://www.w3.org/1999/xlink" contentScriptType="application/ecmascript" contentStyleType="text/css" height="836px" preserveAspectRatio="none" style="width:547px;height:836px;" version="1.1" viewBox="0 0 547 836" width="547px" zoomAndPan="magnify"><defs><filter height="300%" id="f2lropdpv2lla" width="300%" x="-1" y="-1"><feGaussianBlur result="blurOut" stdDeviation="2.0"/><feColorMatrix in="blurOut" result="blurOut2" type="matrix" values="0 0 0 0 0 0 0 0 0 0 0 0 0 0 0 0 0 0 .4 0"/><feOffset dx="4.0" dy="4.0" in="blurOut2" result="blurOut3"/><feBlend in="SourceGraphic" in2="blurOut3" mode="normal"/></filter></defs><g><!--cluster Project--><rect fill="#FFFFFF" filter="url(#f2lropdpv2lla)" height="314" style="stroke: #000000; stroke-width: 1.5;" width="227" x="308" y="24"/><text fill="#000000" font-family="sans-serif" font-size="14" font-weight="bold" lengthAdjust="spacingAndGlyphs" textLength="56" x="393.5" y="38.9951">Project</text><!--cluster Task--><rect fill="#FFFFFF" filter="url(#f2lropdpv2lla)" height="277" style="stroke: #000000; stroke-width: 1.5;" width="167" x="338" y="362"/><text fill="#000000" font-family="sans-serif" font-size="14" font-weight="bold" lengthAdjust="spacingAndGlyphs" textLength="37" x="403" y="376.9951">Task</text><!--cluster Discussion--><rect fill="#FFFFFF" filter="url(#f2lropdpv2lla)" height="162" style="stroke: #000000; stroke-width: 1.5;" width="229" x="307" y="663"/><text fill="#000000" font-family="sans-serif" font-size="14" font-weight="bold" lengthAdjust="spacingAndGlyphs" textLength="85" x="379" y="677.9951">Discussion</text><ellipse cx="421.7254" cy="75.2451" fill="#FEFECE" filter="url(#f2lropdpv2lla)" rx="66.7254" ry="15.7451" style="stroke: #A80036; stroke-width: 1.5;"/><text fill="#000000" font-family="sans-serif" font-size="14" lengthAdjust="spacingAndGlyphs" textLength="98" x="372.7254" y="79.8935">Create project</text><ellipse cx="421.711" cy="147.9422" fill="#FEFECE" filter="url(#f2lropdpv2lla)" rx="97.711" ry="21.9422" style="stroke: #A80036; stroke-width: 1.5;"/><text fill="#000000" font-family="sans-serif" font-size="14" lengthAdjust="spacingAndGlyphs" textLength="171" x="336.211" y="152.5906">Show project information</text><ellipse cx="421.3318" cy="225.8664" fill="#FEFECE" filter="url(#f2lropdpv2lla)" rx="92.3318" ry="20.8664" style="stroke: #A80036; stroke-width: 1.5;"/><text fill="#000000" font-family="sans-serif" font-size="14" lengthAdjust="spacingAndGlyphs" textLength="159" x="341.8318" y="230.5148">Edit project information</text><ellipse cx="421.4259" cy="301.7852" fill="#FEFECE" filter="url(#f2lropdpv2lla)" rx="84.4259" ry="19.2852" style="stroke: #A80036; stroke-width: 1.5;"/><text fill="#000000" font-family="sans-serif" font-size="14" lengthAdjust="spacingAndGlyphs" textLength="141" x="350.9259" y="306.4336">Add project member</text><ellipse cx="421.3614" cy="412.0236" fill="#FEFECE" filter="url(#f2lropdpv2lla)" rx="58.8614" ry="14.5236" style="stroke: #A80036; stroke-width: 1.5;"/><text fill="#000000" font-family="sans-serif" font-size="14" lengthAdjust="spacingAndGlyphs" textLength="79" x="381.8614" y="416.6721">Create task</text><ellipse cx="421.3614" cy="476.0236" fill="#FEFECE" filter="url(#f2lropdpv2lla)" rx="58.8614" ry="14.5236" style="stroke: #A80036; stroke-width: 1.5;"/><text fill="#000000" font-family="sans-serif" font-size="14" lengthAdjust="spacingAndGlyphs" textLength="79" x="381.8614" y="480.6721">Assign task</text><ellipse cx="421.4975" cy="541.8995" fill="#FEFECE" filter="url(#f2lropdpv2lla)" rx="67.4975" ry="15.8995" style="stroke: #A80036; stroke-width: 1.5;"/><text fill="#000000" font-family="sans-serif" font-size="14" lengthAdjust="spacingAndGlyphs" textLength="100" x="371.4975" y="546.5479">Complete task</text><ellipse cx="421.4619" cy="608.0236" fill="#FEFECE" filter="url(#f2lropdpv2lla)" rx="48.9619" ry="14.5236" style="stroke: #A80036; stroke-width: 1.5;"/><text fill="#000000" font-family="sans-serif" font-size="14" lengthAdjust="spacingAndGlyphs" textLength="65" x="388.9619" y="612.6721">View task</text><ellipse cx="421.6147" cy="720.1229" fill="#FEFECE" filter="url(#f2lropdpv2lla)" rx="98.6147" ry="22.1229" style="stroke: #A80036; stroke-width: 1.5;"/><text fill="#000000" font-family="sans-serif" font-size="14" lengthAdjust="spacingAndGlyphs" textLength="173" x="335.1147" y="724.7714">Create discussion thread</text><ellipse cx="421.3417" cy="793.1683" fill="#FEFECE" filter="url(#f2lropdpv2lla)" rx="66.3417" ry="15.6683" style="stroke: #A80036; stroke-width: 1.5;"/><text fill="#000000" font-family="sans-serif" font-size="14" lengthAdjust="spacingAndGlyphs" textLength="97" x="372.8417" y="797.8168">Add comment</text><!--entity parti--><ellipse cx="201" cy="412.5" fill="#FEFECE" filter="url(#f2lropdpv2lla)" rx="8" ry="8" style="stroke: #A80036; stroke-width: 2.0;"/><path d="M201,420.5 L201,447.5 M188,428.5 L214,428.5 M201,447.5 L188,462.5 M201,447.5 L214,462.5 " fill="none" filter="url(#f2lropdpv2lla)" style="stroke: #A80036; stroke-width: 2.0;"/><text fill="#000000" font-family="sans-serif" font-size="14" lengthAdjust="spacingAndGlyphs" textLength="124" x="139" y="482.4951">Project Participant</text><!--entity Student--><ellipse cx="42.5" cy="353.5" fill="#FEFECE" filter="url(#f2lropdpv2lla)" rx="8" ry="8" style="stroke: #A80036; stroke-width: 2.0;"/><path d="M42.5,361.5 L42.5,388.5 M29.5,369.5 L55.5,369.5 M42.5,388.5 L29.5,403.5 M42.5,388.5 L55.5,403.5 " fill="none" filter="url(#f2lropdpv2lla)" style="stroke: #A80036; stroke-width: 2.0;"/><text fill="#000000" font-family="sans-serif" font-size="14" lengthAdjust="spacingAndGlyphs" textLength="55" x="15" y="423.4951">Student</text><!--entity Supervisor--><ellipse cx="42.5" cy="471.5" fill="#FEFECE" filter="url(#f2lropdpv2lla)" rx="8" ry="8" style="stroke: #A80036; stroke-width: 2.0;"/><path d="M42.5,479.5 L42.5,506.5 M29.5,487.5 L55.5,487.5 M42.5,506.5 L29.5,521.5 M42.5,506.5 L55.5,521.5 " fill="none" filter="url(#f2lropdpv2lla)" style="stroke: #A80036; stroke-width: 2.0;"/><text fill="#000000" font-family="sans-serif" font-size="14" lengthAdjust="spacingAndGlyphs" textLength="73" x="6" y="541.4951">Supervisor</text><!--link parti to CreateP--><path d="M201.68,402.42 C203.47,331.74 217.65,188.07 299,108 C313.43,93.79 333.33,85.55 352.85,80.81 " fill="none" id="parti-CreateP" style="stroke: #A80036; stroke-width: 1.0;"/><polygon fill="#A80036" points="357.8,79.68,348.1347,77.7875,352.9259,80.7949,349.9185,85.5861,357.8,79.68" style="stroke: #A80036; stroke-width: 1.0;"/><!--link parti to ShowP--><path d="M206.54,402.3 C214.88,345.76 237.83,245.17 299,187 C310.11,176.44 324.08,168.74 338.57,163.12 " fill="none" id="parti-ShowP" style="stroke: #A80036; stroke-width: 1.0;"/><polygon fill="#A80036" points="343.49,161.3,333.6618,160.6621,338.799,163.0305,336.4306,168.1677,343.49,161.3" style="stroke: #A80036; stroke-width: 1.0;"/><!--link parti to EditP--><path d="M214.46,402.21 C228.63,361.62 255.61,300.99 299,265 C311.98,254.23 327.99,246.42 344.07,240.76 " fill="none" id="parti-EditP" style="stroke: #A80036; stroke-width: 1.0;"/><polygon fill="#A80036" points="349.06,239.07,339.2527,238.1657,344.3238,240.6726,341.8169,245.7436,349.06,239.07" style="stroke: #A80036; stroke-width: 1.0;"/><!--link parti to CreateT--><path d="M263.15,435.04 C295.14,430.36 334,424.67 365.09,420.11 " fill="none" id="parti-CreateT" style="stroke: #A80036; stroke-width: 1.0;"/><polygon fill="#A80036" points="370.41,419.34,360.9304,416.6683,365.4614,420.0551,362.0746,424.5861,370.41,419.34" style="stroke: #A80036; stroke-width: 1.0;"/><!--link parti to AddMember--><path d="M263.15,404.26 C303.63,377.95 355.11,344.49 387.95,323.16 " fill="none" id="parti-AddMember" style="stroke: #A80036; stroke-width: 1.0;"/><polygon fill="#A80036" points="392.25,320.36,382.5224,321.9006,388.0548,323.0804,386.875,328.6129,392.25,320.36" style="stroke: #A80036; stroke-width: 1.0;"/><!--link parti to AssignT--><path d="M263.15,452.96 C295.14,457.64 334,463.33 365.09,467.89 " fill="none" id="parti-AssignT" style="stroke: #A80036; stroke-width: 1.0;"/><polygon fill="#A80036" points="370.41,468.66,362.0746,463.4139,365.4614,467.9449,360.9304,471.3317,370.41,468.66" style="stroke: #A80036; stroke-width: 1.0;"/><!--link parti to Complete--><path d="M258.77,485.65 C271.58,493.84 285.42,501.8 299,508 C319.75,517.47 343.73,524.86 364.88,530.3 " fill="none" id="parti-Complete" style="stroke: #A80036; stroke-width: 1.0;"/><polygon fill="#A80036" points="369.9,531.57,362.1431,525.5012,365.0501,530.354,360.1974,533.261,369.9,531.57" style="stroke: #A80036; stroke-width: 1.0;"/><!--link parti to Thread--><path d="M215.53,485.76 C230.77,527.97 258.76,593.32 299,639 C320.3,663.18 350.39,683.31 375.3,697.46 " fill="none" id="parti-Thread" style="stroke: #A80036; stroke-width: 1.0;"/><polygon fill="#A80036" points="379.89,700.03,374.0155,692.1249,375.5348,697.5739,370.0858,699.0933,379.89,700.03" style="stroke: #A80036; stroke-width: 1.0;"/><!--link parti to Comment--><path d="M202.72,485.66 C206.2,552.8 222.98,684.92 299,759 C313.68,773.3 333.86,781.69 353.56,786.58 " fill="none" id="parti-Comment" style="stroke: #A80036; stroke-width: 1.0;"/><polygon fill="#A80036" points="358.55,787.75,350.685,781.822,353.679,786.6215,348.8794,789.6155,358.55,787.75" style="stroke: #A80036; stroke-width: 1.0;"/><!--link parti to View--><path d="M223.01,485.62 C239.79,514.77 265.94,552.41 299,575 C319.97,589.33 346.94,597.45 370.14,602.04 " fill="none" id="parti-View" style="stroke: #A80036; stroke-width: 1.0;"/><polygon fill="#A80036" points="375.34,603.03,367.2392,597.4285,370.4269,602.1017,365.7538,605.2894,375.34,603.03" style="stroke: #A80036; stroke-width: 1.0;"/><!--link Student to parti--><path d="M70.05,395.01 C84.03,400.28 101.99,407.05 120.08,413.87 " fill="none" id="Student-parti" style="stroke: #A80036; stroke-width: 1.0;"/><polygon fill="none" points="122.56,407.33,138.81,420.93,117.62,420.42,122.56,407.33" style="stroke: #A80036; stroke-width: 1.0;"/><!--link Supervisor to parti--><path d="M79.01,489.61 C91.3,484.98 105.62,479.58 120.02,474.15 " fill="none" id="Supervisor-parti" style="stroke: #A80036; stroke-width: 1.0;"/><polygon fill="none" points="117.64,467.57,138.83,467.06,122.58,480.67,117.64,467.57" style="stroke: #A80036; stroke-width: 1.0;"/><!--
@startuml
skinparam packageStyle rectangle
left to right direction
actor "Project Participant" as parti

rectangle Project {
   usecase "Create project" as CreateP
   usecase "Show project information" as ShowP
   usecase "Edit project information" as EditP
   usecase "Add project member" as AddMember
}

rectangle Task {
   usecase "Create task" as CreateT
   usecase "Assign task" as AssignT
   usecase "Complete task" as Complete
   usecase "View task" as View
}

rectangle Discussion {
   usecase "Create discussion thread" as Thread
   usecase "Add comment" as Comment
}

parti - -> CreateP
parti - -> ShowP
parti - -> EditP
parti - -> CreateT
parti - -> AddMember
parti - -> AssignT
parti - -> Complete
parti - -> Thread
parti - -> Comment
parti - -> View

Student - -|> parti
Supervisor - -|> parti

@enduml

PlantUML version 1.2018.13(Mon Nov 26 17:11:51 UTC 2018)
(GPL source distribution)
Java Runtime: OpenJDK Runtime Environment
JVM: OpenJDK 64-Bit Server VM
Java Version: 11.0.10+9
Operating System: Linux
OS Version: 5.4.0-1039-azure
Default Encoding: UTF-8
Language: en
Country: null
--></g></svg>