<?xml version="1.0" encoding="UTF-8" standalone="no"?><svg xmlns="http://www.w3.org/2000/svg" xmlns:xlink="http://www.w3.org/1999/xlink" contentScriptType="application/ecmascript" contentStyleType="text/css" height="262px" preserveAspectRatio="none" style="width:825px;height:262px;" version="1.1" viewBox="0 0 825 262" width="825px" zoomAndPan="magnify"><defs><filter height="300%" id="fia4hkfjv8cze" width="300%" x="-1" y="-1"><feGaussianBlur result="blurOut" stdDeviation="2.0"/><feColorMatrix in="blurOut" result="blurOut2" type="matrix" values="0 0 0 0 0 0 0 0 0 0 0 0 0 0 0 0 0 0 .4 0"/><feOffset dx="4.0" dy="4.0" in="blurOut2" result="blurOut3"/><feBlend in="SourceGraphic" in2="blurOut3" mode="normal"/></filter></defs><g><rect fill="#FFFFFF" filter="url(#fia4hkfjv8cze)" height="115.3984" style="stroke: #A80036; stroke-width: 1.0;" width="10" x="267.5" y="117.4297"/><rect fill="#FFFFFF" filter="url(#fia4hkfjv8cze)" height="72.2656" style="stroke: #A80036; stroke-width: 1.0;" width="10" x="416" y="146.5625"/><rect fill="#FFFFFF" filter="url(#fia4hkfjv8cze)" height="29.1328" style="stroke: #A80036; stroke-width: 1.0;" width="10" x="732" y="175.6953"/><line style="stroke: #A80036; stroke-width: 1.0; stroke-dasharray: 5.0,5.0;" x1="29" x2="29" y1="86.2969" y2="250.8281"/><line style="stroke: #A80036; stroke-width: 1.0; stroke-dasharray: 5.0,5.0;" x1="272" x2="272" y1="86.2969" y2="250.8281"/><line style="stroke: #A80036; stroke-width: 1.0; stroke-dasharray: 5.0,5.0;" x1="421" x2="421" y1="86.2969" y2="250.8281"/><line style="stroke: #A80036; stroke-width: 1.0; stroke-dasharray: 5.0,5.0;" x1="736.5" x2="736.5" y1="86.2969" y2="250.8281"/><line style="stroke: #A80036; stroke-width: 1.0; stroke-dasharray: 5.0,5.0;" x1="797.5" x2="797.5" y1="86.2969" y2="250.8281"/><text fill="#000000" font-family="sans-serif" font-size="14" lengthAdjust="spacingAndGlyphs" text-decoration="underline" textLength="37" x="8" y="82.9951">:User</text><line style="stroke: #000000; stroke-width: 1.0;" x1="8" x2="45" y1="84.9951" y2="84.9951"/><ellipse cx="29.5" cy="13" fill="#FEFECE" filter="url(#fia4hkfjv8cze)" rx="8" ry="8" style="stroke: #A80036; stroke-width: 2.0;"/><path d="M29.5,21 L29.5,48 M16.5,29 L42.5,29 M29.5,48 L16.5,63 M29.5,48 L42.5,63 " fill="none" filter="url(#fia4hkfjv8cze)" style="stroke: #A80036; stroke-width: 2.0;"/><text fill="#000000" font-family="sans-serif" font-size="14" lengthAdjust="spacingAndGlyphs" text-decoration="underline" textLength="141" x="199" y="82.9951">:Invite Member Form</text><line style="stroke: #000000; stroke-width: 1.0;" x1="199" x2="340" y1="84.9951" y2="84.9951"/><path d="M252,42 L252,66 M252,54 L269,54 " fill="none" filter="url(#fia4hkfjv8cze)" style="stroke: #A80036; stroke-width: 2.0;"/><ellipse cx="281" cy="54" fill="#FEFECE" filter="url(#fia4hkfjv8cze)" rx="12" ry="12" style="stroke: #A80036; stroke-width: 2.0;"/><text fill="#000000" font-family="sans-serif" font-size="14" lengthAdjust="spacingAndGlyphs" text-decoration="underline" textLength="124" x="356" y="82.9951">:Project Controller</text><line style="stroke: #000000; stroke-width: 1.0;" x1="356" x2="480" y1="84.9951" y2="84.9951"/><ellipse cx="421" cy="54" fill="#FEFECE" filter="url(#fia4hkfjv8cze)" rx="12" ry="12" style="stroke: #A80036; stroke-width: 2.0;"/><polygon fill="#A80036" points="417,42,423,37,421,42,423,47,417,42" style="stroke: #A80036; stroke-width: 1.0;"/><text fill="#000000" font-family="sans-serif" font-size="14" lengthAdjust="spacingAndGlyphs" text-decoration="underline" textLength="53" x="707.5" y="82.9951">:Project</text><line style="stroke: #000000; stroke-width: 1.0;" x1="707.5" x2="760.5" y1="84.9951" y2="84.9951"/><ellipse cx="737" cy="54" fill="#FEFECE" filter="url(#fia4hkfjv8cze)" rx="12" ry="12" style="stroke: #A80036; stroke-width: 2.0;"/><line style="stroke: #A80036; stroke-width: 2.0;" x1="725" x2="749" y1="68" y2="68"/><text fill="#000000" font-family="sans-serif" font-size="14" lengthAdjust="spacingAndGlyphs" text-decoration="underline" textLength="37" x="776.5" y="82.9951">:User</text><line style="stroke: #000000; stroke-width: 1.0;" x1="776.5" x2="813.5" y1="84.9951" y2="84.9951"/><ellipse cx="798" cy="54" fill="#FEFECE" filter="url(#fia4hkfjv8cze)" rx="12" ry="12" style="stroke: #A80036; stroke-width: 2.0;"/><line style="stroke: #A80036; stroke-width: 2.0;" x1="786" x2="810" y1="68" y2="68"/><rect fill="#FFFFFF" filter="url(#fia4hkfjv8cze)" height="115.3984" style="stroke: #A80036; stroke-width: 1.0;" width="10" x="267.5" y="117.4297"/><rect fill="#FFFFFF" filter="url(#fia4hkfjv8cze)" height="72.2656" style="stroke: #A80036; stroke-width: 1.0;" width="10" x="416" y="146.5625"/><rect fill="#FFFFFF" filter="url(#fia4hkfjv8cze)" height="29.1328" style="stroke: #A80036; stroke-width: 1.0;" width="10" x="732" y="175.6953"/><polygon fill="#A80036" points="255.5,113.4297,265.5,117.4297,255.5,121.4297,259.5,117.4297" style="stroke: #A80036; stroke-width: 1.0;"/><line style="stroke: #A80036; stroke-width: 1.0;" x1="29.5" x2="261.5" y1="117.4297" y2="117.4297"/><text fill="#000000" font-family="sans-serif" font-size="13" lengthAdjust="spacingAndGlyphs" textLength="219" x="36.5" y="112.3638">// enters invited member's name()</text><polygon fill="#A80036" points="404,142.5625,414,146.5625,404,150.5625,408,146.5625" style="stroke: #A80036; stroke-width: 1.0;"/><line style="stroke: #A80036; stroke-width: 1.0;" x1="277.5" x2="410" y1="146.5625" y2="146.5625"/><text fill="#000000" font-family="sans-serif" font-size="13" lengthAdjust="spacingAndGlyphs" textLength="87" x="284.5" y="141.4966">// send form()</text><polygon fill="#A80036" points="720,171.6953,730,175.6953,720,179.6953,724,175.6953" style="stroke: #A80036; stroke-width: 1.0;"/><line style="stroke: #A80036; stroke-width: 1.0;" x1="426" x2="726" y1="175.6953" y2="175.6953"/><text fill="#000000" font-family="sans-serif" font-size="13" lengthAdjust="spacingAndGlyphs" textLength="287" x="433" y="170.6294">// add new user's name to project database()</text><polygon fill="#A80036" points="437,200.8281,427,204.8281,437,208.8281,433,204.8281" style="stroke: #A80036; stroke-width: 1.0;"/><line style="stroke: #A80036; stroke-width: 1.0; stroke-dasharray: 2.0,2.0;" x1="431" x2="736" y1="204.8281" y2="204.8281"/><text fill="#000000" font-family="sans-serif" font-size="13" lengthAdjust="spacingAndGlyphs" textLength="51" x="443" y="199.7622">// return</text><polygon fill="#A80036" points="288.5,214.8281,278.5,218.8281,288.5,222.8281,284.5,218.8281" style="stroke: #A80036; stroke-width: 1.0;"/><line style="stroke: #A80036; stroke-width: 1.0; stroke-dasharray: 2.0,2.0;" x1="282.5" x2="420" y1="218.8281" y2="218.8281"/><polygon fill="#A80036" points="40.5,228.8281,30.5,232.8281,40.5,236.8281,36.5,232.8281" style="stroke: #A80036; stroke-width: 1.0;"/><line style="stroke: #A80036; stroke-width: 1.0; stroke-dasharray: 2.0,2.0;" x1="34.5" x2="271.5" y1="232.8281" y2="232.8281"/><!--
@startuml
hide footbox
autoactivate on
skinparam sequenceParticipant underline
actor ":User" as usr
boundary ":Invite Member Form" as form
control ":Project Controller" as ctl
entity ":Project" as db_prj
entity ":User" as db_usr

usr -> form : // enters invited member's name()
form -> ctl : // send form()
ctl -> db_prj : // add new user's name to project database()
ctl <- - db_prj : // return 
form <- - ctl
usr <- - form
@enduml

PlantUML version 1.2018.13(Mon Nov 26 17:11:51 UTC 2018)
(GPL source distribution)
Java Runtime: OpenJDK Runtime Environment
JVM: OpenJDK 64-Bit Server VM
Java Version: 11.0.10+9
Operating System: Linux
OS Version: 5.4.0-1039-azure
Default Encoding: UTF-8
Language: en
Country: null
--></g></svg>