<?xml version="1.0" encoding="UTF-8" standalone="no"?><svg xmlns="http://www.w3.org/2000/svg" xmlns:xlink="http://www.w3.org/1999/xlink" contentScriptType="application/ecmascript" contentStyleType="text/css" height="608px" preserveAspectRatio="none" style="width:322px;height:608px;" version="1.1" viewBox="0 0 322 608" width="322px" zoomAndPan="magnify"><defs><filter height="300%" id="f1bbu0pp18xrxb" width="300%" x="-1" y="-1"><feGaussianBlur result="blurOut" stdDeviation="2.0"/><feColorMatrix in="blurOut" result="blurOut2" type="matrix" values="0 0 0 0 0 0 0 0 0 0 0 0 0 0 0 0 0 0 .4 0"/><feOffset dx="4.0" dy="4.0" in="blurOut2" result="blurOut3"/><feBlend in="SourceGraphic" in2="blurOut3" mode="normal"/></filter></defs><g><ellipse cx="140.5" cy="20" fill="#000000" filter="url(#f1bbu0pp18xrxb)" rx="10" ry="10" style="stroke: none; stroke-width: 1.0;"/><polygon fill="#FEFECE" filter="url(#f1bbu0pp18xrxb)" points="46.5,50,234.5,50,246.5,62,234.5,74,46.5,74,34.5,62,46.5,50" style="stroke: #A80036; stroke-width: 1.5;"/><text fill="#000000" font-family="sans-serif" font-size="11" lengthAdjust="spacingAndGlyphs" textLength="188" x="46.5" y="65.8081">current user is not authenticated</text><text fill="#000000" font-family="sans-serif" font-size="11" lengthAdjust="spacingAndGlyphs" textLength="20" x="246.5" y="59.4058">yes</text><ellipse cx="286.5" cy="62" fill="none" filter="url(#f1bbu0pp18xrxb)" rx="10" ry="10" style="stroke: #000000; stroke-width: 1.0;"/><ellipse cx="287" cy="62.5" fill="#000000" filter="url(#f1bbu0pp18xrxb)" rx="6" ry="6" style="stroke: none; stroke-width: 1.0;"/><rect fill="#FEFECE" filter="url(#f1bbu0pp18xrxb)" height="33.9688" rx="12.5" ry="12.5" style="stroke: #A80036; stroke-width: 1.5;" width="213" x="34" y="94"/><text fill="#000000" font-family="sans-serif" font-size="12" lengthAdjust="spacingAndGlyphs" textLength="193" x="44" y="115.1387">extract project ID from request</text><polygon fill="#FEFECE" filter="url(#f1bbu0pp18xrxb)" points="44,147.9688,237,147.9688,249,159.9688,237,171.9688,44,171.9688,32,159.9688,44,147.9688" style="stroke: #A80036; stroke-width: 1.5;"/><text fill="#000000" font-family="sans-serif" font-size="11" lengthAdjust="spacingAndGlyphs" textLength="193" x="44" y="163.7769">requested project does not exists</text><text fill="#000000" font-family="sans-serif" font-size="11" lengthAdjust="spacingAndGlyphs" textLength="20" x="249" y="157.3745">yes</text><ellipse cx="289" cy="159.9688" fill="none" filter="url(#f1bbu0pp18xrxb)" rx="10" ry="10" style="stroke: #000000; stroke-width: 1.0;"/><ellipse cx="289.5" cy="160.4688" fill="#000000" filter="url(#f1bbu0pp18xrxb)" rx="6" ry="6" style="stroke: none; stroke-width: 1.0;"/><polygon fill="#FEFECE" filter="url(#f1bbu0pp18xrxb)" points="32,191.9688,249,191.9688,261,203.9688,249,215.9688,32,215.9688,20,203.9688,32,191.9688" style="stroke: #A80036; stroke-width: 1.5;"/><text fill="#000000" font-family="sans-serif" font-size="11" lengthAdjust="spacingAndGlyphs" textLength="217" x="32" y="207.7769">current user is not member of project</text><text fill="#000000" font-family="sans-serif" font-size="11" lengthAdjust="spacingAndGlyphs" textLength="20" x="261" y="201.3745">yes</text><ellipse cx="301" cy="203.9688" fill="none" filter="url(#f1bbu0pp18xrxb)" rx="10" ry="10" style="stroke: #000000; stroke-width: 1.0;"/><ellipse cx="301.5" cy="204.4688" fill="#000000" filter="url(#f1bbu0pp18xrxb)" rx="6" ry="6" style="stroke: none; stroke-width: 1.0;"/><rect fill="#FEFECE" filter="url(#f1bbu0pp18xrxb)" height="33.9688" rx="12.5" ry="12.5" style="stroke: #A80036; stroke-width: 1.5;" width="182" x="49.5" y="235.9688"/><text fill="#000000" font-family="sans-serif" font-size="12" lengthAdjust="spacingAndGlyphs" textLength="162" x="59.5" y="257.1074">send form to current user</text><rect fill="#FEFECE" filter="url(#f1bbu0pp18xrxb)" height="33.9688" rx="12.5" ry="12.5" style="stroke: #A80036; stroke-width: 1.5;" width="211" x="35" y="289.9375"/><text fill="#000000" font-family="sans-serif" font-size="12" lengthAdjust="spacingAndGlyphs" textLength="191" x="45" y="311.0762">receive form from current user</text><polygon fill="#FEFECE" filter="url(#f1bbu0pp18xrxb)" points="100,343.9063,181,343.9063,193,355.9063,181,367.9063,100,367.9063,88,355.9063,100,343.9063" style="stroke: #A80036; stroke-width: 1.5;"/><text fill="#000000" font-family="sans-serif" font-size="11" lengthAdjust="spacingAndGlyphs" textLength="81" x="100" y="359.7144">form is invalid</text><text fill="#000000" font-family="sans-serif" font-size="11" lengthAdjust="spacingAndGlyphs" textLength="20" x="193" y="353.312">yes</text><ellipse cx="233" cy="355.9063" fill="none" filter="url(#f1bbu0pp18xrxb)" rx="10" ry="10" style="stroke: #000000; stroke-width: 1.0;"/><ellipse cx="233.5" cy="356.4063" fill="#000000" filter="url(#f1bbu0pp18xrxb)" rx="6" ry="6" style="stroke: none; stroke-width: 1.0;"/><rect fill="#FEFECE" filter="url(#f1bbu0pp18xrxb)" height="47.9375" rx="12.5" ry="12.5" style="stroke: #A80036; stroke-width: 1.5;" width="217" x="32" y="387.9063"/><text fill="#000000" font-family="sans-serif" font-size="12" lengthAdjust="spacingAndGlyphs" textLength="159" x="42" y="409.0449">extract project name and</text><text fill="#000000" font-family="sans-serif" font-size="12" lengthAdjust="spacingAndGlyphs" textLength="197" x="42" y="423.0137">description from request's form</text><rect fill="#FEFECE" filter="url(#f1bbu0pp18xrxb)" height="47.9375" rx="12.5" ry="12.5" style="stroke: #A80036; stroke-width: 1.5;" width="180" x="50.5" y="455.8438"/><text fill="#000000" font-family="sans-serif" font-size="12" lengthAdjust="spacingAndGlyphs" textLength="160" x="60.5" y="476.9824">update project name and</text><text fill="#000000" font-family="sans-serif" font-size="12" lengthAdjust="spacingAndGlyphs" textLength="149" x="60.5" y="490.9512">description in database</text><rect fill="#FEFECE" filter="url(#f1bbu0pp18xrxb)" height="33.9688" rx="12.5" ry="12.5" style="stroke: #A80036; stroke-width: 1.5;" width="207" x="37" y="523.7813"/><text fill="#000000" font-family="sans-serif" font-size="12" lengthAdjust="spacingAndGlyphs" textLength="187" x="47" y="544.9199">redirect to project's info page</text><ellipse cx="140.5" cy="587.75" fill="none" filter="url(#f1bbu0pp18xrxb)" rx="10" ry="10" style="stroke: #000000; stroke-width: 1.0;"/><ellipse cx="141" cy="588.25" fill="#000000" filter="url(#f1bbu0pp18xrxb)" rx="6" ry="6" style="stroke: none; stroke-width: 1.0;"/><line style="stroke: #A80036; stroke-width: 1.5;" x1="140.5" x2="140.5" y1="74" y2="94"/><polygon fill="#A80036" points="136.5,84,140.5,94,144.5,84,140.5,88" style="stroke: #A80036; stroke-width: 1.0;"/><line style="stroke: #A80036; stroke-width: 1.5;" x1="246.5" x2="276.5" y1="62" y2="62"/><polygon fill="#A80036" points="266.5,58,276.5,62,266.5,66,270.5,62" style="stroke: #A80036; stroke-width: 1.0;"/><line style="stroke: #A80036; stroke-width: 1.5;" x1="140.5" x2="140.5" y1="30" y2="50"/><polygon fill="#A80036" points="136.5,40,140.5,50,144.5,40,140.5,44" style="stroke: #A80036; stroke-width: 1.0;"/><line style="stroke: #A80036; stroke-width: 1.5;" x1="140.5" x2="140.5" y1="171.9688" y2="191.9688"/><polygon fill="#A80036" points="136.5,181.9688,140.5,191.9688,144.5,181.9688,140.5,185.9688" style="stroke: #A80036; stroke-width: 1.0;"/><line style="stroke: #A80036; stroke-width: 1.5;" x1="249" x2="279" y1="159.9688" y2="159.9688"/><polygon fill="#A80036" points="269,155.9688,279,159.9688,269,163.9688,273,159.9688" style="stroke: #A80036; stroke-width: 1.0;"/><line style="stroke: #A80036; stroke-width: 1.5;" x1="140.5" x2="140.5" y1="127.9688" y2="147.9688"/><polygon fill="#A80036" points="136.5,137.9688,140.5,147.9688,144.5,137.9688,140.5,141.9688" style="stroke: #A80036; stroke-width: 1.0;"/><line style="stroke: #A80036; stroke-width: 1.5;" x1="140.5" x2="140.5" y1="215.9688" y2="235.9688"/><polygon fill="#A80036" points="136.5,225.9688,140.5,235.9688,144.5,225.9688,140.5,229.9688" style="stroke: #A80036; stroke-width: 1.0;"/><line style="stroke: #A80036; stroke-width: 1.5;" x1="261" x2="291" y1="203.9688" y2="203.9688"/><polygon fill="#A80036" points="281,199.9688,291,203.9688,281,207.9688,285,203.9688" style="stroke: #A80036; stroke-width: 1.0;"/><line style="stroke: #A80036; stroke-width: 1.5;" x1="140.5" x2="140.5" y1="269.9375" y2="289.9375"/><polygon fill="#A80036" points="136.5,279.9375,140.5,289.9375,144.5,279.9375,140.5,283.9375" style="stroke: #A80036; stroke-width: 1.0;"/><line style="stroke: #A80036; stroke-width: 1.5;" x1="140.5" x2="140.5" y1="367.9063" y2="387.9063"/><polygon fill="#A80036" points="136.5,377.9063,140.5,387.9063,144.5,377.9063,140.5,381.9063" style="stroke: #A80036; stroke-width: 1.0;"/><line style="stroke: #A80036; stroke-width: 1.5;" x1="193" x2="223" y1="355.9063" y2="355.9063"/><polygon fill="#A80036" points="213,351.9063,223,355.9063,213,359.9063,217,355.9063" style="stroke: #A80036; stroke-width: 1.0;"/><line style="stroke: #A80036; stroke-width: 1.5;" x1="140.5" x2="140.5" y1="323.9063" y2="343.9063"/><polygon fill="#A80036" points="136.5,333.9063,140.5,343.9063,144.5,333.9063,140.5,337.9063" style="stroke: #A80036; stroke-width: 1.0;"/><line style="stroke: #A80036; stroke-width: 1.5;" x1="140.5" x2="140.5" y1="435.8438" y2="455.8438"/><polygon fill="#A80036" points="136.5,445.8438,140.5,455.8438,144.5,445.8438,140.5,449.8438" style="stroke: #A80036; stroke-width: 1.0;"/><line style="stroke: #A80036; stroke-width: 1.5;" x1="140.5" x2="140.5" y1="503.7813" y2="523.7813"/><polygon fill="#A80036" points="136.5,513.7813,140.5,523.7813,144.5,513.7813,140.5,517.7813" style="stroke: #A80036; stroke-width: 1.0;"/><line style="stroke: #A80036; stroke-width: 1.5;" x1="140.5" x2="140.5" y1="557.75" y2="577.75"/><polygon fill="#A80036" points="136.5,567.75,140.5,577.75,144.5,567.75,140.5,571.75" style="stroke: #A80036; stroke-width: 1.0;"/><!--
@startuml
start
if (current user is not authenticated) then (yes)
  stop
endif
:extract project ID from request;
if (requested project does not exists) then (yes)
  stop
endif
if (current user is not member of project) then (yes)
  stop
endif
:send form to current user;
:receive form from current user;
if (form is invalid) then (yes)
  stop
endif
:extract project name and
description from request's form;
:update project name and
description in database;
:redirect to project's info page;
stop
@enduml

PlantUML version 1.2018.13(Mon Nov 26 17:11:51 UTC 2018)
(GPL source distribution)
Java Runtime: OpenJDK Runtime Environment
JVM: OpenJDK 64-Bit Server VM
Java Version: 11.0.10+9
Operating System: Linux
OS Version: 5.4.0-1039-azure
Default Encoding: UTF-8
Language: en
Country: null
--></g></svg>