<?xml version="1.0" encoding="UTF-8" standalone="no"?><svg xmlns="http://www.w3.org/2000/svg" xmlns:xlink="http://www.w3.org/1999/xlink" contentScriptType="application/ecmascript" contentStyleType="text/css" height="679px" preserveAspectRatio="none" style="width:547px;height:679px;" version="1.1" viewBox="0 0 547 679" width="547px" zoomAndPan="magnify"><defs><filter height="300%" id="fpy5b3aqofuu3" width="300%" x="-1" y="-1"><feGaussianBlur result="blurOut" stdDeviation="2.0"/><feColorMatrix in="blurOut" result="blurOut2" type="matrix" values="0 0 0 0 0 0 0 0 0 0 0 0 0 0 0 0 0 0 .4 0"/><feOffset dx="4.0" dy="4.0" in="blurOut2" result="blurOut3"/><feBlend in="SourceGraphic" in2="blurOut3" mode="normal"/></filter></defs><g><!--cluster Project--><rect fill="#FFFFFF" filter="url(#fpy5b3aqofuu3)" height="157" style="stroke: #000000; stroke-width: 1.5;" width="201" x="321" y="24"/><text fill="#000000" font-family="sans-serif" font-size="14" font-weight="bold" lengthAdjust="spacingAndGlyphs" textLength="56" x="393.5" y="38.9951">Project</text><!--cluster Task--><rect fill="#FFFFFF" filter="url(#fpy5b3aqofuu3)" height="277" style="stroke: #000000; stroke-width: 1.5;" width="167" x="338" y="205"/><text fill="#000000" font-family="sans-serif" font-size="14" font-weight="bold" lengthAdjust="spacingAndGlyphs" textLength="37" x="403" y="219.9951">Task</text><!--cluster Discussion--><rect fill="#FFFFFF" filter="url(#fpy5b3aqofuu3)" height="162" style="stroke: #000000; stroke-width: 1.5;" width="229" x="307" y="506"/><text fill="#000000" font-family="sans-serif" font-size="14" font-weight="bold" lengthAdjust="spacingAndGlyphs" textLength="85" x="379" y="520.9951">Discussion</text><ellipse cx="421.7254" cy="75.2451" fill="#FEFECE" filter="url(#fpy5b3aqofuu3)" rx="66.7254" ry="15.7451" style="stroke: #A80036; stroke-width: 1.5;"/><text fill="#000000" font-family="sans-serif" font-size="14" lengthAdjust="spacingAndGlyphs" textLength="98" x="372.7254" y="79.8935">Create project</text><ellipse cx="421.4259" cy="144.7852" fill="#FEFECE" filter="url(#fpy5b3aqofuu3)" rx="84.4259" ry="19.2852" style="stroke: #A80036; stroke-width: 1.5;"/><text fill="#000000" font-family="sans-serif" font-size="14" lengthAdjust="spacingAndGlyphs" textLength="141" x="350.9259" y="149.4336">Add project member</text><ellipse cx="421.3614" cy="255.0236" fill="#FEFECE" filter="url(#fpy5b3aqofuu3)" rx="58.8614" ry="14.5236" style="stroke: #A80036; stroke-width: 1.5;"/><text fill="#000000" font-family="sans-serif" font-size="14" lengthAdjust="spacingAndGlyphs" textLength="79" x="381.8614" y="259.6721">Create task</text><ellipse cx="421.3614" cy="319.0236" fill="#FEFECE" filter="url(#fpy5b3aqofuu3)" rx="58.8614" ry="14.5236" style="stroke: #A80036; stroke-width: 1.5;"/><text fill="#000000" font-family="sans-serif" font-size="14" lengthAdjust="spacingAndGlyphs" textLength="79" x="381.8614" y="323.6721">Assign task</text><ellipse cx="421.4975" cy="384.8995" fill="#FEFECE" filter="url(#fpy5b3aqofuu3)" rx="67.4975" ry="15.8995" style="stroke: #A80036; stroke-width: 1.5;"/><text fill="#000000" font-family="sans-serif" font-size="14" lengthAdjust="spacingAndGlyphs" textLength="100" x="371.4975" y="389.5479">Complete task</text><ellipse cx="421.4619" cy="451.0236" fill="#FEFECE" filter="url(#fpy5b3aqofuu3)" rx="48.9619" ry="14.5236" style="stroke: #A80036; stroke-width: 1.5;"/><text fill="#000000" font-family="sans-serif" font-size="14" lengthAdjust="spacingAndGlyphs" textLength="65" x="388.9619" y="455.6721">View task</text><ellipse cx="421.6147" cy="563.1229" fill="#FEFECE" filter="url(#fpy5b3aqofuu3)" rx="98.6147" ry="22.1229" style="stroke: #A80036; stroke-width: 1.5;"/><text fill="#000000" font-family="sans-serif" font-size="14" lengthAdjust="spacingAndGlyphs" textLength="173" x="335.1147" y="567.7714">Create discussion thread</text><ellipse cx="421.3417" cy="636.1683" fill="#FEFECE" filter="url(#fpy5b3aqofuu3)" rx="66.3417" ry="15.6683" style="stroke: #A80036; stroke-width: 1.5;"/><text fill="#000000" font-family="sans-serif" font-size="14" lengthAdjust="spacingAndGlyphs" textLength="97" x="372.8417" y="640.8168">Add comment</text><!--entity parti--><ellipse cx="201" cy="320.5" fill="#FEFECE" filter="url(#fpy5b3aqofuu3)" rx="8" ry="8" style="stroke: #A80036; stroke-width: 2.0;"/><path d="M201,328.5 L201,355.5 M188,336.5 L214,336.5 M201,355.5 L188,370.5 M201,355.5 L214,370.5 " fill="none" filter="url(#fpy5b3aqofuu3)" style="stroke: #A80036; stroke-width: 2.0;"/><text fill="#000000" font-family="sans-serif" font-size="14" lengthAdjust="spacingAndGlyphs" textLength="124" x="139" y="390.4951">Project Participant</text><!--entity Student--><ellipse cx="42.5" cy="261.5" fill="#FEFECE" filter="url(#fpy5b3aqofuu3)" rx="8" ry="8" style="stroke: #A80036; stroke-width: 2.0;"/><path d="M42.5,269.5 L42.5,296.5 M29.5,277.5 L55.5,277.5 M42.5,296.5 L29.5,311.5 M42.5,296.5 L55.5,311.5 " fill="none" filter="url(#fpy5b3aqofuu3)" style="stroke: #A80036; stroke-width: 2.0;"/><text fill="#000000" font-family="sans-serif" font-size="14" lengthAdjust="spacingAndGlyphs" textLength="55" x="15" y="331.4951">Student</text><!--entity Supervisor--><ellipse cx="42.5" cy="379.5" fill="#FEFECE" filter="url(#fpy5b3aqofuu3)" rx="8" ry="8" style="stroke: #A80036; stroke-width: 2.0;"/><path d="M42.5,387.5 L42.5,414.5 M29.5,395.5 L55.5,395.5 M42.5,414.5 L29.5,429.5 M42.5,414.5 L55.5,429.5 " fill="none" filter="url(#fpy5b3aqofuu3)" style="stroke: #A80036; stroke-width: 2.0;"/><text fill="#000000" font-family="sans-serif" font-size="14" lengthAdjust="spacingAndGlyphs" textLength="73" x="6" y="449.4951">Supervisor</text><!--link parti to CreateP--><path d="M207.11,310.13 C216.01,255.64 239.49,161.13 299,108 C314.18,94.45 334.39,86.39 353.97,81.62 " fill="none" id="parti-CreateP" style="stroke: #A80036; stroke-width: 1.0;"/><polygon fill="#A80036" points="358.92,80.47,349.2494,78.6045,354.049,81.5985,351.055,86.398,358.92,80.47" style="stroke: #A80036; stroke-width: 1.0;"/><!--link parti to CreateT--><path d="M257.34,310.35 C270.52,301.75 284.87,293.38 299,287 C321,277.07 346.67,269.75 368.74,264.63 " fill="none" id="parti-CreateT" style="stroke: #A80036; stroke-width: 1.0;"/><polygon fill="#A80036" points="373.68,263.51,364.02,261.5906,368.8028,264.6113,365.7821,269.3941,373.68,263.51" style="stroke: #A80036; stroke-width: 1.0;"/><!--link parti to AddMember--><path d="M228.06,310.43 C245.98,283.83 271.44,249.64 299,224 C324.06,200.68 356.79,179.84 381.97,165.43 " fill="none" id="parti-AddMember" style="stroke: #A80036; stroke-width: 1.0;"/><polygon fill="#A80036" points="386.58,162.81,376.7771,163.7605,382.2283,165.2722,380.7166,170.7233,386.58,162.81" style="stroke: #A80036; stroke-width: 1.0;"/><!--link parti to AssignT--><path d="M263.15,342.76 C295.26,337.92 334.29,332.02 365.44,327.32 " fill="none" id="parti-AssignT" style="stroke: #A80036; stroke-width: 1.0;"/><polygon fill="#A80036" points="370.76,326.51,361.2655,323.892,365.8155,327.2531,362.4544,331.8032,370.76,326.51" style="stroke: #A80036; stroke-width: 1.0;"/><!--link parti to Complete--><path d="M263.15,361.24 C293.11,365.76 329.09,371.19 359.08,375.72 " fill="none" id="parti-Complete" style="stroke: #A80036; stroke-width: 1.0;"/><polygon fill="#A80036" points="364.23,376.5,355.9244,371.2068,359.2855,375.7569,354.7355,379.118,364.23,376.5" style="stroke: #A80036; stroke-width: 1.0;"/><!--link parti to Thread--><path d="M227.64,393.54 C245.57,420.6 271.21,455.65 299,482 C322.9,504.66 353.83,525.18 378.5,539.9 " fill="none" id="parti-Thread" style="stroke: #A80036; stroke-width: 1.0;"/><polygon fill="#A80036" points="383.04,542.58,377.3293,534.5558,378.7362,540.0349,373.2571,541.4419,383.04,542.58" style="stroke: #A80036; stroke-width: 1.0;"/><!--link parti to Comment--><path d="M206.72,393.85 C215.22,449.43 238.31,546.95 299,602 C314.25,615.84 334.7,624.1 354.45,629.01 " fill="none" id="parti-Comment" style="stroke: #A80036; stroke-width: 1.0;"/><polygon fill="#A80036" points="359.46,630.19,351.6115,624.2401,354.5922,629.048,349.7843,632.0286,359.46,630.19" style="stroke: #A80036; stroke-width: 1.0;"/><!--link parti to View--><path d="M256.28,393.55 C269.74,402.52 284.47,411.32 299,418 C322.91,429.01 351.22,436.96 374.49,442.3 " fill="none" id="parti-View" style="stroke: #A80036; stroke-width: 1.0;"/><polygon fill="#A80036" points="379.37,443.4,371.4684,437.5209,374.4921,442.3018,369.7112,445.3255,379.37,443.4" style="stroke: #A80036; stroke-width: 1.0;"/><!--link Student to parti--><path d="M70.05,303.01 C84.03,308.28 101.99,315.05 120.08,321.87 " fill="none" id="Student-parti" style="stroke: #A80036; stroke-width: 1.0;"/><polygon fill="none" points="122.56,315.33,138.81,328.93,117.62,328.42,122.56,315.33" style="stroke: #A80036; stroke-width: 1.0;"/><!--link Supervisor to parti--><path d="M79.01,397.61 C91.3,392.98 105.62,387.58 120.02,382.15 " fill="none" id="Supervisor-parti" style="stroke: #A80036; stroke-width: 1.0;"/><polygon fill="none" points="117.64,375.57,138.83,375.06,122.58,388.67,117.64,375.57" style="stroke: #A80036; stroke-width: 1.0;"/><!--
@startuml
skinparam packageStyle rectangle
left to right direction
actor "Project Participant" as parti

rectangle Project {
   usecase "Create project" as CreateP
   usecase "Add project member" as AddMember
}

rectangle Task {
   usecase "Create task" as CreateT
   usecase "Assign task" as AssignT
   usecase "Complete task" as Complete
   usecase "View task" as View
}

rectangle Discussion {
   usecase "Create discussion thread" as Thread
   usecase "Add comment" as Comment
}

parti - -> CreateP
parti - -> CreateT
parti - -> AddMember
parti - -> AssignT
parti - -> Complete
parti - -> Thread
parti - -> Comment
parti - -> View

Student - -|> parti
Supervisor - -|> parti

@enduml

PlantUML version 1.2018.13(Mon Nov 26 17:11:51 UTC 2018)
(GPL source distribution)
Java Runtime: OpenJDK Runtime Environment
JVM: OpenJDK 64-Bit Server VM
Java Version: 11.0.10+9
Operating System: Linux
OS Version: 5.4.0-1036-azure
Default Encoding: UTF-8
Language: en
Country: null
--></g></svg>