<?xml version="1.0" encoding="UTF-8" standalone="no"?><svg xmlns="http://www.w3.org/2000/svg" xmlns:xlink="http://www.w3.org/1999/xlink" contentScriptType="application/ecmascript" contentStyleType="text/css" height="488px" preserveAspectRatio="none" style="width:592px;height:488px;" version="1.1" viewBox="0 0 592 488" width="592px" zoomAndPan="magnify"><defs><filter height="300%" id="f1n1lc8fvy4n3m" width="300%" x="-1" y="-1"><feGaussianBlur result="blurOut" stdDeviation="2.0"/><feColorMatrix in="blurOut" result="blurOut2" type="matrix" values="0 0 0 0 0 0 0 0 0 0 0 0 0 0 0 0 0 0 .4 0"/><feOffset dx="4.0" dy="4.0" in="blurOut2" result="blurOut3"/><feBlend in="SourceGraphic" in2="blurOut3" mode="normal"/></filter></defs><g><!--cluster Search--><rect fill="#FFFFFF" filter="url(#f1n1lc8fvy4n3m)" height="220" style="stroke: #000000; stroke-width: 1.5;" width="172" x="409" y="24"/><text fill="#000000" font-family="sans-serif" font-size="14" font-weight="bold" lengthAdjust="spacingAndGlyphs" textLength="55" x="467.5" y="38.9951">Search</text><!--cluster Authentication--><rect fill="#FFFFFF" filter="url(#f1n1lc8fvy4n3m)" height="209" style="stroke: #000000; stroke-width: 1.5;" width="131" x="430" y="268"/><text fill="#000000" font-family="sans-serif" font-size="14" font-weight="bold" lengthAdjust="spacingAndGlyphs" textLength="115" x="438" y="282.9951">Authentication</text><ellipse cx="494.85" cy="75.87" fill="#FEFECE" filter="url(#f1n1lc8fvy4n3m)" rx="69.85" ry="16.37" style="stroke: #A80036; stroke-width: 1.5;"/><text fill="#000000" font-family="sans-serif" font-size="14" lengthAdjust="spacingAndGlyphs" textLength="106" x="441.85" y="80.5184">Search student</text><ellipse cx="494.9543" cy="143.7909" fill="#FEFECE" filter="url(#f1n1lc8fvy4n3m)" rx="69.4543" ry="16.2909" style="stroke: #A80036; stroke-width: 1.5;"/><text fill="#000000" font-family="sans-serif" font-size="14" lengthAdjust="spacingAndGlyphs" textLength="105" x="442.4543" y="148.4393">Search lecturer</text><ellipse cx="494.9975" cy="211.8995" fill="#FEFECE" filter="url(#f1n1lc8fvy4n3m)" rx="67.4975" ry="15.8995" style="stroke: #A80036; stroke-width: 1.5;"/><text fill="#000000" font-family="sans-serif" font-size="14" lengthAdjust="spacingAndGlyphs" textLength="100" x="444.9975" y="216.5479">Search project</text><ellipse cx="495.0122" cy="318.0236" fill="#FEFECE" filter="url(#f1n1lc8fvy4n3m)" rx="44.0122" ry="14.5236" style="stroke: #A80036; stroke-width: 1.5;"/><text fill="#000000" font-family="sans-serif" font-size="14" lengthAdjust="spacingAndGlyphs" textLength="58" x="466.0122" y="322.6721">Register</text><ellipse cx="495.163" cy="382.0236" fill="#FEFECE" filter="url(#f1n1lc8fvy4n3m)" rx="29.163" ry="14.5236" style="stroke: #A80036; stroke-width: 1.5;"/><text fill="#000000" font-family="sans-serif" font-size="14" lengthAdjust="spacingAndGlyphs" textLength="37" x="476.663" y="386.6721">Login</text><ellipse cx="494.9411" cy="446.0236" fill="#FEFECE" filter="url(#f1n1lc8fvy4n3m)" rx="36.9411" ry="14.5236" style="stroke: #A80036; stroke-width: 1.5;"/><text fill="#000000" font-family="sans-serif" font-size="14" lengthAdjust="spacingAndGlyphs" textLength="48" x="470.9411" y="450.6721">Logout</text><!--entity User--><ellipse cx="349" cy="233.5" fill="#FEFECE" filter="url(#f1n1lc8fvy4n3m)" rx="8" ry="8" style="stroke: #A80036; stroke-width: 2.0;"/><path d="M349,241.5 L349,268.5 M336,249.5 L362,249.5 M349,268.5 L336,283.5 M349,268.5 L362,283.5 " fill="none" filter="url(#f1n1lc8fvy4n3m)" style="stroke: #A80036; stroke-width: 2.0;"/><text fill="#000000" font-family="sans-serif" font-size="14" lengthAdjust="spacingAndGlyphs" textLength="32" x="333" y="303.4951">User</text><!--entity parti--><ellipse cx="206" cy="174.5" fill="#FEFECE" filter="url(#f1n1lc8fvy4n3m)" rx="8" ry="8" style="stroke: #A80036; stroke-width: 2.0;"/><path d="M206,182.5 L206,209.5 M193,190.5 L219,190.5 M206,209.5 L193,224.5 M206,209.5 L219,224.5 " fill="none" filter="url(#f1n1lc8fvy4n3m)" style="stroke: #A80036; stroke-width: 2.0;"/><text fill="#000000" font-family="sans-serif" font-size="14" lengthAdjust="spacingAndGlyphs" textLength="124" x="144" y="244.4951">Project Participant</text><!--entity Student--><ellipse cx="42.5" cy="115.5" fill="#FEFECE" filter="url(#f1n1lc8fvy4n3m)" rx="8" ry="8" style="stroke: #A80036; stroke-width: 2.0;"/><path d="M42.5,123.5 L42.5,150.5 M29.5,131.5 L55.5,131.5 M42.5,150.5 L29.5,165.5 M42.5,150.5 L55.5,165.5 " fill="none" filter="url(#f1n1lc8fvy4n3m)" style="stroke: #A80036; stroke-width: 2.0;"/><text fill="#000000" font-family="sans-serif" font-size="14" lengthAdjust="spacingAndGlyphs" textLength="55" x="15" y="185.4951">Student</text><!--entity assist--><ellipse cx="206" cy="292.5" fill="#FEFECE" filter="url(#f1n1lc8fvy4n3m)" rx="8" ry="8" style="stroke: #A80036; stroke-width: 2.0;"/><path d="M206,300.5 L206,327.5 M193,308.5 L219,308.5 M206,327.5 L193,342.5 M206,327.5 L219,342.5 " fill="none" filter="url(#f1n1lc8fvy4n3m)" style="stroke: #A80036; stroke-width: 2.0;"/><text fill="#000000" font-family="sans-serif" font-size="14" lengthAdjust="spacingAndGlyphs" textLength="134" x="139" y="362.4951">Academic Assistant</text><!--entity Supervisor--><ellipse cx="42.5" cy="233.5" fill="#FEFECE" filter="url(#f1n1lc8fvy4n3m)" rx="8" ry="8" style="stroke: #A80036; stroke-width: 2.0;"/><path d="M42.5,241.5 L42.5,268.5 M29.5,249.5 L55.5,249.5 M42.5,268.5 L29.5,283.5 M42.5,268.5 L55.5,283.5 " fill="none" filter="url(#f1n1lc8fvy4n3m)" style="stroke: #A80036; stroke-width: 2.0;"/><text fill="#000000" font-family="sans-serif" font-size="14" lengthAdjust="spacingAndGlyphs" textLength="73" x="6" y="303.4951">Supervisor</text><!--link Student to parti--><path d="M70.17,156.74 C85.31,162.27 105.14,169.52 124.92,176.75 " fill="none" id="Student-parti" style="stroke: #A80036; stroke-width: 1.0;"/><polygon fill="none" points="127.33,170.17,143.72,183.61,122.53,183.32,127.33,170.17" style="stroke: #A80036; stroke-width: 1.0;"/><!--link Supervisor to parti--><path d="M79.34,251.91 C92.89,246.96 108.92,241.1 124.91,235.26 " fill="none" id="Supervisor-parti" style="stroke: #A80036; stroke-width: 1.0;"/><polygon fill="none" points="122.68,228.62,143.87,228.33,127.49,241.77,122.68,228.62" style="stroke: #A80036; stroke-width: 1.0;"/><!--link parti to User--><path d="M268.02,231.54 C283.84,238.15 300.3,245.04 314.15,250.84 " fill="none" id="parti-User" style="stroke: #A80036; stroke-width: 1.0;"/><polygon fill="none" points="317,244.44,332.74,258.62,311.59,257.35,317,244.44" style="stroke: #A80036; stroke-width: 1.0;"/><!--link assist to User--><path d="M273.37,296.23 C287.47,290.33 301.8,284.33 314.07,279.2 " fill="none" id="assist-User" style="stroke: #A80036; stroke-width: 1.0;"/><polygon fill="none" points="311.78,272.57,332.94,271.3,317.19,285.48,311.78,272.57" style="stroke: #A80036; stroke-width: 1.0;"/><!--link User to SearchS--><path d="M353.74,223.33 C358.93,188.82 371.35,140.64 401,110 C410.48,100.21 423,93.22 435.78,88.24 " fill="none" id="User-SearchS" style="stroke: #A80036; stroke-width: 1.0;"/><polygon fill="#A80036" points="440.49,86.49,430.6601,85.8785,435.8037,88.2331,433.4491,93.3766,440.49,86.49" style="stroke: #A80036; stroke-width: 1.0;"/><!--link User to SearchL--><path d="M365.09,227.08 C373.48,210.1 385.41,191.01 401,178 C411.93,168.88 425.52,162.1 438.91,157.1 " fill="none" id="User-SearchL" style="stroke: #A80036; stroke-width: 1.0;"/><polygon fill="#A80036" points="443.83,155.34,434.008,154.6133,439.1236,157.028,436.7088,162.1436,443.83,155.34" style="stroke: #A80036; stroke-width: 1.0;"/><!--link User to SearchP--><path d="M365.14,259.43 C385.68,251.87 423.19,238.06 452.46,227.29 " fill="none" id="User-SearchP" style="stroke: #A80036; stroke-width: 1.0;"/><polygon fill="#A80036" points="457.46,225.45,447.6325,224.8024,452.7673,227.1759,450.3939,232.3107,457.46,225.45" style="stroke: #A80036; stroke-width: 1.0;"/><!--link User to Register--><path d="M365.14,270.57 C387.55,278.82 430.15,294.5 460.22,305.57 " fill="none" id="User-Register" style="stroke: #A80036; stroke-width: 1.0;"/><polygon fill="#A80036" points="464.93,307.3,457.8639,300.4393,460.2373,305.5741,455.1025,307.9476,464.93,307.3" style="stroke: #A80036; stroke-width: 1.0;"/><!--link User to Login--><path d="M365.16,302.18 C373.56,318.8 385.49,337.43 401,350 C418.46,364.15 442.55,372.21 461.84,376.7 " fill="none" id="User-Login" style="stroke: #A80036; stroke-width: 1.0;"/><polygon fill="#A80036" points="467.14,377.87,459.222,372.0129,462.2591,376.7853,457.4866,379.8224,467.14,377.87" style="stroke: #A80036; stroke-width: 1.0;"/><!--link User to Logout--><path d="M354.25,306.56 C359.75,339.73 372.31,385.27 401,414 C415.23,428.25 436.08,436.16 454.43,440.55 " fill="none" id="User-Logout" style="stroke: #A80036; stroke-width: 1.0;"/><polygon fill="#A80036" points="459.54,441.7,451.6384,435.8209,454.6621,440.6018,449.8812,443.6255,459.54,441.7" style="stroke: #A80036; stroke-width: 1.0;"/><!--
@startuml
skinparam packageStyle rectangle
left to right direction
actor User
actor "Project Participant" as parti
actor Student
actor "Academic Assistant" as assist
actor Supervisor

rectangle Search {
   usecase "Search student" as SearchS
   usecase "Search lecturer" as SearchL
   usecase "Search project" as SearchP
}

rectangle Authentication {
   usecase Register
   usecase Login
   usecase Logout
}

Student - -|> parti
Supervisor - -|> parti
parti - -|> User
assist - -|> User

User - -> SearchS
User - -> SearchL
User - -> SearchP
User - -> Register
User - -> Login
User - -> Logout

@enduml

PlantUML version 1.2018.13(Mon Nov 26 17:11:51 UTC 2018)
(GPL source distribution)
Java Runtime: OpenJDK Runtime Environment
JVM: OpenJDK 64-Bit Server VM
Java Version: 11.0.9.1+1
Operating System: Linux
OS Version: 5.4.0-1036-azure
Default Encoding: UTF-8
Language: en
Country: null
--></g></svg>