<?xml version="1.0" encoding="UTF-8" standalone="no"?><svg xmlns="http://www.w3.org/2000/svg" xmlns:xlink="http://www.w3.org/1999/xlink" contentScriptType="application/ecmascript" contentStyleType="text/css" height="787px" preserveAspectRatio="none" style="width:929px;height:787px;" version="1.1" viewBox="0 0 929 787" width="929px" zoomAndPan="magnify"><defs><filter height="300%" id="f1a3y060ss661m" width="300%" x="-1" y="-1"><feGaussianBlur result="blurOut" stdDeviation="2.0"/><feColorMatrix in="blurOut" result="blurOut2" type="matrix" values="0 0 0 0 0 0 0 0 0 0 0 0 0 0 0 0 0 0 .4 0"/><feOffset dx="4.0" dy="4.0" in="blurOut2" result="blurOut3"/><feBlend in="SourceGraphic" in2="blurOut3" mode="normal"/></filter></defs><g><!--cluster Client--><polygon fill="#FFFFFF" filter="url(#f1a3y060ss661m)" points="14,26,24,16,135,16,135,92,125,102,14,102,14,26" style="stroke: #000000; stroke-width: 2.0;"/><line style="stroke: #000000; stroke-width: 2.0;" x1="125" x2="134" y1="26" y2="17"/><line style="stroke: #000000; stroke-width: 2.0;" x1="14" x2="125" y1="26" y2="26"/><line style="stroke: #000000; stroke-width: 2.0;" x1="125" x2="125" y1="26" y2="102"/><text fill="#000000" font-family="sans-serif" font-size="14" font-weight="bold" lengthAdjust="spacingAndGlyphs" textLength="45" x="48" y="41.9951">Client</text><!--cluster balancer--><polygon fill="#FFFFFF" filter="url(#f1a3y060ss661m)" points="66,221,76,211,587,211,587,294,577,304,66,304,66,221" style="stroke: #000000; stroke-width: 2.0;"/><line style="stroke: #000000; stroke-width: 2.0;" x1="577" x2="586" y1="221" y2="212"/><line style="stroke: #000000; stroke-width: 2.0;" x1="66" x2="577" y1="221" y2="221"/><line style="stroke: #000000; stroke-width: 2.0;" x1="577" x2="577" y1="221" y2="304"/><text fill="#000000" font-family="sans-serif" font-size="14" font-weight="bold" lengthAdjust="spacingAndGlyphs" textLength="176" x="234.5" y="236.9951">Load Balancing Server</text><!--cluster Server--><polygon fill="#FFFFFF" filter="url(#f1a3y060ss661m)" points="166,407,176,397,907,397,907,649,897,659,166,659,166,407" style="stroke: #000000; stroke-width: 2.0;"/><line style="stroke: #000000; stroke-width: 2.0;" x1="897" x2="906" y1="407" y2="398"/><line style="stroke: #000000; stroke-width: 2.0;" x1="166" x2="897" y1="407" y2="407"/><line style="stroke: #000000; stroke-width: 2.0;" x1="897" x2="897" y1="407" y2="659"/><text fill="#000000" font-family="sans-serif" font-size="14" font-weight="bold" lengthAdjust="spacingAndGlyphs" textLength="53" x="506" y="422.9951">Server</text><!--cluster db_server--><polygon fill="#FFFFFF" filter="url(#f1a3y060ss661m)" points="32,700,42,690,262,690,262,765,252,775,32,775,32,700" style="stroke: #000000; stroke-width: 2.0;"/><line style="stroke: #000000; stroke-width: 2.0;" x1="252" x2="261" y1="700" y2="691"/><line style="stroke: #000000; stroke-width: 2.0;" x1="32" x2="252" y1="700" y2="700"/><line style="stroke: #000000; stroke-width: 2.0;" x1="252" x2="252" y1="700" y2="775"/><text fill="#000000" font-family="sans-serif" font-size="14" font-weight="bold" lengthAdjust="spacingAndGlyphs" textLength="131" x="77.5" y="715.9951">Database Server</text><!--entity Browser--><polygon fill="#FEFECE" filter="url(#f1a3y060ss661m)" points="25.5,58,35.5,48,122.5,48,122.5,84.2969,112.5,94.2969,25.5,94.2969,25.5,58" style="stroke: #000000; stroke-width: 1.5;"/><line style="stroke: #000000; stroke-width: 1.5;" x1="112.5" x2="121.5" y1="58" y2="49"/><line style="stroke: #000000; stroke-width: 1.5;" x1="25.5" x2="112.5" y1="58" y2="58"/><line style="stroke: #000000; stroke-width: 1.5;" x1="112.5" x2="112.5" y1="58" y2="94.2969"/><text fill="#000000" font-family="sans-serif" font-size="14" lengthAdjust="spacingAndGlyphs" textLength="57" x="40.5" y="80.9951">Browser</text><!--entity nginx--><rect fill="#FEFECE" filter="url(#f1a3y060ss661m)" height="52.5938" style="stroke: #A80036; stroke-width: 1.5;" width="130" x="109" y="243"/><rect fill="#FEFECE" height="5" style="stroke: #A80036; stroke-width: 1.5;" width="10" x="104" y="248"/><rect fill="#FEFECE" height="5" style="stroke: #A80036; stroke-width: 1.5;" width="10" x="104" y="285.5938"/><text fill="#000000" font-family="sans-serif" font-size="14" font-style="italic" lengthAdjust="spacingAndGlyphs" textLength="110" x="119" y="265.9951">«load balancer»</text><text fill="#000000" font-family="sans-serif" font-size="14" lengthAdjust="spacingAndGlyphs" textLength="43" x="152.5" y="282.292">NGINX</text><!--entity nginx_conf--><rect fill="#FEFECE" filter="url(#f1a3y060ss661m)" height="39.2969" style="stroke: #000000; stroke-width: 1.5;" width="244" x="335" y="250"/><polygon fill="#FEFECE" points="562,255,562,269,574,269,574,261,568,255,562,255" style="stroke: #000000; stroke-width: 1.5;"/><line style="stroke: #000000; stroke-width: 1.5;" x1="568" x2="568" y1="255" y2="261"/><line style="stroke: #000000; stroke-width: 1.5;" x1="574" x2="568" y1="261" y2="261"/><text fill="#000000" font-family="sans-serif" font-size="14" lengthAdjust="spacingAndGlyphs" textLength="214" x="345" y="275.9951">/etc/nginx/sites-available/gpms</text><!--entity systemd_conf--><rect fill="#FEFECE" filter="url(#f1a3y060ss661m)" height="39.2969" style="stroke: #000000; stroke-width: 1.5;" width="273" x="625.5" y="441"/><polygon fill="#FEFECE" points="881.5,446,881.5,460,893.5,460,893.5,452,887.5,446,881.5,446" style="stroke: #000000; stroke-width: 1.5;"/><line style="stroke: #000000; stroke-width: 1.5;" x1="887.5" x2="887.5" y1="446" y2="452"/><line style="stroke: #000000; stroke-width: 1.5;" x1="893.5" x2="887.5" y1="452" y2="452"/><text fill="#000000" font-family="sans-serif" font-size="14" lengthAdjust="spacingAndGlyphs" textLength="243" x="635.5" y="466.9951">/etc/systemd/system/gpms.service</text><!--entity gpms--><rect fill="#FEFECE" filter="url(#f1a3y060ss661m)" height="36.2969" style="stroke: #A80036; stroke-width: 1.5;" width="61" x="223.5" y="615"/><rect fill="#FEFECE" height="5" style="stroke: #A80036; stroke-width: 1.5;" width="10" x="218.5" y="620"/><rect fill="#FEFECE" height="5" style="stroke: #A80036; stroke-width: 1.5;" width="10" x="218.5" y="641.2969"/><text fill="#000000" font-family="sans-serif" font-size="14" lengthAdjust="spacingAndGlyphs" textLength="41" x="233.5" y="637.9951">GPMS</text><!--entity hypercorn--><rect fill="#FEFECE" filter="url(#f1a3y060ss661m)" height="36.2969" style="stroke: #A80036; stroke-width: 1.5;" width="90" x="209" y="442.5"/><rect fill="#FEFECE" height="5" style="stroke: #A80036; stroke-width: 1.5;" width="10" x="204" y="447.5"/><rect fill="#FEFECE" height="5" style="stroke: #A80036; stroke-width: 1.5;" width="10" x="204" y="468.7969"/><text fill="#000000" font-family="sans-serif" font-size="14" lengthAdjust="spacingAndGlyphs" textLength="70" x="219" y="465.4951">hypercorn</text><!--entity systemd--><polygon fill="#FEFECE" filter="url(#f1a3y060ss661m)" points="414.5,439,424.5,429,529.5,429,529.5,481.5938,519.5,491.5938,414.5,491.5938,414.5,439" style="stroke: #000000; stroke-width: 1.5;"/><line style="stroke: #000000; stroke-width: 1.5;" x1="519.5" x2="528.5" y1="439" y2="430"/><line style="stroke: #000000; stroke-width: 1.5;" x1="414.5" x2="519.5" y1="439" y2="439"/><line style="stroke: #000000; stroke-width: 1.5;" x1="519.5" x2="519.5" y1="439" y2="491.5938"/><text fill="#000000" font-family="sans-serif" font-size="14" font-style="italic" lengthAdjust="spacingAndGlyphs" textLength="75" x="429.5" y="461.9951">«daemon»</text><text fill="#000000" font-family="sans-serif" font-size="14" lengthAdjust="spacingAndGlyphs" textLength="59" x="437.5" y="478.292">systemd</text><!--entity db--><path d="M125,732 C125,722 172,722 172,722 C172,722 219,722 219,732 L219,757.2969 C219,767.2969 172,767.2969 172,767.2969 C172,767.2969 125,767.2969 125,757.2969 L125,732 " fill="#FEFECE" filter="url(#f1a3y060ss661m)" style="stroke: #000000; stroke-width: 1.5;"/><path d="M125,732 C125,742 172,742 172,742 C172,742 219,742 219,732 " fill="none" style="stroke: #000000; stroke-width: 1.5;"/><text fill="#000000" font-family="sans-serif" font-size="14" lengthAdjust="spacingAndGlyphs" textLength="74" x="135" y="758.9951">RethinkDB</text><!--entity IPFS--><rect fill="#FEFECE" filter="url(#f1a3y060ss661m)" height="36.2969" style="stroke: #A80036; stroke-width: 1.5;" width="49" x="40.5" y="726.5"/><rect fill="#FEFECE" height="5" style="stroke: #A80036; stroke-width: 1.5;" width="10" x="35.5" y="731.5"/><rect fill="#FEFECE" height="5" style="stroke: #A80036; stroke-width: 1.5;" width="10" x="35.5" y="752.7969"/><text fill="#000000" font-family="sans-serif" font-size="14" lengthAdjust="spacingAndGlyphs" textLength="29" x="50.5" y="749.4951">IPFS</text><!--link Browser to balancer--><path d="M74,94.159 C74,119.1128 74,160.1045 74,196.1807 C74,200.6903 74,205.123 74,209.438 C74,209.7076 74,209.9769 74,210.2456 " fill="none" id="Browser-balancer" style="stroke: #A80036; stroke-width: 1.0;"/><text fill="#000000" font-family="sans-serif" font-size="13" lengthAdjust="spacingAndGlyphs" textLength="41" x="75" y="168.0669">HTTPS</text><!--link nginx to nginx_conf--><path d="M244.3327,269.5 C271.6923,269.5 303.8511,269.5 334.7605,269.5 " fill="none" id="nginx-nginx_conf" style="stroke: #A80036; stroke-width: 1.0; stroke-dasharray: 7.0,7.0;"/><polygon fill="#A80036" points="239.2813,269.5,248.2813,273.5,244.2813,269.5,248.2813,265.5,239.2813,269.5" style="stroke: #A80036; stroke-width: 1.0;"/><text fill="#000000" font-family="sans-serif" font-size="13" lengthAdjust="spacingAndGlyphs" textLength="59" x="257.5" y="262.5669">configure</text><!--link nginx to Server--><path d="M174,296.0577 C174,321.0685 174,359.5876 174,393.0598 C174,394.1058 174,395.1468 174,396.1824 C174,396.4413 174,396.6999 174,396.9581 " fill="none" id="nginx-Server" style="stroke: #A80036; stroke-width: 1.0;"/><text fill="#000000" font-family="sans-serif" font-size="13" lengthAdjust="spacingAndGlyphs" textLength="8" x="165.125" y="315.6337">1</text><text fill="#000000" font-family="sans-serif" font-size="13" lengthAdjust="spacingAndGlyphs" textLength="23" x="151" y="456.8465">1..*</text><!--link hypercorn to systemd--><path d="M299.1697,460.5 C332.5931,460.5 378.3796,460.5 414.429,460.5 " fill="none" id="hypercorn-systemd" style="stroke: #A80036; stroke-width: 1.0;"/><text fill="#000000" font-family="sans-serif" font-size="13" lengthAdjust="spacingAndGlyphs" textLength="79" x="317.25" y="453.5669">run instance</text><!--link systemd to systemd_conf--><path d="M534.8907,460.5 C561.5131,460.5 593.6441,460.5 625.2507,460.5 " fill="none" id="systemd-systemd_conf" style="stroke: #A80036; stroke-width: 1.0; stroke-dasharray: 7.0,7.0;"/><polygon fill="#A80036" points="529.6414,460.5,538.6414,464.5,534.6414,460.5,538.6414,456.5,529.6414,460.5" style="stroke: #A80036; stroke-width: 1.0;"/><text fill="#000000" font-family="sans-serif" font-size="13" lengthAdjust="spacingAndGlyphs" textLength="59" x="548" y="453.5669">configure</text><!--link hypercorn to gpms--><path d="M254,478.6345 C254,511.7645 254,581.7079 254,614.8496 " fill="none" id="hypercorn-gpms" style="stroke: #A80036; stroke-width: 1.0;"/><!--link gpms to db_server--><path d="M254,651.412 C254,658.9582 254,668.1934 254,677.8844 C254,680.3072 254,682.7584 254,685.2188 C254,686.449 254,687.6816 254,688.914 C254,689.2221 254,689.5302 254,689.8382 " fill="none" id="gpms-db_server" style="stroke: #A80036; stroke-width: 1.0;"/><text fill="#000000" font-family="sans-serif" font-size="13" lengthAdjust="spacingAndGlyphs" textLength="23" x="227.4781" y="671.3893">1..*</text><text fill="#000000" font-family="sans-serif" font-size="13" lengthAdjust="spacingAndGlyphs" textLength="8" x="246" y="741.1714">1</text><!--
@startuml
node Client {
   node Browser
}

node "Load Balancing Server" as balancer {
   component NGINX as nginx <<load balancer>>
   artifact "/etc/nginx/sites-available/gpms" as nginx_conf
}

node Server {
   artifact "/etc/systemd/system/gpms.service" as systemd_conf
   component GPMS as gpms
   component hypercorn
   node systemd <<daemon>>
}

node "Database Server" as db_server {
   database "RethinkDB" as db
   component IPFS
}

Browser - - - balancer: HTTPS

nginx <. nginx_conf: configure
nginx "1" - - - "1..*" Server

hypercorn - systemd: run instance
systemd <. systemd_conf: configure
hypercorn - - gpms
gpms "1..*" - - "1" db_server

@enduml

PlantUML version 1.2017.15(Mon Jul 03 16:45:34 UTC 2017)
(GPL source distribution)
Java Runtime: OpenJDK Runtime Environment
JVM: OpenJDK 64-Bit Server VM
Java Version: 1.8.0_275-b01
Operating System: Linux
OS Version: 5.4.0-1031-azure
Default Encoding: UTF-8
Language: en
Country: null
--></g></svg>